<svg width="48" height="41" viewBox="0 0 48 41" fill="none" xmlns="http://www.w3.org/2000/svg">
<path fill-rule="evenodd" clip-rule="evenodd" d="M5.27876 15.7741L6.08475 20.6881L1.53079 21.3081C1.1348 21.3601 0.838779 21.7001 0.838779 22.1001V39.7C0.838779 40.142 1.19678 40.5 1.63877 40.5H46.4385C46.8805 40.5 47.2385 40.142 47.2385 39.7V22.1001C47.2385 21.7001 46.9425 21.3601 46.5465 21.3081L44.4965 21.0281L45.6285 13.02C45.6645 12.768 45.5765 12.512 45.3925 12.334L40.0365 7.12596C39.7865 6.88396 39.4104 6.83196 39.1045 6.99396L32.5007 10.4859C32.2747 10.6059 32.1207 10.8259 32.0827 11.08L30.9228 19.1777L28.9468 18.9097C28.5508 18.8557 28.1768 19.0997 28.0688 19.4837L26.7148 24.2636L23.1849 28.4436C23.0009 28.6596 22.9469 28.9576 23.0409 29.2236L23.8689 31.5956L21.8449 33.1936L22.4009 32.2616C22.5309 32.0416 22.5489 31.7756 22.4489 31.5416L21.1129 28.3736L23.9068 25.1497C24.1628 24.8537 24.1668 24.4177 23.9188 24.1157L19.8548 19.1917C19.6768 18.9777 19.4028 18.8697 19.1288 18.9077L17.0928 19.1837L16.5328 15.7697C17.1208 15.4297 17.6248 14.8077 17.9788 13.9417C18.5808 12.4657 18.7828 10.2178 18.3828 7.78189C17.9828 5.34591 17.0748 3.2799 16.0328 2.07415C15.1648 1.07217 14.1748 0.636152 13.2628 0.784171C12.3508 0.93417 11.5508 1.66419 11.0508 2.89216C10.4488 4.36615 10.2468 6.61412 10.6468 9.052C11.0468 11.488 11.9548 13.554 12.9988 14.7597C13.6108 15.4677 14.2888 15.8937 14.9548 16.0297L15.5088 19.4017L7.67065 20.4697L6.85668 15.5137C7.44466 15.1737 7.94867 14.5537 8.30266 13.6857C8.90666 12.2097 9.10665 9.96176 8.70666 7.52589C8.30666 5.08991 7.39666 3.0239 6.35465 1.81815C5.48666 0.81617 4.49666 0.380154 3.58464 0.528172C2.67267 0.678172 1.87468 1.41019 1.37266 2.63617C0.76866 4.11015 0.568674 6.36012 0.968667 8.796C1.36866 11.2319 2.27866 13.298 3.32068 14.5037C3.93466 15.2117 4.61065 15.6398 5.27666 15.7737L5.27876 15.7741ZM41.2486 22.2002L29.4204 20.5882L28.2084 24.8682C28.1784 24.9762 28.1244 25.0802 28.0504 25.1662L24.7044 29.1282L25.5724 31.6082C25.6844 31.9302 25.5804 32.2882 25.3124 32.5002L19.4485 37.1302C19.1465 37.3702 18.7165 37.3582 18.4265 37.1042C18.1365 36.8502 18.0685 36.4262 18.2665 36.0942L20.8225 31.7942L19.4485 28.5402C19.3305 28.2602 19.3805 27.9362 19.5805 27.7043L22.2585 24.6142L18.9085 20.5543L2.44067 22.7982V38.9H45.6404V22.7982L43.6364 22.5262C43.5844 22.5282 43.5304 22.5262 43.4804 22.5182L41.2486 22.2002ZM40.8406 37.3H43.7965C44.2385 37.3 44.5965 36.942 44.5965 36.5C44.5965 36.058 44.2385 35.7 43.7965 35.7H40.8406C40.3986 35.7 40.0406 36.058 40.0406 36.5C40.0406 36.942 40.3986 37.3 40.8406 37.3ZM7.2408 37.3H10.1968C10.6388 37.3 10.9968 36.942 10.9968 36.5C10.9968 36.058 10.6388 35.7 10.1968 35.7H7.2408C6.7988 35.7 6.4408 36.058 6.4408 36.5C6.4408 36.942 6.7988 37.3 7.2408 37.3ZM28.0407 37.3H30.9966C31.4386 37.3 31.7966 36.942 31.7966 36.5C31.7966 36.058 31.4386 35.7 30.9966 35.7H28.0407C27.5987 35.7 27.2407 36.058 27.2407 36.5C27.2407 36.942 27.5987 37.3 28.0407 37.3ZM13.6408 33.3H16.5967C17.0387 33.3 17.3967 32.942 17.3967 32.5C17.3967 32.0581 17.0387 31.7001 16.5967 31.7001H13.6408C13.1988 31.7001 12.8408 32.0581 12.8408 32.5C12.8408 32.942 13.1988 33.3 13.6408 33.3ZM36.8404 33.3H39.7963C40.2383 33.3 40.5963 32.942 40.5963 32.5C40.5963 32.0581 40.2383 31.7001 39.7963 31.7001H36.8404C36.3984 31.7001 36.0404 32.0581 36.0404 32.5C36.0404 32.942 36.3984 33.3 36.8404 33.3ZM5.6403 32.5H8.59626C9.03825 32.5 9.39625 32.1421 9.39625 31.7001C9.39625 31.2581 9.03825 30.9001 8.59626 30.9001H5.6403C5.1983 30.9001 4.8403 31.2581 4.8403 31.7001C4.8403 32.1421 5.1983 32.5 5.6403 32.5ZM28.8399 30.9001H31.7959C32.2379 30.9001 32.5958 30.5421 32.5958 30.1001C32.5958 29.6581 32.2379 29.3001 31.7959 29.3001H28.8399C28.3979 29.3001 28.0399 29.6581 28.0399 30.1001C28.0399 30.5421 28.3979 30.9001 28.8399 30.9001ZM5.9178 27.7001H8.87376C9.31576 27.7001 9.67375 27.3421 9.67375 26.9001C9.67375 26.4581 9.31576 26.1001 8.87376 26.1001H5.9178C5.4758 26.1001 5.1178 26.4581 5.1178 26.9001C5.1178 27.3421 5.4758 27.7001 5.9178 27.7001ZM40.0398 26.9001H42.9958C43.4378 26.9001 43.7958 26.5421 43.7958 26.1001C43.7958 25.6581 43.4378 25.3001 42.9958 25.3001H40.0398C39.5978 25.3001 39.2398 25.6581 39.2398 26.1001C39.2398 26.5421 39.5978 26.9001 40.0398 26.9001ZM13.884 26.1001H16.8399C17.2819 26.1001 17.6399 25.7421 17.6399 25.3001C17.6399 24.8581 17.2819 24.5001 16.8399 24.5001H13.884C13.442 24.5001 13.084 24.8581 13.084 25.3001C13.084 25.7421 13.442 26.1001 13.884 26.1001ZM31.2396 25.3001H34.1956C34.6376 25.3001 34.9956 24.9421 34.9956 24.5001C34.9956 24.0581 34.6376 23.7001 34.1956 23.7001H31.2396C30.7976 23.7001 30.4396 24.0581 30.4396 24.5001C30.4396 24.9421 30.7976 25.3001 31.2396 25.3001ZM42.9137 20.8121L43.9897 13.1982L39.3397 8.68027L33.61 11.7103L32.518 19.3365L34.808 19.6645L35.644 15.1565C35.72 14.7365 36.114 14.4525 36.536 14.5105L40.9039 15.0945C41.1219 15.1245 41.3159 15.2425 41.4459 15.4185C41.5739 15.5985 41.6239 15.8205 41.5819 16.0365L40.7359 20.5104L41.4699 20.6164L42.9137 20.8121ZM36.3939 19.8901L37.0779 16.1962L39.8539 16.5682L39.1499 20.2841L36.3939 19.8901ZM16.2279 13.8941C16.3279 13.7321 16.4179 13.5441 16.5019 13.3382C17.0199 12.0701 17.1519 10.1362 16.8079 8.04206C16.4659 5.9481 15.7219 4.15811 14.8259 3.12208C14.3999 2.63008 13.9739 2.29208 13.5259 2.36607C13.0759 2.44007 12.7819 2.89404 12.5359 3.49804C12.0199 4.76605 11.8859 6.70002 12.2299 8.79414C12.5739 10.8881 13.3159 12.6781 14.2119 13.7141C14.3579 13.8821 14.5039 14.0321 14.6479 14.1541L13.7279 8.54826C13.6579 8.11227 13.9519 7.70029 14.3879 7.62826C14.8239 7.55826 15.2338 7.85226 15.3059 8.28827L16.2259 13.8941L16.2279 13.8941ZM6.55216 13.6381C6.65216 13.4761 6.74016 13.2881 6.82616 13.0822C7.34215 11.8141 7.47614 9.88018 7.13216 7.78606C6.78817 5.6921 6.04417 3.90211 5.15017 2.86608C4.72217 2.37408 4.29816 2.03608 3.85016 2.11007C3.40016 2.18407 3.10618 2.64009 2.86016 3.24204C2.34417 4.51005 2.21018 6.44402 2.55416 8.53814C2.89816 10.6321 3.64216 12.4221 4.53615 13.4581C4.68415 13.6261 4.82815 13.7761 4.97415 13.8981L4.05414 8.29227C3.98215 7.85627 4.27814 7.4443 4.71416 7.37426C5.15016 7.30226 5.56213 7.59825 5.63217 8.03427L6.55417 13.6401L6.55216 13.6381Z" fill="#0E6E36"/>
</svg>
