<svg width="40" height="41" viewBox="0 0 40 41" fill="none" xmlns="http://www.w3.org/2000/svg">
<path d="M39.2156 21.6777C37.7185 21.6777 36.9407 22.1567 36.2555 22.5789C35.6498 22.9524 35.1708 23.2463 34.117 23.2463C33.0648 23.2463 32.5858 22.9508 31.9785 22.5789C31.2933 22.1551 30.5155 21.6777 29.0184 21.6777C27.5212 21.6777 26.7434 22.1567 26.0582 22.5789C25.4526 22.9524 24.9735 23.2463 23.9197 23.2463C22.8675 23.2463 22.3885 22.9508 21.7812 22.5789C21.096 22.1568 20.3182 21.6777 18.8211 21.6777C17.3239 21.6777 16.5478 22.1567 15.8609 22.5789C15.2553 22.9524 14.7762 23.2463 13.7224 23.2463C12.6702 23.2463 12.1912 22.9508 11.5839 22.5789C11.0286 22.2379 10.4148 21.8596 9.40806 21.7281L9.41131 11.089C9.41131 10.6554 9.06057 10.3047 8.62703 10.3047C8.19349 10.3047 7.84275 10.6554 7.84275 11.089V38.9317H1.56838V36.9701H4.70553C5.13909 36.9701 5.4898 36.6194 5.4898 36.1858C5.4898 35.7523 5.13907 35.4016 4.70553 35.4016H1.56838V33.0487H3.13694C3.5705 33.0487 3.92121 32.698 3.92121 32.2644C3.92121 31.8309 3.57048 31.4801 3.13694 31.4801H1.56838V29.1273H4.70553C5.13909 29.1273 5.4898 28.7765 5.4898 28.343C5.4898 27.9094 5.13907 27.5587 4.70553 27.5587H1.56838V25.2059H3.13694C3.5705 25.2059 3.92121 24.8551 3.92121 24.4216C3.92121 23.988 3.57048 23.6373 3.13694 23.6373H1.56838V21.2844H4.70553C5.13909 21.2844 5.4898 20.9337 5.4898 20.5002C5.4898 20.0666 5.13907 19.7159 4.70553 19.7159H1.56838V17.363H3.13694C3.5705 17.363 3.92121 17.0123 3.92121 16.5787C3.92121 16.1452 3.57048 15.7945 3.13694 15.7945H1.56838V13.4416H4.70553C5.13909 13.4416 5.4898 13.0909 5.4898 12.6573C5.4898 12.2238 5.13907 11.8731 4.70553 11.8731H1.56838V9.52019H3.13694C3.5705 9.52019 3.92121 9.16945 3.92121 8.73591C3.92121 8.30237 3.57048 7.95164 3.13694 7.95164H1.56838V5.59877H4.70553C5.13909 5.59877 5.4898 5.24803 5.4898 4.81449C5.4898 4.38095 5.13907 4.03022 4.70553 4.03022H1.56838V2.06868H7.84275V7.95147C7.84275 8.38503 8.19349 8.73574 8.62703 8.73574C9.06057 8.73574 9.41131 8.38501 9.41131 7.95147V1.28428C9.41131 0.850715 9.06057 0.5 8.62703 0.5H0.784275C0.350715 0.5 0 0.850735 0 1.28428V39.7157C0 40.1493 0.350735 40.5 0.784275 40.5H39.2157C39.6493 40.5 40 40.1493 40 39.7157V22.4614C40 22.0279 39.6493 21.6771 39.2157 21.6771L39.2156 21.6777ZM38.4314 38.932H9.41147V34.2946C9.96516 34.4034 10.3338 34.6275 10.7657 34.8938C11.4509 35.316 12.2287 35.795 13.7258 35.795C15.223 35.795 15.9991 35.316 16.686 34.8938C17.2916 34.5203 17.7707 34.2264 18.8245 34.2264C19.8767 34.2264 20.3557 34.5219 20.963 34.8938C21.6482 35.316 22.426 35.795 23.9231 35.795C25.4203 35.795 26.1964 35.316 26.8833 34.8938C27.4889 34.5203 27.968 34.2264 29.0218 34.2264C30.0739 34.2264 30.553 34.5219 31.1603 34.8938C31.8455 35.316 32.6233 35.795 34.1204 35.795C35.6175 35.795 36.3953 35.316 37.0805 34.8938C37.5125 34.6291 37.8795 34.4034 38.4348 34.2946L38.4314 38.932ZM38.4314 32.7063C37.4246 32.8378 36.8109 33.2162 36.2555 33.5572C35.6498 33.9306 35.1708 34.2246 34.117 34.2246C33.0648 34.2246 32.5858 33.929 31.9785 33.5572C31.2933 33.135 30.5155 32.6576 29.0184 32.6576C27.5212 32.6576 26.7434 33.1366 26.0582 33.5588C25.4526 33.9323 24.9735 34.2262 23.9197 34.2262C22.8675 34.2262 22.3885 33.9306 21.7812 33.5588C21.096 33.1366 20.3182 32.6576 18.8211 32.6576C17.3239 32.6576 16.5478 33.1366 15.8609 33.5588C15.2553 33.9323 14.7762 34.2262 13.7224 34.2262C12.6702 34.2262 12.1912 33.9306 11.5839 33.5588C11.0286 33.2178 10.4148 32.8394 9.40806 32.7079V28.806C9.96175 28.9148 10.3304 29.1389 10.7623 29.4052C11.4475 29.8273 12.2253 30.3064 13.7224 30.3064C15.2196 30.3064 15.9957 29.8274 16.6826 29.4052C17.2882 29.0317 17.7673 28.7378 18.8211 28.7378C19.8733 28.7378 20.3523 29.0333 20.9596 29.4052C21.6448 29.8273 22.4226 30.3064 23.9197 30.3064C25.4168 30.3064 26.193 29.8274 26.8799 29.4052C27.4855 29.0317 27.9645 28.7378 29.0184 28.7378C30.0705 28.7378 30.5496 29.0333 31.1569 29.4052C31.8421 29.8273 32.6199 30.3064 34.117 30.3064C35.6141 30.3064 36.3919 29.8274 37.0771 29.4052C37.5091 29.1405 37.876 28.9148 38.4314 28.806V32.7063ZM38.4314 27.2163C37.4246 27.3479 36.8109 27.7262 36.2555 28.0672C35.6498 28.4407 35.1708 28.7346 34.117 28.7346C33.0648 28.7346 32.5858 28.4391 31.9785 28.0672C31.2933 27.645 30.5155 27.1676 29.0184 27.1676C27.5212 27.1676 26.7434 27.6466 26.0582 28.0688C25.4526 28.4423 24.9735 28.7362 23.9197 28.7362C22.8675 28.7362 22.3885 28.4407 21.7812 28.0688C21.096 27.6466 20.3182 27.1676 18.8211 27.1676C17.3239 27.1676 16.5478 27.6466 15.8609 28.0688C15.2553 28.4423 14.7762 28.7362 13.7224 28.7362C12.6702 28.7362 12.1912 28.4407 11.5839 28.0688C11.0286 27.7278 10.4148 27.3495 9.40806 27.2179V23.316C9.96175 23.4248 10.3304 23.6489 10.7623 23.9152C11.4475 24.3374 12.2253 24.8164 13.7224 24.8164C15.2196 24.8164 15.9957 24.3374 16.6826 23.9152C17.2882 23.5417 17.7673 23.2478 18.8211 23.2478C19.8733 23.2478 20.3523 23.5433 20.9596 23.9152C21.6448 24.3374 22.4226 24.8164 23.9197 24.8164C25.4168 24.8164 26.193 24.3374 26.8799 23.9152C27.4855 23.5417 27.9645 23.2478 29.0184 23.2478C30.0705 23.2478 30.5496 23.5433 31.1569 23.9152C31.8421 24.3374 32.6199 24.8164 34.117 24.8164C35.6141 24.8164 36.3919 24.3374 37.0771 23.9152C37.5091 23.6489 37.876 23.4232 38.4314 23.316V27.2163Z" fill="#0E6E36"/>
<path d="M18.038 12.2651H20.3909V19.3234C20.3909 19.757 20.7416 20.1077 21.1752 20.1077H26.6652C27.0987 20.1077 27.4494 19.757 27.4494 19.3234V17.271C27.4494 16.8374 27.0987 16.4867 26.6652 16.4867C26.2316 16.4867 25.8809 16.8374 25.8809 17.271L25.8825 18.5391H21.9611V11.4808C21.9611 11.0472 21.6103 10.6965 21.1768 10.6965H19.6083L23.9227 4.94508L28.2354 10.6965H26.6669C26.2333 10.6965 25.8826 11.0472 25.8826 11.4808V14.134C25.8826 14.5676 26.2333 14.9183 26.6669 14.9183C27.1004 14.9183 27.4511 14.5676 27.4511 14.134V12.2651H29.804C30.1012 12.2651 30.3723 12.0978 30.5055 11.8315C30.6386 11.5652 30.6094 11.2486 30.4308 11.0099L24.5496 3.1671C24.2363 2.7498 23.6079 2.74818 23.2945 3.1671L17.4117 11.0099C17.2331 11.2469 17.2055 11.5652 17.337 11.8315C17.4701 12.0978 17.7413 12.2651 18.0385 12.2651H18.038Z" fill="#0E6E36"/>
</svg>
