<svg width="56" height="41" viewBox="0 0 56 41" fill="none" xmlns="http://www.w3.org/2000/svg">
<path fill-rule="evenodd" clip-rule="evenodd" d="M14.5083 37.9942C16.3388 39.5841 18.6871 40.4677 21.1298 40.4677C23.6166 40.4677 26.0111 39.5495 27.8551 37.8999C29.7203 39.5476 32.1283 40.4638 34.6286 40.4638C37.1097 40.4638 39.4965 39.563 41.3559 37.9423C43.2345 39.5707 45.6425 40.4753 48.1448 40.4753C50.8954 40.4753 53.5343 39.382 55.4784 37.436C55.5304 37.386 55.5785 37.336 55.6285 37.2878C56.0039 36.9125 56.0039 36.3023 55.6285 35.927C55.2532 35.5516 54.643 35.5516 54.2677 35.927C54.2176 35.9751 54.1695 36.0251 54.1176 36.0752C52.5334 37.6593 50.3853 38.5505 48.1448 38.5505C45.9062 38.5505 43.7581 37.6593 42.174 36.0752L42.1701 36.0713C41.7197 35.6209 40.9883 35.6209 40.5359 36.0713L40.5032 36.106C38.946 37.6632 36.8325 38.539 34.6286 38.539C32.4247 38.539 30.3131 37.6632 28.754 36.106C28.2574 35.6075 27.449 35.6075 26.9524 36.106L26.9081 36.1483C25.3759 37.6824 23.2971 38.5428 21.1298 38.5428C18.9624 38.5428 16.8836 37.6824 15.3495 36.1483L15.3244 36.1233C14.874 35.6729 14.1426 35.6729 13.6922 36.1233L13.6806 36.1349C10.4257 39.3898 5.14976 39.3898 1.89487 36.1349C1.83905 36.079 1.78516 36.0251 1.73319 35.9732C1.35784 35.5978 0.74767 35.5978 0.372327 35.9732C-0.00301532 36.3485 -0.00301532 36.9587 0.372327 37.334C0.424298 37.386 0.478192 37.4399 0.534013 37.4957C4.36636 41.3281 10.4777 41.4936 14.5083 37.9942ZM14.5083 31.3054C16.3388 32.8954 18.6871 33.7789 21.1298 33.7789C23.6166 33.7789 26.0111 32.8607 27.8551 31.2131C29.7203 32.8588 32.1283 33.775 34.6286 33.775C37.1097 33.775 39.4965 32.8742 41.3559 31.2535C43.2345 32.8819 45.6425 33.7866 48.1448 33.7866C50.8954 33.7866 53.5343 32.6932 55.4784 30.7492C55.5304 30.6972 55.5785 30.6472 55.6285 30.599C56.0039 30.2237 56.0039 29.6135 55.6285 29.2382C55.2532 28.8628 54.643 28.8628 54.2677 29.2382C54.2176 29.2863 54.1695 29.3363 54.1176 29.3883C52.5334 30.9705 50.3853 31.8617 48.1448 31.8617C45.9062 31.8617 43.7581 30.9705 42.174 29.3883L42.1701 29.3845C41.7197 28.9321 40.9883 28.9321 40.5359 29.3845L40.5032 29.4172C38.946 30.9744 36.8325 31.8502 34.6286 31.8502C32.4247 31.8502 30.3131 30.9744 28.754 29.4172C28.2574 28.9186 27.449 28.9186 26.9524 29.4172L26.9081 29.4615C25.3759 30.9936 23.2971 31.854 21.1298 31.854C18.9624 31.854 16.8836 30.9936 15.3495 29.4615L15.3244 29.4345C14.874 28.9841 14.1426 28.9841 13.6922 29.4345L13.6806 29.4461C10.4257 32.701 5.14976 32.701 1.89487 29.4461C1.83905 29.3902 1.78516 29.3363 1.73319 29.2844C1.35784 28.909 0.74767 28.909 0.372327 29.2844C-0.00301532 29.6597 -0.00301532 30.2699 0.372327 30.6452C0.424298 30.6972 0.478192 30.7511 0.534013 30.8069C4.36636 34.6393 10.4777 34.8067 14.5083 31.3054ZM17.4071 9.19681L13.7711 22.6745C13.7442 22.6976 13.7172 22.7207 13.6922 22.7476L13.6806 22.7573C10.4257 26.0122 5.14976 26.0122 1.89487 22.7573C1.83905 22.7034 1.78516 22.6495 1.73319 22.5956C1.35784 22.2202 0.74767 22.2202 0.372327 22.5956C-0.00301532 22.9709 -0.00301532 23.5811 0.372327 23.9564C0.424298 24.0103 0.478192 24.0642 0.534013 24.1181C4.36636 27.9524 10.4777 28.1179 14.5083 24.6167C16.3388 26.2066 18.6871 27.092 21.1298 27.0901C23.6166 27.0901 26.0111 26.1719 27.8551 24.5243C28.446 25.0459 29.0928 25.4944 29.778 25.864C29.8723 25.939 29.9821 25.9968 30.1052 26.0333C31.5007 26.7205 33.0464 27.0862 34.6286 27.0862C37.1097 27.0862 39.4965 26.1854 41.3559 24.5647C43.2345 26.1931 45.6425 27.0978 48.1448 27.0978C50.8954 27.0978 53.5343 26.0045 55.4784 24.0604C55.5304 24.0103 55.5785 23.9603 55.6285 23.9102C56.0039 23.5349 56.0039 22.9247 55.6285 22.5494C55.2532 22.174 54.643 22.174 54.2677 22.5494C54.2176 22.5994 54.1695 22.6475 54.1176 22.6995C52.5334 24.2837 50.3853 25.1729 48.1448 25.1729C45.9062 25.1729 43.7581 24.2837 42.174 22.6995L42.1701 22.6957C41.7197 22.2453 40.9883 22.2453 40.5359 22.6957L40.5032 22.7284C40.3781 22.8535 40.2491 22.9748 40.1182 23.0903L42.0931 15.8048L43.3635 17.5275C43.6792 17.9548 44.2817 18.0453 44.709 17.7296C45.1363 17.4158 45.2267 16.8115 44.913 16.3841L33.4872 0.891148C33.2196 0.52928 32.7384 0.400324 32.3265 0.581259L14.6854 8.28444C14.1984 8.4981 13.9751 9.06592 14.1888 9.5529C14.4005 10.0399 14.9684 10.2612 15.4553 10.0495L17.4071 9.19681ZM19.6669 8.20937L15.6594 23.0652C17.1569 24.4145 19.1048 25.1671 21.1298 25.1652C21.1875 25.1652 21.2452 25.1652 21.3049 25.1652L24.1556 14.6518C24.2942 14.1417 24.8196 13.8376 25.3336 13.9742L32.8462 15.9876C33.0926 16.055 33.3043 16.2167 33.4313 16.438C33.5584 16.6594 33.593 16.9231 33.5257 17.1695L31.5219 24.5589C32.4998 24.9535 33.5526 25.1614 34.6286 25.1614C35.6988 25.1614 36.7498 24.9554 37.7237 24.5647L40.6341 13.826L32.3939 2.65237L19.6669 8.20937ZM23.3837 24.8496C24.7042 24.4704 25.9207 23.7601 26.9081 22.7727L26.9524 22.7284C27.449 22.2299 28.2574 22.2299 28.754 22.7284C29.0755 23.0498 29.4219 23.3424 29.7857 23.6042L31.4161 17.5968L25.7609 16.0819L23.3837 24.8496Z" fill="#0E6E36"/>
</svg>
