<svg width="44" height="41" viewBox="0 0 44 41" fill="none" xmlns="http://www.w3.org/2000/svg">
<path fill-rule="evenodd" clip-rule="evenodd" d="M10.7161 13.6134C10.681 13.231 10.5979 12.856 10.4685 12.4958C9.9365 12.965 9.4192 12.8745 8.92414 13.5506C8.78189 13.7446 8.54173 13.8425 8.30526 13.8056C8.06695 13.7668 7.86927 13.6005 7.79355 13.3714C7.14696 11.5407 8.19443 10.447 6.98256 7.98994C6.20852 9.82071 4.54957 9.61565 4.44978 13.6169C4.44423 13.8367 4.32785 14.0381 4.14126 14.1508C3.95468 14.2653 3.72191 14.2764 3.52607 14.1803C2.91457 13.8109 2.46198 13.2308 2.24954 12.5509C1.64361 14.2635 2.1701 16.1718 3.56859 17.3318C4.42025 18.0283 5.49725 18.3867 6.59644 18.3405C9.21975 18.2555 10.7161 16.4044 10.7161 13.8033V13.6075L10.7161 13.6134ZM8.70798 8.9229H8.70613C9.03312 8.80282 9.37117 8.71969 9.7148 8.67166C9.68155 7.37663 10.173 6.12042 11.0782 5.19301C11.9816 4.26379 13.2249 3.73912 14.5198 3.73912C15.8167 3.73912 17.06 4.26379 17.9634 5.19301C18.8686 6.12038 19.36 7.37663 19.3267 8.67166C20.4499 8.82314 21.4845 9.36814 22.2456 10.2105C23.0049 9.36814 24.0394 8.82314 25.1627 8.67166C25.1128 6.6617 26.321 4.83277 28.1905 4.08828C30.0601 3.34379 32.1938 3.84443 33.5389 5.33895C34.1467 4.05504 34.3887 2.63066 34.2391 1.21744C34.2077 0.953269 34.3444 0.694617 34.5827 0.572695C34.8192 0.448919 35.1074 0.48587 35.3068 0.663219C37.2041 2.36095 38.4215 4.69052 38.7319 7.21759C38.9 7.04024 39.046 6.84441 39.1679 6.63195C39.469 6.10728 39.6131 5.50689 39.5799 4.90282C39.5669 4.61647 39.7443 4.35601 40.0159 4.2636C40.2874 4.17119 40.5867 4.26915 40.7511 4.50376C42.4895 6.91832 43.125 9.95336 42.5006 12.8614C42.2678 13.9237 41.8503 14.9342 41.2628 15.8505C42.3473 17.2065 42.617 19.0409 41.9685 20.6517C41.3183 22.2608 39.8514 23.3969 38.1297 23.6204C38.7448 25.1261 38.5564 26.8423 37.629 28.1798C36.7016 29.5154 35.1609 30.2932 33.5352 30.2452C33.4447 33.2564 33.72 36.2656 34.3555 39.2087H42.6375H42.6356C42.9922 39.2087 43.2804 39.4987 43.2804 39.8552C43.2804 40.2099 42.9922 40.5 42.6356 40.5H1.94879C1.59224 40.5 1.30219 40.21 1.30219 39.8552C1.30219 39.4987 1.59223 39.2087 1.94879 39.2087H5.00067C5.92066 38.7911 6.6984 38.1095 7.23418 37.2523C7.74589 36.4246 7.9528 35.4437 7.82166 34.4793C7.79025 34.2595 7.87523 34.0397 8.04519 33.8974C8.21515 33.7551 8.44608 33.7108 8.6567 33.7792C9.52311 34.0544 10.2879 34.5846 10.8495 35.2995C11.062 33.6221 11.1285 31.9299 11.0491 30.2415C9.46956 30.3191 7.95467 29.6153 6.99405 28.3609C6.03343 27.1084 5.75075 25.4623 6.23475 23.9585C6.27355 23.8403 6.31604 23.7239 6.36407 23.6094V23.6075C5.07089 23.4154 3.91258 22.7041 3.15513 21.64C2.39768 20.5741 2.10579 19.2458 2.34968 17.9619C0.328654 15.915 0.167905 12.6783 1.97466 10.4413C2.12984 10.2141 2.41434 10.1107 2.68037 10.1846C2.94824 10.2603 3.13667 10.4968 3.14961 10.772C3.17547 11.1101 3.23828 11.4445 3.33989 11.7678C3.96246 8.33534 5.93548 8.85816 6.03522 6.24205C6.04631 5.96863 6.2292 5.73033 6.49153 5.65088C6.75386 5.57144 7.03833 5.66751 7.19908 5.8892C7.89372 6.79444 8.40544 7.82339 8.70655 8.92447L8.70798 8.9229ZM3.55539 18.8786C4.42364 19.3737 5.40649 19.6342 6.40589 19.636C9.83096 19.636 12.0092 17.216 12.0092 13.8095L12 13.5029H12.0018C11.915 12.5422 11.588 11.6185 11.0486 10.8167C10.9082 10.6098 10.6606 10.5027 10.4149 10.5415C10.1674 10.5803 9.96601 10.7576 9.89579 10.9978C9.68888 11.6554 9.31569 11.6702 8.85571 11.9196C8.85941 11.3469 8.91852 10.8722 8.89266 10.2366V10.2385C9.35266 10.026 9.85328 9.91705 10.3614 9.9189C10.5165 9.9189 10.3355 9.9152 10.3965 9.9189C10.5904 9.92813 10.7789 9.84869 10.9082 9.7009C11.0356 9.55496 11.0911 9.35913 11.0578 9.16701C10.8786 8.14354 11.1594 7.0924 11.8282 6.29617C12.4969 5.49994 13.4834 5.03997 14.5235 5.03997C15.5617 5.03997 16.5482 5.49997 17.217 6.29617C17.8858 7.0924 18.1665 8.14354 17.9873 9.16701C17.9522 9.35914 18.0077 9.55681 18.1351 9.70275C18.2645 9.85054 18.451 9.93183 18.6469 9.92259C19.7793 9.91335 20.8489 10.4491 21.5195 11.3617C22.1902 12.2762 22.3786 13.4567 22.0294 14.5355C21.9684 14.7184 21.9943 14.9216 22.0996 15.0842C22.2049 15.2468 22.3786 15.3521 22.5725 15.3743C24.4329 15.6902 25.7131 17.4212 25.4692 19.2944C25.2272 21.1677 23.5498 22.5144 21.6691 22.3463C21.4124 22.3186 21.163 22.4479 21.0374 22.6733C20.9117 22.8987 20.9321 23.1758 21.0891 23.3809C21.6581 24.1771 21.8705 25.1728 21.6729 26.1316C21.477 27.0904 20.8914 27.9236 20.0564 28.4316C19.2214 28.9397 18.2109 29.0782 17.2705 28.8122C16.3284 28.5462 15.5414 27.9014 15.0943 27.0313C14.9853 26.8152 14.7618 26.6785 14.5198 26.6785C14.2759 26.6785 14.0542 26.817 13.9453 27.0332C13.1121 28.6699 11.1612 29.3905 9.46347 28.6903C7.76758 27.9883 6.89374 26.1021 7.45904 24.3544C7.57173 24.0034 7.74169 23.6727 7.95784 23.3735C8.10378 23.1703 8.11856 22.9005 7.99479 22.6807C7.87101 22.4627 7.6327 22.3353 7.38144 22.3556C6.40417 22.4424 5.43429 22.1154 4.70829 21.4559C3.9804 20.7946 3.56276 19.8614 3.55539 18.8786ZM42.2805 24.899C42.1696 24.6385 41.8999 24.4815 41.6191 24.5129C41.3365 24.5425 41.1074 24.7531 41.0557 25.0321C40.6382 27.3154 38.3178 27.9306 37.856 29.6376V29.6395C37.4071 31.1876 37.7821 32.8576 38.8481 34.0658C39.0014 34.2616 39.2527 34.3503 39.4947 34.2967C39.7367 34.2432 39.927 34.0547 39.9843 33.8146C40.8027 30.3286 42.0423 30.6315 42.4912 28.932L42.4893 28.9302C42.8994 27.6056 42.8256 26.1757 42.2824 24.8992L42.2805 24.899ZM41.2441 28.6012V28.603C41.3605 28.1726 41.4307 27.731 41.4529 27.2858C41.0649 27.7938 40.6271 28.2631 40.1468 28.6843C39.6978 29.0224 39.3376 29.4639 39.0993 29.9719C38.8943 30.661 38.9109 31.3981 39.151 32.0761C39.975 29.7964 40.9873 29.5766 41.2441 28.6012ZM2.27544 28.9596L2.27359 28.9614C2.24773 29.6819 2.33086 30.4042 2.52299 31.0988C2.97006 32.8022 4.2115 32.4973 5.02991 35.9833C5.08533 36.2234 5.27561 36.4119 5.5176 36.4654C5.75961 36.519 6.01086 36.4285 6.16419 36.2345C7.23198 35.0263 7.60517 33.3563 7.1581 31.8063C6.69256 30.0993 4.37409 29.4841 3.95475 27.2008C3.90302 26.9218 3.67394 26.7093 3.39129 26.6798C3.11049 26.6484 2.84075 26.8054 2.72995 27.0677C2.45653 27.6626 2.30135 28.3055 2.27364 28.9594L2.27544 28.9596ZM3.55567 29.4547C3.57784 29.8999 3.64804 30.3414 3.76443 30.7719C4.02121 31.7473 5.03174 31.9671 5.85753 34.2469V34.245C6.09769 33.567 6.11616 32.8299 5.90925 32.139C5.67094 31.6328 5.31071 31.1894 4.8618 30.8532C4.38149 30.432 3.94362 29.9627 3.55567 29.4547ZM33.5386 16.3899C32.9382 14.8012 33.1765 13.0166 34.1722 11.6403C34.3163 11.4352 34.5639 11.3299 34.8096 11.3724C35.0553 11.4149 35.2548 11.5941 35.3232 11.8343C35.6132 11.0694 36.0843 10.3841 36.6939 9.83905C36.8934 9.6617 37.1816 9.6266 37.4181 9.74852C37.6545 9.8723 37.7894 10.1272 37.7598 10.3933C37.6305 11.4666 38.1589 12.3645 38.6448 13.1902C39.199 14.1306 39.7107 15.0007 39.5426 15.9798C40.3979 15.0173 40.9854 13.8461 41.2459 12.5861C41.6763 10.6076 41.4306 8.54401 40.5494 6.72081L40.2778 7.27873C39.8511 8.01769 39.2174 8.61807 38.4563 9.00602C38.2494 9.11132 38.0018 9.09839 37.8078 8.96907C37.6139 8.8416 37.5049 8.61807 37.5215 8.38713C37.4938 6.35683 36.7992 4.39308 35.5466 2.79518C35.3582 4.98618 34.344 6.73565 33.2873 8.53137C31.7927 11.0697 30.4774 13.3052 33.3501 16.2203C33.4092 16.2794 33.472 16.3367 33.5385 16.3921L33.5386 16.3899ZM36.6607 18.5458C35.1533 18.6327 33.4481 18.1487 32.4339 17.1197C28.8703 13.5025 30.4202 10.8699 32.1808 7.87905C32.4228 7.46708 32.6704 7.04773 32.905 6.61727V6.61912C31.9868 5.22619 30.217 4.66827 28.6671 5.28531C27.1171 5.9005 26.2137 7.52067 26.5019 9.16297C26.5352 9.3551 26.4798 9.55277 26.3523 9.69871C26.223 9.84465 26.0345 9.92594 25.8406 9.9167H25.8055C24.7008 9.91485 23.6606 10.4321 22.9956 11.3133C23.4427 12.2186 23.5923 13.2438 23.4186 14.2396C25.6004 14.8806 27.034 16.9626 26.8548 19.2295C26.6774 21.4944 24.9353 23.327 22.6815 23.6189C23.0603 24.5462 23.1415 25.5697 22.9125 26.547C23.3577 27.8956 24.5714 28.8433 25.9884 28.9504C27.4053 29.0557 28.7483 28.3001 29.3913 27.0328C29.5002 26.8167 29.7219 26.6781 29.9658 26.6781C30.2078 26.6763 30.4313 26.813 30.5403 27.031C30.9855 27.9048 31.7725 28.5532 32.7165 28.823C33.6587 29.0908 34.6711 28.9523 35.5079 28.4424C36.3466 27.9325 36.9322 27.0956 37.1262 26.135C37.3221 25.1744 37.1059 24.1768 36.5332 23.3806C36.3762 23.1755 36.354 22.8984 36.4815 22.673C36.6071 22.4476 36.8565 22.3183 37.1115 22.346C38.473 22.503 39.8013 21.8546 40.5162 20.6852C41.2311 19.5158 41.1997 18.0397 40.4386 16.8999C39.4539 17.9363 38.0906 18.531 36.6607 18.5458ZM35.519 17.0125C36.1601 17.3875 36.9655 17.3413 37.5604 16.8943C38.6707 15.7674 38.1405 14.864 37.5364 13.8387C37.1687 13.266 36.8713 12.6508 36.6459 12.0079C36.415 12.4975 36.2875 13.0314 36.2746 13.5745C36.2894 13.8054 36.1804 14.0271 35.9864 14.1528C35.7924 14.2802 35.5449 14.295 35.3398 14.1879C35.0701 14.0512 34.8281 13.8627 34.6304 13.6337C34.4678 14.2156 34.4494 14.8289 34.5787 15.4182C34.6895 16.0445 35.0221 16.6098 35.5153 17.0088L35.519 17.0125ZM7.27599 39.2091H19.4464C20.4182 37.9991 20.5807 36.3253 19.8584 34.9527C18.7888 36.2921 16.5054 36.0851 14.9238 37.5871C14.7003 37.7977 14.3585 37.8236 14.1073 37.6444C13.4366 37.1862 13.0542 36.4121 13.1004 35.6011C12.4224 36.0076 11.8885 36.6153 11.5745 37.3414C11.4747 37.6148 11.2013 37.7866 10.9113 37.7607C10.6212 37.733 10.3848 37.515 10.3349 37.2269C10.1945 36.4879 9.76035 35.8395 9.1322 35.4293C9.01396 36.8777 8.35077 38.2263 7.27556 39.2054L7.27599 39.2091ZM20.9745 39.2091H25.6742L26.0788 36.8888L22.3268 33.5986C22.1974 33.4859 22.1199 33.3289 22.1088 33.1571C22.0958 32.9871 22.1531 32.8209 22.2658 32.6915L23.7492 31.0012C23.8619 30.8719 24.0208 30.7943 24.1908 30.7832C24.3607 30.7703 24.5288 30.8275 24.6563 30.9402L26.5129 32.5678C26.5425 31.7863 26.5407 31.0067 26.4963 30.24V30.2419C24.7986 30.325 23.1839 29.5066 22.2473 28.0897C21.3292 29.4808 19.7552 30.2973 18.0888 30.2437C18.0168 31.6939 18.0574 33.146 18.2126 34.5888C18.6652 34.4059 19.0033 34.0124 19.1141 33.5376C19.1658 33.2919 19.3524 33.0979 19.5962 33.0407C19.8401 32.9834 20.095 33.0721 20.2502 33.2679C21.1093 34.2285 21.5877 35.47 21.5951 36.7595C21.5951 37.6148 21.3808 38.4553 20.9744 39.2073L20.9745 39.2091ZM16.9656 35.0599C16.7716 33.3917 16.7218 31.7106 16.8123 30.0331C15.9145 29.7541 15.1164 29.2184 14.5196 28.4905C13.9451 29.1944 13.1821 29.7191 12.3213 30.0054C12.4081 31.5516 12.373 33.1035 12.2123 34.6442C12.8607 34.2082 13.5904 33.9071 14.3571 33.7593C14.6601 33.702 14.963 33.8664 15.0776 34.1528C15.1921 34.441 15.0868 34.768 14.8263 34.9342C14.394 35.2224 14.2629 35.7969 14.5234 36.2458C15.266 35.7175 16.0899 35.3184 16.9656 35.0635L16.9656 35.0599ZM33.0415 39.2073V39.2091C32.4079 36.1942 32.1455 33.1125 32.2601 30.0333C31.3604 29.7543 30.5642 29.2186 29.9675 28.4907C29.3929 29.1927 28.63 29.7174 27.7691 30.0056C27.8467 31.3265 27.8319 32.651 27.7229 33.9701C27.7026 34.2121 27.5492 34.4227 27.3239 34.515C27.0985 34.6055 26.8417 34.563 26.6588 34.4042L24.2942 32.3333L23.655 33.0556L27.1613 36.1296C27.3442 36.2719 27.4366 36.5009 27.4033 36.7282L26.9858 39.2074L33.0415 39.2073Z" fill="#0E6E36"/>
</svg>
