<svg width="1440" height="652" viewBox="0 0 1440 652" fill="none" xmlns="http://www.w3.org/2000/svg">
<path d="M117.781 385.302C117.781 385.302 117.825 383.131 117.521 379.83L91.9719 413.577L83.2819 455.577L133.206 450.886L131.729 373.228C122.604 379.396 117.781 385.346 117.781 385.346V385.302Z" fill="#4E763D"/>
<path d="M117.347 377.92C116.391 370.362 113.48 358.766 104.79 351.686L92.5801 410.581L117.303 377.92H117.347Z" fill="#4E763D"/>
<path d="M133.032 372.317L134.51 450.713L166.141 447.716L150.586 363.76C143.678 366.106 137.812 369.189 133.032 372.317Z" fill="#4E763D"/>
<path d="M94.4049 346.56C82.63 343.607 73.3751 345.866 66.9445 348.949L71.0722 456.706L81.9348 455.664L103.66 350.817C101.096 348.949 98.0548 347.473 94.4484 346.56H94.4049Z" fill="#4E763D"/>
<path d="M23.2771 297.351C19.3232 296.396 15.4995 295.918 11.8932 295.918L8.02612 462.657L29.0994 460.659L54.5178 336.528C51.4763 321.37 43.5683 302.303 23.2771 297.351Z" fill="#4E763D"/>
<path d="M-34.2509 320.675L-38.1614 467L6.67918 462.787L10.5462 295.918C-17.175 296.396 -34.2509 320.718 -34.2509 320.718V320.675Z" fill="#4E763D"/>
<path d="M208.114 366.539C202.726 364.107 196.73 362.24 190.082 361.023L199.598 410.363C202.422 395.944 205.42 380.525 208.114 366.539Z" fill="#4E763D"/>
<path d="M56.3863 356.55C56.3863 356.55 56.647 349.383 55.1262 340.002L30.4465 460.528L69.7255 456.837L65.5977 349.601C59.5581 352.815 56.3428 356.593 56.3428 356.593L56.3863 356.55Z" fill="#4E763D"/>
<path d="M209.331 367.104C204.203 393.555 198.077 425.044 194.123 445.11L210.33 443.589L237.399 391.209C230.621 381.393 221.54 372.837 209.331 367.104Z" fill="#4E763D"/>
<path d="M198.685 412.665L188.692 360.85C174.397 358.504 162.057 360.111 151.803 363.369L167.445 447.629L192.776 445.24C194.558 436.206 196.774 424.783 199.163 412.535L198.685 412.622V412.665Z" fill="#4E763D"/>
<path d="M255.214 439.334C252.824 424.393 248.001 407.107 238.269 392.426L211.894 443.417L255.214 439.334Z" fill="#4E763D"/>
<path d="M208.114 366.54C205.377 380.525 202.379 395.944 199.598 410.363L199.989 412.361L199.163 412.535C196.774 424.783 194.558 436.163 192.776 445.24L194.123 445.11C198.034 425.044 204.16 393.555 209.331 367.104C208.94 366.93 208.505 366.713 208.114 366.54Z" fill="#3F6333" fill-opacity="0.68"/>
<path d="M199.163 412.535C199.294 411.797 199.424 411.102 199.598 410.364L190.082 361.024C190.082 361.024 189.952 361.024 189.908 361.024C189.517 360.937 189.083 360.894 188.692 360.807L198.685 412.622L199.163 412.535Z" fill="#3F6333" fill-opacity="0.68"/>
<path d="M199.989 412.405L199.598 410.407C199.468 411.146 199.294 411.841 199.163 412.579L199.989 412.405Z" fill="#3F6333" fill-opacity="0.68"/>
<path d="M238.268 392.426C238.008 391.992 237.704 391.601 237.443 391.21L210.373 443.59L211.938 443.46L238.312 392.47L238.268 392.426Z" fill="#3F6333" fill-opacity="0.68"/>
<path d="M150.586 363.76L166.141 447.716L167.445 447.586L151.803 363.326C151.368 363.456 150.977 363.586 150.543 363.76H150.586Z" fill="#3F6333" fill-opacity="0.68"/>
<path d="M131.729 373.185L133.206 450.843L134.509 450.713L133.032 372.316C132.598 372.62 132.163 372.881 131.729 373.185Z" fill="#3F6333" fill-opacity="0.68"/>
<path d="M91.8849 413.665L90.8421 412.883L92.5801 410.581L104.79 351.686C104.399 351.382 104.007 351.078 103.616 350.817L81.8914 455.664L83.2383 455.534L91.9283 413.535L91.8414 413.665H91.8849Z" fill="#3F6333" fill-opacity="0.68"/>
<path d="M91.9719 413.578L117.521 379.83C117.477 379.222 117.39 378.614 117.303 377.919L92.5802 410.581L91.9719 413.578Z" fill="#3F6333" fill-opacity="0.68"/>
<path d="M90.8422 412.883L91.885 413.665L91.9719 413.578L92.5802 410.581L90.8422 412.883Z" fill="#3F6333" fill-opacity="0.68"/>
<path d="M65.641 349.601L69.7688 456.837L71.0723 456.706L66.9445 348.949C66.51 349.166 66.0755 349.384 65.641 349.601Z" fill="#3F6333" fill-opacity="0.68"/>
<path d="M54.5178 336.528L29.0995 460.659L30.4464 460.529L55.1261 340.002C54.9523 338.873 54.7351 337.701 54.5178 336.528Z" fill="#3F6333" fill-opacity="0.68"/>
<path d="M10.5897 295.918L6.72266 462.787L8.02617 462.657L11.8932 295.918C11.4587 295.918 11.0242 295.918 10.5897 295.918Z" fill="#3F6333" fill-opacity="0.68"/>
<path d="M533.512 352.207C533.512 352.207 526.343 342.869 514.22 334.139L509.05 357.115L518.783 431.428L549.763 431.211L545.287 339.003C537.857 344.302 533.469 352.25 533.469 352.25L533.512 352.207Z" fill="#4E763D"/>
<path d="M492.322 431.559L517.479 431.385L508.224 360.807L492.322 431.559Z" fill="#4E763D"/>
<path d="M581.134 357.375C581.134 357.375 578.657 348.558 572.922 341.826L549.372 395.726L551.11 431.124H550.458L594.951 430.864L583.523 355.508C581.959 356.68 581.134 357.375 581.134 357.375Z" fill="#4E763D"/>
<path d="M584.697 354.639L596.254 430.864L613.417 430.734L604.336 343.694C595.298 347.516 588.52 351.903 584.697 354.639Z" fill="#4E763D"/>
<path d="M571.966 340.784C568.707 337.309 564.492 334.616 559.235 334.399C554.455 334.182 550.197 335.789 546.547 338.134L549.198 392.816L571.922 340.784H571.966Z" fill="#4E763D"/>
<path d="M477.201 319.545L481.111 431.645L490.975 431.558L513.047 333.27C503.618 326.668 491.322 320.631 477.201 319.501V319.545Z" fill="#4E763D"/>
<path d="M464.383 319.893L439.269 379.526L440.138 431.906L479.764 431.646L475.854 319.458C472.161 319.241 468.294 319.372 464.34 319.893H464.383Z" fill="#4E763D"/>
<path d="M396.818 402.328C396.818 402.328 385.956 388.343 371.574 385.867L362.362 418.181L366.62 432.427L430.839 431.993L409.81 360.416C398.382 381.437 396.775 402.328 396.775 402.328H396.818Z" fill="#4E763D"/>
<path d="M370.27 385.65C365.1 385.042 359.538 385.954 353.889 389.559L361.71 415.793L370.27 385.65Z" fill="#4E763D"/>
<path d="M334.424 432.645L365.273 432.428L352.716 390.341C331.252 405.152 334.424 432.645 334.424 432.645Z" fill="#4E763D"/>
<path d="M462.862 320.153C458.43 320.892 453.825 322.151 449.132 324.062C445.308 325.626 441.745 327.45 438.443 329.448L439.225 376.312L462.862 320.153Z" fill="#4E763D"/>
<path d="M410.722 358.809L432.23 431.993H438.834L437.14 330.273C425.148 337.961 416.675 348.342 410.722 358.852V358.809Z" fill="#4E763D"/>
<path d="M605.596 343.173L614.764 430.733L626.018 430.647L636.446 335.876C624.584 336.658 614.112 339.655 605.596 343.129V343.173Z" fill="#4E763D"/>
<path d="M688.195 349.601L660.778 407.758L661.603 430.43L687.413 430.256L700.926 365.758C697.71 359.721 693.583 354.162 688.195 349.601Z" fill="#4E763D"/>
<path d="M637.793 335.833L627.365 430.647L660.3 430.43L656.911 336.788C650.219 335.746 643.832 335.529 637.793 335.833Z" fill="#4E763D"/>
<path d="M701.838 367.625L688.716 430.256L710.311 430.125C710.311 430.125 715.134 394.771 701.795 367.669L701.838 367.625Z" fill="#4E763D"/>
<path d="M687.152 348.732C682.372 344.867 676.637 341.74 669.772 339.698C665.818 338.526 661.994 337.657 658.214 337.005L660.691 404.891L687.152 348.732Z" fill="#4E763D"/>
<path d="M362.362 418.355L361.102 418.008L361.71 415.836L353.889 389.603C353.889 389.603 353.629 389.776 353.498 389.863C353.237 390.037 353.02 390.211 352.76 390.341L365.317 432.427H366.664L362.405 418.138V418.312L362.362 418.355Z" fill="#3F6333" fill-opacity="0.68"/>
<path d="M362.406 418.181L371.617 385.867C371.182 385.78 370.748 385.737 370.313 385.693L361.754 415.836L362.449 418.181H362.406Z" fill="#3F6333" fill-opacity="0.68"/>
<path d="M361.102 418.008L362.362 418.355L362.406 418.181L361.71 415.836L361.102 418.008Z" fill="#3F6333" fill-opacity="0.68"/>
<path d="M409.853 360.416L430.883 431.993H432.23L410.722 358.809C410.418 359.33 410.114 359.894 409.81 360.416H409.853Z" fill="#3F6333" fill-opacity="0.68"/>
<path d="M439.225 379.744L438.009 379.222L439.269 376.269L438.487 329.405C438.052 329.665 437.618 329.926 437.183 330.23L438.878 431.907H440.181L439.312 379.526L439.225 379.744Z" fill="#3F6333" fill-opacity="0.68"/>
<path d="M439.312 379.526L464.426 319.893C463.905 319.979 463.427 320.066 462.906 320.11L439.269 376.269V379.526H439.312Z" fill="#3F6333" fill-opacity="0.68"/>
<path d="M438.009 379.222L439.225 379.743L439.312 379.526L439.225 376.312L438.009 379.222Z" fill="#3F6333" fill-opacity="0.68"/>
<path d="M475.897 319.458L479.808 431.645H481.111L477.201 319.545C476.766 319.545 476.332 319.501 475.897 319.458Z" fill="#3F6333" fill-opacity="0.68"/>
<path d="M507.746 357.158L509.05 356.984V357.115L514.22 334.139C513.829 333.878 513.438 333.574 513.047 333.313L490.975 431.602H492.322L508.224 360.85L507.746 357.202V357.158Z" fill="#3F6333" fill-opacity="0.68"/>
<path d="M508.224 360.807L517.479 431.385H518.826L509.05 357.115L508.224 360.807Z" fill="#3F6333" fill-opacity="0.68"/>
<path d="M507.746 357.158L508.224 360.806L509.05 357.115V356.984L507.746 357.158Z" fill="#3F6333" fill-opacity="0.68"/>
<path d="M549.806 431.211L550.458 431.167H549.806V431.211Z" fill="#3F6333" fill-opacity="0.68"/>
<path d="M549.372 395.726V395.857L548.111 395.335L549.241 392.773L546.591 338.091C546.156 338.351 545.722 338.655 545.331 338.959L549.806 431.168H550.458H551.11L549.372 395.77V395.726Z" fill="#3F6333" fill-opacity="0.68"/>
<path d="M549.372 395.726L572.922 341.826C572.617 341.479 572.27 341.088 571.966 340.74L549.241 392.773L549.372 395.726Z" fill="#3F6333" fill-opacity="0.68"/>
<path d="M548.112 395.335L549.328 395.857L549.372 395.726L549.241 392.773L548.112 395.335Z" fill="#3F6333" fill-opacity="0.68"/>
<path d="M604.336 343.694L613.417 430.734H614.72L605.552 343.173C605.118 343.347 604.683 343.52 604.292 343.694H604.336Z" fill="#3F6333" fill-opacity="0.68"/>
<path d="M625.974 431.125L627.278 431.255L627.321 430.647H626.018L625.974 431.125Z" fill="#3F6333" fill-opacity="0.68"/>
<path d="M636.446 335.919L626.018 430.69H627.321L637.749 335.876C637.315 335.876 636.88 335.919 636.402 335.963L636.446 335.919Z" fill="#3F6333" fill-opacity="0.68"/>
<path d="M660.691 407.888L659.518 407.323L660.647 404.891L658.171 337.005C657.736 336.918 657.302 336.875 656.867 336.788L660.256 430.429H661.56L660.734 407.757L660.647 407.888H660.691Z" fill="#3F6333" fill-opacity="0.68"/>
<path d="M660.778 407.714L688.195 349.558C687.847 349.254 687.5 348.993 687.152 348.689L660.691 404.848L660.778 407.714Z" fill="#3F6333" fill-opacity="0.68"/>
<path d="M659.518 407.323L660.691 407.887L660.778 407.714L660.648 404.891L659.518 407.323Z" fill="#3F6333" fill-opacity="0.68"/>
<path d="M700.882 365.758L687.369 430.256H688.716L701.838 367.625C701.534 367.017 701.23 366.366 700.882 365.758Z" fill="#3F6333" fill-opacity="0.68"/>
<path d="M583.48 355.508L594.907 430.864H596.254L584.697 354.639C584.262 354.943 583.871 355.247 583.523 355.508H583.48Z" fill="#3F6333" fill-opacity="0.68"/>
<path d="M1032.67 372.49L1035.67 444.546L1052.44 445.414L1062.95 369.233C1051.26 367.409 1040.84 369.407 1032.67 372.447V372.49Z" fill="#4E763D"/>
<path d="M967.232 366.93C967.232 366.93 962.496 355.811 952.98 346.777L916.916 405.499L915.091 438.247L976.53 441.461L970.795 363.108C968.492 365.193 967.232 366.93 967.232 366.93Z" fill="#4E763D"/>
<path d="M1013.77 383.261C1013.77 383.261 1013.42 368.277 1001.77 359.938L988.87 442.069L1034.36 444.458L1031.36 372.967C1020.41 377.311 1013.72 383.261 1013.72 383.261H1013.77Z" fill="#4E763D"/>
<path d="M996.647 357.115C986.132 352.684 977.225 357.723 972.055 362.066L977.877 441.548L987.523 442.069L1000.51 359.199C999.298 358.461 998.038 357.766 996.604 357.158L996.647 357.115Z" fill="#4E763D"/>
<path d="M952.024 345.865C944.464 339.046 934.079 333.748 920.87 335.876L917.133 402.763L952.024 345.865Z" fill="#4E763D"/>
<path d="M916.221 336.875C900.144 341.392 890.89 353.206 885.632 364.498L901.274 437.509L913.788 438.161L919.48 336.093C918.394 336.31 917.307 336.571 916.221 336.875Z" fill="#4E763D"/>
<path d="M821.761 433.34L840.444 434.339L829.06 390.298C810.507 407.758 821.761 433.383 821.761 433.383V433.34Z" fill="#4E763D"/>
<path d="M831.537 388.126C831.059 388.517 830.624 388.908 830.146 389.298L841.791 434.425L851.307 434.903V380.655C844.919 380.916 838.054 382.914 831.493 388.126H831.537Z" fill="#4E763D"/>
<path d="M865.645 382.697C861.822 381.48 857.39 380.568 852.654 380.612V417.486L865.645 382.697Z" fill="#4E763D"/>
<path d="M878.854 389.081C878.854 389.081 874.074 385.607 866.905 383.131L852.654 421.265V434.99L899.927 437.466L884.763 366.54C879.68 378.44 878.854 389.125 878.854 389.125V389.081Z" fill="#4E763D"/>
<path d="M1107.79 398.854L1097.89 447.802L1117.53 448.845C1117.53 448.845 1122.61 422.307 1107.84 398.854H1107.79Z" fill="#4E763D"/>
<path d="M1086.55 378.18C1078.77 373.446 1071.29 370.753 1064.26 369.493L1061.52 389.342L1080.12 446.891L1096.58 447.759L1106.79 397.29C1102.1 390.298 1095.58 383.696 1086.55 378.18Z" fill="#4E763D"/>
<path d="M1053.78 445.5L1078.72 446.803L1061.08 392.338L1053.78 445.5Z" fill="#4E763D"/>
<path d="M829.06 390.254L840.444 434.295L841.834 434.382L830.19 389.255C829.799 389.603 829.451 389.907 829.103 390.254H829.06Z" fill="#3F6333" fill-opacity="0.68"/>
<path d="M852.61 421.352L851.394 420.874L852.654 417.486V380.612C852.219 380.612 851.785 380.612 851.35 380.612V434.86L852.654 434.946V421.222V421.352H852.61Z" fill="#3F6333" fill-opacity="0.68"/>
<path d="M852.654 421.265L866.905 383.131C866.514 383.001 866.08 382.871 865.645 382.697L852.654 417.487V421.222V421.265Z" fill="#3F6333" fill-opacity="0.68"/>
<path d="M851.394 420.918L852.61 421.352L852.654 421.265V417.487L851.394 420.918Z" fill="#3F6333" fill-opacity="0.68"/>
<path d="M884.763 366.496L899.927 437.422L901.274 437.509L885.632 364.498C885.328 365.193 885.024 365.844 884.72 366.539L884.763 366.496Z" fill="#3F6333" fill-opacity="0.68"/>
<path d="M916.873 405.629L915.743 404.934L917.09 402.719L920.827 335.833C920.392 335.919 919.958 335.963 919.48 336.05L913.788 438.117L915.091 438.204L916.916 405.455L916.829 405.586L916.873 405.629Z" fill="#3F6333" fill-opacity="0.68"/>
<path d="M916.96 405.499L953.023 346.777C952.719 346.473 952.372 346.169 952.024 345.865L917.133 402.762L916.96 405.542V405.499Z" fill="#3F6333" fill-opacity="0.68"/>
<path d="M915.743 404.978L916.873 405.629L916.96 405.499L917.09 402.763L915.743 404.978Z" fill="#3F6333" fill-opacity="0.68"/>
<path d="M970.838 363.108L976.573 441.461L977.877 441.548L972.055 362.066C971.62 362.413 971.186 362.804 970.838 363.152V363.108Z" fill="#3F6333" fill-opacity="0.68"/>
<path d="M1000.56 359.156L987.566 442.026L988.87 442.113L1001.77 359.981C1001.38 359.72 1000.99 359.416 1000.56 359.156Z" fill="#3F6333" fill-opacity="0.68"/>
<path d="M1031.36 373.011L1034.36 444.502L1035.67 444.588L1032.67 372.533C1032.23 372.707 1031.8 372.881 1031.36 373.011Z" fill="#3F6333" fill-opacity="0.68"/>
<path d="M1060.21 389.602L1061.48 389.212V389.342L1064.26 369.493C1063.82 369.406 1063.39 369.319 1062.95 369.276L1052.44 445.457L1053.74 445.544L1061.08 392.382L1060.21 389.646V389.602Z" fill="#3F6333" fill-opacity="0.68"/>
<path d="M1061.08 392.339L1078.72 446.804L1080.12 446.891L1061.52 389.342L1061.08 392.339Z" fill="#3F6333" fill-opacity="0.68"/>
<path d="M1060.21 389.603L1061.08 392.339L1061.52 389.342L1061.48 389.212L1060.21 389.603Z" fill="#3F6333" fill-opacity="0.68"/>
<path d="M1106.79 397.291L1096.58 447.76L1097.89 447.846L1107.79 398.898C1107.45 398.376 1107.14 397.855 1106.75 397.334L1106.79 397.291Z" fill="#3F6333" fill-opacity="0.68"/>
<path d="M1345.25 451.234L1374.4 451.104L1349.68 381.741L1345.25 451.234Z" fill="#4E763D"/>
<path d="M1252.96 365.237L1255.35 451.668H1264.91L1283.94 367.191C1275.12 364.759 1264.69 363.63 1252.96 365.28V365.237Z" fill="#4E763D"/>
<path d="M1411.12 285.45C1407.95 285.885 1404.69 286.666 1401.39 287.839C1395.09 290.054 1390.22 293.572 1386.4 297.829L1391.13 369.884L1411.12 285.45Z" fill="#4E763D"/>
<path d="M1374.23 349.991C1374.23 349.991 1366.02 342.043 1352.33 341.218L1349.94 378.44L1375.84 451.06L1395.22 450.973L1385.18 299.218C1369.88 318.242 1374.23 349.991 1374.23 349.991Z" fill="#4E763D"/>
<path d="M1231.45 371.23C1225.2 373.923 1219.76 377.267 1215.03 381.089L1218.11 411.709L1231.45 371.187V371.23Z" fill="#4E763D"/>
<path d="M1241.79 367.582C1238.75 368.45 1235.84 369.449 1233.1 370.579L1218.5 414.967L1222.2 451.798L1254.05 451.668L1251.7 365.454C1248.48 365.975 1245.23 366.67 1241.84 367.625L1241.79 367.582Z" fill="#4E763D"/>
<path d="M1335.38 343.781C1329.74 345.822 1325.65 349.21 1322.74 353.206L1336.99 451.234H1343.9L1350.94 341.131C1346.29 341.001 1341.08 341.696 1335.34 343.737L1335.38 343.781Z" fill="#4E763D"/>
<path d="M1296.41 371.708C1293.06 370.145 1289.33 368.668 1285.2 367.495L1266.26 451.581L1297.5 451.451L1295.76 371.752H1296.41V371.708Z" fill="#4E763D"/>
<path d="M1315.92 384.651C1315.92 384.651 1309.1 377.746 1297.06 372.012L1298.8 451.408L1335.69 451.234L1321.65 354.813C1313.7 367.409 1315.92 384.608 1315.92 384.608V384.651Z" fill="#4E763D"/>
<path d="M1412.51 285.277L1391.44 374.358L1396.48 451.017L1413.9 450.93L1428.46 286.189C1423.55 285.103 1418.2 284.669 1412.51 285.277Z" fill="#4E763D"/>
<path d="M1184.53 451.972L1220.85 451.799L1213.85 382.132C1192.17 400.504 1185.92 429.17 1184.53 451.972Z" fill="#4E763D"/>
<path d="M1429.71 286.449L1415.2 450.886L1447.96 450.756L1441.75 291.01C1438.14 289.185 1434.1 287.578 1429.71 286.493V286.449Z" fill="#4E763D"/>
<path d="M1218.42 415.098L1217.16 414.707L1218.11 411.754L1215.03 381.133C1214.64 381.481 1214.2 381.785 1213.81 382.132L1220.81 451.799H1222.11L1218.42 414.968V415.098Z" fill="#3F6333" fill-opacity="0.68"/>
<path d="M1218.46 414.968L1233.06 370.579C1232.54 370.796 1231.97 371.013 1231.45 371.231L1218.11 411.754L1218.42 414.968H1218.46Z" fill="#3F6333" fill-opacity="0.68"/>
<path d="M1217.16 414.706L1218.42 415.097L1218.46 414.967L1218.16 411.753L1217.16 414.706Z" fill="#3F6333" fill-opacity="0.68"/>
<path d="M1255.3 451.544L1253.99 451.58L1254 451.884L1255.3 451.848L1255.3 451.544Z" fill="#3F6333" fill-opacity="0.68"/>
<path d="M1251.66 365.41L1254 451.624H1255.31L1252.92 365.193C1252.48 365.236 1252.05 365.323 1251.61 365.367L1251.66 365.41Z" fill="#3F6333" fill-opacity="0.68"/>
<path d="M1283.94 367.147L1264.91 451.581H1266.26L1285.2 367.495C1284.77 367.365 1284.37 367.234 1283.94 367.147Z" fill="#3F6333" fill-opacity="0.68"/>
<path d="M1297.06 371.708H1296.41C1296.63 371.838 1296.84 371.925 1297.06 372.012V371.708Z" fill="#3F6333" fill-opacity="0.68"/>
<path d="M1296.41 371.708H1295.76L1297.5 451.451H1298.8L1297.06 372.055C1296.84 371.969 1296.63 371.838 1296.41 371.751V371.708Z" fill="#3F6333" fill-opacity="0.68"/>
<path d="M1321.65 354.856L1335.69 451.277H1336.99L1322.74 353.249C1322.35 353.77 1322 354.335 1321.65 354.856Z" fill="#3F6333" fill-opacity="0.68"/>
<path d="M1348.64 378.744L1349.85 378.31V378.44L1352.29 341.218C1351.85 341.218 1351.42 341.175 1350.98 341.175L1343.94 451.234H1345.25L1349.68 381.741L1348.59 378.744H1348.64Z" fill="#3F6333" fill-opacity="0.68"/>
<path d="M1349.68 381.741L1374.4 451.103L1375.79 451.06L1349.9 378.44L1349.68 381.741Z" fill="#3F6333" fill-opacity="0.68"/>
<path d="M1348.64 378.744L1349.68 381.741L1349.9 378.44L1349.85 378.31L1348.64 378.744Z" fill="#3F6333" fill-opacity="0.68"/>
<path d="M1391.39 374.444L1390.13 374.14L1391.13 369.884L1386.4 297.829C1385.96 298.306 1385.57 298.784 1385.18 299.262L1395.22 451.017H1396.52L1391.48 374.357V374.444H1391.39Z" fill="#3F6333" fill-opacity="0.68"/>
<path d="M1391.44 374.314L1412.51 285.276C1412.03 285.32 1411.6 285.407 1411.12 285.45L1391.13 369.884L1391.44 374.357V374.314Z" fill="#3F6333" fill-opacity="0.68"/>
<path d="M1390.13 374.141L1391.39 374.445L1391.44 374.314L1391.13 369.884L1390.13 374.141Z" fill="#3F6333" fill-opacity="0.68"/>
<path d="M1428.45 286.145L1413.9 450.886H1415.2L1429.72 286.449C1429.28 286.362 1428.85 286.232 1428.41 286.145H1428.45Z" fill="#3F6333" fill-opacity="0.68"/>
<path d="M-1 444.064C-1 444.064 801.419 403.42 1441 444.064V652H-1V444.064Z" fill="#8EB152"/>
<path d="M316.769 501.469C317.508 501.436 318.105 502.055 318.738 502.69C319.335 503.341 320.003 504.009 320.144 504.172C320.284 504.334 320.917 505.051 321.514 505.767C322.077 506.484 322.569 507.184 321.971 507.363C321.374 507.558 320.108 507.053 319.089 506.418C318.035 505.8 317.226 505.051 317.086 504.872C316.945 504.709 316.313 503.895 316.102 503.097C315.996 502.69 315.996 502.299 316.102 501.99C316.242 501.681 316.453 501.485 316.84 501.469H316.769Z" fill="#3F6333"/>
<path d="M324.396 498.669C325.134 498.717 325.275 499.597 325.38 500.525C325.486 501.453 325.451 502.446 325.416 502.657C325.416 502.885 325.31 503.927 325.099 504.904C324.888 505.897 324.502 506.825 323.764 506.842C323.026 506.842 322.533 505.946 322.287 504.969C322.006 504.009 321.971 502.967 322.006 502.739C322.006 502.511 322.182 501.469 322.569 500.492C322.955 499.515 323.693 498.603 324.431 498.652L324.396 498.669Z" fill="#3F6333"/>
<path d="M330.793 502.022C331.074 502.136 331.109 502.332 331.039 502.56C331.039 502.674 330.934 502.804 330.863 502.934C330.793 503.081 330.688 503.211 330.582 503.357C330.16 503.944 329.668 504.562 329.563 504.709C329.422 504.839 328.86 505.49 328.192 506.093C327.524 506.695 326.751 507.249 326.048 507.151C325.345 507.053 325.275 506.386 325.486 505.702C325.697 505.018 326.154 504.334 326.294 504.188C326.435 504.041 327.103 503.374 328.052 502.804C328.509 502.511 329.071 502.25 329.563 502.104C330.09 501.957 330.547 501.908 330.828 502.022H330.793Z" fill="#3F6333"/>
<path d="M1172.65 527.144C1173.39 527.112 1173.98 527.73 1174.62 528.365C1175.21 529.017 1175.88 529.684 1176.02 529.847C1176.16 530.01 1176.8 530.726 1177.39 531.442C1177.96 532.159 1178.45 532.859 1177.85 533.038C1177.25 533.233 1175.99 532.729 1174.97 532.094C1173.91 531.475 1173.11 530.726 1172.96 530.547C1172.82 530.384 1172.19 529.57 1171.98 528.772C1171.88 528.365 1171.88 527.975 1171.98 527.665C1172.12 527.356 1172.33 527.161 1172.72 527.144H1172.65Z" fill="#3F6333"/>
<path d="M1180.31 524.36C1181.05 524.409 1181.19 525.288 1181.29 526.216C1181.4 527.144 1181.36 528.137 1181.33 528.349C1181.33 528.577 1181.22 529.619 1181.01 530.596C1180.8 531.589 1180.42 532.517 1179.68 532.533C1178.94 532.533 1178.45 531.638 1178.2 530.661C1177.92 529.7 1177.89 528.658 1177.92 528.43C1177.92 528.202 1178.1 527.16 1178.48 526.183C1178.87 525.207 1179.61 524.295 1180.35 524.344L1180.31 524.36Z" fill="#3F6333"/>
<path d="M1186.71 527.698C1186.99 527.812 1187.02 528.007 1186.95 528.235C1186.95 528.349 1186.85 528.479 1186.78 528.609C1186.71 528.756 1186.6 528.886 1186.5 529.033C1186.07 529.619 1185.58 530.238 1185.48 530.384C1185.34 530.514 1184.77 531.166 1184.11 531.768C1183.44 532.37 1182.67 532.924 1181.96 532.826C1181.26 532.729 1181.19 532.061 1181.4 531.377C1181.61 530.693 1182.07 530.01 1182.21 529.863C1182.35 529.717 1183.02 529.049 1183.97 528.479C1184.42 528.186 1184.99 527.926 1185.48 527.779C1186 527.633 1186.46 527.584 1186.74 527.698H1186.71Z" fill="#3F6333"/>
<path d="M686.768 602.965C687.506 602.933 688.104 603.551 688.736 604.186C689.334 604.837 690.002 605.505 690.142 605.668C690.283 605.831 690.915 606.547 691.513 607.263C692.075 607.98 692.567 608.68 691.97 608.859C691.372 609.054 690.107 608.55 689.088 607.915C688.033 607.296 687.225 606.547 687.084 606.368C686.944 606.205 686.311 605.391 686.1 604.593C685.995 604.186 685.995 603.795 686.1 603.486C686.241 603.177 686.452 602.981 686.838 602.965H686.768Z" fill="#3F6333"/>
<path d="M694.395 600.165C695.133 600.213 695.274 601.093 695.379 602.021C695.485 602.949 695.449 603.942 695.414 604.154C695.414 604.381 695.309 605.423 695.098 606.4C694.887 607.393 694.5 608.321 693.762 608.338C693.024 608.338 692.532 607.442 692.286 606.465C692.005 605.505 691.97 604.463 692.005 604.235C692.005 604.007 692.181 602.965 692.567 601.988C692.954 601.011 693.692 600.1 694.43 600.148L694.395 600.165Z" fill="#3F6333"/>
<path d="M700.827 603.519C701.108 603.632 701.143 603.828 701.073 604.056C701.073 604.17 700.968 604.3 700.897 604.43C700.827 604.577 700.721 604.707 700.616 604.854C700.194 605.44 699.702 606.058 699.597 606.205C699.456 606.335 698.894 606.986 698.226 607.589C697.558 608.191 696.785 608.745 696.082 608.647C695.379 608.549 695.309 607.882 695.52 607.198C695.731 606.514 696.187 605.83 696.328 605.684C696.469 605.537 697.136 604.87 698.085 604.3C698.542 604.007 699.105 603.746 699.597 603.6C700.124 603.453 700.581 603.405 700.862 603.519H700.827Z" fill="#3F6333"/>
<path d="M930.165 469.802C930.903 469.769 931.501 470.388 932.133 471.023C932.731 471.674 933.399 472.342 933.539 472.505C933.68 472.667 934.313 473.384 934.91 474.1C935.472 474.817 935.964 475.517 935.367 475.696C934.769 475.891 933.504 475.386 932.485 474.751C931.43 474.133 930.622 473.384 930.481 473.205C930.341 473.042 929.708 472.228 929.497 471.43C929.392 471.023 929.392 470.632 929.497 470.323C929.638 470.014 929.849 469.818 930.235 469.802H930.165Z" fill="#3F6333"/>
<path d="M937.792 467.018C938.53 467.067 938.671 467.946 938.776 468.874C938.882 469.802 938.847 470.795 938.811 471.007C938.811 471.235 938.706 472.277 938.495 473.254C938.284 474.247 937.898 475.175 937.159 475.191C936.421 475.191 935.929 474.296 935.683 473.319C935.402 472.358 935.367 471.316 935.402 471.088C935.402 470.86 935.578 469.819 935.964 468.842C936.351 467.865 937.089 466.953 937.827 467.002L937.792 467.018Z" fill="#3F6333"/>
<path d="M944.224 470.355C944.505 470.469 944.541 470.665 944.47 470.893C944.47 471.007 944.365 471.137 944.295 471.267C944.224 471.414 944.119 471.544 944.013 471.69C943.592 472.277 943.099 472.895 942.994 473.042C942.853 473.172 942.291 473.823 941.623 474.426C940.955 475.028 940.182 475.582 939.479 475.484C938.776 475.386 938.706 474.719 938.917 474.035C939.128 473.351 939.585 472.667 939.725 472.521C939.866 472.374 940.534 471.707 941.483 471.137C941.94 470.844 942.502 470.583 942.994 470.437C943.521 470.29 943.978 470.241 944.259 470.355H944.224Z" fill="#3F6333"/>
<path d="M423.548 573.041C423.864 572.959 424.356 573.09 424.883 573.35C425.165 573.48 425.411 573.659 425.692 573.838C425.973 574.034 426.219 574.245 426.465 574.457C427.449 575.32 428.047 576.297 428.187 576.525C428.328 576.753 428.925 577.778 429.171 578.788C429.453 579.797 429.382 580.758 428.644 580.807C427.906 580.856 427.133 580.025 426.43 579.13C425.727 578.234 425.094 577.29 424.954 577.078C424.813 576.867 424.321 575.89 423.864 574.978C423.723 574.75 423.618 574.522 423.548 574.311C423.442 574.099 423.372 573.904 423.302 573.725C423.196 573.383 423.196 573.106 423.513 573.024L423.548 573.041Z" fill="#3F6333"/>
<path d="M432.932 571.559C433.67 571.608 433.811 572.536 433.916 573.513C434.022 574.49 434.057 575.515 434.057 575.759C434.057 575.987 434.057 577.094 433.951 578.136C433.846 579.178 433.635 580.172 432.897 580.204C432.159 580.237 431.526 579.292 431.139 578.267C430.753 577.241 430.612 576.15 430.612 575.906C430.612 575.662 430.683 574.555 431.069 573.513C431.421 572.471 432.159 571.51 432.897 571.559H432.932Z" fill="#3F6333"/>
<path d="M969.003 498.326C969.319 498.245 969.811 498.375 970.339 498.636C970.62 498.766 970.866 498.945 971.147 499.124C971.428 499.319 971.674 499.531 971.92 499.743C972.904 500.606 973.502 501.583 973.643 501.81C973.783 502.038 974.381 503.064 974.627 504.074C974.908 505.083 974.838 506.044 974.099 506.092C973.361 506.141 972.588 505.311 971.885 504.415C971.182 503.52 970.55 502.576 970.409 502.364C970.268 502.152 969.776 501.176 969.319 500.264C969.179 500.036 969.073 499.808 969.003 499.596C968.898 499.385 968.827 499.189 968.757 499.01C968.652 498.668 968.652 498.391 968.968 498.31L969.003 498.326Z" fill="#3F6333"/>
<path d="M978.352 496.845C979.091 496.894 979.231 497.822 979.337 498.799C979.442 499.776 979.477 500.801 979.477 501.046C979.477 501.274 979.477 502.381 979.372 503.423C979.266 504.465 979.055 505.458 978.317 505.49C977.579 505.523 976.947 504.579 976.56 503.553C976.173 502.527 976.033 501.436 976.033 501.192C976.033 500.948 976.103 499.841 976.49 498.799C976.841 497.757 977.579 496.796 978.317 496.845H978.352Z" fill="#3F6333"/>
<path d="M371.143 468.663C371.81 468.533 372.9 469.2 373.744 469.998C374.622 470.796 375.22 471.675 375.36 471.886C375.501 472.082 376.063 473.042 376.309 473.97C376.591 474.898 376.52 475.794 375.782 475.859C375.044 475.908 374.306 475.159 373.568 474.345C372.865 473.531 372.232 472.668 372.092 472.473C371.986 472.277 371.494 471.382 371.072 470.519C370.686 469.656 370.405 468.809 371.072 468.679L371.143 468.663Z" fill="#3F6333"/>
<path d="M381.792 469.493C382.495 469.607 382.425 470.291 382.284 471.039C382.144 471.772 381.828 472.554 381.757 472.716C381.687 472.895 381.3 473.693 380.773 474.458C380.246 475.207 379.613 475.924 378.875 475.859C378.137 475.81 377.961 475.061 377.961 474.279C377.961 473.498 378.242 472.684 378.313 472.505C378.383 472.326 378.84 471.528 379.508 470.779C380.14 470.046 381.089 469.379 381.792 469.493Z" fill="#3F6333"/>
<path d="M622.448 625.074C623.116 624.944 624.205 625.612 625.049 626.409C625.928 627.207 626.525 628.086 626.666 628.298C626.806 628.493 627.369 629.454 627.615 630.382C627.896 631.31 627.826 632.206 627.087 632.271C626.349 632.319 625.611 631.571 624.873 630.757C624.17 629.942 623.538 629.08 623.397 628.884C623.291 628.689 622.799 627.793 622.378 626.93C621.991 626.068 621.71 625.221 622.378 625.091L622.448 625.074Z" fill="#3F6333"/>
<path d="M633.133 625.905C633.836 626.019 633.765 626.703 633.625 627.452C633.484 628.184 633.168 628.966 633.098 629.129C633.027 629.308 632.641 630.105 632.114 630.871C631.586 631.62 630.954 632.336 630.216 632.271C629.477 632.222 629.302 631.473 629.302 630.691C629.302 629.91 629.583 629.096 629.653 628.917C629.723 628.738 630.18 627.94 630.848 627.191C631.481 626.458 632.43 625.791 633.133 625.905Z" fill="#3F6333"/>
<path d="M1253.59 495.282C1254.26 495.152 1255.35 495.819 1256.19 496.617C1257.07 497.415 1257.67 498.294 1257.81 498.506C1257.95 498.701 1258.51 499.662 1258.76 500.59C1259.04 501.518 1258.97 502.413 1258.23 502.478C1257.49 502.527 1256.76 501.778 1256.02 500.964C1255.32 500.15 1254.68 499.287 1254.54 499.092C1254.44 498.896 1253.94 498.001 1253.52 497.138C1253.14 496.275 1252.85 495.428 1253.52 495.298L1253.59 495.282Z" fill="#3F6333"/>
<path d="M1264.28 496.113C1264.98 496.227 1264.91 496.911 1264.77 497.66C1264.63 498.392 1264.31 499.174 1264.24 499.337C1264.17 499.516 1263.79 500.313 1263.26 501.079C1262.73 501.828 1262.1 502.544 1261.36 502.479C1260.62 502.43 1260.45 501.681 1260.45 500.899C1260.45 500.118 1260.73 499.304 1260.8 499.125C1260.87 498.946 1261.33 498.148 1261.99 497.399C1262.63 496.666 1263.58 495.999 1264.28 496.113Z" fill="#3F6333"/>
<path d="M438.099 494.044C438.38 493.931 438.767 493.947 439.259 494.077C439.47 494.142 439.716 494.24 439.962 494.338C440.173 494.452 440.419 494.565 440.594 494.696C441.368 495.217 441.86 495.819 441.965 495.949C442.071 496.08 442.492 496.731 442.598 497.35C442.703 497.968 442.598 498.587 441.824 498.652C441.086 498.717 440.419 498.229 439.856 497.708C439.294 497.187 438.837 496.649 438.731 496.519C438.661 496.389 438.345 495.835 438.064 495.298C437.993 495.168 437.923 495.038 437.888 494.907C437.853 494.777 437.782 494.663 437.782 494.549C437.747 494.338 437.782 494.142 438.064 494.028L438.099 494.044Z" fill="#3F6333"/>
<path d="M444.531 490.935C444.882 490.968 445.128 491.196 445.234 491.505C445.374 491.831 445.445 492.254 445.515 492.677C445.621 493.54 445.691 494.468 445.691 494.68C445.691 494.891 445.691 495.868 445.621 496.796C445.515 497.724 445.304 498.62 444.566 498.652C443.828 498.685 443.195 497.838 442.809 496.927C442.422 496.015 442.281 495.038 442.281 494.81C442.281 494.598 442.317 493.589 442.738 492.661C442.949 492.189 443.195 491.733 443.547 491.424C443.898 491.098 444.25 490.903 444.601 490.935H444.531Z" fill="#3F6333"/>
<path d="M188.2 479.457C188.481 479.571 188.516 479.75 188.481 479.946C188.481 480.059 188.41 480.157 188.375 480.271C188.34 480.401 188.235 480.515 188.164 480.646C187.883 481.15 187.497 481.688 187.426 481.818C187.321 481.932 186.899 482.502 186.407 483.055C185.88 483.592 185.282 484.097 184.544 484.032C183.806 483.967 183.595 483.381 183.63 482.762C183.666 482.143 184.017 481.525 184.122 481.378C184.228 481.248 184.755 480.629 185.599 480.108C185.81 479.978 186.056 479.848 186.266 479.75C186.512 479.636 186.759 479.555 187.005 479.49C187.497 479.359 187.954 479.343 188.2 479.457Z" fill="#3F6333"/>
<path d="M181.838 476.266C182.189 476.233 182.541 476.429 182.857 476.738C183.173 477.047 183.419 477.487 183.56 477.943C183.876 478.854 183.912 479.815 183.912 480.043C183.912 480.255 183.841 481.28 183.49 482.225C183.173 483.169 182.576 484.048 181.838 484.016C181.1 483.983 180.819 483.12 180.643 482.208C180.502 481.297 180.432 480.352 180.432 480.141C180.432 479.929 180.572 478.985 180.713 478.073C180.783 477.617 180.889 477.178 181.065 476.852C181.205 476.526 181.451 476.282 181.803 476.25L181.838 476.266Z" fill="#3F6333"/>
<path d="M764.198 646.419C764.48 646.533 764.515 646.712 764.479 646.907C764.479 647.021 764.409 647.119 764.374 647.233C764.339 647.363 764.233 647.477 764.163 647.608C763.882 648.112 763.495 648.65 763.425 648.78C763.32 648.894 762.898 649.464 762.406 650.017C761.879 650.554 761.281 651.059 760.543 650.994C759.805 650.929 759.594 650.343 759.629 649.724C759.664 649.105 760.016 648.487 760.121 648.34C760.227 648.21 760.754 647.591 761.597 647.07C761.808 646.94 762.054 646.81 762.265 646.712C762.511 646.598 762.757 646.517 763.003 646.452C763.495 646.321 763.952 646.305 764.198 646.419Z" fill="#3F6333"/>
<path d="M757.836 643.228C758.188 643.196 758.539 643.391 758.856 643.7C759.172 644.01 759.418 644.449 759.559 644.905C759.875 645.817 759.91 646.777 759.91 647.005C759.91 647.217 759.84 648.243 759.488 649.187C759.172 650.131 758.575 651.011 757.836 650.978C757.098 650.945 756.817 650.083 756.641 649.171C756.501 648.259 756.431 647.315 756.431 647.103C756.431 646.891 756.571 645.947 756.712 645.035C756.782 644.58 756.887 644.14 757.063 643.814C757.204 643.489 757.45 643.244 757.801 643.212L757.836 643.228Z" fill="#3F6333"/>
<path d="M1090.37 496.015C1090.65 495.901 1091.04 495.917 1091.53 496.047C1091.74 496.112 1091.98 496.21 1092.23 496.308C1092.44 496.422 1092.69 496.536 1092.86 496.666C1093.64 497.187 1094.13 497.789 1094.23 497.92C1094.34 498.05 1094.76 498.701 1094.87 499.32C1094.97 499.938 1094.87 500.557 1094.09 500.622C1093.36 500.687 1092.69 500.199 1092.13 499.678C1091.56 499.157 1091.11 498.62 1091 498.489C1090.93 498.359 1090.61 497.806 1090.33 497.268C1090.26 497.138 1090.19 497.008 1090.16 496.878C1090.12 496.747 1090.05 496.633 1090.05 496.519C1090.02 496.308 1090.05 496.112 1090.33 495.998L1090.37 496.015Z" fill="#3F6333"/>
<path d="M1096.76 492.905C1097.12 492.937 1097.36 493.165 1097.47 493.475C1097.61 493.8 1097.68 494.224 1097.75 494.647C1097.85 495.51 1097.92 496.438 1097.92 496.65C1097.92 496.861 1097.92 497.838 1097.85 498.766C1097.75 499.694 1097.54 500.59 1096.8 500.622C1096.06 500.655 1095.43 499.808 1095.04 498.896C1094.66 497.985 1094.52 497.008 1094.52 496.78C1094.52 496.568 1094.55 495.559 1094.97 494.631C1095.18 494.159 1095.43 493.703 1095.78 493.393C1096.13 493.068 1096.48 492.872 1096.83 492.905H1096.76Z" fill="#3F6333"/>
<path d="M1073.64 564.802C1073.92 564.916 1073.95 565.095 1073.92 565.291C1073.92 565.405 1073.85 565.502 1073.81 565.616C1073.78 565.747 1073.67 565.861 1073.6 565.991C1073.32 566.496 1072.93 567.033 1072.86 567.163C1072.76 567.277 1072.34 567.847 1071.84 568.4C1071.32 568.938 1070.72 569.442 1069.98 569.377C1069.24 569.312 1069.03 568.726 1069.07 568.107C1069.1 567.489 1069.45 566.87 1069.56 566.723C1069.67 566.593 1070.19 565.975 1071.04 565.454C1071.25 565.323 1071.49 565.193 1071.7 565.095C1071.95 564.981 1072.2 564.9 1072.44 564.835C1072.93 564.705 1073.39 564.688 1073.64 564.802Z" fill="#3F6333"/>
<path d="M1067.28 561.611C1067.63 561.578 1067.98 561.774 1068.3 562.083C1068.61 562.393 1068.86 562.832 1069 563.288C1069.31 564.2 1069.35 565.16 1069.35 565.388C1069.35 565.6 1069.28 566.626 1068.93 567.57C1068.61 568.514 1068.01 569.393 1067.28 569.361C1066.54 569.328 1066.26 568.465 1066.08 567.554C1065.94 566.642 1065.87 565.698 1065.87 565.486C1065.87 565.274 1066.01 564.33 1066.15 563.418C1066.22 562.962 1066.33 562.523 1066.5 562.197C1066.64 561.872 1066.89 561.627 1067.24 561.595L1067.28 561.611Z" fill="#3F6333"/>
<path d="M284.293 553.08C284.996 552.982 285.699 553.471 286.121 554.008C286.577 554.545 286.824 555.131 286.859 555.261C286.894 555.392 287.07 556.027 287.034 556.613C286.999 557.215 286.718 557.785 285.98 557.818C285.242 557.85 284.68 557.345 284.258 556.808C283.836 556.271 283.555 555.701 283.52 555.571C283.484 555.441 283.379 554.854 283.414 554.285C283.449 553.715 283.625 553.161 284.328 553.063L284.293 553.08Z" fill="#3F6333"/>
<path d="M292.307 551.761C293.01 551.875 292.974 552.493 292.869 553.128C292.764 553.763 292.553 554.447 292.482 554.594C292.412 554.74 292.131 555.457 291.709 556.124C291.287 556.792 290.76 557.41 290.022 557.378C289.284 557.345 288.968 556.678 288.897 555.994C288.827 555.294 289.003 554.577 289.038 554.415C289.108 554.252 289.46 553.535 290.092 552.884C290.69 552.233 291.604 551.663 292.271 551.777L292.307 551.761Z" fill="#3F6333"/>
<path d="M954.487 551.761C955.19 551.875 955.155 552.493 955.05 553.128C954.944 553.763 954.733 554.447 954.663 554.594C954.593 554.74 954.311 555.457 953.89 556.124C953.468 556.792 952.941 557.41 952.203 557.378C951.465 557.345 951.148 556.678 951.078 555.994C951.008 555.294 951.183 554.577 951.219 554.415C951.289 554.252 951.64 553.535 952.273 552.884C952.87 552.233 953.784 551.663 954.452 551.777L954.487 551.761Z" fill="#3F6333"/>
<path d="M1171.42 470.779C1172.12 470.893 1172.09 471.511 1171.98 472.146C1171.88 472.781 1171.66 473.465 1171.59 473.612C1171.52 473.758 1171.24 474.475 1170.82 475.142C1170.4 475.81 1169.87 476.428 1169.13 476.396C1168.4 476.363 1168.08 475.696 1168.01 475.012C1167.94 474.312 1168.11 473.595 1168.15 473.433C1168.22 473.27 1168.57 472.553 1169.2 471.902C1169.8 471.251 1170.72 470.681 1171.38 470.795L1171.42 470.779Z" fill="#3F6333"/>
<path d="M333.278 431.16L362.736 430.351L350.57 172.327L331.582 172.829L333.278 431.16Z" fill="#E5E7E7"/>
<path d="M350.57 172.328L362.736 430.351L349.878 430.687L337.712 172.664L350.57 172.328Z" fill="#ECECEC"/>
<path d="M373.47 182.122L331.913 183.225L331.337 161.785L372.894 160.682C377.284 160.565 380.95 164.044 381.068 168.437L381.216 173.944C381.334 178.337 377.86 182.005 373.47 182.122Z" fill="#D8D8D7"/>
<path d="M324.14 180.342L331.763 180.16L331.324 164.856L323.701 165.039C319.476 165.158 316.154 168.68 316.275 172.908C316.395 177.136 319.915 180.461 324.14 180.342Z" fill="#E5E7E7"/>
<path d="M325.217 49.3893L328.524 171.682L335.687 167.643C343.009 163.51 347.078 155.337 345.896 146.961L331.856 44.8626C328.693 43.498 325.14 45.9308 325.274 49.3771L325.217 49.3893Z" fill="#E5E7E7"/>
<path d="M435.979 230.02L328.525 171.682L328.476 179.9C328.406 188.302 333.494 195.907 341.239 199.114L436.606 238.034C439.394 235.944 439.032 231.707 435.992 230.077L435.979 230.02Z" fill="#E5E7E7"/>
<path d="M224.32 235.648L328.524 171.682L321.411 167.502C314.158 163.232 305.058 163.789 298.438 168.97L217.111 232.148C217.544 235.591 221.344 237.419 224.32 235.648Z" fill="#E5E7E7"/>
<path d="M130.869 424.866L152.01 424.676L146.255 239.433L132.617 239.574L130.869 424.866Z" fill="#E5E7E7"/>
<path d="M146.255 239.433L152.01 424.676L142.802 424.787L137.039 239.485L146.255 239.433Z" fill="#ECECEC"/>
<path d="M162.532 246.672L132.672 246.986L132.507 231.634L162.367 231.319C165.528 231.286 168.073 233.838 168.107 236.943L168.15 240.928C168.184 244.092 165.635 246.639 162.532 246.672Z" fill="#D8D8D7"/>
<path d="M127.215 244.89L132.705 244.829L132.58 233.839L127.09 233.901C124.076 233.91 121.652 236.44 121.663 239.457C121.673 242.473 124.201 244.899 127.215 244.89Z" fill="#E5E7E7"/>
<path d="M129.496 150.893L130.425 238.699L135.639 235.835C140.912 232.964 143.93 227.096 143.206 221.102L134.305 147.672C132.039 146.689 129.493 148.348 129.488 150.835L129.496 150.893Z" fill="#E5E7E7"/>
<path d="M206.843 281.81L130.425 238.699L130.255 244.64C130.101 250.698 133.65 256.176 139.184 258.535L207.179 287.562C209.161 286.1 209.027 283.041 206.843 281.81Z" fill="#E5E7E7"/>
<path d="M54.9358 283.394L130.425 238.699L125.381 235.62C120.212 232.5 113.686 232.766 108.876 236.401L49.7827 280.804C50.0673 283.249 52.8051 284.64 54.9358 283.394Z" fill="#E5E7E7"/>
<path d="M1380.9 375.444L1353.3 375.208L1360.44 133.192L1378.24 133.381L1380.9 375.444Z" fill="#E5E7E7"/>
<path d="M1360.44 133.192L1353.3 375.208L1365.31 375.305L1372.51 133.301L1360.44 133.192Z" fill="#ECECEC"/>
<path d="M1339.14 142.741L1378.13 143.088L1378.32 122.989L1339.32 122.642C1335.22 122.605 1331.85 125.916 1331.82 130.017L1331.77 135.174C1331.73 139.276 1335.04 142.645 1339.14 142.682L1339.14 142.741Z" fill="#D8D8D7"/>
<path d="M1385.33 140.281L1378.17 140.195L1378.29 125.842L1385.45 125.927C1389.39 125.985 1392.6 129.184 1392.53 133.183C1392.47 137.124 1389.27 140.339 1385.28 140.268L1385.33 140.281Z" fill="#E5E7E7"/>
<path d="M1382.15 17.5663L1381.06 132.242L1374.29 128.587C1367.37 124.839 1363.42 117.23 1364.36 109.403L1375.84 13.4688C1378.81 12.125 1382.12 14.3249 1382.08 17.6115L1382.15 17.5663Z" fill="#E5E7E7"/>
<path d="M1281.37 188.696L1381.11 132.254L1381.33 139.969C1381.51 147.855 1376.92 155.087 1369.68 158.162L1280.91 196.207C1278.27 194.267 1278.51 190.305 1281.37 188.696Z" fill="#E5E7E7"/>
<path d="M1479.84 190.444L1381.13 132.197L1387.73 128.149C1394.48 124.012 1403.01 124.446 1409.31 129.141L1486.56 187.018C1486.23 190.244 1482.67 192.063 1479.85 190.386L1479.84 190.444Z" fill="#E5E7E7"/>
<path d="M122.848 370.482H110.026V442.209H122.848V370.482Z" fill="#4F2D1E"/>
<path d="M122.907 370.482H118.457V442.209H122.907V370.482Z" fill="#40261C"/>
<path d="M124.956 400.134C124.839 401.599 123.844 402.888 122.555 403.591C121.267 404.295 119.804 404.588 118.34 404.646C112.778 404.939 107.04 403.005 102.883 399.314C102.063 400.896 100.306 401.892 98.4913 402.244C96.7348 402.595 94.8612 402.361 93.1047 402.126C89.1233 401.599 85.0248 401.013 81.6289 398.845C78.233 396.735 75.891 393.043 76.7693 389.176C71.9096 389.937 66.4644 388.648 63.2442 384.956C60.0239 381.206 60.2581 375.287 64.181 372.24C60.1996 369.954 57.7405 365.149 58.326 360.578C58.9115 356.007 62.7758 351.847 67.2256 350.616C65.0007 349.268 63.9468 346.28 64.7079 343.818C65.4691 341.357 68.7479 339.072 71.3826 339.248C70.1531 338.31 69.6847 336.552 70.3287 335.146C70.9728 333.739 72.2023 332.45 73.6661 332.801C69.8018 329.696 68.0453 324.304 68.9821 319.382C69.9189 314.518 73.3733 310.24 77.8232 307.955C82.2144 305.669 87.4254 305.611 92.2265 306.783C90.9384 304.204 91.5239 300.864 93.5731 298.872C95.6224 296.879 100.131 295.297 102.648 296.645C101.77 294.477 102.18 291.781 103.702 289.964C105.225 288.148 107.801 287.269 110.084 287.796C110.904 285.511 115.998 283.518 118.398 283.987C120.799 284.397 122.731 286.683 122.731 289.144C124.312 288.03 126.537 287.679 128.293 288.499C130.05 289.261 131.338 291.019 131.631 292.953C134.5 292.894 138.071 294.77 139.828 296.996C141.643 299.223 142.287 302.27 141.643 305.025C143.809 305.376 145.39 308.775 144.512 310.768C146.327 312.877 147.791 316.335 147.439 319.089C151.948 319.733 156.573 323.074 158.447 327.234C160.32 331.395 159.91 336.552 157.393 340.361C159.501 341.474 160.847 344.463 161.316 346.807C161.784 349.151 161.081 351.671 159.559 353.488C161.433 356.066 161.784 360.227 161.081 363.274C160.32 366.38 158.212 369.075 155.402 370.482C156.456 373.119 157.451 376.049 157.803 378.92C158.154 381.733 157.686 384.781 155.988 387.066C154.348 389.293 151.655 390.582 148.903 390.992C149.02 397.204 144.512 403.298 138.54 405.174C132.568 407.049 128.352 405.291 124.897 400.134H124.956Z" fill="#8EB152"/>
<path d="M161.374 346.748C160.906 344.404 159.559 341.474 157.451 340.302C159.969 336.493 160.379 331.336 158.505 327.176C157.159 324.128 154.348 321.609 151.186 320.144C154.114 324.246 155.226 329.578 153.997 334.442C150.191 331.454 143.165 332.919 140.238 336.786C143.165 336.259 146.268 337.607 147.849 340.126C142.989 340.361 137.427 344.17 135.671 348.741C133.446 346.28 129.347 344.463 126.068 345.049C122.79 345.576 119.862 347.92 118.633 351.026C122.731 350.03 127.766 351.319 130.401 354.66C126.771 353.898 121.736 356.066 120.272 359.465C123.492 357.883 128.001 358.293 130.811 360.52C126.303 361.457 120.506 364.387 118.984 368.724C116.935 366.145 113.012 364.739 109.733 364.856C106.396 364.973 103.175 366.731 101.302 369.486C98.14 366.204 93.2218 366.497 89.8259 369.486C93.8659 368.372 98.667 372.123 99.3696 376.225C95.8566 374.584 90.0016 375.521 87.4839 378.51C89.7088 377.397 92.8705 378.217 95.0954 379.272C97.3203 380.327 99.0183 382.436 99.6038 384.839C96.325 383.667 90.5285 385.308 88.5378 388.179C87.7767 385.073 85.9031 382.143 82.9756 380.854C80.0481 379.565 76.535 379.682 73.7832 381.264C76.1252 381.909 78.4086 383.433 79.5797 385.542C75.1298 382.436 68.6893 382.788 63.7711 385.425C67.0499 388.707 72.1438 389.82 76.7692 389.117C75.891 393.043 78.233 396.676 81.6289 398.786C85.0248 400.896 89.1233 401.54 93.1047 402.068C94.9198 402.302 96.7348 402.478 98.4913 402.185C100.248 401.833 102.004 400.896 102.883 399.255C107.04 402.947 112.778 404.88 118.34 404.587C119.804 404.529 121.326 404.236 122.555 403.533C123.844 402.829 124.839 401.54 124.956 400.075C128.41 405.232 132.626 406.99 138.598 405.115C144.57 403.24 149.079 397.145 148.962 390.933C151.713 390.523 154.407 389.234 156.046 387.007C157.744 384.722 158.212 381.675 157.861 378.862C157.51 376.049 156.515 373.119 155.461 370.423C158.271 368.958 160.437 366.262 161.14 363.215C161.901 360.109 161.491 356.007 159.618 353.429C161.14 351.612 161.784 349.092 161.374 346.748Z" fill="#80A042"/>
<path d="M323.181 339.613L306.278 340.489L311.179 434.8L328.081 433.924L323.181 339.613Z" fill="#4F2D1E"/>
<path d="M323.137 339.612L317.305 339.914L322.206 434.225L328.038 433.923L323.137 339.612Z" fill="#40261C"/>
<path d="M332.482 393.564C332.424 395.485 331.197 397.242 329.543 398.294C327.942 399.339 325.984 399.778 324.049 399.996C316.79 400.797 309.109 398.597 303.337 394.053C302.331 396.216 300.126 397.619 297.8 398.165C295.474 398.71 293.05 398.559 290.68 398.4C285.435 397.99 280.014 397.495 275.393 394.92C270.772 392.345 267.44 387.676 268.353 382.519C261.981 383.798 254.764 382.571 250.285 377.899C245.806 373.228 245.739 365.367 250.604 361.131C245.196 358.393 241.707 352.216 242.11 346.148C242.567 340.072 247.389 334.367 253.121 332.413C250.157 330.753 248.537 326.991 249.377 323.649C250.226 320.36 254.415 317.147 257.803 317.163C256.115 316.034 255.402 313.675 256.178 311.817C256.954 309.959 258.442 308.111 260.46 308.483C255.123 304.697 252.446 297.695 253.393 291.222C254.34 284.75 258.543 278.912 264.194 275.604C269.844 272.296 276.659 271.83 283.057 273.063C281.175 269.775 281.751 265.322 284.311 262.557C286.871 259.793 292.65 257.396 296.049 259.049C294.725 256.23 295.153 252.672 296.994 250.227C298.88 247.721 302.194 246.436 305.214 246.94C306.146 243.858 312.728 240.966 315.894 241.341C319.059 241.716 321.76 244.615 321.936 247.815C323.958 246.273 326.82 245.653 329.188 246.577C331.557 247.501 333.395 249.702 333.856 252.206C337.581 251.901 342.432 254.17 344.896 256.939C347.414 259.7 348.522 263.698 347.841 267.401C350.67 267.714 352.978 272.089 351.985 274.743C354.541 277.389 356.635 281.795 356.443 285.484C362.422 286.065 368.715 290.044 371.495 295.447C374.267 300.795 374.076 307.599 371.037 312.781C373.848 314.135 375.851 317.897 376.609 320.96C377.367 324.024 376.641 327.405 374.755 329.911C377.34 333.154 378.162 338.613 377.373 342.714C376.584 346.814 373.992 350.512 370.408 352.601C371.984 356.041 373.49 359.764 374.124 363.501C374.751 367.184 374.391 371.224 372.319 374.357C370.286 377.375 366.841 379.28 363.283 379.999C363.832 388.174 358.338 396.488 350.662 399.37C342.978 402.199 337.293 400.211 332.382 393.632L332.482 393.564Z" fill="#8EB152"/>
<path d="M376.663 320.953C375.905 317.89 373.902 314.127 371.09 312.774C374.122 307.538 374.32 300.788 371.548 295.439C369.584 291.562 365.698 288.392 361.473 286.69C365.583 291.851 367.442 298.858 366.113 305.33C360.898 301.636 351.739 304.071 348.171 309.382C351.928 308.526 356.184 310.059 358.38 313.248C351.97 313.876 344.923 319.293 342.998 325.411C339.938 322.289 334.352 320.232 330.121 321.209C325.829 322.14 322.198 325.438 320.751 329.522C326.1 327.95 332.788 329.306 336.488 333.486C331.687 332.739 325.15 335.954 323.442 340.511C327.546 338.24 333.587 338.484 337.351 341.179C331.513 342.765 324.078 346.98 322.33 352.8C319.416 349.548 314.227 347.982 309.859 348.377C305.492 348.772 301.418 351.257 299.108 355.025C294.712 350.943 288.264 351.685 283.988 355.838C289.2 354.068 295.743 358.668 297.047 364.059C292.302 362.157 284.659 363.723 281.637 367.864C284.47 366.264 288.743 367.139 291.754 368.355C294.764 369.572 297.159 372.241 298.04 375.396C293.645 374.046 286.146 376.631 283.69 380.528C282.521 376.484 279.814 372.766 275.887 371.241C271.967 369.77 267.386 370.195 263.817 372.391C266.967 373.041 270.021 374.962 271.767 377.668C265.672 373.934 257.213 374.74 250.987 378.621C255.498 382.742 262.309 383.806 268.361 382.573C267.455 387.783 270.779 392.399 275.4 394.974C280.021 397.549 285.45 398.097 290.687 398.454C293.057 398.613 295.481 398.764 297.807 398.219C300.133 397.673 302.338 396.27 303.345 394.107C309.116 398.651 316.736 400.805 324.056 400.049C325.991 399.832 327.896 399.4 329.55 398.348C331.151 397.304 332.432 395.539 332.489 393.618C337.4 400.196 343.085 402.184 350.769 399.356C358.453 396.527 364 388.205 363.39 379.984C366.948 379.266 370.393 377.36 372.426 374.342C374.498 371.209 374.858 367.169 374.231 363.486C373.605 359.803 372.091 356.026 370.515 352.586C374.099 350.498 376.745 346.792 377.48 342.699C378.269 338.599 377.455 333.193 374.862 329.896C376.748 327.39 377.421 324.017 376.716 320.946L376.663 320.953Z" fill="#80A042"/>
<path d="M349.818 436.106C329.876 435.247 309.886 435.597 290.015 437.187C292.892 436.291 295.578 435.586 298.552 435.769C295.269 433.388 291.802 431.252 288.212 429.407C292.982 429.939 297.721 431.022 302.306 432.563C298.94 429.593 295.858 426.31 293.074 422.821C298.59 425.544 304.213 427.869 310.013 429.895C306.212 426.167 302.405 422.384 298.658 418.648C304.71 420.913 310.446 424.041 315.531 427.972C314.838 423.042 313.76 419.258 312.011 414.585C314.949 417.615 317.457 421.089 319.499 424.737C319.767 420.819 320.089 416.893 320.358 412.975C321.716 417.593 322.655 422.326 323.157 427.064C326.022 421.032 330.4 415.663 335.724 411.581C332.456 416.303 329.791 421.432 327.876 426.838C331.415 424.046 335.617 422.089 340.009 421.089C336.784 423.4 333.842 426.164 331.273 429.257C336.992 426.432 343.304 424.725 349.676 424.212C344.77 426.213 340.046 428.735 335.658 431.702C340.041 431.031 344.371 430.368 348.746 429.644C346.374 430.633 344.001 431.622 341.621 432.558C344.44 433.583 346.984 434.974 349.796 435.945L349.818 436.106Z" fill="#80A147"/>
<g style="mix-blend-mode:multiply" opacity="0.4">
<path d="M1100.7 525.5C1166.08 525.5 1219.08 511.365 1219.08 493.93C1219.08 476.494 1166.08 462.36 1100.7 462.36C1035.32 462.36 982.324 476.494 982.324 493.93C982.324 511.365 1035.32 525.5 1100.7 525.5Z" fill="#64B5BA"/>
</g>
<path fill-rule="evenodd" clip-rule="evenodd" d="M1164.33 341.254H1205.44V509.584H1164.33V341.254Z" fill="#4E4E4E"/>
<path fill-rule="evenodd" clip-rule="evenodd" d="M1164.33 462.098C1164.33 462.098 1187.58 468.484 1190.92 470.023C1193.44 471.137 1198.17 496.615 1200.43 509.584H1164.3V462.131L1164.33 462.098Z" fill="#747475"/>
<path fill-rule="evenodd" clip-rule="evenodd" d="M1025.14 316.005H1066.25V477.949H1025.14V316.005Z" fill="#4E4E4E"/>
<path fill-rule="evenodd" clip-rule="evenodd" d="M1025.14 432.264C1025.14 432.264 1048.38 438.42 1051.73 439.861C1054.25 440.942 1058.97 465.471 1061.23 477.916H1025.11V432.264H1025.14Z" fill="#747475"/>
<path fill-rule="evenodd" clip-rule="evenodd" d="M1029.6 292.492L1289.1 264L1301.23 274.774L1234.19 469.303L973.44 419.95L969.211 412.058L1029.6 292.492Z" fill="#676867"/>
<path fill-rule="evenodd" clip-rule="evenodd" d="M1029.6 275.659L1289.1 264L1222.03 458.528L969.211 412.058L1029.6 275.659Z" fill="#B4B4B5"/>
<path fill-rule="evenodd" clip-rule="evenodd" d="M1031.3 278.148L972.85 410.126L1220.36 455.614L1285.47 266.718L1031.3 278.148Z" fill="#344054"/>
<path d="M1022.68 297.567C1030.25 297.567 1037.99 297.535 1045.89 297.502C1049 290.657 1052.09 283.878 1055.2 277.099L1056.81 277.034C1053.72 283.813 1050.61 290.657 1047.5 297.502C1056.97 297.502 1066.74 297.436 1076.71 297.436C1079.92 290.133 1083.13 282.896 1086.34 275.724L1088.11 275.658C1084.9 282.863 1081.69 290.133 1078.48 297.436C1088.93 297.436 1099.75 297.404 1110.8 297.371C1114.14 289.577 1117.45 281.881 1120.77 274.185L1122.67 274.086C1119.36 281.782 1116.01 289.544 1112.67 297.371C1124.04 297.338 1135.78 297.305 1147.91 297.273C1151.35 288.954 1154.79 280.702 1158.2 272.482L1160.33 272.383C1156.89 280.636 1153.48 288.922 1150.01 297.273C1162.46 297.24 1175.32 297.24 1188.56 297.174C1192.1 288.267 1195.64 279.424 1199.15 270.615L1201.44 270.517C1197.94 279.326 1194.4 288.234 1190.79 297.174C1204.52 297.174 1218.72 297.142 1233.31 297.109C1236.98 287.513 1240.59 278.016 1244.19 268.585L1246.65 268.486C1243.04 277.951 1239.41 287.513 1235.73 297.109C1248.45 297.109 1261.47 297.109 1274.91 297.109L1274.22 299.107C1260.78 299.107 1247.7 299.107 1234.98 299.041C1230.59 310.601 1226.16 322.293 1221.7 334.082C1234.62 334.574 1247.93 335.098 1261.63 335.622L1260.91 337.685C1247.21 337.128 1233.87 336.571 1220.95 336.047C1216.42 348.001 1211.84 360.052 1207.25 372.202C1220.39 373.25 1233.93 374.331 1247.9 375.477L1247.17 377.606C1233.21 376.459 1219.64 375.313 1206.49 374.232C1201.84 386.546 1197.15 398.991 1192.4 411.501C1205.74 413.171 1219.51 414.874 1233.7 416.675L1232.95 418.869C1218.72 417.068 1204.95 415.267 1191.61 413.597C1187.31 424.96 1182.99 436.455 1178.63 447.983L1176.23 447.557C1180.59 436.062 1184.89 424.633 1189.18 413.269C1174.59 411.402 1160.47 409.634 1146.86 407.866C1142.7 418.443 1138.53 429.087 1134.27 439.828L1132.04 439.435C1136.24 428.759 1140.43 418.116 1144.6 407.604C1131.45 405.901 1118.73 404.296 1106.41 402.724C1102.37 412.549 1098.31 422.471 1094.21 432.46L1092.15 432.067C1096.24 422.111 1100.28 412.254 1104.31 402.429C1092.38 400.923 1080.8 399.416 1069.53 398.008C1065.63 407.178 1061.69 416.446 1057.76 425.714L1055.95 425.386C1059.89 416.118 1063.82 406.916 1067.72 397.779C1056.81 396.403 1046.22 395.061 1035.89 393.751C1032.15 402.331 1028.38 410.944 1024.58 419.622L1022.88 419.295C1026.68 410.649 1030.45 402.036 1034.19 393.521C1024.38 392.277 1014.88 391.065 1005.57 389.886C1001.93 397.91 998.322 405.999 994.651 414.088L993.143 413.826C996.782 405.737 1000.42 397.681 1004.03 389.69C996.847 388.773 989.832 387.889 982.98 387.037L983.701 385.433C990.586 386.284 997.634 387.135 1004.81 388.052C1009.24 378.195 1013.7 368.403 1018.06 358.709C1010.68 358.087 1003.4 357.53 996.323 356.941L997.011 355.369C1004.09 355.926 1011.37 356.483 1018.78 357.072C1023.11 347.477 1027.43 337.947 1031.73 328.45C1024.09 328.155 1016.62 327.86 1009.3 327.565L1009.99 326.026C1017.34 326.288 1024.84 326.583 1032.48 326.845C1036.74 317.479 1040.97 308.145 1045.17 298.91C1037.24 298.91 1029.5 298.91 1021.96 298.91L1022.61 297.436L1022.68 297.567ZM1006.42 388.282C1015.73 389.461 1025.27 390.64 1035.07 391.851C1039.56 381.568 1044.05 371.351 1048.55 361.231C1038.68 360.412 1029.07 359.659 1019.66 358.873C1015.3 368.6 1010.85 378.424 1006.42 388.282ZM1020.39 357.236C1029.76 357.989 1039.4 358.742 1049.27 359.495C1053.66 349.474 1058.05 339.551 1062.38 329.694C1052.48 329.301 1042.84 328.908 1033.4 328.548C1029.07 338.045 1024.78 347.608 1020.42 357.236H1020.39ZM1034.09 326.976C1043.56 327.303 1053.23 327.696 1063.13 328.057C1067.46 318.297 1071.76 308.571 1075.98 298.976C1066.02 298.976 1056.31 298.976 1046.78 299.008C1042.58 308.243 1038.35 317.577 1034.06 326.976H1034.09ZM1077.75 298.976C1073.46 308.604 1069.2 318.33 1064.87 328.089C1075.26 328.482 1085.98 328.875 1097.03 329.301C1101.39 319.116 1105.75 308.997 1110.08 298.976C1099 298.976 1088.21 298.976 1077.75 298.976ZM1064.15 329.759C1059.79 339.65 1055.4 349.638 1050.97 359.659C1061.33 360.478 1071.98 361.329 1083 362.181C1087.49 351.734 1091.92 341.32 1096.31 331.004C1085.29 330.545 1074.57 330.12 1064.15 329.727V329.759ZM1050.22 361.329C1045.76 371.482 1041.23 381.699 1036.74 392.015C1047 393.292 1057.63 394.602 1068.58 395.978C1073.17 385.203 1077.72 374.527 1082.25 363.917C1071.23 363.032 1060.58 362.181 1050.22 361.297V361.329ZM1111.98 298.976C1107.65 309.029 1103.33 319.182 1098.93 329.399C1110.27 329.825 1121.98 330.283 1134.04 330.742C1138.44 320.099 1142.86 309.488 1147.22 299.008C1135.12 299.008 1123.36 299.008 1111.98 299.008V298.976ZM1098.21 331.102C1093.79 341.451 1089.33 351.865 1084.87 362.377C1096.18 363.262 1107.82 364.179 1119.85 365.161C1124.37 354.19 1128.9 343.317 1133.35 332.51C1121.29 332.019 1109.59 331.561 1098.24 331.135L1098.21 331.102ZM1084.08 364.113C1079.56 374.724 1075 385.433 1070.41 396.207C1081.66 397.615 1093.26 399.056 1105.23 400.563C1109.85 389.297 1114.5 378.097 1119.06 366.962C1107.03 365.98 1095.42 365.03 1084.11 364.113H1084.08ZM1149.35 298.976C1144.96 309.488 1140.6 320.099 1136.17 330.775C1148.6 331.233 1161.45 331.724 1174.63 332.248C1179.05 321.081 1183.48 309.979 1187.9 298.976C1174.66 298.976 1161.78 298.976 1149.35 298.976ZM1135.42 332.576C1130.93 343.416 1126.44 354.321 1121.91 365.292C1134.27 366.307 1147.06 367.322 1160.27 368.37C1164.83 356.876 1169.35 345.446 1173.87 334.115C1160.66 333.591 1147.81 333.067 1135.42 332.576ZM1121.16 367.159C1116.54 378.261 1111.95 389.526 1107.32 400.824C1119.65 402.364 1132.37 403.936 1145.55 405.606C1150.24 393.751 1154.86 381.961 1159.51 370.303C1146.37 369.222 1133.55 368.174 1121.16 367.159ZM1190.13 298.976C1185.77 309.979 1181.35 321.114 1176.86 332.314C1190.53 332.838 1204.72 333.362 1219.31 333.919C1223.77 322.194 1228.23 310.503 1232.62 298.976C1218.03 298.976 1203.8 298.976 1190.1 298.943L1190.13 298.976ZM1176.14 334.213C1171.64 345.577 1167.12 357.039 1162.53 368.567C1176.17 369.648 1190.36 370.794 1204.92 371.973C1209.51 359.856 1214.1 347.837 1218.62 335.916C1204 335.327 1189.84 334.737 1176.17 334.213H1176.14ZM1161.74 370.466C1157.12 382.158 1152.5 393.98 1147.75 405.868C1161.35 407.571 1175.48 409.339 1190.07 411.173C1194.79 398.663 1199.51 386.284 1204.16 374.003C1189.54 372.791 1175.38 371.612 1161.74 370.466Z" fill="white"/>
<g style="mix-blend-mode:multiply" opacity="0.45">
<path fill-rule="evenodd" clip-rule="evenodd" d="M1284.38 269.927L1200.36 432.263L996.06 414.382L1220.36 455.613L1284.38 269.927Z" fill="#2B7B66"/>
</g>
<g style="mix-blend-mode:soft-light" opacity="0.3">
<path fill-rule="evenodd" clip-rule="evenodd" d="M1194.92 270.779L1008.16 416.61L972.85 410.126L1000.49 347.706L1084.34 275.757L1194.92 270.779ZM1285.07 266.718L1100.77 433.639L1081.52 430.102L1234.82 268.978L1285.1 266.718H1285.07Z" fill="white"/>
</g>
<g style="mix-blend-mode:multiply" opacity="0.4">
<path d="M165.306 521.636C218.825 521.636 262.211 513.791 262.211 504.115C262.211 494.438 218.825 486.594 165.306 486.594C111.787 486.594 68.4006 494.438 68.4006 504.115C68.4006 513.791 111.787 521.636 165.306 521.636Z" fill="#64B5BA"/>
</g>
<path fill-rule="evenodd" clip-rule="evenodd" d="M139.506 424.993H119.246V507.979H139.506V424.993Z" fill="#4E4E4E"/>
<path fill-rule="evenodd" clip-rule="evenodd" d="M139.506 484.563C139.506 484.563 128.065 487.707 126.393 488.461C125.147 489.017 122.82 501.593 121.705 507.979H139.506V484.563Z" fill="#747475"/>
<path fill-rule="evenodd" clip-rule="evenodd" d="M208.153 412.548H187.86V492.39H208.153V412.548Z" fill="#4E4E4E"/>
<path fill-rule="evenodd" clip-rule="evenodd" d="M208.153 469.859C208.153 469.859 196.712 472.905 195.04 473.625C193.794 474.149 191.467 486.234 190.352 492.391H208.153V469.859Z" fill="#747475"/>
<path fill-rule="evenodd" clip-rule="evenodd" d="M205.956 400.956L77.973 386.874L72.0066 392.212L105.051 488.133L233.625 463.801L235.723 459.904L205.956 400.956Z" fill="#676867"/>
<path fill-rule="evenodd" clip-rule="evenodd" d="M205.956 392.637L77.973 386.874L111.051 482.795L235.723 459.904L205.956 392.637Z" fill="#B4B4B5"/>
<path fill-rule="evenodd" clip-rule="evenodd" d="M205.104 393.849L233.92 458.954L111.87 481.387L79.7761 388.216L205.104 393.849Z" fill="#344054"/>
<path d="M209.366 403.445L209.694 404.165C205.956 404.165 202.154 404.165 198.252 404.165C200.35 408.717 202.416 413.302 204.514 417.952C208.284 417.821 211.988 417.69 215.594 417.559L215.922 418.312C212.316 418.443 208.612 418.607 204.874 418.738C206.973 423.421 209.136 428.104 211.267 432.853C214.939 432.558 218.512 432.264 222.02 432.002L222.348 432.788C218.84 433.082 215.267 433.344 211.628 433.639C213.791 438.42 215.988 443.234 218.151 448.114C221.692 447.655 225.167 447.23 228.544 446.837L228.904 447.623C225.528 448.048 222.053 448.507 218.512 448.933C220.315 452.863 222.085 456.858 223.888 460.821L223.134 460.952C221.331 456.956 219.528 452.961 217.758 448.998C213.168 449.588 208.481 450.177 203.629 450.799C205.465 454.991 207.333 459.249 209.202 463.506L208.349 463.67C206.481 459.38 204.612 455.122 202.776 450.898C197.695 451.553 192.483 452.208 187.074 452.895C189.008 457.415 190.942 461.934 192.876 466.519L191.991 466.683C190.057 462.098 188.123 457.546 186.188 453.026C180.615 453.714 174.911 454.467 169.043 455.22C171.01 460.035 173.01 464.914 175.042 469.826L174.026 470.023C172.026 465.111 169.994 460.198 168.027 455.351C161.962 456.105 155.668 456.923 149.177 457.742C151.242 462.916 153.307 468.156 155.373 473.429L154.291 473.625C152.193 468.353 150.128 463.08 148.095 457.873C141.375 458.725 134.425 459.609 127.245 460.526C129.343 466.126 131.474 471.759 133.638 477.424L132.458 477.653C130.294 471.955 128.163 466.29 126.065 460.69C119.476 461.541 112.69 462.392 105.674 463.309L105.314 462.229C112.329 461.345 119.115 460.493 125.672 459.674C123.344 453.485 121.017 447.361 118.722 441.302C112.231 441.859 105.543 442.416 98.6589 442.972L98.2983 441.924C105.183 441.368 111.87 440.811 118.328 440.32C116.066 434.327 113.804 428.399 111.575 422.504C105.215 422.766 98.6261 423.028 91.8729 423.323L91.5123 422.308C98.2655 422.046 104.822 421.784 111.215 421.555C109.018 415.758 106.822 409.994 104.658 404.263C98.3966 404.263 91.9384 404.263 85.3164 404.263L84.9885 403.281C91.6106 403.281 98.036 403.281 104.297 403.281C102.494 398.532 100.691 393.816 98.9211 389.166L100.134 389.232C101.904 393.882 103.707 398.565 105.51 403.314C112.723 403.314 119.705 403.314 126.491 403.314C124.721 398.892 122.984 394.504 121.246 390.181L122.361 390.247C124.098 394.57 125.836 398.958 127.573 403.346C134.097 403.346 140.457 403.346 146.587 403.379C144.882 399.253 143.21 395.159 141.506 391.098H142.555C144.259 395.192 145.931 399.253 147.636 403.379C153.603 403.379 159.405 403.379 165.011 403.412C163.372 399.547 161.733 395.749 160.093 391.917H161.044C162.683 395.749 164.322 399.547 165.962 403.379C171.436 403.379 176.747 403.379 181.894 403.412C180.32 399.809 178.714 396.24 177.14 392.67H177.993C179.566 396.273 181.173 399.842 182.746 403.412C187.664 403.412 192.483 403.412 197.138 403.445C195.597 400.071 194.089 396.698 192.548 393.358H193.335C194.843 396.731 196.384 400.071 197.925 403.445C201.826 403.445 205.628 403.445 209.366 403.477V403.445ZM217.397 448.147C215.201 443.267 213.037 438.453 210.874 433.639C206.251 434.032 201.498 434.392 196.646 434.785C198.875 439.763 201.072 444.806 203.301 449.882C208.12 449.293 212.841 448.703 217.43 448.114L217.397 448.147ZM210.48 432.853C208.317 428.104 206.219 423.389 204.088 418.705C199.433 418.869 194.679 419.066 189.795 419.262C191.925 424.142 194.089 429.021 196.253 433.966C201.104 433.573 205.858 433.213 210.48 432.853ZM203.727 417.952C201.629 413.335 199.531 408.717 197.466 404.165C192.778 404.165 187.991 404.165 183.074 404.165C185.172 408.914 187.27 413.695 189.401 418.509C194.286 418.345 199.072 418.149 203.727 417.985V417.952ZM182.189 404.132C177.042 404.132 171.699 404.132 166.257 404.132C168.387 409.077 170.518 414.055 172.682 419.098C178.124 418.902 183.435 418.705 188.549 418.509C186.418 413.695 184.32 408.881 182.189 404.132ZM188.909 419.328C183.763 419.524 178.485 419.721 173.043 419.95C175.206 425.026 177.403 430.168 179.599 435.309C185.041 434.883 190.286 434.458 195.4 434.065C193.237 429.12 191.04 424.207 188.909 419.328ZM195.761 434.883C190.647 435.309 185.402 435.735 179.96 436.161C182.189 441.368 184.451 446.64 186.713 451.978C192.089 451.291 197.334 450.668 202.416 450.013C200.187 444.937 197.957 439.894 195.761 434.883ZM165.339 404.132C159.733 404.132 153.93 404.132 147.964 404.132C150.095 409.307 152.291 414.514 154.455 419.786C160.389 419.557 166.158 419.328 171.764 419.131C169.6 414.088 167.47 409.077 165.339 404.132ZM172.125 419.983C166.519 420.212 160.749 420.441 154.815 420.67C157.012 426.008 159.241 431.379 161.47 436.783C167.404 436.292 173.141 435.866 178.714 435.407C176.518 430.233 174.321 425.092 172.125 419.983ZM179.075 436.259C173.502 436.717 167.765 437.176 161.831 437.667C164.093 443.136 166.388 448.671 168.65 454.238C174.551 453.518 180.255 452.797 185.795 452.109C183.533 446.804 181.271 441.499 179.042 436.292L179.075 436.259ZM146.915 404.132C140.785 404.132 134.425 404.132 127.901 404.132C130.065 409.536 132.261 415.038 134.425 420.539C140.948 420.277 147.275 420.048 153.406 419.819C151.242 414.546 149.079 409.307 146.915 404.132ZM153.766 420.703C147.636 420.932 141.309 421.194 134.818 421.456C137.047 427.056 139.277 432.689 141.539 438.355C148.062 437.831 154.357 437.34 160.454 436.848C158.225 431.445 156.028 426.041 153.799 420.703H153.766ZM160.815 437.765C154.717 438.257 148.39 438.781 141.899 439.305C144.194 445.036 146.489 450.865 148.783 456.694C155.274 455.875 161.536 455.089 167.633 454.336C165.339 448.769 163.077 443.202 160.815 437.733V437.765ZM126.786 404.132C120.033 404.132 113.018 404.132 105.805 404.132C107.969 409.798 110.166 415.562 112.362 421.358C119.574 421.096 126.557 420.801 133.31 420.572C131.114 415.038 128.917 409.569 126.754 404.132H126.786ZM133.703 421.489C126.95 421.751 119.968 422.046 112.755 422.341C114.985 428.203 117.247 434.13 119.509 440.123C126.688 439.534 133.671 438.977 140.424 438.453C138.162 432.755 135.933 427.122 133.703 421.522V421.489ZM140.785 439.403C134.064 439.96 127.081 440.549 119.869 441.138C122.164 447.197 124.492 453.288 126.819 459.478C134.031 458.594 140.981 457.709 147.702 456.858C145.374 450.996 143.079 445.167 140.817 439.403H140.785Z" fill="white"/>
<g style="mix-blend-mode:multiply" opacity="0.45">
<path fill-rule="evenodd" clip-rule="evenodd" d="M80.3335 389.821L121.738 469.859L222.479 461.05L111.87 481.387L80.3335 389.821Z" fill="#2B7B66"/>
</g>
<g style="mix-blend-mode:soft-light" opacity="0.3">
<path fill-rule="evenodd" clip-rule="evenodd" d="M124.426 390.247L178.944 392.703L220.315 428.17L233.953 458.954L216.545 462.163L124.459 390.247H124.426ZM79.9729 388.216L104.757 389.33L180.32 468.779L170.846 470.514L79.9729 388.216Z" fill="white"/>
</g>
<path fill-rule="evenodd" clip-rule="evenodd" d="M61.2868 527.039C59.9427 525.499 56.8939 521.013 61.2868 515.02C66.7287 507.586 69.6136 517.607 69.6136 517.607C69.6136 517.607 66.1714 509.289 74.4982 504.999C82.825 500.709 83.6773 503.852 83.6773 503.852C83.6773 503.852 76.793 495.829 82.825 488.395C88.857 480.961 94.5939 485.808 94.5939 485.808C94.5939 485.808 93.7416 473.494 103.183 469.761C112.657 466.027 115.214 470.612 116.362 474.346C117.509 478.079 116.067 481.518 116.067 481.518C116.067 481.518 119.214 473.2 128.983 475.492C138.719 477.784 136.72 490.687 136.72 490.687C136.72 490.687 143.309 484.4 150.193 488.1C157.078 491.834 153.635 502.411 153.635 502.411C153.635 502.411 161.077 498.121 164.814 502.968C168.551 507.848 163.372 512.433 163.372 512.433C163.372 512.433 169.961 512.138 172.846 516.166C175.337 519.67 175.239 525.434 172.42 527.039H61.2868Z" fill="#5C7F39"/>
<path fill-rule="evenodd" clip-rule="evenodd" d="M100.626 471.071C100.626 471.071 96.4297 478.439 97.5771 482.336C98.7245 486.266 100.233 487.052 100.233 487.052C100.233 487.052 96.3642 487.609 93.8071 485.284C94.2661 485.546 94.5283 485.775 94.5283 485.775C94.5283 485.775 93.8399 475.754 100.626 471.071ZM85.7754 485.546C84.7919 487.904 84.169 490.884 85.0214 493.995C86.9556 500.938 91.1189 503.721 91.1189 503.721C91.1189 503.721 85.8737 504.082 82.0054 501.2L81.8743 501.102C80.3335 498.121 78.891 493.111 82.7594 488.329C83.7756 487.052 84.7919 486.168 85.7754 485.513V485.546ZM75.6128 504.409C75.3505 505.654 75.1538 506.996 75.0883 508.404C74.7932 514.136 75.6456 517.705 82.5299 517.443C89.4143 517.148 99.3146 511.286 97.2821 512.727C95.2823 514.168 96.1347 517.017 106.592 516.297C117.05 515.577 124.787 512.989 123.639 514.136C122.492 515.282 119.771 519.277 136.556 520.423C153.34 521.57 156.192 514.692 156.192 514.692C156.192 514.692 159.208 520.292 170.092 521.701C171.731 521.93 173.207 522.094 174.551 522.257C174.485 524.353 173.764 526.187 172.354 527.006H61.2868C59.9427 525.467 56.8939 520.98 61.2868 514.987C66.7287 507.553 69.6136 517.574 69.6136 517.574C69.6136 517.574 66.1714 509.256 74.4982 504.966C74.8916 504.769 75.285 504.573 75.6456 504.409H75.6128Z" fill="#315E2E"/>
<path fill-rule="evenodd" clip-rule="evenodd" d="M131.868 505.588C131.868 505.588 130.589 502.018 128.917 500.512C127.245 499.005 126.131 499.398 126.131 499.398C126.131 499.398 125.901 497.794 124.065 497.171C122.197 496.549 121.738 497.27 121.738 497.27C121.738 497.27 121.017 495.305 117.574 494.846C114.132 494.388 112.428 495.141 112.428 495.141C112.428 495.141 115.739 495.239 117.738 497.695C119.705 500.119 119.574 501.953 119.574 501.953C119.574 501.953 124.721 499.726 131.933 505.588H131.868Z" fill="#315E2E"/>
<path fill-rule="evenodd" clip-rule="evenodd" d="M165.437 509.551C165.437 509.551 165.372 504.409 161.077 503.394C156.783 502.379 151.767 506.047 151.767 506.047C151.767 506.047 155.045 495.665 147.538 491.997C140.031 488.329 135.343 494.846 135.343 494.846C135.343 494.846 136.49 483.679 128.163 481.387C119.837 479.094 113.116 486.528 113.116 486.528C113.116 486.528 116.132 473.199 110.1 470.35C108.527 469.597 107.281 469.073 106.265 468.713C113.149 467.108 115.28 471.038 116.263 474.313C117.411 478.046 115.968 481.485 115.968 481.485C115.968 481.485 119.115 473.167 128.885 475.459C138.621 477.752 136.621 490.655 136.621 490.655C136.621 490.655 143.211 484.367 150.095 488.067C156.979 491.801 153.537 502.379 153.537 502.379C153.537 502.379 160.979 498.089 164.716 502.935C166.585 505.392 166.224 507.75 165.404 509.518L165.437 509.551Z" fill="#64974D"/>
<path fill-rule="evenodd" clip-rule="evenodd" d="M132.359 506.832C132.359 506.832 130.917 501.887 126.852 500.741C122.754 499.595 121.476 501.167 121.476 501.167C121.476 501.167 121.967 496.877 115.444 495.567C108.92 494.29 107.412 495.927 107.412 495.927C107.412 495.927 113.083 495.076 116.001 497.859C118.951 500.643 118.525 504.016 118.525 504.016C118.525 504.016 122.754 501.593 126.688 503.459C130.622 505.326 132.359 506.832 132.359 506.832Z" fill="#64974D"/>
<path d="M1369.7 362.679L1350.95 361.404L1343.87 466.057L1362.62 467.332L1369.7 362.679Z" fill="#4F2D1E"/>
<path d="M1369.65 362.619L1363.17 362.178L1356.09 466.83L1362.58 467.271L1369.65 362.619Z" fill="#40261C"/>
<path d="M1369.71 406.083C1369.42 408.197 1367.79 409.975 1365.85 410.909C1363.92 411.843 1361.7 412.049 1359.57 412.064C1351.45 411.947 1343.27 408.583 1337.51 402.791C1336.12 405.066 1333.46 406.284 1330.85 406.606C1328.23 406.929 1325.55 406.432 1322.94 405.926C1317.21 404.808 1311.28 403.483 1306.51 400.034C1301.75 396.584 1298.69 391.049 1300.41 385.408C1293.22 385.985 1285.43 383.689 1281.09 377.867C1276.75 372.104 1277.74 363.433 1283.65 359.371C1278.02 355.634 1275 348.375 1276.28 341.733C1277.56 335.091 1283.65 329.404 1290.26 328.083C1287.22 325.863 1285.93 321.491 1287.3 317.915C1288.68 314.397 1293.69 311.415 1297.48 311.867C1295.79 310.397 1295.28 307.747 1296.35 305.755C1297.43 303.821 1299.35 302 1301.52 302.631C1296.13 297.733 1294.12 289.676 1295.99 282.651C1297.87 275.626 1303.29 269.8 1309.96 266.871C1316.64 264 1324.21 264.375 1331.1 266.567C1329.47 262.718 1330.66 257.866 1333.87 255.147C1337.08 252.427 1343.79 250.558 1347.32 252.827C1346.25 249.548 1347.1 245.692 1349.52 243.207C1351.94 240.722 1355.75 239.691 1359.04 240.692C1360.52 237.455 1368.1 235.104 1371.54 235.963C1374.98 236.823 1377.63 240.346 1377.38 243.935C1379.84 242.51 1383.05 242.219 1385.54 243.512C1388.04 244.806 1389.8 247.51 1389.97 250.327C1394.14 250.489 1399.15 253.606 1401.54 257.047C1403.94 260.487 1404.66 265.001 1403.41 268.975C1406.47 269.711 1408.46 274.81 1406.98 277.632C1409.46 280.882 1411.17 286.081 1410.45 290.036C1416.98 291.45 1423.38 296.735 1425.72 303.026C1428.06 309.317 1426.95 316.763 1422.94 322.087C1425.88 323.968 1427.59 328.396 1427.97 331.834C1428.36 335.272 1427.18 338.939 1424.76 341.424C1427.22 345.328 1427.35 351.469 1425.98 355.873C1424.61 360.278 1421.2 364.034 1416.96 365.837C1418.25 369.795 1419.37 374.192 1419.62 378.36C1419.82 382.536 1418.92 386.931 1416.19 390.113C1413.56 393.163 1409.54 394.816 1405.5 395.11C1405.06 404.235 1397.82 412.636 1388.96 414.759C1380.1 416.883 1374.1 413.909 1369.58 406.042L1369.71 406.083Z" fill="#8EB152"/>
<path d="M1428.1 331.876C1427.65 328.388 1425.99 323.951 1423.06 322.128C1427.08 316.804 1428.18 309.359 1425.84 303.067C1424.17 298.514 1420.33 294.515 1415.89 292.084C1419.76 298.329 1420.87 306.281 1418.57 313.25C1413.32 308.509 1402.89 309.974 1398.22 315.333C1402.54 314.881 1406.95 317.138 1408.98 320.928C1401.86 320.784 1393.31 325.823 1390.41 332.346C1387.43 328.518 1381.61 325.519 1376.76 325.989C1371.92 326.46 1367.47 329.598 1365.32 333.939C1371.44 332.925 1378.6 335.315 1382.12 340.368C1376.94 338.934 1369.28 341.592 1366.84 346.39C1371.65 344.444 1378.25 345.493 1382.14 349.012C1375.48 349.985 1366.72 353.633 1364.07 359.824C1361.3 355.846 1355.75 353.459 1350.93 353.275C1346.11 353.091 1341.23 355.343 1338.18 359.164C1333.89 354.106 1326.66 354.036 1321.39 358.063C1327.36 356.835 1334.02 362.732 1334.68 368.855C1329.66 366.094 1321.08 366.874 1317.13 371.004C1320.47 369.627 1325.02 371.155 1328.17 372.885C1331.33 374.674 1333.63 377.891 1334.22 381.478C1329.53 379.378 1320.94 381.286 1317.73 385.248C1316.94 380.685 1314.44 376.134 1310.35 374.008C1306.24 371.825 1301.07 371.691 1296.86 373.668C1300.23 374.835 1303.38 377.336 1304.97 380.538C1298.74 375.585 1289.31 375.423 1281.93 378.81C1286.36 383.968 1293.76 386.025 1300.55 385.508C1298.88 391.14 1301.94 396.675 1306.65 400.133C1311.41 403.583 1317.29 404.916 1323.07 406.025C1325.69 406.531 1328.31 407.037 1330.98 406.706C1333.6 406.383 1336.26 405.165 1337.64 402.89C1343.4 408.682 1351.52 412.055 1359.71 412.163C1361.84 412.206 1364.06 412.001 1365.99 411.009C1367.92 410.074 1369.55 408.296 1369.84 406.182C1374.37 414.107 1380.36 417.023 1389.22 414.9C1398.08 412.776 1405.25 404.326 1405.76 395.25C1409.8 394.956 1413.81 393.303 1416.45 390.253C1419.18 387.071 1420.07 382.676 1419.88 378.5C1419.68 374.324 1418.52 369.993 1417.22 365.978C1421.45 364.175 1424.87 360.419 1426.24 356.014C1427.61 351.609 1427.49 345.527 1425.01 341.564C1427.43 339.079 1428.61 335.413 1428.23 331.975L1428.1 331.876Z" fill="#80A042"/>
</svg>
