<svg width="573" height="547" viewBox="0 0 573 547" fill="none" xmlns="http://www.w3.org/2000/svg">
<g clip-path="url(#clip0_789_42181)">
<path fill-rule="evenodd" clip-rule="evenodd" d="M151.372 115.022C126.312 115.022 105.068 129.057 105.068 141.918C105.068 154.779 126.312 161.597 151.372 161.597C176.432 161.597 197.81 154.766 197.81 141.918C197.81 129.07 176.419 115.022 151.372 115.022Z" fill="#D8E6B9"/>
<mask id="mask0_789_42181" style="mask-type:luminance" maskUnits="userSpaceOnUse" x="41" y="171" width="515" height="371">
<path d="M465.12 184.104C393.395 157.528 365.426 182.516 307.112 184.104C293.955 184.464 280.784 183.29 267.413 181.782L259.567 180.875C221.536 176.379 181.917 171.136 137.761 192.562C48.662 235.762 13.9938 368.029 66.0361 457.804C108.257 530.635 181.356 551.995 263.263 537.799C310.702 529.581 319.602 502.324 377.542 476.722C435.483 451.133 498.441 471.332 537.926 395.566C572.02 330.113 558.636 218.765 465.12 184.104Z" fill="white"/>
</mask>
<g mask="url(#mask0_789_42181)">
<path d="M629 -114.838H13.1665V500.87H629V-114.838Z" fill="#D8E6B9"/>
<path d="M166.304 308.806C135.573 264.579 71.8408 284.071 71.8408 284.071C52.1181 271.93 28.3655 272.851 9.69702 276.707V456.283C31.1811 445.997 66.9302 430.574 118.319 413.737C209.78 383.759 266.759 380.757 266.759 380.757C252.521 305.804 166.304 308.793 166.304 308.793V308.806Z" fill="#EFF9F0"/>
<path d="M582.562 254.053C567.964 252.119 546.466 252.225 531.054 265.113C531.054 265.113 483.202 257.775 465.748 292.783C465.748 292.783 403.457 299.654 401.082 355.035C401.082 355.035 442.355 351.219 511.238 363.186C542.21 368.563 565.882 374.34 582.576 379.063V254.04L582.562 254.053Z" fill="white"/>
<path d="M154.308 386.827C154.001 383.959 152.733 381.277 151.119 378.889C141.471 364.547 118.385 361.946 105.788 373.806C104.04 366.962 94.4192 363.693 88.8547 368.043C83.5837 360.385 71.0802 359.251 64.5015 365.828C61.4858 359.824 54.013 356.969 47.3676 357.956C40.7222 358.944 34.9175 363.106 30.4072 368.083C18.304 381.451 14.3942 401.676 20.6392 418.58C16.289 421.782 12.7261 425.571 9.69702 429.787V505.42C11.3917 503.765 13.0597 502.071 14.7278 500.39C50.6103 464.288 91.6436 433.322 136.213 408.707C145.034 403.838 155.349 396.82 154.294 386.814L154.308 386.827Z" fill="#4E763D"/>
<path d="M139.149 417.019C138.895 414.564 137.788 412.256 136.413 410.201C128.127 397.874 108.284 395.646 97.4616 405.825C95.9538 399.942 87.6937 397.127 82.9165 400.876C78.3795 394.298 67.6374 393.324 61.9928 398.968C59.4041 393.818 52.9722 391.363 47.2609 392.204C41.5496 393.058 36.5588 396.633 32.689 400.916C22.2939 412.403 18.9312 429.773 24.2955 444.316C18.8778 448.305 14.8479 453.374 11.6453 459.058V522.003C14.2607 519.641 16.7427 517.107 19.2248 514.612C50.0498 483.593 85.3185 456.977 123.616 435.83C131.196 431.641 140.056 425.624 139.162 417.019H139.149Z" fill="#5F874C"/>
<path d="M582.456 320.253C578.919 303.643 568.831 288.367 554.513 279.162C547.24 274.479 538.62 271.25 530.026 272.251C521.433 273.251 513.093 279.308 511.358 287.78C500.989 281.817 485.83 287.42 481.827 298.707C473.447 295.158 462.598 302.456 462.718 311.555C443.089 301.042 415.253 312.008 408.074 333.075C406.873 336.583 406.192 340.346 406.78 344.015C408.835 356.822 424.02 362.079 436.604 365.174C487.031 377.568 536.045 395.673 582.429 418.993V320.267L582.456 320.253Z" fill="#4E763D"/>
<path d="M578.266 345.682C575.036 330.553 565.855 316.638 552.818 308.246C546.186 303.977 538.34 301.042 530.52 301.949C522.687 302.856 515.094 308.38 513.506 316.091C504.059 310.648 490.247 315.757 486.604 326.044C478.972 322.815 469.084 329.459 469.19 337.744C451.309 328.165 425.955 338.158 419.403 357.356C418.309 360.558 417.682 363.987 418.229 367.322C420.097 378.983 433.935 383.772 445.411 386.601C491.355 397.887 536.005 414.391 578.266 435.63V345.682Z" fill="#5F874C"/>
<path d="M336.963 342.734C334.975 333.395 329.303 324.816 321.257 319.64C317.173 317.012 312.33 315.197 307.499 315.757C302.668 316.318 297.985 319.72 297.01 324.483C291.179 321.134 282.665 324.283 280.424 330.62C275.713 328.632 269.615 332.728 269.682 337.838C258.646 331.927 243.007 338.091 238.977 349.938C238.309 351.913 237.922 354.021 238.243 356.089C239.39 363.28 247.931 366.242 255.003 367.976C283.346 374.94 310.888 385.12 336.963 398.221V342.734Z" fill="#4E763D"/>
<path d="M334.601 357.023C332.786 348.524 327.622 340.693 320.296 335.983C316.573 333.582 312.156 331.927 307.766 332.448C303.362 332.955 299.105 336.063 298.211 340.399C292.9 337.344 285.134 340.212 283.092 345.989C278.809 344.175 273.244 347.91 273.311 352.566C263.263 347.19 249.011 352.793 245.328 363.586C244.715 365.388 244.368 367.309 244.661 369.19C245.715 375.741 253.482 378.436 259.94 380.023C285.761 386.374 310.848 395.633 334.601 407.573V357.023Z" fill="#5F874C"/>
<path d="M572.701 375.634C476.356 345.976 370.043 338.798 269.148 355.115C235.547 360.544 202.56 368.589 170.721 379.022C115.863 396.993 61.9128 422.062 17.3432 454.268C14.5676 456.269 12.0456 458.444 9.69702 460.752V554.062H582.456V379.609C579.587 377.835 576.091 376.688 572.688 375.634H572.701Z" fill="#8EB152"/>
<path d="M572.701 390.016C476.356 362.252 370.043 355.515 269.148 370.804C235.547 375.901 202.56 383.425 170.721 393.191C115.863 410.028 61.9128 433.496 17.3432 463.661C14.5676 465.528 12.0456 467.57 9.69702 469.731V554.076H582.456V393.751C579.587 392.084 576.091 391.016 572.688 390.029L572.701 390.016Z" fill="#64974E"/>
<path d="M109.485 492.238C112.207 491.971 115.049 491.731 117.411 490.344C113.421 488.649 108.844 488.369 104.681 489.57C104.054 487.315 104.414 484.914 104.614 482.579C104.828 480.244 104.841 477.749 103.653 475.721C102.466 473.694 99.6634 472.466 97.6752 473.707C96.5676 474.401 95.9671 475.668 95.6335 476.935C95.0864 479.017 95.1264 481.258 95.7536 483.326C93.2983 481.258 90.0423 480.164 86.8264 480.338C85.0382 480.431 82.9699 481.191 82.5429 482.926C81.9958 485.074 84.2643 486.808 86.1992 487.875C84.7714 487.435 83.2501 486.982 81.7956 487.302C80.3277 487.622 78.9933 489.01 79.2869 490.49C79.5938 492.025 81.3286 492.732 82.8231 493.185C81.889 492.932 80.7414 493.212 80.3011 494.079C79.874 494.946 80.6747 496.227 81.5954 495.974C78.6197 497.001 75.9509 499.509 75.0034 502.538C77.0851 502.138 79.9408 499.749 82.1292 498.749C85.0249 497.441 88.014 496.387 91.0698 495.507C97.0747 493.799 103.266 492.839 109.471 492.225L109.485 492.238Z" fill="#4E763D"/>
<path d="M206.964 377.261C209.833 376.995 212.809 376.754 215.304 375.367C211.114 373.673 206.297 373.392 201.92 374.593C201.253 372.338 201.626 369.937 201.853 367.602C202.067 365.267 202.093 362.773 200.839 360.745C199.585 358.717 196.636 357.489 194.554 358.73C193.393 359.424 192.752 360.691 192.405 361.959C191.818 364.04 191.872 366.281 192.539 368.349C189.95 366.281 186.534 365.187 183.158 365.361C181.276 365.454 179.115 366.215 178.648 367.949C178.074 370.097 180.449 371.831 182.491 372.899C180.983 372.458 179.395 372.005 177.86 372.325C176.326 372.645 174.911 374.033 175.218 375.514C175.538 377.048 177.367 377.755 178.941 378.209C177.967 377.955 176.753 378.235 176.299 379.102C175.845 379.97 176.686 381.25 177.66 380.997C174.538 382.024 171.722 384.532 170.734 387.561C172.923 387.161 175.925 384.773 178.234 383.772C181.276 382.465 184.426 381.411 187.628 380.53C193.94 378.822 200.452 377.862 206.964 377.248V377.261Z" fill="#4E763D"/>
<path d="M106.402 425.531C109.124 425.264 111.967 425.024 114.329 423.636C110.339 421.942 105.762 421.662 101.598 422.863C100.971 420.608 101.331 418.206 101.532 415.872C101.745 413.537 101.759 411.042 100.571 409.014C99.3832 406.986 96.581 405.759 94.5927 407C93.4851 407.693 92.8846 408.961 92.5377 410.228C91.9906 412.309 92.0306 414.551 92.6578 416.619C90.2025 414.551 86.9465 413.457 83.7305 413.63C81.9424 413.724 79.8741 414.484 79.4471 416.219C78.8999 418.367 81.1684 420.101 83.1034 421.168C81.6755 420.728 80.1543 420.274 78.6998 420.595C77.2319 420.915 75.8975 422.302 76.1911 423.783C76.498 425.317 78.2327 426.025 79.7273 426.478C78.7932 426.225 77.6456 426.505 77.2052 427.372C76.7782 428.239 77.5789 429.52 78.4996 429.266C75.5239 430.294 72.855 432.802 71.9076 435.83C73.9893 435.43 76.8449 433.042 79.0334 432.042C81.9291 430.734 84.9182 429.68 87.974 428.8C93.9789 427.092 100.171 426.131 106.376 425.518L106.402 425.531Z" fill="#4E763D"/>
<path d="M289.164 488.615C291.726 489.603 294.368 490.657 297.104 490.483C294.302 487.174 290.325 484.88 286.068 484.093C286.522 481.784 287.91 479.81 289.151 477.809C290.392 475.807 291.526 473.593 291.366 471.245C291.206 468.897 289.257 466.535 286.922 466.762C285.628 466.882 284.507 467.749 283.64 468.723C282.212 470.337 281.238 472.365 280.877 474.487C279.61 471.538 277.181 469.097 274.245 467.816C272.604 467.095 270.415 466.855 269.255 468.203C267.8 469.884 269.054 472.445 270.309 474.273C269.228 473.233 268.08 472.152 266.626 471.792C265.171 471.431 263.343 472.059 262.956 473.513C262.542 475.02 263.783 476.435 264.918 477.515C264.197 476.875 263.036 476.608 262.262 477.182C261.488 477.755 261.635 479.263 262.569 479.463C259.447 479.049 255.937 480.09 253.735 482.385C255.777 482.958 259.407 482.105 261.808 482.198C264.984 482.331 268.134 482.718 271.256 483.319C277.381 484.479 283.359 486.401 289.177 488.629L289.164 488.615Z" fill="#4E763D"/>
<path d="M405.058 372.218C407.62 373.206 410.262 374.26 412.998 374.086C410.196 370.777 406.219 368.483 401.962 367.696C402.416 365.387 403.804 363.413 405.045 361.412C406.286 359.41 407.42 357.196 407.26 354.848C407.1 352.5 405.152 350.138 402.816 350.365C401.522 350.485 400.401 351.352 399.534 352.326C398.106 353.94 397.132 355.968 396.771 358.09C395.504 355.141 393.075 352.7 390.139 351.419C388.498 350.699 386.31 350.458 385.149 351.806C383.694 353.487 384.949 356.048 386.203 357.876C385.122 356.836 383.974 355.755 382.52 355.395C381.065 355.021 379.237 355.662 378.85 357.116C378.437 358.623 379.678 360.038 380.812 361.118C380.091 360.478 378.93 360.211 378.156 360.785C377.382 361.358 377.529 362.866 378.463 363.066C375.341 362.652 371.831 363.693 369.629 365.988C371.671 366.562 375.301 365.708 377.703 365.801C380.879 365.934 384.028 366.321 387.15 366.922C393.275 368.082 399.253 370.004 405.072 372.232L405.058 372.218Z" fill="#4E763D"/>
<path d="M517.243 493.719C520.939 493.532 524.769 493.385 528.051 491.664C522.78 489.13 516.629 488.476 510.931 489.823C510.224 486.741 510.851 483.526 511.278 480.391C511.705 477.256 511.892 473.894 510.41 471.092C508.929 468.29 505.233 466.449 502.471 468.01C500.936 468.877 500.042 470.558 499.508 472.239C498.627 475.014 498.547 478.043 499.268 480.858C496.079 477.909 491.755 476.228 487.418 476.268C485.003 476.282 482.174 477.176 481.48 479.484C480.613 482.352 483.549 484.82 486.111 486.381C484.202 485.687 482.201 484.994 480.199 485.341C478.198 485.687 476.303 487.475 476.61 489.476C476.93 491.558 479.225 492.625 481.213 493.332C479.972 492.932 478.398 493.239 477.757 494.373C477.117 495.507 478.117 497.295 479.385 497.014C475.315 498.215 471.552 501.417 470.098 505.459C472.94 505.059 476.93 502.004 479.946 500.803C483.922 499.216 488.032 497.975 492.209 497.001C500.402 495.08 508.822 494.173 517.216 493.732L517.243 493.719Z" fill="#4E763D"/>
</g>
<path fill-rule="evenodd" clip-rule="evenodd" d="M440.474 502.218C435.296 489.743 409.862 488.889 388.725 497.655C367.588 506.42 357.019 520.896 358.66 532.356C360.582 545.724 385.856 550.327 407.473 542.842C434.095 533.61 445.638 514.692 440.474 502.218Z" fill="#64974E"/>
<path d="M572.568 273.785C572.568 273.785 566.803 271.664 548.068 270.957C548.068 270.957 543.117 252.586 530.4 248.69C517.683 244.808 510.957 248.69 510.957 248.69C507.915 225.996 488.192 211.574 471.766 221.74C455.339 231.906 454.765 251.878 454.765 251.878C454.765 251.878 446.278 241.272 433.908 247.996C421.538 254.707 425.074 269.903 425.074 269.903C425.074 269.903 416.948 270.957 411.65 273.785H572.568Z" fill="#F2F2F2"/>
<path d="M173.55 226.797C170.254 215.296 160.032 206.904 147.929 206.904C144.126 206.904 140.51 207.732 137.241 209.226C133.344 192.389 120.52 180.048 105.308 180.048C90.0956 180.048 77.5521 192.135 73.4955 208.692C71.9743 207.558 70.1728 206.904 68.2512 206.904C64.248 206.904 60.7918 209.733 59.1905 213.815C55.4408 211.961 51.2374 210.934 46.8071 210.934C36.5989 210.934 27.6449 216.417 22.5608 224.675C9.41677 226.33 0.609619 231.079 0.609619 231.079H193.206C193.206 231.079 187.041 227.61 173.563 226.797H173.55Z" fill="#F2F2F2"/>
<path d="M147.369 78.4527C149.464 78.4527 151.452 78.853 153.214 79.5868C153.974 77.9858 155.602 76.8785 157.497 76.8785C158.404 76.8785 159.258 77.132 159.979 77.5722C161.887 71.0883 167.892 66.3521 174.991 66.3521C182.09 66.3521 188.229 71.195 190.07 77.7857C191.618 77.1986 193.326 76.8785 195.114 76.8785C199.545 76.8785 203.454 78.853 205.696 81.8415C214.93 82.5486 221.215 86.3376 221.215 86.3376H134.518C136.32 81.7481 141.391 78.4527 147.369 78.4527Z" fill="#F2F2F2"/>
<path d="M484.616 155.566C481.947 152.018 477.317 149.683 472.059 149.683C469.924 149.683 467.909 150.07 466.068 150.763C463.879 142.945 456.713 137.208 448.186 137.208C441.114 137.208 434.962 141.171 431.827 147.001C430.145 144.987 427.516 143.679 424.581 143.679C419.763 143.679 415.827 147.148 415.427 151.564C410.396 151.564 405.912 153.552 402.976 156.634C390.646 156.58 382.2 160.916 382.2 160.916H503.018C503.018 160.916 495.572 156.42 484.616 155.58V155.566Z" fill="#F2F2F2"/>
<path d="M321.043 101.56C250.759 89.9931 184.386 137.609 172.816 207.905C161.26 278.188 208.885 344.535 279.169 356.089C349.466 367.656 415.827 320.053 427.41 249.77C438.979 179.488 391.34 113.127 321.057 101.56H321.043Z" fill="#6FC2D5"/>
<path d="M244.234 126.829C244.007 125.455 243.66 124.094 243.847 122.706C244.314 119.371 244.061 116.062 243.914 112.74C208.819 129.751 181.957 162.384 173.697 203.169C175.392 206.277 177.54 209.266 181.356 209.666C186.587 210.186 191.885 208.799 196.782 211.254C197.022 211.374 197.183 211.627 197.129 211.907C196.716 213.882 195.728 215.736 194.967 217.577C193.873 220.286 202.881 225.983 202.774 230.225C202.64 235.949 202.56 241.659 202.587 247.409C202.614 253.853 202.64 260.764 204.869 266.914C205.469 268.528 211.541 272.491 212.568 271.73C215.171 269.823 218.146 268.195 221.482 268.635C229.222 269.649 235.921 278.161 238.91 285.179C244.034 278.521 260.421 250.451 259.607 249.077C258.819 247.716 249.385 231.599 241.565 232.8C235.173 233.774 222.456 238.097 222.657 237.723C225.059 233.187 227.42 228.664 229.822 224.128C227.754 223.541 222.883 222.3 222.95 221.887C223.938 215.456 235.427 193.803 240.925 192.002C244.461 190.841 248.051 189.881 251.52 188.573C252.107 188.346 256.351 187.012 256.044 186.092C255.457 184.277 254.723 182.516 253.895 180.822C251.907 176.726 249.465 172.683 248.331 168.241C247.944 166.733 233.626 167.067 233.759 166.733C236.308 161.25 241.579 156.634 242.953 150.63C244.221 145.067 236.641 142.985 234.146 139.076C231.33 134.687 244.688 129.724 244.247 126.842L244.234 126.829Z" fill="#64974E"/>
<path d="M427.396 207.838C424.714 211.707 422.112 215.63 419.55 219.552C419.35 219.859 418.776 219.832 418.602 219.512C416.347 215.429 417.935 209.426 414.786 205.997C411.704 202.622 407.367 200.5 403.443 198.259C403.137 198.072 403.016 197.765 403.15 197.445C404.805 193.109 407.327 189.227 410.022 185.451C411.143 183.904 414.359 180.822 414.052 178.767C413.759 176.619 413.478 174.471 413.265 172.31C413.051 170.202 412.904 168.094 412.771 165.973C407.38 156.367 400.788 147.441 393.155 139.477C393.595 142.598 393.876 145.734 393.836 148.922C393.836 149.536 393.155 149.803 392.741 149.336C390.633 146.961 388.218 144.84 385.749 142.879C383.254 140.904 380.492 138.636 377.436 137.675C370.71 135.594 370.99 149.883 369.523 153.845C369.389 154.192 352.135 149.029 342.621 152.098C342.581 155.006 342.554 157.914 342.634 160.823C342.941 160.796 343.288 160.796 343.622 160.823C348.732 161.183 352.896 165.546 356.459 168.774C356.632 168.934 351.108 175.058 347.345 179.047C347.772 180.368 348.239 181.676 348.746 182.97C350.254 184.29 351.735 185.665 353.109 187.146C354.39 188.493 355.231 187.639 356.766 186.852C358.233 186.118 359.675 185.344 361.196 184.704C365.519 182.863 381.225 191.628 380.385 195.724C379.611 199.566 376.275 202.675 374.113 205.77C373.966 205.997 373.633 206.05 373.392 205.93C371.351 204.903 369.563 203.556 367.748 202.168C365.359 202.341 363.011 202.555 360.622 202.848C357.419 206.744 354.083 210.48 350.414 213.909C350.214 214.095 349.947 214.202 349.68 214.069C346.704 212.574 341.807 208.612 337.043 206.437C333.693 206.944 330.397 207.611 327.248 208.759C322.658 217.004 318.494 225.489 315.118 234.268C317.107 236.736 318.815 239.431 320.523 242.126C320.87 242.232 321.217 242.353 321.537 242.473C324.766 243.82 328.276 246.568 329.25 250.117C329.824 252.239 329.57 254.413 329.25 256.561C330.211 257.722 331.198 258.869 332.199 260.003C335.281 258.562 338.764 257.348 341.366 258.856C343.555 260.123 345.183 262.205 346.664 264.219C348.946 267.261 351.481 270.263 353.309 273.572C356.432 279.175 353.176 285.285 350.107 290.142C347.705 293.904 344.876 297.613 342.647 301.549C343.301 305.738 343.955 309.914 344.676 314.09C345.503 315.023 346.357 315.931 347.224 316.825C351.455 314.97 355.685 313.116 359.848 311.128C360.142 308.179 360.662 305.231 361.369 302.456C362.49 298.08 364.212 294.331 367.961 291.623C372.885 288.06 378.53 285.992 384.241 284.085C386.603 277.667 388.311 270.997 390.273 264.419C385.389 262.471 380.358 260.857 375.648 258.456C375.274 258.282 375.207 257.855 375.434 257.535C379.277 252.025 381.399 245.554 384.602 239.711C384.722 239.484 384.975 239.284 385.255 239.364C387.777 240.071 390.38 240.471 392.942 241.098C393.702 241.285 399.187 243.313 399.48 242.859C402.269 238.564 404.244 233.814 407.006 229.505C407.167 229.238 407.634 229.211 407.86 229.411C412.304 233.867 415.787 239.017 419.136 244.327C419.897 245.528 425.301 240.712 428.837 237.309C429.518 227.303 428.984 217.444 427.423 207.865L427.396 207.838Z" fill="#64974E"/>
<path d="M257.298 129.924C257.298 129.924 257.125 130.111 256.991 130.244C260.354 133.073 263.45 136.195 266.666 139.223C270.295 136.461 284.147 122.186 285.214 122.399C279.796 121.345 274.565 119.491 269.228 118.104C265.078 121.839 260.981 125.681 257.298 129.924Z" fill="#64974E"/>
<path d="M382.039 309.18C379.024 308.953 375.968 308.793 372.885 308.86C372.805 308.86 372.672 308.86 372.512 308.86C372.058 312.035 371.271 315.224 370.617 318.412C372.231 318.679 376.515 318.946 380.678 319.213C380.999 315.864 381.332 312.515 382.039 309.18Z" fill="#64974E"/>
<g style="mix-blend-mode:multiply">
<path d="M321.043 101.56C250.759 89.9931 184.386 137.609 172.816 207.905C161.26 278.188 208.885 344.535 279.169 356.089C349.466 367.656 415.827 320.053 427.41 249.77C438.979 179.488 391.34 113.127 321.057 101.56H321.043ZM408.781 236.175C398.893 296.252 342.154 336.944 282.065 327.057C221.989 317.185 181.276 260.47 191.164 200.394C201.066 140.304 257.792 99.6123 317.867 109.498C377.956 119.384 418.669 176.112 408.781 236.189V236.175Z" fill="#A3D7F3"/>
</g>
<path d="M320.189 42.4709L358.54 46.8469C358.54 46.8469 350.827 40.1361 340.019 38.9087C329.21 37.6813 320.189 42.4709 320.189 42.4709Z" fill="#F9FDFA"/>
<path d="M320.189 42.4709L358.54 46.8469C358.54 46.8469 349.52 51.6499 338.711 50.4091C327.902 49.1817 320.189 42.4709 320.189 42.4709Z" fill="#F2F2F2"/>
<path d="M320.189 42.4709L294.435 71.2218C294.435 71.2218 304.363 68.807 311.622 60.7087C318.881 52.6105 320.189 42.4709 320.189 42.4709Z" fill="#F9FDFA"/>
<path d="M320.189 42.4709L294.435 71.2218C294.435 71.2218 295.743 61.0823 303.002 52.984C310.261 44.8858 320.189 42.4709 320.189 42.4709Z" fill="#F2F2F2"/>
<path d="M320.189 42.4708L301.574 8.66357C301.574 8.66357 310.715 13.253 315.959 22.7788C321.203 32.3046 320.189 42.4708 320.189 42.4708Z" fill="#F9FDFA"/>
<path d="M320.189 42.4708L301.574 8.66357C301.574 8.66357 300.56 18.8298 305.804 28.3556C311.048 37.8814 320.189 42.4708 320.189 42.4708Z" fill="#F2F2F2"/>
<path d="M306.218 13.56C306.218 13.56 311.596 17.469 314.344 22.352C317.093 27.235 317.627 33.5455 317.627 33.5455L306.204 13.5466L306.218 13.56Z" fill="#F2F2F2"/>
<path d="M300.066 67.5528C300.066 67.5528 306.191 64.9512 309.967 60.8154C313.744 56.6795 315.692 50.6492 315.692 50.6492L300.066 67.5662V67.5528Z" fill="#F2F2F2"/>
<path d="M351.561 44.472C351.561 44.472 345.837 41.07 340.272 40.4829C334.708 39.8959 328.676 41.8838 328.676 41.8838L351.561 44.472Z" fill="#F2F2F2"/>
<path d="M322.298 42.4709H320.189H320.069H317.961L311.622 100.133H320.069H320.189H328.636L322.298 42.4709Z" fill="#F9FDFA"/>
<path opacity="0.63" d="M322.751 46.6333H317.507L317.08 50.489C318.228 50.8359 319.669 51.1027 321.23 51.0226L322.258 100.133H328.649L322.765 46.6333H322.751Z" fill="#E0E0E0"/>
<path d="M320.189 49.3951C324.014 49.3951 327.115 46.295 327.115 42.4708C327.115 38.6467 324.014 35.5466 320.189 35.5466C316.364 35.5466 313.264 38.6467 313.264 42.4708C313.264 46.295 316.364 49.3951 320.189 49.3951Z" fill="#F2F2F2"/>
<path d="M320.189 46.6467C322.496 46.6467 324.366 44.7771 324.366 42.4708C324.366 40.1645 322.496 38.2949 320.189 38.2949C317.882 38.2949 316.012 40.1645 316.012 42.4708C316.012 44.7771 317.882 46.6467 320.189 46.6467Z" fill="#F9FDFA"/>
<path d="M314.398 97.6245L318.428 56.2793V97.6245H314.398Z" fill="#F2F2F2"/>
<path d="M305.19 100.133H335.255C336.829 100.133 338.11 101.413 338.11 102.988V105.189H302.335V102.988C302.335 101.413 303.616 100.133 305.19 100.133Z" fill="#F9FDFA"/>
<path d="M335.682 102.667H304.563C303.496 102.667 302.602 103.374 302.321 104.348V105.189H338.004V104.989C338.004 103.695 336.963 102.654 335.668 102.654L335.682 102.667Z" fill="#F2F2F2"/>
<path d="M281.184 44.4187H278.822H278.689H276.327L269.214 109.071H278.689H278.822H288.297L281.184 44.4187Z" fill="#F9FDFA"/>
<path opacity="0.63" d="M281.705 49.0883H275.82L275.339 53.4109C276.634 53.7978 278.248 54.0913 279.983 53.9979L281.131 109.058H288.297L281.705 49.075V49.0883Z" fill="#E0E0E0"/>
<path d="M278.822 44.4187V1.15234C278.822 1.15234 272.337 10.5981 272.337 22.7922C272.337 34.9863 278.822 44.432 278.822 44.432V44.4187Z" fill="#F9FDFA"/>
<path d="M278.822 44.4187V1.15234C278.822 1.15234 285.308 10.5981 285.308 22.7922C285.308 34.9863 278.822 44.432 278.822 44.432V44.4187Z" fill="#F2F2F2"/>
<path d="M278.822 44.4187L314.131 69.4473C314.131 69.4473 310.181 58.6941 300.226 51.6364C290.285 44.5921 278.822 44.4187 278.822 44.4187Z" fill="#F9FDFA"/>
<path d="M278.822 44.4187L314.131 69.4473C314.131 69.4473 302.668 69.2738 292.727 62.2296C282.785 55.1853 278.822 44.4187 278.822 44.4187Z" fill="#F2F2F2"/>
<path d="M278.822 44.4187L243.514 69.4473C243.514 69.4473 247.463 58.6941 257.418 51.6364C267.36 44.5921 278.822 44.4187 278.822 44.4187Z" fill="#F9FDFA"/>
<path d="M278.822 44.4187L243.514 69.4473C243.514 69.4473 254.976 69.2738 264.918 62.2296C274.859 55.1853 278.822 44.4187 278.822 44.4187Z" fill="#F2F2F2"/>
<path d="M286.383 46.0998C287.325 41.9162 284.697 37.7611 280.512 36.819C276.328 35.877 272.172 38.5048 271.23 42.6884C270.287 46.872 272.916 51.0271 277.1 51.9692C281.285 52.9112 285.441 50.2834 286.383 46.0998Z" fill="#F2F2F2"/>
<path d="M278.822 49.0883C281.402 49.0883 283.493 46.9977 283.493 44.4188C283.493 41.8399 281.402 39.7493 278.822 39.7493C276.243 39.7493 274.152 41.8399 274.152 44.4188C274.152 46.9977 276.243 49.0883 278.822 49.0883Z" fill="#F9FDFA"/>
<path d="M248.384 63.6304C248.384 63.6304 252.067 57.1464 257.151 53.4642C262.235 49.782 269.214 48.3811 269.214 48.3811L248.384 63.6304Z" fill="#F2F2F2"/>
<path d="M309.327 63.6304C309.327 63.6304 305.644 57.1464 300.56 53.4642C295.476 49.782 288.497 48.3811 288.497 48.3811L309.327 63.6304Z" fill="#F2F2F2"/>
<path d="M277.074 9.21061C277.074 9.21061 274.018 16.0147 274.058 22.2852C274.098 28.5557 277.087 35.013 277.087 35.013V9.19727L277.074 9.21061Z" fill="#F2F2F2"/>
<path d="M272.324 106.256L276.847 59.9082V106.256H272.324Z" fill="#F2F2F2"/>
<path d="M261.662 109.072H296.063C297.638 109.072 298.919 110.352 298.919 111.927V114.742H258.806V111.927C258.806 110.352 260.087 109.072 261.662 109.072Z" fill="#F9FDFA"/>
<path d="M296.196 111.913H261.315C260.127 111.913 259.113 112.714 258.806 113.808V114.755H298.812V114.528C298.812 113.087 297.638 111.913 296.196 111.913Z" fill="#F2F2F2"/>
<path d="M287.581 491.376C287.581 491.376 229.751 487.345 185.587 488.828C141.423 490.311 102.124 512.276 138.013 521.04C173.902 529.818 289.777 525.126 310.33 511.453C330.869 497.781 298.416 490.19 287.581 491.376Z" fill="#578741"/>
<g clip-path="url(#clip1_789_42181)">
<path d="M231.48 175.575L362.74 175.001C363.995 174.99 365.017 176.008 365.01 177.265L364.73 223.221C364.723 224.484 363.679 225.495 362.415 225.456C350.841 225.111 232.21 223.589 229.941 223.683C227.699 223.777 228.918 187.485 229.253 177.747C229.294 176.543 230.276 175.586 231.481 175.575H231.48Z" fill="white"/>
<path d="M362.483 223.677H362.468C355.071 223.456 284.182 222.57 250.113 222.146C240.151 222.021 233.08 221.933 231.195 221.907L231.019 221.904L230.988 221.73C230.183 217.187 230.197 201.998 231.028 177.805C231.037 177.552 231.242 177.353 231.495 177.351L362.756 176.777C362.885 176.777 363.004 176.827 363.093 176.916C363.183 177.006 363.23 177.121 363.23 177.251L362.95 223.207C362.949 223.465 362.739 223.676 362.482 223.676L362.483 223.677ZM231.378 221.485C233.498 221.514 240.446 221.6 250.118 221.721C284.187 222.146 355.081 223.032 362.481 223.252H362.493C362.506 223.252 362.525 223.232 362.525 223.207L362.806 177.251L362.757 176.992V177.205L231.498 177.778C231.474 177.778 231.455 177.796 231.453 177.821C230.633 201.685 230.608 216.764 231.377 221.485H231.378Z" fill="#91CDAA"/>
<path opacity="0.7" d="M237.095 187.442C237.095 188.685 237.511 189.692 238.021 189.692H288.301C288.812 189.692 289.227 188.685 289.227 187.442C289.227 186.199 288.812 185.193 288.301 185.193H238.021C237.511 185.193 237.095 186.199 237.095 187.442Z" fill="#E0E0E0"/>
<path opacity="0.7" d="M237.095 195.113C237.095 196.356 237.511 197.363 238.021 197.363H288.301C288.812 197.363 289.227 196.356 289.227 195.113C289.227 193.871 288.812 192.864 288.301 192.864H238.021C237.511 192.864 237.095 193.871 237.095 195.113Z" fill="#E0E0E0"/>
<path opacity="0.7" d="M237.095 202.785C237.095 204.027 237.511 205.034 238.021 205.034H288.301C288.812 205.034 289.227 204.027 289.227 202.785C289.227 201.542 288.812 200.535 288.301 200.535H238.021C237.511 200.535 237.095 201.542 237.095 202.785Z" fill="#E0E0E0"/>
<path opacity="0.7" d="M237.095 210.456C237.095 211.699 237.511 212.705 238.021 212.705H288.301C288.812 212.705 289.227 211.699 289.227 210.456C289.227 209.213 288.812 208.206 288.301 208.206H238.021C237.511 208.206 237.095 209.213 237.095 210.456Z" fill="#E0E0E0"/>
<path d="M301.965 197.776C306.796 197.776 310.712 193.859 310.712 189.027C310.712 184.195 306.796 180.278 301.965 180.278C297.134 180.278 293.218 184.195 293.218 189.027C293.218 193.859 297.134 197.776 301.965 197.776Z" fill="#EFF9F0"/>
<path d="M323.703 197.776C328.533 197.776 332.449 193.859 332.449 189.027C332.449 184.195 328.533 180.278 323.703 180.278C318.872 180.278 314.956 184.195 314.956 189.027C314.956 193.859 318.872 197.776 323.703 197.776Z" fill="#EFF9F0"/>
<path d="M345.439 198.063C350.269 198.063 354.185 194.146 354.185 189.314C354.185 184.482 350.269 180.565 345.439 180.565C340.608 180.565 336.692 184.482 336.692 189.314C336.692 194.146 340.608 198.063 345.439 198.063Z" fill="#EFF9F0"/>
<path d="M307.163 187.178C307.434 187.837 307.584 188.557 307.584 189.314C307.584 192.418 305.068 194.933 301.966 194.933C298.865 194.933 296.349 192.417 296.349 189.314C296.349 186.212 298.865 183.696 301.966 183.696C302.061 183.696 302.155 183.698 302.25 183.703V182.278C302.155 182.274 302.061 182.272 301.966 182.272C298.078 182.272 294.926 185.426 294.926 189.314C294.926 193.203 298.079 196.356 301.966 196.356C305.854 196.356 309.007 193.203 309.007 189.314C309.007 188.356 308.815 187.444 308.469 186.612L307.163 187.18V187.178Z" fill="#2CA55E"/>
<path d="M326.6 194.068C325.734 194.615 324.708 194.933 323.607 194.933C320.504 194.933 317.989 192.417 317.989 189.314C317.989 186.212 320.505 183.696 323.607 183.696C323.701 183.696 323.796 183.698 323.89 183.703V182.278C323.796 182.274 323.701 182.272 323.607 182.272C319.718 182.272 316.566 185.426 316.566 189.314C316.566 193.203 319.719 196.356 323.607 196.356C324.965 196.356 326.231 195.972 327.307 195.306L326.6 194.068Z" fill="#2CA55E"/>
<path d="M350.127 192.474C349.116 193.958 347.413 194.933 345.482 194.933C342.379 194.933 339.864 192.417 339.864 189.314C339.864 186.212 342.38 183.696 345.482 183.696C345.576 183.696 345.671 183.698 345.765 183.703V182.278C345.671 182.274 345.576 182.272 345.482 182.272C341.593 182.272 338.441 185.426 338.441 189.314C338.441 193.203 341.594 196.356 345.482 196.356C347.888 196.356 350.011 195.15 351.281 193.308L350.127 192.474Z" fill="#2CA55E"/>
<g opacity="0.64">
<path d="M309.091 201.482H294.839C293.945 201.482 293.218 202.207 293.218 203.103C293.218 203.998 293.943 204.723 294.839 204.723H309.091C309.986 204.723 310.712 203.998 310.712 203.103C310.712 202.207 309.987 201.482 309.091 201.482Z" fill="#E0E0E0"/>
<path d="M330.829 201.482H316.576C315.682 201.482 314.956 202.207 314.956 203.103C314.956 203.998 315.681 204.723 316.576 204.723H330.829C331.723 204.723 332.449 203.998 332.449 203.103C332.449 202.207 331.724 201.482 330.829 201.482Z" fill="#E0E0E0"/>
<path d="M338.312 204.722H352.565C353.459 204.722 354.185 203.997 354.185 203.101C354.185 202.205 353.461 201.48 352.565 201.48H338.312C337.418 201.48 336.692 202.205 336.692 203.101C336.692 203.997 337.417 204.722 338.312 204.722Z" fill="#E0E0E0"/>
<path d="M294.84 206.521H309.093C309.987 206.521 310.713 207.248 310.713 208.142V217.684C310.713 218.578 309.987 219.304 309.093 219.304H294.84C293.946 219.304 293.22 218.578 293.22 217.684V208.142C293.22 207.248 293.946 206.521 294.84 206.521Z" fill="#E0E0E0"/>
<path d="M330.828 206.521H316.576C315.681 206.521 314.956 207.247 314.956 208.142V217.682C314.956 218.577 315.681 219.303 316.576 219.303H330.828C331.722 219.303 332.448 218.577 332.448 217.682V208.142C332.448 207.247 331.722 206.521 330.828 206.521Z" fill="#E0E0E0"/>
<path d="M352.565 206.521H338.314C337.419 206.521 336.693 207.247 336.693 208.142V217.682C336.693 218.577 337.419 219.303 338.314 219.303H352.565C353.46 219.303 354.185 218.577 354.185 217.682V208.142C354.185 207.247 353.46 206.521 352.565 206.521Z" fill="#E0E0E0"/>
</g>
<path d="M174.769 499.487C174.769 499.487 174.054 503.324 173.685 507.125C173.541 508.611 174.675 509.912 176.165 509.989C181.228 510.248 192.059 510.762 195.947 510.625C196.532 510.604 196.919 510.01 196.708 509.464C196.532 509.007 196.185 508.635 195.742 508.425L177.924 500.028L174.768 499.486L174.769 499.487Z" fill="#344054"/>
<path d="M174.236 497.224L174.738 501.826C174.738 501.826 177.859 503.316 180.015 501.693L178.765 496.557L174.235 497.224H174.236Z" fill="#AC8853"/>
<path d="M175.469 410.804C175.222 412.003 173.634 470.699 179.656 497.067C179.755 497.497 179.533 497.938 179.123 498.1C178.157 498.485 176.266 499.036 174.004 499.09C173.305 499.107 172.681 498.646 172.49 497.972C170.754 491.851 162.453 461.187 161.611 431.962C160.669 399.306 161.622 430.852 161.622 430.852L162.549 410.679L175.471 410.806L175.469 410.804Z" fill="#125655"/>
<path d="M154.165 501.296C154.165 501.296 153.067 503.226 151.971 508.371C151.774 509.3 152.416 510.197 153.36 510.3C155.031 510.48 157.604 510.717 159.666 510.722C160.617 510.725 161.366 509.904 161.261 508.958C161.05 507.074 160.368 503.98 158.192 501.553L154.165 501.296Z" fill="#344054"/>
<path d="M153.272 495.374L154.48 502.339C154.48 502.339 155.731 503.288 158.23 502.632L157.693 495.146L153.272 495.374Z" fill="url(#paint0_linear_789_42181)"/>
<path d="M150.622 412.368C145.195 443.293 151.005 488.932 153.025 497.874C153.149 498.421 153.586 498.845 154.138 498.94C155.077 499.106 156.624 499.247 158.154 498.818C158.681 498.671 159.055 498.2 159.081 497.653C159.432 490.443 159.346 446.161 164.294 428.707C164.546 427.823 165.094 427.055 165.848 426.529L175.19 420.018L176.004 409.359L150.622 412.365V412.368Z" fill="#155E5D"/>
<path d="M183.876 353.992C168.501 353.591 151.494 357.722 151.494 357.722C146.655 384.429 150.143 415.321 150.143 415.321C162.017 418.556 175.494 413.653 175.494 413.653C177.579 402.49 187.111 371.11 187.111 371.11C194.633 370.249 200.843 368.14 205.966 365.322C202.121 360.777 200.343 355.025 199.579 351.627C194.126 353.266 188.617 354.115 183.874 353.992H183.876Z" fill="#F5F5F5"/>
<path d="M229.512 331.77C228.02 329.93 226.1 330.776 226.1 330.776C223.745 340.315 211.807 347.954 199.581 351.627C200.344 355.025 202.123 360.778 205.967 365.322C226.305 354.138 229.512 331.77 229.512 331.77Z" fill="#AC8853"/>
<path d="M229.142 332.231C229.294 332.735 227.458 333.484 226.4 331.417C226.372 330.431 225.812 326.206 226.409 325.408C229.585 321.165 235.713 315.864 235.713 315.864C236.73 316.887 235.875 317.875 235.875 317.875L232.897 320.919C233.504 322.04 234.247 322.987 234.585 324.339C234.842 325.363 234.669 326.453 234.144 327.376C233.618 328.304 232.9 329.509 232.224 330.452C230.944 332.235 229.142 332.232 229.142 332.232V332.231Z" fill="#AC8853"/>
<path d="M231.588 322.899L228.879 325.152L228.014 327.411L230.384 330.091C230.384 330.091 231.232 325.599 231.841 324.631C232.449 323.663 232.142 323.189 231.588 322.899Z" fill="#9B7B4A"/>
<path d="M157.25 372.671L151.494 357.722C151.494 357.722 137.038 367.346 134.557 379.699C137.269 379.926 142.2 380.678 147.011 383.165C148.128 377.332 157.248 372.67 157.248 372.67L157.25 372.671Z" fill="#F5F5F5"/>
<path d="M169.669 386.804C169.669 386.804 153.455 395.765 148.089 387.93C146.975 386.302 146.72 384.694 147.013 383.165C142.203 380.678 137.271 379.924 134.56 379.699C133.812 383.424 134.15 387.395 136.305 391.427C145.669 408.956 171.766 390.802 171.766 390.802L169.67 386.805L169.669 386.804Z" fill="#AC8853"/>
<path d="M168.419 341.356L163.392 355.463C163.309 355.696 163.403 355.957 163.618 356.079C164.945 356.829 169.73 359.006 175.555 355.39C176.162 355.014 176.578 354.393 176.677 353.686L178.378 341.452L168.419 341.358V341.356Z" fill="#9B7B4A"/>
<path d="M179.19 328.352C179.19 328.352 184.466 338.519 183.738 342.599C183.011 346.679 176.355 346.322 170.572 342.947L166.614 331.986L179.191 328.352H179.19Z" fill="#AC8853"/>
<path d="M170.881 337.586C171.118 337.483 171.208 337.194 171.068 336.978C170.643 336.315 169.85 334.967 169.603 333.789C169.603 333.789 168.644 333.161 172.075 332.374C175.507 331.587 180.626 330.363 181.726 327.458C182.8 324.625 180.119 317.451 175.677 323.105C175.508 323.32 175.182 323.321 175.017 323.103C174.307 322.16 172.434 320.199 169.799 321.352C167.332 322.431 167.039 324.228 167.064 325.136C167.071 325.403 166.831 325.608 166.568 325.556C165.329 325.307 162.351 325.075 160.93 328.119C159.761 330.627 160.492 332.06 161.164 332.763C161.381 332.991 161.282 333.361 160.979 333.452C160.16 333.693 159.1 334.377 159.187 336.29C159.307 338.936 162.264 338.731 163.107 338.619C163.245 338.601 163.384 338.649 163.477 338.754C164.19 339.559 167.408 342.981 170.924 343.424C171.228 343.463 171.467 343.164 171.369 342.873L169.889 338.431C169.82 338.225 169.921 338.001 170.121 337.915L170.879 337.587L170.881 337.586Z" fill="#344054"/>
<path d="M171.487 338.221C171.487 338.221 167.687 335.558 167.386 337.766C167.086 339.974 170.8 341.002 172.654 340.195L171.487 338.221Z" fill="#9B7B4A"/>
<path d="M166.355 400.967L175.186 370.117C175.286 369.767 175.584 369.512 175.947 369.47C177.548 369.284 182.183 368.759 187.537 368.306C193.986 367.761 201.473 367.319 205.949 367.695C206.585 367.748 206.97 368.422 206.686 368.994C204.142 374.143 193.675 395.09 188.432 401.952C188.259 402.179 187.989 402.311 187.703 402.308L167.213 402.118C166.617 402.113 166.189 401.54 166.353 400.967H166.355Z" fill="#063536"/>
<path d="M168.489 393.514C168.489 393.514 167.258 388.453 167.754 386.659C168.25 384.864 169.212 382.556 172.416 383.069C175.621 383.582 179.402 384.933 179.402 384.933C179.402 384.933 179.211 387.272 176.776 386.518L178.286 387.687C178.286 387.687 178.07 389.559 176.013 388.559L177.418 390.109C177.418 390.109 176.535 391.646 175.021 390.66C173.507 389.674 172.781 394.125 168.489 393.515V393.514Z" fill="#AC8853"/>
<path d="M186.948 377.515C186.948 378.947 188.109 380.107 189.54 380.107C190.972 380.107 192.132 378.947 192.132 377.515C192.132 376.083 190.972 374.922 189.54 374.922C188.109 374.922 186.948 376.083 186.948 377.515Z" fill="white"/>
<path d="M176.186 379.224L175.525 379.028L177.323 372.928C177.616 371.934 178.418 371.188 179.415 370.981C185.114 369.791 200.125 369.548 200.761 369.538L200.772 370.227C200.616 370.228 185.19 370.478 179.555 371.654C178.807 371.81 178.204 372.372 177.984 373.122L176.186 379.223V379.224Z" fill="url(#paint1_linear_789_42181)"/>
<path d="M71.6631 465.559C70.7218 466.952 66.9802 498.502 66.3943 510.153C66.354 510.94 66.9843 511.597 67.7729 511.597C68.4532 511.597 69.0322 511.101 69.1363 510.429L75.9795 466.562L71.6617 465.558L71.6631 465.559Z" fill="#7D97F4"/>
<path d="M101.746 465.559C102.687 466.952 106.429 498.502 107.015 510.153C107.055 510.94 106.425 511.597 105.636 511.597C104.956 511.597 104.377 511.101 104.273 510.429L97.4297 466.562L101.747 465.558L101.746 465.559Z" fill="#7D97F4"/>
<path d="M66.0028 463.097L66.0001 463.441C65.9778 465.916 68.109 467.946 70.7788 467.992L102.412 468.531C105.043 468.575 107.236 466.674 107.363 464.237L107.38 463.922C107.513 461.381 105.356 459.239 102.612 459.191L70.9648 458.623C68.2561 458.574 66.0264 460.585 66.0028 463.097Z" fill="#7D97F4"/>
<path d="M132.641 509.007C127.018 509.007 124.53 508.525 123.417 508.085C123.634 509.008 124.455 509.738 125.495 509.738H145.389C146.058 509.738 146.482 509.096 146.322 508.515C144.055 508.697 139.239 509.007 132.641 509.007Z" fill="#344054"/>
<path d="M146.321 508.515C146.289 508.399 146.242 508.284 146.158 508.177C144.642 506.241 141.599 503.202 137.457 503.261C131.392 503.345 129.276 504.004 124.562 503.298L123.45 506.985C123.336 507.361 123.335 507.736 123.417 508.085C124.529 508.525 127.017 509.007 132.641 509.007C139.237 509.007 144.053 508.697 146.322 508.515H146.321Z" fill="#E0E0E0"/>
<path d="M125.928 499.325L124.564 503.969C124.564 503.969 127.588 505.347 130.248 504.241L130.77 500.218L125.928 499.327V499.325Z" fill="url(#paint2_linear_789_42181)"/>
<path d="M167.16 506.082C162.777 509.605 160.536 510.79 159.395 511.145C160.139 511.727 161.234 511.777 162.045 511.126L177.553 498.663C178.075 498.243 178.006 497.481 177.518 497.129C175.865 498.692 172.302 501.95 167.16 506.082Z" fill="#344054"/>
<path d="M177.517 497.131C177.418 497.06 177.31 497 177.178 496.97C174.79 496.418 170.524 495.967 167.332 498.607C162.656 502.473 161.418 504.309 157.303 506.714L158.734 510.272C158.88 510.634 159.112 510.927 159.393 511.147C160.535 510.791 162.775 509.607 167.158 506.084C172.301 501.951 175.862 498.693 177.517 497.131Z" fill="#E0E0E0"/>
<path d="M96.7258 446.416C96.7258 446.416 130.392 449.166 137.299 452.418C144.206 455.67 131.662 501.248 131.662 501.248C131.662 501.248 129.783 502.154 125.598 500.853C125.598 500.853 129.888 467.217 126.696 459.924L90.2435 453.959L96.7244 446.416H96.7258Z" fill="#263238"/>
<path d="M153.959 500.311C154.272 500.596 157.304 506.713 157.304 506.713C157.304 506.713 160.68 505.982 161.368 503.845L158.33 498.324L153.958 500.311H153.959Z" fill="url(#paint3_linear_789_42181)"/>
<path d="M76.4488 446.134C76.4488 446.134 75.352 448.774 75.3965 452.283C75.4589 457.137 79.3588 461.074 84.2056 461.315L124.006 463.13C124.846 463.169 125.558 463.751 125.767 464.565C126.703 468.184 131.274 479.295 153.621 501.468C154.215 502.058 155.141 502.158 155.849 501.711L159.03 499.701C159.364 499.49 159.47 499.053 159.271 498.711L136.098 459.129C134.881 457.12 132.924 455.669 130.649 455.087L96.7272 446.413L76.4502 446.131L76.4488 446.134Z" fill="#344054"/>
<path d="M115.671 384.304C115.671 384.304 111.408 391.845 107.061 395.497L116.046 400.512C116.046 400.512 118.07 392.529 122.696 390.192L115.671 384.304Z" fill="url(#paint4_linear_789_42181)"/>
<path d="M75.7255 446.416C75.7255 446.416 86.47 449.035 96.7257 446.416C96.7257 446.416 111.076 427.12 116.628 421.868C116.628 421.868 125.484 435.845 145.195 437.827L146.294 435.37C146.294 435.37 130.602 428.135 125.772 417.018C120.94 405.9 119.001 401.159 114.605 398.258C111.867 396.451 110.229 395.217 109.382 394.543C108.918 394.174 108.278 394.132 107.773 394.44C103.108 397.283 81.1609 412.318 75.7255 446.416Z" fill="#E0E0E0"/>
<path d="M116.046 421.596C115.839 421.596 115.635 421.503 115.499 421.327C112.077 416.865 110.172 411.945 110.093 411.739C109.957 411.384 110.135 410.985 110.49 410.849C110.845 410.713 111.244 410.891 111.38 411.246C111.399 411.295 113.297 416.191 116.593 420.489C116.825 420.792 116.768 421.224 116.465 421.456C116.34 421.552 116.193 421.597 116.046 421.597V421.596Z" fill="#D3D1D1"/>
<path d="M144.01 434.086L146.229 433.494L152.965 431.933C153.776 431.746 154.629 431.889 155.332 432.333L161.125 435.979L145.129 435.952L144.01 434.087V434.086Z" fill="url(#paint5_linear_789_42181)"/>
<path d="M122.441 372.999C122.441 372.999 126.584 379.888 127.303 383.696C128.022 387.504 129.176 389.884 124.843 391.241C120.51 392.597 116.483 390.88 113.957 387.326C113.957 387.326 110.01 381.856 110.404 379.351C110.798 376.845 122.44 372.999 122.44 372.999H122.441Z" fill="url(#paint6_linear_789_42181)"/>
<path d="M115.11 384.379L115.671 384.306C115.671 384.306 112.738 379.872 114.658 378.772C116.578 377.672 124.401 374.972 125.759 371.891C127.068 368.92 125.109 365.564 122.748 364.863C122.598 364.818 122.441 364.907 122.387 365.053L122.248 365.426C122.154 365.683 121.794 365.693 121.684 365.443C121.58 365.206 121.24 365.196 121.133 365.432C120.714 366.355 119.46 367.932 115.698 369.152C110.359 370.884 107.034 373.575 107.442 377.369C107.469 377.609 107.23 377.775 107.009 377.677C106.573 377.484 105.911 377.454 105.143 378.294C103.808 379.755 104.855 382.952 108.503 385.214C108.677 385.321 108.707 385.567 108.552 385.698C108.006 386.166 107.238 387.208 109.707 388.137C112.232 389.087 113.61 388.766 114.119 388.562C114.257 388.506 114.334 388.365 114.307 388.22L113.658 384.896C113.625 384.724 113.743 384.56 113.916 384.536L115.112 384.379H115.11Z" fill="#FFD28F"/>
<path d="M115.341 385.061C115.341 385.061 113.512 380.552 111.592 382.137C109.672 383.721 113.367 387.225 115.073 387.178L115.341 385.061Z" fill="url(#paint7_linear_789_42181)"/>
<path d="M137.831 439.117C137.857 439.117 137.884 439.118 137.91 439.118L172.082 439.084C172.926 439.084 173.61 438.399 173.609 437.555C173.609 436.71 172.92 436.013 172.077 436.029L137.906 436.063C137.062 436.063 136.377 436.748 136.379 437.592C136.379 438.409 137.023 439.077 137.832 439.116L137.831 439.117Z" fill="#566177"/>
<path d="M185.315 405.644C185.303 405.668 185.292 405.691 185.281 405.715L170.903 436.722C170.547 437.488 170.879 438.396 171.644 438.752C172.409 439.107 173.331 438.777 173.673 438.006L188.05 407C188.406 406.233 188.074 405.325 187.309 404.969C186.568 404.626 185.692 404.929 185.315 405.644Z" fill="#515B6E"/>
<path d="M274.798 470.279H271.191V509.293H274.798V470.279Z" fill="#828282"/>
<path d="M288.788 510.044H257.199C257.199 508.747 258.25 507.696 259.547 507.696H286.44C287.737 507.696 288.788 508.747 288.788 510.044Z" fill="#4F4F4F"/>
<path d="M289.598 461.537H257.639C255.497 461.537 253.76 463.274 253.76 465.417V468.924C253.76 471.067 255.497 472.804 257.639 472.804H289.598C291.74 472.804 293.477 471.067 293.477 468.924V465.417C293.477 463.274 291.74 461.537 289.598 461.537Z" fill="#828282"/>
<path d="M246.368 444.266C246.368 444.266 241.009 445.097 234.984 449.127C234.036 449.761 233.515 450.867 233.658 451.999C234.38 457.716 237.345 476.217 247.129 494.29C247.646 495.242 247.793 496.352 247.565 497.411L245.866 505.323L242.714 508.279H250.832L256.237 493.648L253.925 492.918C252.133 492.351 250.904 490.703 250.871 488.822L250.6 473.127C250.832 466.135 246.313 461.31 246.313 461.31L259.277 460.679L246.367 444.269L246.368 444.266Z" fill="#F6B899"/>
<path d="M239.543 509.706C238.803 510.673 247.501 511.951 251.894 509.833C251.894 509.833 257.985 499.233 257.985 493.776C257.985 493.776 257.502 492.664 253.925 492.915C253.925 492.915 251.88 505.466 249.721 506.871C247.562 508.277 243.679 507.013 243.679 507.013C243.679 507.013 240.634 508.275 239.543 509.704V509.706Z" fill="#EFF9F0"/>
<path d="M257.638 461.538C257.568 461.418 243.679 459.867 243.679 459.867C243.679 459.867 244.133 464.091 242.713 469.906C241.292 475.722 220.899 500.915 220.899 500.915L223.037 507.695C216.426 509.999 209.923 510.367 203.522 508.87L216.774 500.915C216.774 500.915 229.176 458.641 236.773 451.099L250.696 446.28L257.638 461.536V461.538Z" fill="#FFBE9D"/>
<path d="M288.788 436.94C288.788 436.94 296.791 448.845 297.447 454.276C298.104 459.707 295.255 461.914 286.858 462.278C278.462 462.642 256.045 462.636 256.045 462.636L236.914 446.281C236.914 446.281 250.855 441.306 254.48 439.898C258.105 438.491 288.788 436.94 288.788 436.94Z" fill="#155E5D"/>
<path d="M222.229 505.413C222.229 505.413 224.531 507.643 222.976 510.125C222.976 510.125 204.738 513.358 199.788 511.891C199.788 511.891 200.816 509.544 206.391 506.873L205.98 507.188C205.459 507.588 205.764 508.421 206.42 508.384C210.093 508.174 217.697 507.5 222.229 505.413Z" fill="#EFF9F0"/>
<path d="M254.124 361.435C270.483 358.654 278.184 371.999 277.622 374.803C277.547 375.175 277.898 375.489 278.263 375.39C280.141 374.885 284.29 374.247 286.862 377.47C289.134 380.316 287.436 383.002 286.053 384.476C285.718 384.832 286 385.411 286.485 385.35C289.938 384.914 297.44 384.81 298.668 391.839C299.813 398.395 295.251 400.244 292.545 400.764C292.087 400.852 291.98 401.454 292.374 401.704C293.724 402.561 295.288 404.33 294.655 407.823C293.665 413.297 282.935 412.85 281.68 412.778C281.601 412.774 281.526 412.75 281.456 412.711L264.268 402.906C264.134 402.829 264.042 402.697 264.016 402.545L260.546 382.5C260.518 382.338 260.568 382.173 260.682 382.053L249.477 366.237C245.409 365.639 253.931 361.466 254.124 361.432V361.435Z" fill="#E89314"/>
<path d="M267.146 435.364C267.146 435.364 257.828 426.487 253.241 420.609C250.761 417.431 249.982 413.247 251.129 409.383C253.223 402.325 256.945 395.015 257.285 393.878C257.806 392.134 268.254 392.207 268.254 392.207C268.254 392.207 288.816 405.555 296.895 428.166L287.822 430.992C287.822 430.992 282.453 421.982 277.148 416.255C277.148 416.255 286.327 428.384 286.65 433.349L267.146 435.365V435.364Z" fill="#E0E0E0"/>
<path d="M256.02 384.132C256.13 384.494 258.857 393.537 259.07 393.725C259.284 393.912 265.051 394.223 267.766 392.367L261.031 379.191L256.019 384.13L256.02 384.132Z" fill="#F6B899"/>
<path d="M245.087 372.511C245.087 372.511 243.769 377.693 247.415 384.66C251.062 391.628 255.19 391.62 257.446 389.39C259.702 387.159 262.486 383.375 261.825 376.639C261.164 369.902 246.99 365.921 245.087 372.511Z" fill="#FFBE9D"/>
<path d="M256.781 377.005C256.781 377.005 250.731 367.754 245.058 375.035L244.955 377.683C244.955 377.683 238.31 376.894 239.474 370.799C240.636 364.704 246.379 360.895 253.775 363.535C261.171 366.175 265.408 368.881 265.886 374.183C266.363 379.484 262.147 378.322 262.147 378.322C262.147 378.322 260.771 374.589 258.816 374.201C256.862 373.814 257.37 376.725 257.37 376.725L256.784 377.005H256.781Z" fill="#E58F0F"/>
<path d="M258.33 376.882C258.33 376.882 255.193 372.145 258.408 371.438C261.624 370.731 261.125 376.054 260.778 378.023L258.332 376.882H258.33Z" fill="#F6B899"/>
<path d="M248.161 436.023L255.008 429.423L264.479 433.425C264.479 433.425 273.908 434.886 279.304 433.425L284.701 431.964L296.895 428.167L298.809 433.582C299.295 434.957 298.807 436.483 297.618 437.327C296.563 438.077 295.326 438.9 294.539 439.246C292.932 439.949 254.953 438.76 254.953 438.76L248.161 436.026V436.023Z" fill="#FFBE9D"/>
<path d="M274.072 439.135C274.041 439.137 274.01 439.138 273.98 439.137L234.262 439.094C233.28 439.094 232.485 438.296 232.486 437.313C232.486 436.331 233.287 435.519 234.266 435.537L273.984 435.58C274.966 435.58 275.761 436.379 275.76 437.36C275.76 438.312 275.01 439.088 274.072 439.135Z" fill="#667085"/>
<path d="M198.559 403.065H231.636C234.077 403.065 236.297 404.474 237.338 406.682L252.63 439.114H211.523C209.95 439.114 208.538 438.153 207.959 436.691L196.102 406.679C195.416 404.944 196.694 403.065 198.558 403.065H198.559Z" fill="#BDBDBD"/>
<path d="M221.861 419.694C222.577 421.921 222.048 424.085 220.678 424.525C219.308 424.966 217.617 423.518 216.899 421.291C216.183 419.063 216.712 416.9 218.082 416.459C219.452 416.018 221.143 417.466 221.861 419.694Z" fill="white"/>
<path d="M319.353 505.127C319.353 505.127 319.769 507.442 319.935 510.19C320.005 511.361 319.138 512.379 317.97 512.493C313.905 512.887 304.652 513.615 298.743 512.762C297.915 512.642 297.586 511.626 298.198 511.055C300.635 508.785 306.519 504.369 316.203 503.404L319.354 505.127H319.353Z" fill="#344054"/>
<path d="M321.374 499.908L319.32 504.948C319.038 505.638 318.338 506.067 317.595 505.989C317.091 505.937 316.496 505.841 315.917 505.664C314.757 505.312 314.102 504.083 314.449 502.92L316 497.729L321.374 499.907V499.908Z" fill="#FFBE9D"/>
<path d="M356.515 509.14C356.515 509.14 352.398 512.584 350.795 517.003C350.353 518.218 351.286 519.499 352.579 519.499H361.049C362.289 519.499 363.24 518.383 363.024 517.161C362.483 514.11 360.928 509.153 356.515 509.139V509.14Z" fill="#344054"/>
<path d="M361.614 504.658C361.614 504.658 360.783 508.339 360.144 510.771C360.027 511.212 359.557 511.454 359.128 511.301C357.846 510.843 356.804 510.64 356.044 510.742C355.694 510.789 355.388 510.497 355.383 510.143L355.304 504.03L361.616 504.658H361.614Z" fill="#FFBE9D"/>
<path d="M339.724 421.835L314.689 498.229C314.689 498.229 319.492 501.375 321.778 501.244L351.514 439.849C351.514 439.849 356.718 477.678 354.196 504.837L362.714 505.487C362.714 505.487 376.563 436.083 366.074 412.311L339.724 421.835Z" fill="#263238"/>
<path d="M351.353 439.189C351.363 439.189 351.374 439.189 351.384 439.188C351.517 439.171 351.611 439.05 351.593 438.917L350.621 431.204C350.605 431.071 350.485 430.979 350.351 430.995C350.217 431.011 350.123 431.132 350.141 431.265L351.113 438.978C351.128 439.1 351.232 439.191 351.353 439.191V439.189Z" fill="#115352"/>
<path d="M335.03 354.613C335.03 354.613 355.314 356.414 352.444 370.87C352.444 370.87 363.657 391.975 368.898 416.836C369.068 417.645 368.527 418.434 367.712 418.573L333.933 424.358C333.002 424.518 332.103 423.936 331.866 423.021L323.796 391.821L320.651 406.327L310.658 403.724L319.07 361.099C319.07 361.099 320.243 354.881 335.03 354.613Z" fill="#EFF9F0"/>
<path d="M323.625 390.427C323.643 390.427 323.661 390.425 323.679 390.421C323.815 390.392 323.901 390.257 323.871 390.121L321.055 377.19C321.026 377.054 320.892 376.969 320.755 376.998C320.619 377.027 320.533 377.162 320.562 377.298L323.378 390.23C323.404 390.348 323.508 390.428 323.623 390.428L323.625 390.427Z" fill="#E2EDE3"/>
<path d="M325.663 428.908C326.726 428.323 327.973 428.16 329.15 428.453L331.501 429.038C332.001 429.163 332.495 428.819 332.553 428.306L334.986 406.654C338.026 408.098 342.413 407.926 343.86 407.82L338.262 433.346H318.674L325.663 428.906V428.908Z" fill="#FFBE9D"/>
<path d="M273.618 381.942L274.209 379.974C274.549 378.841 275.386 377.926 276.485 377.484L287.193 373.177C287.193 373.177 287.354 371.803 284.93 370.87C282.506 369.937 283.072 367.22 283.072 367.22C283.072 367.22 286.385 368.731 291.233 371.128C294.006 372.499 295.562 374.919 296.387 376.74L320.651 406.327L317.802 408.285C314.056 410.86 308.904 409.595 306.776 405.579L293.631 380.367C287.032 382.35 280.354 382.729 273.619 381.943L273.618 381.942Z" fill="#FFBE9D"/>
<path d="M328.459 340.81L334.697 358.274C334.697 358.274 329.173 362.595 325.141 361.134L321.998 351.123C321.998 351.123 324.398 338.887 328.458 340.81H328.459Z" fill="#F6B899"/>
<path d="M309.84 334.538C309.84 334.807 315.849 351.553 315.849 351.553L325.335 347.918L321.998 331.199C321.998 331.199 309.84 330.033 309.84 334.538Z" fill="#FFBE9D"/>
<path d="M320.334 335.272L322.781 343.936C322.813 344.047 322.828 344.16 322.828 344.275C322.828 344.982 322.654 347.414 320.178 347.083C317.931 346.783 315.876 346.543 314.569 347.158C313.981 347.434 313.701 348.109 313.92 348.72C314.467 350.242 315.761 353.647 317.337 356.435C317.656 357 318.359 357.221 318.95 356.951C320.731 356.14 324.443 354.325 327.085 352.166C327.443 351.873 327.615 351.413 327.529 350.959C327.114 348.743 325.874 342.002 325.82 340.07C325.768 338.257 327.802 336.873 328.698 336.353C328.991 336.182 329.2 335.901 329.28 335.571C329.56 334.404 329.799 331.763 326.431 331.181C325.725 331.059 325.266 330.384 325.409 329.683C325.693 328.287 325.603 326.233 322.953 325.477C320.259 324.707 318.564 326.329 317.702 327.572C317.354 328.075 316.701 328.239 316.143 327.989C315.825 327.847 315.44 327.84 315.028 328.189C314.471 328.658 313.626 328.515 313.216 327.914C312.431 326.757 311.005 325.603 308.589 326.385C304.303 327.772 304.507 332.714 306.079 335.401C307.65 338.089 312.211 336.321 314.371 334.54C316.014 333.187 318.513 333.996 319.617 334.463C319.967 334.61 320.228 334.91 320.33 335.275L320.334 335.272Z" fill="#344054"/>
<path d="M326.682 343.231C326.682 343.231 324.145 338.432 325.823 336.923C327.5 335.417 330.342 335.662 330.265 339.416C330.171 344.085 326.682 343.231 326.682 343.231Z" fill="#F6B899"/>
<path d="M341.891 408.146C343.276 408.146 344.264 408.041 344.371 408.03L344.552 408.01L351.938 373.567C351.967 373.431 351.881 373.297 351.745 373.268C351.607 373.238 351.475 373.325 351.446 373.461L344.136 407.547C343.037 407.644 337.168 408.033 334.069 405.837L340.467 375.912L339.131 373.395C339.066 373.272 338.913 373.225 338.791 373.29C338.669 373.356 338.622 373.508 338.687 373.631L339.937 375.986L333.509 406.048L333.636 406.144C335.876 407.827 339.481 408.145 341.89 408.145L341.891 408.146Z" fill="#E2EDE3"/>
<path d="M120.475 513.159C120.306 513.159 120.133 513.122 119.967 513.044C119.314 512.737 119.013 511.911 119.293 511.198L146.282 442.703C146.562 441.99 147.319 441.661 147.973 441.967C148.625 442.274 148.927 443.1 148.646 443.812L121.658 512.308C121.448 512.84 120.973 513.158 120.475 513.158V513.159Z" fill="#C0CFEB"/>
<path d="M150.879 513.159C150.38 513.159 149.905 512.841 149.696 512.309L122.707 443.814C122.427 443.101 122.728 442.275 123.381 441.968C124.033 441.661 124.79 441.99 125.072 442.704L152.06 511.2C152.34 511.912 152.039 512.738 151.387 513.045C151.221 513.123 151.048 513.161 150.879 513.161V513.159Z" fill="#C0CFEB"/>
<path d="M303.641 513.159C303.471 513.159 303.299 513.122 303.133 513.044C302.48 512.737 302.179 511.911 302.459 511.198L329.448 442.703C329.728 441.99 330.485 441.661 331.139 441.967C331.791 442.274 332.092 443.1 331.812 443.812L304.824 512.308C304.614 512.84 304.139 513.158 303.641 513.158V513.159Z" fill="#C0CFEB"/>
<path d="M334.044 513.159C333.546 513.159 333.071 512.841 332.862 512.309L305.873 443.814C305.593 443.101 305.894 442.275 306.547 441.968C307.199 441.661 307.956 441.99 308.238 442.704L335.226 511.2C335.506 511.912 335.205 512.738 334.553 513.045C334.387 513.123 334.214 513.161 334.044 513.161V513.159Z" fill="#C0CFEB"/>
<path d="M299.724 437.866H338.813V433.83H299.724C300.561 433.83 300.561 437.866 299.724 437.866Z" fill="#BDD0FB"/>
<path d="M338.35 437.866C338.605 437.866 338.813 437.657 338.813 437.402V434.295C338.813 434.04 338.605 433.832 338.35 433.832H298.997C298.741 433.832 298.533 433.626 298.533 433.376C298.533 433.126 298.741 432.921 298.997 432.921H341.051C341.984 432.921 342.74 433.676 342.74 434.609V437.188C342.74 438.067 342.028 438.78 341.149 438.78H298.997C298.741 438.78 298.533 438.574 298.533 438.324C298.533 438.074 298.741 437.869 298.997 437.869H338.35V437.866Z" fill="url(#paint8_linear_789_42181)"/>
<path d="M344.479 440.586C344.611 440.136 344.432 439.67 343.992 439.316C343.552 438.961 342.897 438.757 342.205 438.757H107.987C107.077 438.757 106.23 439.064 105.74 439.573C105.25 440.081 105.185 440.72 105.565 441.267L108.103 444.912C108.685 445.747 109.944 446.281 111.33 446.281H340.597C341.886 446.281 342.995 445.674 343.24 444.836L344.479 440.586Z" fill="#CEDBEF"/>
<g opacity="0.3">
<path d="M216.649 201.561C215.908 201.407 215.432 200.681 215.586 199.939C215.886 198.499 216.127 197.023 216.303 195.555C216.392 194.812 217.061 194.28 217.803 194.355C217.811 194.355 217.821 194.357 217.829 194.358C218.58 194.448 219.116 195.132 219.026 195.884C218.84 197.43 218.586 198.982 218.269 200.5C218.125 201.193 217.481 201.656 216.791 201.585C216.744 201.581 216.695 201.574 216.648 201.563L216.649 201.561ZM216.676 188.346C216.651 186.867 216.562 185.377 216.413 183.912C216.337 183.16 216.884 182.486 217.638 182.408C218.394 182.333 219.063 182.881 219.141 183.633C219.298 185.173 219.391 186.744 219.418 188.299C219.43 189.056 218.826 189.681 218.069 189.693C218.014 189.693 217.96 189.692 217.907 189.687C217.225 189.617 216.688 189.048 216.676 188.345V188.346ZM215.183 176.805C214.83 175.373 214.412 173.94 213.938 172.543C213.695 171.827 214.078 171.048 214.796 170.803C215.512 170.56 216.291 170.943 216.535 171.661C217.035 173.132 217.475 174.643 217.846 176.15C218.026 176.886 217.578 177.627 216.842 177.809C216.685 177.848 216.528 177.858 216.377 177.842C215.816 177.785 215.326 177.384 215.184 176.805H215.183ZM211.146 165.889C210.482 164.571 209.752 163.265 208.978 162.01C208.581 161.366 208.781 160.52 209.426 160.123C210.071 159.726 210.915 159.927 211.312 160.57C212.127 161.892 212.894 163.265 213.593 164.653C213.934 165.329 213.663 166.154 212.987 166.494C212.745 166.616 212.484 166.659 212.233 166.634C211.783 166.588 211.364 166.322 211.146 165.887V165.889ZM204.779 156.143C203.84 155.008 202.841 153.896 201.806 152.84C201.276 152.299 201.286 151.431 201.826 150.9C202.367 150.37 203.235 150.38 203.764 150.921C204.852 152.032 205.905 153.202 206.89 154.396C207.374 154.979 207.29 155.844 206.707 156.326C206.413 156.569 206.048 156.669 205.696 156.633C205.351 156.598 205.017 156.432 204.777 156.141L204.779 156.143ZM196.415 148.049C195.248 147.148 194.027 146.287 192.787 145.487C192.152 145.078 191.967 144.228 192.377 143.592C192.786 142.954 193.634 142.771 194.272 143.181C195.577 144.021 196.861 144.929 198.09 145.878C198.689 146.34 198.8 147.201 198.337 147.801C198.037 148.191 197.568 148.373 197.112 148.327C196.866 148.302 196.623 148.211 196.414 148.048L196.415 148.049ZM146.294 139.092C146.051 138.374 146.437 137.597 147.155 137.354C148.625 136.858 150.136 136.419 151.646 136.05C152.382 135.871 153.124 136.321 153.303 137.057C153.482 137.793 153.032 138.534 152.296 138.713C150.862 139.063 149.426 139.48 148.031 139.952C147.839 140.017 147.644 140.037 147.455 140.017C146.937 139.965 146.471 139.617 146.293 139.091L146.294 139.092ZM186.47 142.014C185.132 141.396 183.752 140.828 182.365 140.327C181.653 140.069 181.285 139.283 181.542 138.57C181.8 137.858 182.584 137.493 183.298 137.747C184.757 138.274 186.212 138.873 187.62 139.524C188.307 139.842 188.607 140.657 188.289 141.345C188.038 141.891 187.473 142.192 186.906 142.134C186.759 142.118 186.612 142.079 186.469 142.013L186.47 142.014ZM157.906 136.269C157.831 135.515 158.381 134.843 159.134 134.768C160.678 134.614 162.248 134.524 163.801 134.5C164.559 134.485 165.181 135.093 165.192 135.851C165.204 136.608 164.6 137.232 163.842 137.243C162.364 137.265 160.872 137.35 159.406 137.497C159.313 137.507 159.22 137.505 159.13 137.497C158.495 137.433 157.97 136.929 157.905 136.269H157.906ZM175.43 138.356C173.989 138.054 172.515 137.808 171.05 137.629C170.297 137.537 169.763 136.852 169.856 136.101C169.948 135.36 170.614 134.829 171.354 134.904C171.364 134.904 171.373 134.906 171.383 134.908C172.926 135.097 174.478 135.354 175.994 135.673C176.735 135.83 177.209 136.557 177.053 137.298C176.907 137.99 176.263 138.451 175.575 138.38C175.526 138.374 175.477 138.368 175.429 138.358L175.43 138.356Z" fill="white"/>
<path d="M138.65 143.913C138.918 143.94 139.198 143.889 139.452 143.747C140.07 143.404 140.706 143.068 141.341 142.747C142.017 142.407 142.29 141.582 141.949 140.906C141.608 140.23 140.784 139.956 140.108 140.298C139.44 140.634 138.771 140.988 138.121 141.349C137.459 141.717 137.22 142.552 137.588 143.214C137.814 143.622 138.218 143.87 138.65 143.914V143.913Z" fill="#BDD0FB"/>
</g>
<g opacity="0.3">
<path d="M112.928 176.869C113.586 176.936 114.213 176.516 114.39 175.857C114.572 175.173 114.77 174.482 114.981 173.803C115.206 173.079 114.801 172.311 114.079 172.086C113.353 171.861 112.588 172.267 112.363 172.989C112.141 173.704 111.931 174.432 111.741 175.151C111.546 175.883 111.982 176.634 112.714 176.829C112.786 176.848 112.858 176.861 112.929 176.868L112.928 176.869Z" fill="#BDD0FB"/>
<path d="M156.417 243.425C155.668 243.312 155.152 242.612 155.266 241.864C155.38 241.115 156.077 240.601 156.826 240.713C158.252 240.928 159.708 241.086 161.173 241.185C161.926 241.233 162.5 241.89 162.449 242.646C162.398 243.401 161.744 243.973 160.989 243.922C160.354 243.879 159.722 243.826 159.095 243.762C158.199 243.672 157.298 243.558 156.417 243.425ZM166.999 242.641C166.947 241.886 167.518 241.232 168.273 241.181C169.724 241.081 171.185 240.919 172.617 240.699C173.364 240.582 174.065 241.097 174.181 241.846C174.296 242.594 173.782 243.294 173.034 243.409C171.526 243.641 169.986 243.812 168.461 243.916C168.382 243.922 168.304 243.92 168.227 243.912C167.575 243.845 167.046 243.318 166.999 242.641ZM149.122 241.805C147.659 241.374 146.194 240.874 144.768 240.318C144.063 240.043 143.713 239.247 143.988 238.542C144.263 237.837 145.057 237.488 145.764 237.762C147.117 238.289 148.509 238.764 149.897 239.174C150.623 239.389 151.038 240.151 150.824 240.878C150.634 241.521 150.016 241.919 149.372 241.854C149.289 241.846 149.204 241.829 149.121 241.805H149.122ZM178.619 240.849C178.403 240.122 178.815 239.359 179.541 239.142C180.932 238.727 182.322 238.248 183.672 237.717C184.377 237.439 185.172 237.787 185.449 238.492C185.725 239.197 185.379 239.993 184.674 240.27C183.252 240.828 181.789 241.333 180.324 241.771C180.146 241.823 179.967 241.839 179.795 241.822C179.259 241.768 178.783 241.397 178.619 240.849ZM138.015 237.134C136.684 236.391 135.366 235.581 134.097 234.726C133.47 234.302 133.303 233.451 133.727 232.823C134.15 232.194 135.003 232.029 135.63 232.453C136.835 233.265 138.088 234.034 139.352 234.74C140.013 235.109 140.251 235.944 139.881 236.606C139.606 237.099 139.073 237.356 138.546 237.303C138.365 237.285 138.185 237.23 138.017 237.137L138.015 237.134ZM128.203 230.14C127.063 229.123 125.953 228.044 124.904 226.935C124.383 226.385 124.407 225.517 124.957 224.997C125.508 224.475 126.375 224.5 126.895 225.049C127.892 226.102 128.947 227.127 130.03 228.095C130.595 228.599 130.643 229.467 130.138 230.031C129.834 230.371 129.398 230.524 128.976 230.481C128.698 230.453 128.426 230.339 128.201 230.139L128.203 230.14ZM120.146 221.172C119.255 219.929 118.406 218.635 117.623 217.326C117.235 216.676 117.447 215.834 118.097 215.445C118.748 215.056 119.589 215.269 119.977 215.919C120.719 217.163 121.526 218.394 122.374 219.575C122.816 220.19 122.674 221.047 122.059 221.489C121.776 221.692 121.443 221.772 121.122 221.739C120.744 221.7 120.383 221.507 120.146 221.174V221.172ZM114.237 210.66C113.639 209.252 113.094 207.802 112.618 206.351C112.382 205.631 112.774 204.857 113.493 204.621C114.211 204.384 114.987 204.776 115.223 205.497C115.675 206.874 116.192 208.251 116.76 209.588C117.055 210.285 116.731 211.09 116.034 211.386C115.813 211.479 115.582 211.511 115.36 211.489C114.878 211.44 114.438 211.138 114.236 210.66H114.237ZM110.78 199.1C110.508 197.599 110.296 196.066 110.151 194.544C110.079 193.79 110.631 193.121 111.385 193.049C112.136 192.978 112.808 193.529 112.881 194.283C113.018 195.729 113.219 197.185 113.479 198.612C113.614 199.356 113.119 200.071 112.375 200.206C112.246 200.229 112.117 200.234 111.992 200.221C111.399 200.161 110.894 199.716 110.781 199.1H110.78ZM109.946 187.077C109.99 185.954 110.071 184.818 110.183 183.701C110.223 183.297 110.269 182.894 110.319 182.493C110.412 181.742 111.088 181.192 111.848 181.3C112.599 181.392 113.133 182.077 113.04 182.829C112.993 183.211 112.95 183.594 112.911 183.978C112.804 185.04 112.728 186.119 112.685 187.187C112.654 187.944 112.017 188.533 111.26 188.502C111.233 188.502 111.203 188.499 111.176 188.496C110.461 188.424 109.916 187.806 109.946 187.077Z" fill="white"/>
<path d="M190.649 237.217C190.92 237.245 191.202 237.192 191.457 237.049C192.104 236.685 192.757 236.302 193.394 235.908C194.038 235.51 194.238 234.665 193.841 234.02C193.443 233.376 192.599 233.175 191.954 233.573C191.348 233.947 190.729 234.312 190.115 234.658C189.455 235.028 189.219 235.864 189.591 236.524C189.819 236.928 190.22 237.174 190.649 237.217Z" fill="#BDD0FB"/>
</g>
<path d="M197.025 214.587C197.218 214.394 197.268 214.098 197.147 213.852L193.73 206.84C195.65 203.744 197.09 200.32 197.945 196.669L205.313 194.126C205.571 194.037 205.745 193.794 205.745 193.521V184.164C205.745 183.89 205.57 183.647 205.312 183.558L197.942 181.017C197.087 177.366 195.646 173.943 193.726 170.846L197.141 163.833C197.261 163.587 197.212 163.293 197.018 163.1L190.402 156.484C190.209 156.291 189.914 156.241 189.668 156.362L182.657 159.78C179.562 157.859 176.138 156.419 172.488 155.564L169.946 148.194C169.857 147.936 169.614 147.762 169.341 147.762H159.986C159.713 147.762 159.47 147.937 159.381 148.195L156.84 155.566C153.19 156.422 149.768 157.863 146.673 159.784L139.662 156.368C139.416 156.248 139.122 156.297 138.929 156.491L132.315 163.108C132.122 163.301 132.072 163.597 132.191 163.842L135.608 170.854C133.688 173.95 132.248 177.374 131.393 181.025L124.025 183.568C123.767 183.657 123.593 183.9 123.593 184.173V193.53C123.593 193.804 123.768 194.047 124.026 194.136L131.396 196.677C132.251 200.328 133.692 203.751 135.612 206.848L132.197 213.861C132.077 214.107 132.126 214.401 132.32 214.595L138.936 221.211C139.129 221.404 139.423 221.454 139.669 221.335L146.68 217.917C149.775 219.838 153.199 221.278 156.848 222.133L159.391 229.503C159.479 229.761 159.722 229.935 159.996 229.935H169.351C169.624 229.935 169.867 229.76 169.956 229.502L172.497 222.132C176.147 221.276 179.569 219.835 182.664 217.914L189.675 221.331C189.921 221.45 190.215 221.401 190.408 221.207L197.022 214.59L197.025 214.587Z" fill="#F9FDFA"/>
<path d="M162.369 197.966C157.341 196.696 154.283 191.574 155.552 186.544C156.167 184.108 157.693 182.057 159.849 180.77C162.005 179.482 164.534 179.11 166.97 179.727C171.997 180.996 175.055 186.119 173.786 191.149C172.631 195.724 168.289 198.668 163.728 198.206C163.275 198.16 162.821 198.081 162.367 197.967L162.369 197.966ZM160.975 182.654C159.321 183.641 158.151 185.213 157.68 187.081C156.707 190.936 159.052 194.865 162.907 195.838C166.763 196.813 170.689 194.466 171.662 190.61C172.634 186.755 170.291 182.826 166.435 181.853C166.085 181.765 165.734 181.703 165.381 181.668C163.851 181.514 162.319 181.851 160.975 182.654Z" fill="#A7E3C0"/>
<path d="M162.17 211.703C162.953 211.782 163.746 211.822 164.543 211.822C164.794 211.822 165.045 211.818 165.297 211.81C166.535 211.769 167.768 211.632 168.977 211.397C168.994 211.394 169.01 211.39 169.027 211.387C169.074 211.378 169.12 211.369 169.167 211.36C169.258 211.342 169.349 211.322 169.439 211.303C169.678 211.251 169.846 211.053 169.87 210.822C169.875 210.767 169.873 210.708 169.86 210.65C169.796 210.354 169.505 210.167 169.209 210.229C167.686 210.558 166.116 210.725 164.546 210.724C156.74 210.725 149.872 206.645 145.958 200.504C143.781 197.09 142.518 193.037 142.518 188.695C142.518 187.934 142.555 187.177 142.632 186.43C143.141 181.402 145.346 176.738 148.967 173.117C153.126 168.955 158.658 166.663 164.54 166.662C176.689 166.662 186.566 176.544 186.568 188.691C186.568 189.439 186.53 190.186 186.455 190.927C186.13 194.134 185.107 197.235 183.448 200.004C183.405 200.077 183.38 200.153 183.373 200.231C183.352 200.435 183.448 200.643 183.637 200.757C183.898 200.913 184.234 200.829 184.389 200.568C186.13 197.662 187.206 194.407 187.546 191.038C187.626 190.26 187.664 189.478 187.666 188.691C187.666 175.937 177.288 165.564 164.541 165.565C158.365 165.565 152.558 167.972 148.192 172.34C144.391 176.144 142.075 181.038 141.54 186.318C141.461 187.102 141.421 187.895 141.421 188.695C141.421 194.873 143.827 200.681 148.195 205.048C151.998 208.852 156.893 211.167 162.173 211.701L162.17 211.703Z" fill="#A7E3C0"/>
<g opacity="0.3">
<path d="M259.705 242.253C260.07 242.29 260.43 242.086 260.574 241.729C260.845 241.062 261.1 240.379 261.331 239.697C261.481 239.254 261.243 238.774 260.8 238.624C260.357 238.473 259.877 238.711 259.727 239.154C259.508 239.804 259.265 240.456 259.006 241.092C258.83 241.525 259.038 242.018 259.472 242.196C259.548 242.226 259.627 242.246 259.706 242.254L259.705 242.253Z" fill="#BDD0FB"/>
<path d="M261.508 236.003C261.05 235.909 260.756 235.462 260.849 235.004C261.086 233.847 261.267 232.665 261.386 231.49C261.411 231.243 261.433 230.993 261.453 230.743C261.49 230.278 261.898 229.929 262.365 229.967C262.804 230.02 263.178 230.413 263.141 230.879C263.12 231.14 263.097 231.401 263.07 231.66C262.945 232.891 262.756 234.13 262.507 235.342C262.419 235.771 262.019 236.058 261.593 236.014C261.565 236.012 261.536 236.008 261.507 236.002L261.508 236.003ZM261.536 226.444C261.476 225.013 261.326 223.575 261.092 222.166C261.015 221.705 261.326 221.269 261.787 221.192C262.247 221.115 262.686 221.426 262.762 221.887C263.008 223.364 263.165 224.872 263.227 226.371C263.247 226.839 262.884 227.234 262.416 227.253C262.376 227.255 262.334 227.253 262.294 227.249C261.882 227.207 261.553 226.869 261.535 226.442L261.536 226.444ZM260.121 217.974C259.713 216.605 259.215 215.245 258.64 213.936C258.453 213.508 258.647 213.008 259.075 212.821C259.504 212.632 260.002 212.826 260.191 213.255C260.795 214.629 261.317 216.055 261.744 217.491C261.878 217.939 261.624 218.411 261.175 218.545C261.065 218.577 260.956 218.586 260.849 218.575C260.517 218.542 260.223 218.313 260.123 217.974H260.121ZM256.671 210.111C255.938 208.881 255.123 207.685 254.247 206.559C253.96 206.19 254.026 205.658 254.396 205.37C254.764 205.084 255.297 205.15 255.584 205.519C256.503 206.701 257.357 207.955 258.126 209.243C258.365 209.645 258.233 210.165 257.832 210.404C257.669 210.5 257.489 210.536 257.314 210.52C257.056 210.493 256.814 210.35 256.671 210.11V210.111ZM251.407 203.33C250.397 202.317 249.317 201.356 248.193 200.474C247.825 200.185 247.761 199.653 248.05 199.285C248.338 198.917 248.87 198.852 249.238 199.142C250.415 200.066 251.548 201.074 252.606 202.136C252.935 202.468 252.935 203.004 252.603 203.333C252.416 203.519 252.163 203.6 251.92 203.576C251.733 203.557 251.55 203.475 251.405 203.332L251.407 203.33ZM244.655 198.032C243.431 197.295 242.149 196.627 240.845 196.048C240.418 195.858 240.225 195.358 240.415 194.93C240.605 194.502 241.104 194.311 241.533 194.5C242.9 195.107 244.244 195.808 245.528 196.581C245.928 196.823 246.059 197.344 245.817 197.744C245.642 198.034 245.321 198.181 245.006 198.149C244.886 198.137 244.766 198.099 244.655 198.032ZM236.816 194.548C235.453 194.134 234.045 193.803 232.632 193.56C232.171 193.48 231.861 193.042 231.942 192.58C232.021 192.119 232.457 191.817 232.921 191.889C234.402 192.144 235.878 192.493 237.308 192.926C237.755 193.062 238.009 193.535 237.873 193.983C237.754 194.377 237.373 194.62 236.977 194.58C236.923 194.575 236.871 194.565 236.816 194.548ZM223.149 192.369C223.115 191.903 223.463 191.497 223.93 191.461C225.221 191.364 226.54 191.336 227.845 191.378C228.043 191.383 228.241 191.392 228.439 191.4C228.904 191.408 229.267 191.819 229.243 192.287C229.221 192.755 228.824 193.115 228.356 193.092C228.171 193.082 227.985 193.075 227.795 193.069C226.545 193.029 225.287 193.055 224.056 193.148C224.005 193.153 223.955 193.151 223.906 193.147C223.505 193.107 223.179 192.783 223.148 192.368L223.149 192.369Z" fill="white"/>
</g>
<g opacity="0.3">
<path d="M222.497 264.285C221.031 264.117 219.562 263.859 218.131 263.516C217.677 263.406 217.395 262.951 217.504 262.495C217.613 262.04 218.072 261.765 218.525 261.869C219.89 262.195 221.29 262.443 222.689 262.602C223.154 262.655 223.487 263.076 223.434 263.54C223.381 264.001 222.968 264.333 222.508 264.287C222.504 264.287 222.5 264.287 222.497 264.287V264.285ZM226.073 263.683C226.071 263.215 226.447 262.833 226.915 262.831C228.321 262.823 229.741 262.729 231.137 262.551C231.598 262.494 232.025 262.82 232.084 263.286C232.142 263.749 231.814 264.173 231.35 264.233C229.889 264.419 228.4 264.517 226.926 264.526C226.895 264.526 226.865 264.526 226.834 264.521C226.409 264.478 226.076 264.122 226.073 263.684V263.683ZM213.888 262.222C212.505 261.704 211.142 261.098 209.837 260.419C209.421 260.204 209.26 259.692 209.476 259.276C209.691 258.861 210.2 258.7 210.617 258.915C211.862 259.562 213.162 260.14 214.482 260.635C214.921 260.798 215.141 261.287 214.979 261.725C214.842 262.093 214.475 262.309 214.1 262.27C214.029 262.263 213.959 262.247 213.888 262.22V262.222ZM234.68 262.791C234.564 262.338 234.839 261.877 235.292 261.762C236.655 261.415 238.01 260.982 239.321 260.472C239.757 260.303 240.247 260.519 240.418 260.954C240.587 261.39 240.372 261.882 239.936 262.051C238.563 262.586 237.14 263.041 235.711 263.405C235.613 263.43 235.513 263.437 235.417 263.427C235.073 263.392 234.771 263.148 234.681 262.793L234.68 262.791ZM206.035 258.14C204.82 257.307 203.643 256.391 202.537 255.417C202.185 255.108 202.152 254.573 202.46 254.222C202.77 253.87 203.304 253.835 203.656 254.145C204.711 255.076 205.834 255.949 206.993 256.743C207.379 257.007 207.478 257.535 207.213 257.921C207.032 258.185 206.727 258.315 206.428 258.285C206.292 258.271 206.156 258.224 206.035 258.142V258.14ZM199.391 252.291C198.408 251.189 197.484 250.017 196.644 248.808C196.378 248.425 196.472 247.897 196.855 247.629C197.239 247.363 197.766 247.456 198.034 247.841C198.835 248.993 199.717 250.11 200.655 251.162C200.966 251.511 200.936 252.047 200.587 252.358C200.403 252.522 200.167 252.591 199.938 252.568C199.735 252.547 199.538 252.454 199.391 252.288V252.291ZM194.336 245.02C193.644 243.713 193.029 242.354 192.504 240.979C192.338 240.542 192.557 240.053 192.993 239.886C193.43 239.719 193.919 239.939 194.086 240.375C194.585 241.687 195.174 242.983 195.832 244.229C196.052 244.642 195.893 245.155 195.48 245.373C195.327 245.455 195.16 245.484 194.999 245.467C194.727 245.439 194.473 245.281 194.336 245.021V245.02Z" fill="white"/>
<path d="M243.514 260.269C243.676 260.286 243.846 260.255 244 260.172C244.638 259.829 245.269 259.464 245.875 259.09C246.273 258.844 246.397 258.322 246.152 257.924C245.906 257.527 245.384 257.403 244.986 257.647C244.408 258.004 243.805 258.351 243.196 258.681C242.784 258.903 242.631 259.417 242.852 259.828C242.99 260.085 243.242 260.241 243.512 260.269H243.514Z" fill="#BDD0FB"/>
</g>
<path d="M248.341 244.884C248.47 244.755 248.504 244.558 248.423 244.393L246.136 239.7C247.421 237.628 248.386 235.337 248.956 232.894L253.886 231.193C254.06 231.133 254.175 230.971 254.175 230.788V224.526C254.175 224.343 254.058 224.18 253.886 224.12L248.955 222.421C248.383 219.978 247.418 217.687 246.134 215.615L248.419 210.922C248.499 210.759 248.466 210.561 248.337 210.431L243.91 206.004C243.78 205.875 243.583 205.841 243.418 205.922L238.727 208.209C236.655 206.924 234.365 205.959 231.922 205.387L230.222 200.456C230.162 200.282 230 200.167 229.816 200.167H223.556C223.373 200.167 223.211 200.284 223.151 200.457L221.451 205.39C219.009 205.962 216.719 206.927 214.647 208.212L209.954 205.926C209.791 205.845 209.594 205.879 209.463 206.008L205.037 210.436C204.908 210.565 204.874 210.763 204.955 210.928L207.242 215.62C205.957 217.692 204.992 219.984 204.42 222.426L199.49 224.127C199.317 224.187 199.202 224.35 199.202 224.533V230.795C199.202 230.978 199.318 231.14 199.492 231.2L204.423 232.9C204.995 235.342 205.96 237.634 207.244 239.706L204.959 244.398C204.879 244.562 204.912 244.759 205.041 244.89L209.469 249.317C209.598 249.446 209.795 249.479 209.96 249.399L214.651 247.112C216.723 248.396 219.014 249.361 221.456 249.933L223.156 254.865C223.216 255.038 223.378 255.154 223.562 255.154H229.822C230.005 255.154 230.168 255.037 230.227 254.863L231.927 249.931C234.369 249.359 236.66 248.393 238.731 247.109L243.424 249.395C243.587 249.475 243.786 249.442 243.915 249.313L248.341 244.884Z" fill="#F9FDFA"/>
<path d="M225.124 233.872C223.465 233.454 222.068 232.414 221.19 230.943C220.313 229.474 220.06 227.75 220.48 226.091C221.343 222.666 224.828 220.586 228.259 221.446C231.684 222.311 233.766 225.801 232.901 229.225C232.483 230.885 231.443 232.282 229.975 233.159C228.781 233.872 227.419 234.173 226.059 234.036C225.747 234.004 225.435 233.95 225.124 233.872ZM222.122 226.506C221.814 227.727 222 228.995 222.645 230.076C223.291 231.157 224.318 231.922 225.539 232.23C226.759 232.537 228.027 232.353 229.107 231.707C230.187 231.062 230.952 230.033 231.26 228.814C231.896 226.295 230.363 223.727 227.845 223.091C227.617 223.034 227.389 222.994 227.163 222.972C224.878 222.74 222.701 224.216 222.123 226.508L222.122 226.506Z" fill="#A7E3C0"/>
<path d="M224.986 243.433C225.519 243.487 226.059 243.514 226.606 243.515C227.692 243.515 228.779 243.405 229.84 243.186C229.887 243.176 229.936 243.165 229.983 243.155C230.351 243.076 230.61 242.769 230.648 242.414C230.656 242.328 230.652 242.237 230.633 242.149C230.534 241.692 230.083 241.403 229.626 241.5C228.638 241.714 227.623 241.821 226.608 241.821C226.552 241.821 226.497 241.821 226.441 241.821C224.039 241.799 221.735 241.178 219.69 240.039C218.58 239.421 217.546 238.65 216.617 237.737C216.61 237.73 216.602 237.721 216.595 237.714C216.571 237.691 216.549 237.669 216.526 237.646C213.832 234.952 212.349 231.371 212.348 227.562C212.348 227.069 212.373 226.58 212.422 226.095C212.752 222.84 214.179 219.821 216.523 217.476C219.216 214.782 222.797 213.299 226.605 213.299C230.41 213.299 233.994 214.782 236.689 217.474C239.382 220.168 240.865 223.75 240.866 227.559C240.866 228.044 240.841 228.527 240.794 229.006C240.583 231.083 239.921 233.09 238.848 234.883C238.781 234.994 238.743 235.112 238.731 235.233C238.699 235.549 238.848 235.87 239.138 236.045C239.539 236.284 240.058 236.156 240.3 235.754C241.501 233.748 242.242 231.503 242.478 229.18C242.532 228.644 242.56 228.103 242.56 227.56C242.56 223.298 240.9 219.291 237.887 216.277C234.874 213.264 230.87 211.602 226.606 211.606C222.346 211.606 218.34 213.265 215.327 216.28C212.705 218.903 211.107 222.281 210.739 225.923C210.685 226.463 210.656 227.012 210.656 227.563C210.656 235.815 216.952 242.623 224.989 243.436L224.986 243.433Z" fill="#A7E3C0"/>
</g>
</g>
<defs>
<linearGradient id="paint0_linear_789_42181" x1="153.23" y1="498.893" x2="158.256" y2="498.94" gradientUnits="userSpaceOnUse">
<stop stop-color="#FEBBBA"/>
<stop offset="1" stop-color="#FF928E"/>
</linearGradient>
<linearGradient id="paint1_linear_789_42181" x1="175.525" y1="374.38" x2="200.772" y2="374.38" gradientUnits="userSpaceOnUse">
<stop stop-color="#DAE3FE"/>
<stop offset="1" stop-color="#E9EFFD"/>
</linearGradient>
<linearGradient id="paint2_linear_789_42181" x1="124.562" y1="501.997" x2="130.77" y2="501.997" gradientUnits="userSpaceOnUse">
<stop stop-color="#FEBBBA"/>
<stop offset="1" stop-color="#FF928E"/>
</linearGradient>
<linearGradient id="paint3_linear_789_42181" x1="153.959" y1="502.519" x2="161.369" y2="502.519" gradientUnits="userSpaceOnUse">
<stop stop-color="#FEBBBA"/>
<stop offset="1" stop-color="#FF928E"/>
</linearGradient>
<linearGradient id="paint4_linear_789_42181" x1="112.802" y1="398.083" x2="116.456" y2="388.869" gradientUnits="userSpaceOnUse">
<stop stop-color="#FEBBBA"/>
<stop offset="1" stop-color="#FF928E"/>
</linearGradient>
<linearGradient id="paint5_linear_789_42181" x1="144.01" y1="433.917" x2="161.126" y2="433.917" gradientUnits="userSpaceOnUse">
<stop stop-color="#FEBBBA"/>
<stop offset="1" stop-color="#FF928E"/>
</linearGradient>
<linearGradient id="paint6_linear_789_42181" x1="123.945" y1="379.381" x2="107.59" y2="395.69" gradientUnits="userSpaceOnUse">
<stop stop-color="#FEBBBA"/>
<stop offset="1" stop-color="#FF928E"/>
</linearGradient>
<linearGradient id="paint7_linear_789_42181" x1="121.302" y1="376.731" x2="104.945" y2="393.038" gradientUnits="userSpaceOnUse">
<stop stop-color="#FEBBBA"/>
<stop offset="1" stop-color="#FF928E"/>
</linearGradient>
<linearGradient id="paint8_linear_789_42181" x1="-608.458" y1="-1824.16" x2="-574.317" y2="-1741.13" gradientUnits="userSpaceOnUse">
<stop stop-color="#4F52FF"/>
<stop offset="1" stop-color="#4042E2"/>
</linearGradient>
<clipPath id="clip0_789_42181">
<rect width="573" height="546" fill="white" transform="translate(0 0.5)"/>
</clipPath>
<clipPath id="clip1_789_42181">
<rect width="304" height="385" fill="white" transform="translate(66 134.5)"/>
</clipPath>
</defs>
</svg>
