<svg width="31" height="30" viewBox="0 0 31 30" fill="none" xmlns="http://www.w3.org/2000/svg">
<path fill-rule="evenodd" clip-rule="evenodd" d="M6.5 12V7C6.5 6.08075 6.68106 5.1705 7.03284 4.32122C7.38463 3.47194 7.90024 2.70026 8.55025 2.05025C9.20026 1.40024 9.97194 0.884626 10.8212 0.532843C11.6705 0.18106 12.5807 0 13.5 0C14.4193 0 15.3295 0.18106 16.1788 0.532843C17.0281 0.884626 17.7997 1.40024 18.4497 2.05025C19.0998 2.70026 19.6154 3.47194 19.9672 4.32122C20.3189 5.1705 20.5 6.08075 20.5 7V12H23.5C24.2956 12 25.0587 12.3161 25.6213 12.8787C26.1839 13.4413 26.5 14.2044 26.5 15V16.1C27.6303 16.3295 28.6465 16.9427 29.3764 17.8357C30.1063 18.7288 30.505 19.8466 30.505 21C30.505 22.1534 30.1063 23.2712 29.3764 24.1643C28.6465 25.0573 27.6303 25.6705 26.5 25.9V27C26.5 27.7956 26.1839 28.5587 25.6213 29.1213C25.0587 29.6839 24.2956 30 23.5 30H3.5C2.70435 30 1.94129 29.6839 1.37868 29.1213C0.81607 28.5587 0.5 27.7956 0.5 27L0.5 15C0.5 14.2044 0.81607 13.4413 1.37868 12.8787C1.94129 12.3161 2.70435 12 3.5 12H6.5ZM8.5 7C8.5 5.67392 9.02678 4.40215 9.96447 3.46447C10.9021 2.52678 12.1739 2 13.5 2C14.8261 2 16.0979 2.52678 17.0355 3.46447C17.9732 4.40215 18.5 5.67392 18.5 7V12H8.5V7ZM17.5 18C16.7044 18 15.9413 18.3161 15.3787 18.8787C14.8161 19.4413 14.5 20.2044 14.5 21C14.5 21.7956 14.8161 22.5587 15.3787 23.1213C15.9413 23.6839 16.7044 24 17.5 24H25.5C26.2956 24 27.0587 23.6839 27.6213 23.1213C28.1839 22.5587 28.5 21.7956 28.5 21C28.5 20.2044 28.1839 19.4413 27.6213 18.8787C27.0587 18.3161 26.2956 18 25.5 18H17.5Z" fill="#0E6E36"/>
</svg>
