<svg width="42" height="43" viewBox="0 0 42 43" fill="none" xmlns="http://www.w3.org/2000/svg">
<path d="M16.8346 42.3333V29.1041L20.2201 19.4166H38.4492L41.8346 29.1041V42.3333H37.668V39.2083H21.0013V42.3333H16.8346ZM21.0013 26.7083H37.668L36.2096 22.5416H22.4596L21.0013 26.7083ZM23.0846 35.0416C23.6749 35.0416 24.1701 34.8416 24.5701 34.4416C24.9701 34.0416 25.1694 33.5472 25.168 32.9583C25.168 32.368 24.968 31.8736 24.568 31.475C24.168 31.0763 23.6735 30.8763 23.0846 30.875C22.4944 30.875 21.9999 31.075 21.6013 31.475C21.2027 31.875 21.0027 32.3694 21.0013 32.9583C21.0013 33.5486 21.2013 34.0437 21.6013 34.4437C22.0013 34.8437 22.4957 35.043 23.0846 35.0416ZM35.5846 35.0416C36.1749 35.0416 36.67 34.8416 37.07 34.4416C37.4701 34.0416 37.6694 33.5472 37.668 32.9583C37.668 32.368 37.468 31.8736 37.068 31.475C36.668 31.0763 36.1735 30.8763 35.5846 30.875C34.9944 30.875 34.4999 31.075 34.1013 31.475C33.7027 31.875 33.5027 32.3694 33.5013 32.9583C33.5013 33.5486 33.7013 34.0437 34.1013 34.4437C34.5013 34.8437 34.9957 35.043 35.5846 35.0416ZM8.5013 25.6666V21.5H12.668V25.6666H8.5013ZM18.918 13.1666V8.99996H23.0846V13.1666H18.918ZM8.5013 34V29.8333H12.668V34H8.5013ZM8.5013 42.3333V38.1666H12.668V42.3333H8.5013ZM0.167969 42.3333V13.1666H10.5846V0.666626H31.418V15.25H27.2513V4.83329H14.7513V17.3333H4.33464V42.3333H0.167969ZM19.9596 36.0833H38.7096V29.8333H19.9596V36.0833Z" fill="#0E6E36"/>
</svg>
