<svg width="26" height="26" viewBox="0 0 26 26" fill="none" xmlns="http://www.w3.org/2000/svg">
<g id="Group 2300">
<path id="Vector" d="M23.7285 22.167C24.016 22.167 24.2994 22.2295 24.5619 22.342V13.4171C24.5619 13.188 24.3744 13.0005 24.1452 13.0005H20.8119C20.5828 13.0005 20.3953 13.188 20.3953 13.4171V23.0462C20.8994 22.9378 21.4369 23.0378 21.8827 23.3003C22.2244 22.6212 22.9369 22.167 23.7285 22.167Z" fill="white"/>
<path id="Vector_2" d="M6.43774 2.79197C6.78291 2.79197 7.06273 2.51216 7.06273 2.16698C7.06273 1.82181 6.78291 1.54199 6.43774 1.54199C6.09256 1.54199 5.81274 1.82181 5.81274 2.16698C5.81274 2.51216 6.09256 2.79197 6.43774 2.79197Z" fill="white"/>
<path id="Vector_3" d="M7.89566 6.33332C8.12578 6.33332 8.31233 6.14678 8.31233 5.91666C8.31233 5.68655 8.12578 5.5 7.89566 5.5C7.66555 5.5 7.479 5.68655 7.479 5.91666C7.479 6.14678 7.66555 6.33332 7.89566 6.33332Z" fill="white"/>
<path id="Vector_4" d="M3.7294 10.9163C3.95952 10.9163 4.14607 10.7298 4.14607 10.4997C4.14607 10.2696 3.95952 10.083 3.7294 10.083C3.49929 10.083 3.31274 10.2696 3.31274 10.4997C3.31274 10.7298 3.49929 10.9163 3.7294 10.9163Z" fill="white"/>
<path id="Vector_5" d="M0.812735 12.7905C1.15791 12.7905 1.43773 12.5107 1.43773 12.1655C1.43773 11.8203 1.15791 11.5405 0.812735 11.5405C0.467562 11.5405 0.187744 11.8203 0.187744 12.1655C0.187744 12.5107 0.467562 12.7905 0.812735 12.7905Z" fill="white"/>
<path id="Vector_6" d="M1.64628 16.3333C1.87639 16.3333 2.06294 16.1468 2.06294 15.9167C2.06294 15.6865 1.87639 15.5 1.64628 15.5C1.41616 15.5 1.22961 15.6865 1.22961 15.9167C1.22961 16.1468 1.41616 16.3333 1.64628 16.3333Z" fill="white"/>
<path id="Vector_7" d="M4.14566 7.58332C4.37578 7.58332 4.56233 7.39678 4.56233 7.16666C4.56233 6.93655 4.37578 6.75 4.14566 6.75C3.91555 6.75 3.729 6.93655 3.729 7.16666C3.729 7.39678 3.91555 7.58332 4.14566 7.58332Z" fill="white"/>
<path id="Vector_8" d="M10.8125 3.41731C11.0427 3.41731 11.2292 3.23076 11.2292 3.00065C11.2292 2.77053 11.0427 2.58398 10.8125 2.58398C10.5824 2.58398 10.3959 2.77053 10.3959 3.00065C10.3959 3.23076 10.5824 3.41731 10.8125 3.41731Z" fill="white"/>
<path id="Vector_9" d="M20.1877 4.24998C20.5329 4.24998 20.8127 3.97016 20.8127 3.62499C20.8127 3.27982 20.5329 3 20.1877 3C19.8426 3 19.5627 3.27982 19.5627 3.62499C19.5627 3.97016 19.8426 4.24998 20.1877 4.24998Z" fill="white"/>
<path id="Vector_10" d="M14.5621 1.74998C14.9073 1.74998 15.1871 1.47016 15.1871 1.12499C15.1871 0.779818 14.9073 0.5 14.5621 0.5C14.217 0.5 13.9371 0.779818 13.9371 1.12499C13.9371 1.47016 14.217 1.74998 14.5621 1.74998Z" fill="white"/>
<path id="Vector_11" d="M9.56274 19.6662V22.9995C9.94607 22.4786 10.5627 22.1661 11.2294 22.1661C11.896 22.1661 12.5085 22.4911 12.896 23.0036V19.6662C12.896 19.437 12.7085 19.2495 12.4794 19.2495H9.9794C9.75024 19.2495 9.56274 19.437 9.56274 19.6662Z" fill="white"/>
<path id="Vector_12" d="M5.39546 23.416V23.8327C4.93713 23.8327 4.56213 24.2077 4.56213 24.666C4.56213 25.1243 4.93713 25.4993 5.39546 25.4993H9.56206C9.56206 24.8118 10.1246 24.2493 10.812 24.2493C11.062 24.2493 11.3037 24.3243 11.5079 24.4576C11.7037 24.116 11.987 23.841 12.3329 23.6618C12.1204 23.266 11.6954 22.9993 11.2287 22.9993C10.7162 22.9993 10.2621 23.3077 10.0704 23.7785C9.99122 23.9785 9.82039 24.116 9.61206 24.1577C9.3954 24.1952 9.1829 24.1243 9.0329 23.9618C9.00374 23.9327 8.97041 23.9077 8.94957 23.8952C8.79124 23.8077 8.64541 23.816 8.51208 23.8952C8.37875 23.9743 8.20792 23.9743 8.07458 23.8868C7.94125 23.8035 7.86625 23.6493 7.88709 23.491C7.88709 23.4868 7.89125 23.4452 7.89125 23.4368C7.89542 22.7285 7.33293 22.166 6.64544 22.166C5.95795 22.166 5.39546 22.7285 5.39546 23.416Z" fill="white"/>
<path id="Vector_13" d="M22.529 23.9042C22.5624 23.95 22.5874 23.9959 22.6165 24.0417C22.7999 24.3625 22.8957 24.7209 22.8957 25.0834H22.0624C22.0624 24.8625 22.004 24.6542 21.8915 24.4584C21.854 24.3917 21.8124 24.3292 21.7624 24.2709C21.6665 24.1584 21.5499 24.0667 21.4249 23.9959C21.0707 23.8 20.6249 23.775 20.2416 23.9834C20.2249 23.9875 20.2082 24 20.1916 24.0084C20.1832 24.0125 20.1499 24.0292 20.1416 24.0334C20.0041 24.1042 19.8416 24.0917 19.7166 24.0042C19.7041 23.9959 19.6957 23.9875 19.6832 23.975C19.5791 23.8917 19.5249 23.7584 19.5416 23.6209L19.5499 23.5209C19.5582 23.4876 19.5624 23.4542 19.5624 23.4167C19.5624 22.9667 19.3874 22.5459 19.0666 22.2334C18.7499 21.9167 18.3249 21.7459 17.8749 21.7501C17.4916 21.7542 17.0916 21.9459 16.7833 22.2751C16.1125 22.9959 16.1875 23.4876 16.3125 23.8959C16.3166 23.9084 16.3208 23.925 16.3208 23.9375C16.35 24.0959 16.2875 24.2667 16.15 24.3584C16 24.4625 15.8 24.4584 15.6583 24.3459C15.4041 24.15 15.0708 24.2875 14.9958 24.5542C14.9583 24.7042 14.8375 24.8209 14.6833 24.8542C14.5333 24.8875 14.375 24.8334 14.275 24.7125C14.0292 24.4125 13.6875 24.25 13.3125 24.25C13.1917 24.25 13.0792 24.2667 12.975 24.2959C12.5958 24.4042 12.3 24.6709 12.1542 25.0292C12.0709 25.2292 11.9 25.3709 11.6917 25.4084C11.4792 25.4459 11.2625 25.3709 11.1167 25.2125C11.0625 25.1542 10.9625 25.0834 10.8125 25.0834C10.5875 25.0834 10.4042 25.2625 10.3959 25.4875L24.979 25.5C25.4373 25.5 25.8123 25.125 25.8123 24.6667C25.8123 24.2084 25.4373 23.8334 24.979 23.8334C24.954 23.8334 24.929 23.8334 24.904 23.8375C24.854 23.6875 24.7707 23.5459 24.6665 23.4251C24.429 23.1542 24.0873 23.0001 23.729 23.0001C23.1665 23.0001 22.679 23.3792 22.529 23.9042Z" fill="white"/>
<path id="Vector_14" d="M16.6456 9.25C16.4165 9.25 16.229 9.4375 16.229 9.66666V13.4166H14.979C14.7498 13.4166 14.5623 13.6041 14.5623 13.8333V14.6666H13.729V23.4581C14.004 23.5165 14.2665 23.629 14.4998 23.7956C14.7332 23.5581 15.0498 23.4165 15.3956 23.4165C15.3956 22.929 15.5706 22.354 16.1748 21.7082C16.3081 21.5623 16.4581 21.4373 16.6123 21.3332H16.229V20.4998H17.0623V21.0873C17.3206 20.9748 17.5956 20.9165 17.8664 20.9165H17.8956V20.4998H18.7289V21.0665C19.0331 21.1707 19.3164 21.3332 19.5623 21.5582V14.6666H18.7289V13.8333C18.7289 13.6041 18.5414 13.4166 18.3123 13.4166H17.0623V9.66666C17.0623 9.4375 16.8748 9.25 16.6456 9.25ZM15.3956 22.9998H14.5623V22.1665H15.3956V22.9998ZM15.3956 21.3332H14.5623V20.4998H15.3956V21.3332ZM15.3956 19.6665H14.5623V18.8332H15.3956V19.6665ZM15.3956 17.9999H14.5623V17.1666H15.3956V17.9999ZM15.3956 16.3332H14.5623V15.4999H15.3956V16.3332ZM17.0623 19.6665H16.229V18.8332H17.0623V19.6665ZM17.0623 17.9999H16.229V17.1666H17.0623V17.9999ZM17.0623 16.3332H16.229V15.4999H17.0623V16.3332ZM18.7289 19.6665H17.8956V18.8332H18.7289V19.6665ZM18.7289 17.9999H17.8956V17.1666H18.7289V17.9999ZM18.7289 16.3332H17.8956V15.4999H18.7289V16.3332Z" fill="white"/>
<path id="Vector_15" d="M5.20426 22.3369C5.27926 22.4785 5.42509 22.5577 5.57509 22.5577C5.64175 22.5577 5.70842 22.541 5.76675 22.5077C5.97091 22.3994 6.05008 22.1494 5.94175 21.9452C3.62928 17.5619 4.43344 12.2578 7.94172 8.74955C12.3292 4.36628 19.4666 4.36211 23.854 8.74955C24.0165 8.91205 24.279 8.91205 24.4415 8.74955C24.604 8.58705 24.604 8.32456 24.4415 8.16206C19.7332 3.45379 12.0667 3.45379 7.35423 8.16206C3.58761 11.9287 2.72096 17.6244 5.20426 22.3327V22.3369Z" fill="white"/>
<path id="Vector_16" d="M14.9291 6.8037C14.35 6.85787 13.775 6.97036 13.2166 7.13286C12.9958 7.19953 12.8708 7.42869 12.9333 7.64952C12.9875 7.83285 13.1541 7.94952 13.3333 7.94952C13.3708 7.94952 13.4125 7.94535 13.45 7.93285C13.9541 7.78285 14.4791 7.68286 15.0041 7.63286C15.2333 7.61202 15.3999 7.40786 15.3791 7.1787C15.3583 6.94953 15.1499 6.7787 14.925 6.8037H14.9291Z" fill="white"/>
<path id="Vector_17" d="M11.0212 8.05426C8.06709 9.76257 6.22961 12.9417 6.22961 16.3583C6.22961 16.5875 6.41711 16.775 6.64628 16.775C6.87544 16.775 7.06294 16.5875 7.06294 16.3583C7.06294 13.2417 8.73791 10.3376 11.4379 8.77509C11.6379 8.65842 11.7045 8.40426 11.592 8.20426C11.4754 8.00426 11.2212 7.9376 11.0212 8.0501V8.05426Z" fill="white"/>
</g>
</svg>
