<svg width="64" height="50" viewBox="0 0 64 50" fill="none" xmlns="http://www.w3.org/2000/svg">
<path id="Vector" fill-rule="evenodd" clip-rule="evenodd" d="M24.5273 30.0534L26.9783 11.414C27.0386 10.9556 27.2363 10.533 27.5404 10.2288C27.8474 9.92178 28.2554 9.73114 28.7362 9.73114H33.0018C33.4819 9.73114 33.8835 9.92038 34.1884 10.2253C34.4926 10.5295 34.6902 10.9479 34.7596 11.3993L37.6269 29.9945L40.0394 28.8009C40.3576 28.6432 40.7424 28.7743 40.8994 29.0918C40.9442 29.1843 40.966 29.281 40.966 29.3764L40.9667 35.1566H50.1904H50.2065L50.2226 35.1573L50.2387 35.1587L50.2548 35.1601L50.271 35.1622L50.2864 35.1643L50.3018 35.1671L50.3179 35.1699L50.3333 35.1734L50.3488 35.1769L50.3642 35.1818L50.3789 35.186L50.3936 35.1916L50.4083 35.1965L50.4231 35.2021L50.4378 35.2084L50.4525 35.2148L50.4665 35.2218L50.4805 35.2288L50.4953 35.2358L50.5086 35.2442L50.5219 35.2519L50.5352 35.2603L50.5485 35.2694L50.5611 35.2778L50.5738 35.2876L50.5864 35.2975L50.5983 35.3073L50.6102 35.3171L50.6214 35.3276L50.6326 35.3388L50.6438 35.35L50.6544 35.3605L50.6649 35.3725L50.6747 35.3844L50.6852 35.3963L50.695 35.4089L50.7041 35.4215L50.7132 35.4341L50.7223 35.4474L50.7315 35.4608L50.7392 35.4741L50.7469 35.4874L50.7546 35.5014L50.7616 35.5154L50.7686 35.5302L50.7749 35.5442L50.7805 35.5589L50.7861 35.5736L50.7917 35.5883L50.7966 35.603L50.8015 35.6178L50.8057 35.6325L50.81 35.6472L50.8135 35.6626L50.817 35.678L50.8198 35.6935L50.8226 35.7096L50.8247 35.725L50.8261 35.7411L50.8275 35.7565L50.8282 35.7727L50.8289 35.7888V35.8049V35.8084V49.3559C50.8289 49.7112 50.5401 50 50.1855 50H14.3609C14.0056 50 13.7175 49.7112 13.7175 49.3559V43.835V35.8V35.7846V35.7832V35.7699V35.7671V35.7628L13.7182 35.7502L13.7189 35.7369L13.7196 35.7341V35.7299L13.7203 35.7201L13.721 35.7173L13.7217 35.7124L13.7231 35.7012V35.6998C13.7245 35.6907 13.7259 35.6822 13.728 35.6731L13.7294 35.6647V35.6633L13.7322 35.6528V35.6514L13.735 35.6388L13.7371 35.6311L13.7385 35.6248L13.7406 35.6185L13.7435 35.6094L13.7442 35.6059L13.7449 35.6037L13.7484 35.5918V35.5904L13.7519 35.5806L13.7526 35.5778L13.7547 35.5715L13.7554 35.5687L13.7589 35.5603L13.7631 35.5484L13.7645 35.5463V35.5449L13.7687 35.5351L13.7694 35.5337L13.7729 35.5266L13.7736 35.5238L13.7771 35.5161L13.7778 35.5126L13.7834 35.5021L13.7883 35.4916L13.789 35.4902L13.7918 35.4839L13.7953 35.4776L13.7988 35.472L13.7995 35.4706L13.8058 35.4601L13.8114 35.4496L13.8177 35.4404L13.8184 35.4383L13.8234 35.4313L13.829 35.4229L13.8304 35.4201L13.8374 35.4103L13.8437 35.4012L13.8444 35.3998L13.8514 35.3907C13.8556 35.3851 13.8598 35.3802 13.8647 35.3753L13.8661 35.3732L13.8675 35.3711L13.8731 35.364L13.8738 35.3633C13.8815 35.3542 13.8892 35.3465 13.8976 35.3381L13.8983 35.3374L13.9054 35.3304L13.9061 35.329C13.9117 35.3241 13.9166 35.3192 13.9222 35.3143L13.9306 35.3066L13.932 35.3052L13.9397 35.2989C13.9516 35.289 13.9628 35.2806 13.9747 35.2715L13.9768 35.2694L13.9846 35.2638L13.9867 35.2617C13.9965 35.2561 14.0049 35.2498 14.0147 35.2442L14.0154 35.2435C14.0455 35.2253 14.0771 35.2091 14.11 35.1958L24.5273 30.0534ZM44.6176 38.3912C44.2623 38.3912 43.9742 38.6799 43.9742 39.0346V42.0253C43.9742 42.3806 44.2623 42.6687 44.6176 42.6687H47.6069C47.9622 42.6687 48.2503 42.3806 48.2503 42.0253V39.0346C48.2503 38.6799 47.9622 38.3912 47.6069 38.3912H44.6176ZM46.9635 39.6787H45.261V41.3819H46.9635V39.6787ZM34.2339 38.3912C33.8779 38.3912 33.5905 38.6799 33.5905 39.0346V42.0253C33.5905 42.3806 33.8786 42.6687 34.2339 42.6687H37.2239C37.5793 42.6687 37.8673 42.3806 37.8673 42.0253V39.0346C37.8673 38.6799 37.5793 38.3912 37.2239 38.3912H34.2339ZM36.5805 39.6787H34.878V41.3819H36.5805V39.6787ZM39.4254 38.3912C39.0694 38.3912 38.782 38.6799 38.782 39.0346V42.0253C38.782 42.3806 39.0701 42.6687 39.4254 42.6687H42.4147C42.7708 42.6687 43.0588 42.3806 43.0588 42.0253V39.0346C43.0588 38.6799 42.7708 38.3912 42.4147 38.3912H39.4254ZM41.772 39.6787H40.0695V41.3819H41.772V39.6787ZM53.5175 44.5191V35.1958C53.7656 35.1342 54.013 35.0465 54.2597 34.9344C54.8288 34.6744 55.3889 34.277 55.9285 33.7317C56.6603 34.0134 57.3345 34.0317 57.9289 33.8564C58.5611 33.6686 59.0839 33.267 59.4785 32.7322C59.8486 32.2304 60.1037 31.6066 60.225 30.9372C60.3778 30.0997 60.3182 29.1836 60.0077 28.3496C60.5292 28.2157 61.0282 27.9395 61.4656 27.5596C62.0116 27.0844 62.4671 26.4438 62.751 25.7163C63.0363 24.986 63.1519 24.1617 63.0194 23.3228C62.8561 22.2939 62.3214 21.2544 61.2686 20.3566C62.0592 19.2205 62.4349 17.914 62.4496 16.6615C62.4615 15.6284 62.2288 14.6304 61.7824 13.79C61.3212 12.9237 60.6322 12.2193 59.7463 11.8051C59.0216 11.4665 58.1756 11.3271 57.2273 11.4581C56.9147 10.1692 56.3582 9.17253 55.6622 8.48776C55.0412 7.87589 54.3109 7.50932 53.5385 7.39648C52.7682 7.28504 51.965 7.42942 51.1975 7.83944C50.2857 8.32726 49.425 9.19496 48.7437 10.4552C47.1009 10.5245 45.7362 11.1259 44.7171 12.0644C44.0681 12.663 43.5621 13.3975 43.2151 14.2196C42.8731 15.0313 42.6888 15.9284 42.6782 16.8592C42.66 18.5911 43.2481 20.44 44.5524 22.078C43.2502 23.2352 42.8752 24.8507 43.0686 26.4011C43.1633 27.1608 43.3981 27.9059 43.7268 28.5703C44.0583 29.2397 44.4914 29.8319 44.9807 30.2791C45.6949 30.9337 46.5261 31.2849 47.3609 31.1573C47.9714 32.3614 48.6996 33.3392 49.5 34.0401C50.2072 34.6596 50.9747 35.0676 51.773 35.2323C51.9244 35.2631 52.0772 35.2855 52.23 35.2996V44.6431C52.23 44.6859 52.2342 44.7272 52.2419 44.7679V49.351C52.2419 49.7063 52.5299 49.9951 52.886 49.9951C53.2406 49.9951 53.5287 49.7063 53.5287 49.351V44.6431C53.5294 44.6004 53.5259 44.559 53.5175 44.5191ZM12.8141 39.9549V29.3203C13.3881 29.2088 13.9621 29 14.5284 28.6881C14.9539 28.4533 15.3758 28.1596 15.7879 27.8036C16.8624 28.1785 17.8212 28.1414 18.6181 27.8309C19.2931 27.5681 19.8426 27.1104 20.2414 26.5406C20.6325 25.9826 20.8785 25.3175 20.957 24.6257C21.0376 23.9122 20.9409 23.1651 20.6409 22.4719C21.4476 22.3114 22.2165 21.9014 22.8375 21.3273C23.3786 20.8283 23.8131 20.2031 24.0675 19.512C24.3283 18.8048 24.4026 18.0297 24.2168 17.2468C23.9855 16.269 23.354 15.2934 22.1786 14.4509C23.0197 13.4255 23.462 12.262 23.551 11.1231C23.6288 10.1215 23.4318 9.13679 22.9917 8.27539C22.548 7.40839 21.8604 6.67316 20.9619 6.17904C19.9694 5.63374 18.7261 5.38353 17.2794 5.57978C16.9626 4.46747 16.4328 3.57173 15.7683 2.90448C15.0029 2.13491 14.0638 1.66812 13.0643 1.51813C12.0711 1.36884 11.0212 1.53284 10.028 2.02347C9.01596 2.5232 8.06345 3.36357 7.29668 4.55718C5.53745 4.60134 4.04385 5.07584 2.87687 5.8384C1.72111 6.59326 0.884246 7.62917 0.419557 8.81227C-0.0451322 9.99608 -0.134846 11.3215 0.205786 12.6524C0.513476 13.8573 1.17231 15.0656 2.22224 16.1758C0.893358 17.1753 0.384513 18.5266 0.42166 19.8898C0.441985 20.6461 0.63473 21.4009 0.950831 22.0934C1.26413 22.7796 1.69938 23.4097 2.20893 23.9213C3.17265 24.89 4.40621 25.4521 5.61805 25.2446C6.0491 25.9595 6.5292 26.5952 7.04716 27.1419C8.09499 28.2479 9.29982 28.9888 10.5712 29.2803C10.8873 29.3532 11.2062 29.3981 11.5272 29.4135V39.9577V39.9605V49.351C11.5272 49.7063 11.816 49.9951 12.1707 49.9951C12.526 49.9951 12.8141 49.7063 12.8141 49.351V39.9577V39.9549ZM20.343 7.30536C19.469 6.82455 18.3168 6.64653 16.9318 6.9437V6.9423L16.9241 6.9437C16.5764 7.01309 16.2393 6.78741 16.1699 6.44047C15.9414 5.30503 15.4711 4.42401 14.8579 3.80793C14.2944 3.24231 13.6054 2.89888 12.8722 2.78954C12.1328 2.6781 11.3464 2.80356 10.5951 3.17433C9.71054 3.61028 8.87368 4.38546 8.21134 5.516C8.0999 5.70804 7.89033 5.8377 7.65133 5.8356C6.00354 5.82088 4.62769 6.2302 3.57986 6.91357C2.65189 7.51984 1.98324 8.34408 1.61597 9.27977C1.24871 10.2148 1.18002 11.2689 1.45197 12.3349C1.75405 13.518 2.47667 14.7194 3.67659 15.8001V15.8015C3.72915 15.8492 3.77471 15.9053 3.81046 15.9719C3.98007 16.2823 3.86513 16.672 3.55393 16.8417C2.18439 17.5888 1.67275 18.7221 1.70359 19.859C1.719 20.4351 1.8697 21.0183 2.11641 21.5607C2.36593 22.1074 2.71287 22.6086 3.11798 23.0158C3.88755 23.7896 4.85478 24.2087 5.70776 23.8947C6.00073 23.7868 6.33646 23.9073 6.49206 24.1891C6.93222 24.9881 7.43265 25.6827 7.97724 26.2567C8.85195 27.1798 9.8374 27.7937 10.8572 28.0278C11.078 28.0783 11.3016 28.1112 11.5265 28.126V18.6752L7.02754 14.4663C6.76961 14.2252 6.75559 13.8194 6.9974 13.5615C7.2392 13.3036 7.64432 13.2896 7.90295 13.5314L11.5272 16.9209V14.8939C11.5272 14.7313 11.5875 14.582 11.6877 14.4691L16.0732 9.11576C16.2982 8.84101 16.7033 8.80106 16.9788 9.02534C17.2542 9.25033 17.2942 9.65544 17.0692 9.93019L12.8148 15.1231V23.5358L16.0732 19.5583C16.2982 19.2836 16.7033 19.2429 16.9788 19.4679C17.2542 19.6929 17.2942 20.098 17.0692 20.3734L12.8148 25.5656V28.0012C13.1806 27.9066 13.5472 27.7608 13.9103 27.5611C14.3399 27.3242 14.766 27.0123 15.1838 26.6205C15.3632 26.4284 15.6513 26.359 15.9071 26.4691C16.8014 26.8553 17.5619 26.8644 18.1555 26.6331C18.5831 26.4663 18.9328 26.1726 19.1915 25.8053C19.4571 25.4254 19.626 24.9664 19.6807 24.4827C19.7641 23.7447 19.5798 22.9604 19.0716 22.3261C18.9405 22.1915 18.8698 22.0009 18.895 21.7997C18.9377 21.4472 19.2587 21.197 19.6113 21.2397C20.4397 21.3428 21.3095 20.9881 21.9684 20.3797C22.363 20.0153 22.6784 19.5632 22.8613 19.067C23.0386 18.5855 23.0905 18.0612 22.9657 17.5348C22.7702 16.7106 22.1352 15.8625 20.8687 15.1287C20.8182 15.0992 20.7706 15.0628 20.7278 15.0186C20.4818 14.7635 20.4902 14.357 20.7446 14.111C21.6992 13.1907 22.1857 12.0903 22.2684 11.0243C22.3286 10.2533 22.1808 9.50335 21.8499 8.85643C21.5219 8.21792 21.0117 7.67263 20.343 7.30536ZM40.324 36.4441C39.9686 36.4441 39.6805 36.156 39.6805 35.8V30.4116L37.4531 31.5141C37.4258 31.5295 37.3977 31.5435 37.3676 31.5561L27.6694 36.3558C27.5734 36.4126 27.4626 36.4448 27.3428 36.4448C26.9874 36.4448 26.6994 36.1567 26.6994 35.8007V30.4123L15.0051 36.1981V43.8301V48.7076H49.547V36.4441H40.324ZM36.4172 30.5931L33.4882 11.5948C33.4588 11.407 33.3866 11.2423 33.2786 11.135C33.2064 11.0628 33.1125 11.018 33.0018 11.018H28.7362C28.6226 11.018 28.5252 11.0642 28.4509 11.1392C28.3444 11.2451 28.2736 11.4028 28.2504 11.5801L25.9116 29.3686L27.0589 28.8009C27.3771 28.6432 27.7619 28.7743 27.9189 29.0918C27.9638 29.1843 27.9855 29.281 27.9855 29.3764H27.9869V34.7655L36.4172 30.5931ZM59.2031 12.9664C58.5807 12.6763 57.8118 12.5978 56.9154 12.8242C56.8881 12.8326 56.86 12.8389 56.8306 12.8438C56.4808 12.9027 56.15 12.6658 56.0918 12.316C55.8711 10.992 55.3854 10.0164 54.7623 9.40242C54.3417 8.9882 53.8588 8.74219 53.357 8.66859C52.8516 8.5957 52.3183 8.69382 51.8003 8.97068C51.0335 9.3807 50.2983 10.1727 49.7166 11.3691H49.7159C49.6114 11.585 49.3893 11.7336 49.1334 11.7315C47.6609 11.7168 46.4581 12.2081 45.5862 13.0106C45.0718 13.4844 44.6709 14.0668 44.3961 14.718C44.1179 15.3775 43.9679 16.1085 43.9602 16.869C43.9433 18.4845 44.5643 20.2333 45.9521 21.7388L45.9514 21.7402C45.9745 21.7647 45.9955 21.792 46.0152 21.8215C46.2093 22.1172 46.1273 22.5147 45.8315 22.7095C44.5482 23.5534 44.1816 24.9257 44.3457 26.2455C44.4228 26.8616 44.612 27.4657 44.8783 28.0026C45.1426 28.5353 45.4769 28.9965 45.8449 29.3336C46.3551 29.8018 46.9249 30.024 47.4219 29.8179L47.438 29.8102C47.7597 29.663 48.1403 29.8046 48.2875 30.1263C48.8671 31.3942 49.5715 32.3979 50.3439 33.0749C50.8842 33.5487 51.4534 33.8564 52.0288 33.9749C52.0954 33.9889 52.1627 34.0001 52.23 34.0085V25.0743L48.1045 21.2159C47.8459 20.9741 47.8326 20.569 48.0744 20.3111C48.3162 20.0524 48.7213 20.0384 48.9799 20.2802L52.23 23.3207V21.572C52.23 21.4093 52.2902 21.2608 52.3905 21.1472L56.4262 16.2221C56.6512 15.9466 57.0563 15.9067 57.3317 16.131C57.6065 16.3559 57.6471 16.7611 57.4221 17.0365L53.5175 21.8018V29.3848L56.4262 25.8348C56.6512 25.5593 57.0563 25.5194 57.3317 25.7443C57.6065 25.9686 57.6471 26.3737 57.4221 26.6492L53.5175 31.4152V33.8543C53.5876 33.8284 53.657 33.799 53.7263 33.7674C54.2387 33.5333 54.7546 33.1394 55.2606 32.5682C55.4463 32.3222 55.7877 32.2381 56.0708 32.3853C56.6568 32.6909 57.1593 32.7448 57.5665 32.6243C57.9142 32.5219 58.2099 32.2878 58.4426 31.9724C58.6992 31.6248 58.8772 31.186 58.9634 30.7115C59.1183 29.8621 58.9844 28.9145 58.4882 28.1722C58.3824 28.0377 58.3305 27.8617 58.3578 27.6795C58.4104 27.3284 58.7377 27.0858 59.0888 27.1391C59.6061 27.2169 60.157 26.9961 60.6252 26.5889C61.0163 26.2497 61.3457 25.7843 61.5539 25.2495C61.7613 24.7175 61.8468 24.1239 61.7522 23.5246C61.6149 22.6604 61.0969 21.7689 60.0245 21.0133C59.9979 20.9972 59.9727 20.9776 59.9488 20.9573C59.6811 20.7253 59.6517 20.3202 59.883 20.0517C60.7486 19.0467 61.1537 17.8194 61.167 16.651C61.1768 15.8352 60.9946 15.0502 60.6455 14.3928C60.3098 13.7627 59.8213 13.2552 59.2031 12.9664ZM52.5811 4.87468C49.9969 4.87468 48.9267 6.17974 47.8557 7.48549C46.9782 8.55505 46.1007 9.62671 44.1214 9.62671C42.1421 9.62671 41.2645 8.55575 40.387 7.48549C39.3154 6.17904 38.2437 4.87188 35.6616 4.87188C34.6902 4.87188 33.7531 5.1256 32.9296 5.58819C32.1088 6.04937 31.4009 6.72012 30.8858 7.55488C30.6994 7.85696 30.7933 8.25156 31.0947 8.438C31.396 8.62444 31.7913 8.53052 31.9771 8.22914C32.3745 7.58572 32.9212 7.06776 33.5576 6.70961C34.1905 6.35426 34.9124 6.15871 35.6609 6.15871C37.6403 6.15871 38.5178 7.22897 39.396 8.29992C40.4669 9.60638 41.5386 10.9135 44.1207 10.9135C46.7027 10.9135 47.7744 9.60708 48.8461 8.29992C49.7243 7.22897 50.6032 6.15661 52.5804 6.15661C52.9343 6.15661 53.2217 5.86924 53.2217 5.51529C53.2217 5.16134 52.9357 4.87468 52.5811 4.87468ZM52.5811 0.00350452C52.935 0.00350452 53.2224 0.290168 53.2224 0.644117C53.2224 0.998066 52.9357 1.28543 52.5811 1.28543C50.6039 1.28543 49.725 2.35639 48.8468 3.42875C47.7751 4.7352 46.7041 6.04236 44.1214 6.04236V6.03886C41.5372 6.03886 40.4669 4.7338 39.3967 3.42805C38.5192 2.35779 37.6417 1.28683 35.6616 1.28683C34.9131 1.28683 34.1905 1.48168 33.5583 1.83773C32.9219 2.19588 32.3752 2.71314 31.9778 3.35726C31.792 3.65864 31.3967 3.75186 31.0954 3.56542C30.794 3.37969 30.7008 2.98509 30.8865 2.683C31.4016 1.84895 32.1088 1.17819 32.9303 0.716309C33.7538 0.253722 34.6909 0 35.6623 0C38.2451 0 39.3161 1.30646 40.3877 2.61361C41.2659 3.68457 42.1442 4.75693 44.1221 4.75693V4.75413C46.1014 4.75413 46.9789 3.68387 47.8564 2.61361C48.9267 1.30856 49.9969 0.00350452 52.5811 0.00350452Z" fill="#0E6E36"/>
</svg>
