<svg width="30" height="30" viewBox="0 0 30 30" fill="none" xmlns="http://www.w3.org/2000/svg">
<path id="Vector" d="M27.5 16.9136V5C27.5 2.24292 25.2571 0 22.5 0C20.8881 0 19.4561 0.769895 18.5411 1.95771C16.6573 0.72577 14.414 0 12 0C5.3833 0 0 5.3833 0 12C0 18.6167 5.3833 24 12 24C13.0684 24 14.1016 23.8518 15.0882 23.5885C15.6182 27.2086 18.7351 30 22.5 30C26.6355 30 30 26.6355 30 22.5C30 20.3608 29.0918 18.3381 27.5 16.9136ZM12.0481 18.8523C10.634 19.1372 9.29785 19.4055 8.1582 19.0256C6.6882 18.5356 5.25326 18.9858 4.1022 19.6453C2.18405 17.6644 0.999995 14.9686 0.999995 12C0.999995 9.55243 1.80432 7.28961 3.16144 5.46027C3.6199 6.51404 4.14362 7.61685 4.58398 8.27734C4.90844 8.76416 4.55395 10.3709 4.26904 11.6619C3.78882 13.8381 3.29224 16.0884 4.87866 16.4851C5.01147 16.5183 5.15844 16.5342 5.31713 16.5342C6.96996 16.5342 9.90356 14.802 11.5229 12.783C12.7029 11.3123 13.0225 9.92675 12.4473 8.77637C11.7881 7.45801 10.5881 6.85498 9.31811 6.2163C7.92804 5.51751 6.50362 4.7984 5.64117 3.03268C7.43814 1.7547 9.63193 0.999995 12 0.999995C12.0007 0.999995 12.0014 1.00006 12.0021 1.00006C11.8435 2.39499 11.952 4.15908 13.1465 5.35351C14.2009 6.4082 14.3208 7.78955 14.4368 9.12572C14.5232 10.1196 14.6047 11.0583 15.084 11.7773C15.342 12.1643 15.8103 12.3589 16.4666 12.3589C16.77 12.3589 17.1175 12.3131 17.5 12.2285V16.9136C16.9379 17.4167 16.4661 17.9973 16.0844 18.6283C14.8181 18.298 13.4177 18.5762 12.0481 18.8523ZM22.5 29C18.9158 29 16 26.0842 16 22.5C16 20.5781 16.8462 18.7646 18.3218 17.5244C18.4348 17.4294 18.5 17.2893 18.5 17.1416V5C18.5 2.79444 20.2944 1 22.5 1C24.7056 1 26.5 2.79444 26.5 5V17.1416C26.5 17.2893 26.5652 17.4294 26.6782 17.5244C28.1538 18.7646 29 20.5781 29 22.5C29 26.0842 26.0842 29 22.5 29ZM25.5 17.8953V5C25.5 3.34571 24.1543 2 22.5 2C20.8457 2 19.5 3.34571 19.5 5V17.8953C17.9509 18.9067 17 20.645 17 22.5C17 25.5327 19.4673 28 22.5 28C25.5327 28 28 25.5327 28 22.5C28 20.645 27.0491 18.9067 25.5 17.8953ZM20.5 5C20.5 3.89721 21.3972 3 22.5 3C23.6028 3 24.5 3.89721 24.5 5V13H20.5V5ZM21.3789 25.0585C21.1053 25.6681 20.9872 26.113 20.9849 26.1221C20.9275 26.3486 20.7239 26.4998 20.5002 26.4998C19.6475 26.3594 20.0738 25.6199 20.4855 24.6058C20.4852 24.6053 20.4851 24.6051 20.4848 24.6046C20.6517 24.2487 20.8329 23.8935 21.0478 23.5478L21.0489 23.5489C21.2983 23.1459 21.5976 22.7318 21.9607 22.3396C22.1482 22.137 22.136 21.8208 21.9333 21.6331C21.7307 21.4453 21.4145 21.4573 21.2268 21.6604C20.7239 22.2036 20.3275 22.7841 20.0156 23.3303C19.5483 21.0189 21.1997 19.7234 23.9548 19.5019C24.1631 19.4849 24.3672 19.5996 24.4551 19.7932C25.3338 21.6623 25.8668 25.6796 21.3789 25.0585Z" fill="#91CDAA"/>
</svg>
