<svg width="30" height="30" viewBox="0 0 30 30" fill="none" xmlns="http://www.w3.org/2000/svg">
<g id="entypo:download">
<path id="Vector" d="M18.7595 9.00375H15.0077V1.5H10.0052V9.00375H6.25329L12.5064 15.2569L18.7595 9.00375ZM24.1848 17.1728C23.9221 16.8927 22.17 15.018 21.6697 14.529C21.3192 14.193 20.8522 14.0056 20.3666 14.0063H18.1692L22.0012 17.7506H17.5689C17.5087 17.7495 17.4492 17.7643 17.3965 17.7935C17.3439 17.8227 17.2998 17.8653 17.2688 17.917L16.2483 20.2594H8.76454L7.74403 17.917C7.71285 17.8655 7.66874 17.823 7.61609 17.7938C7.56344 17.7647 7.50407 17.7498 7.44388 17.7506H3.01166L6.84233 14.0063H4.64623C4.14973 14.0063 3.67575 14.2051 3.34308 14.529C2.84283 15.0193 1.0907 16.8939 0.828073 17.1728C0.216517 17.8244 -0.119901 18.3434 0.0401791 18.985L0.74178 22.8294C0.90186 23.4722 1.60596 24 2.30756 24H22.7078C23.4094 24 24.1135 23.4722 24.2735 22.8294L24.9751 18.985C25.1327 18.3434 24.7976 17.8244 24.1848 17.1728Z" fill="#2CA55E"/>
</g>
</svg>
