<svg width="31" height="30" viewBox="0 0 31 30" fill="none" xmlns="http://www.w3.org/2000/svg">
<g id="Exit" clip-path="url(#clip0_771_7456)">
<rect id="Rectangle 5492" x="0.833008" width="30" height="30" rx="5" fill="#0E6E36"/>
<path id="Vector" d="M21.7248 8.30178C21.6323 8.20907 21.5224 8.13553 21.4014 8.08534C21.2804 8.03516 21.1508 8.00933 21.0198 8.00933C20.8888 8.00933 20.7591 8.03516 20.6382 8.08534C20.5172 8.13553 20.4073 8.20907 20.3148 8.30178L15.4248 13.1818L10.5348 8.29178C10.4422 8.19919 10.3323 8.12575 10.2113 8.07565C10.0904 8.02554 9.96072 7.99976 9.82978 7.99976C9.69885 7.99976 9.5692 8.02554 9.44824 8.07565C9.32728 8.12575 9.21737 8.19919 9.12478 8.29178C9.0322 8.38436 8.95876 8.49427 8.90866 8.61523C8.85855 8.7362 8.83276 8.86585 8.83276 8.99678C8.83276 9.12771 8.85855 9.25736 8.90866 9.37832C8.95876 9.49928 9.0322 9.60919 9.12478 9.70178L14.0148 14.5918L9.12478 19.4818C9.0322 19.5744 8.95876 19.6843 8.90866 19.8052C8.85855 19.9262 8.83276 20.0558 8.83276 20.1868C8.83276 20.3177 8.85855 20.4474 8.90866 20.5683C8.95876 20.6893 9.0322 20.7992 9.12478 20.8918C9.21737 20.9844 9.32728 21.0578 9.44824 21.1079C9.5692 21.158 9.69885 21.1838 9.82978 21.1838C9.96072 21.1838 10.0904 21.158 10.2113 21.1079C10.3323 21.0578 10.4422 20.9844 10.5348 20.8918L15.4248 16.0018L20.3148 20.8918C20.4074 20.9844 20.5173 21.0578 20.6382 21.1079C20.7592 21.158 20.8889 21.1838 21.0198 21.1838C21.1507 21.1838 21.2804 21.158 21.4013 21.1079C21.5223 21.0578 21.6322 20.9844 21.7248 20.8918C21.8174 20.7992 21.8908 20.6893 21.9409 20.5683C21.991 20.4474 22.0168 20.3177 22.0168 20.1868C22.0168 20.0558 21.991 19.9262 21.9409 19.8052C21.8908 19.6843 21.8174 19.5744 21.7248 19.4818L16.8348 14.5918L21.7248 9.70178C22.1048 9.32178 22.1048 8.68178 21.7248 8.30178Z" fill="white"/>
</g>
<defs>
<clipPath id="clip0_771_7456">
<rect width="30" height="30" fill="white" transform="translate(0.833008)"/>
</clipPath>
</defs>
</svg>
