<svg width="15" height="16" viewBox="0 0 15 16" fill="none" xmlns="http://www.w3.org/2000/svg">
<g id="f7:location-fill">
<path id="Vector" d="M1.37598 7.61978C1.59562 7.83943 1.81526 7.90853 2.24865 7.90853L7.00098 7.93371C7.0449 7.93371 7.0824 7.93371 7.10142 7.95862C7.12017 7.97737 7.12633 8.01514 7.12633 8.05291L7.14508 12.8117C7.15151 13.2448 7.22062 13.4644 7.44026 13.6841C7.73544 13.9854 8.14981 13.9353 8.45731 13.634C8.62071 13.4706 8.75249 13.2009 8.87169 12.9496L13.6744 2.5913C13.9254 2.06416 13.894 1.6747 13.6369 1.41728C13.3854 1.1663 12.9962 1.13496 12.469 1.38595L2.11044 6.18862C1.85919 6.30782 1.58946 6.43961 1.42606 6.603C1.12473 6.9105 1.07464 7.31871 1.37598 7.62005" fill="#F94144"/>
</g>
</svg>
