<svg width="15" height="16" viewBox="0 0 15 16" fill="none" xmlns="http://www.w3.org/2000/svg">
<g id="f7:location-fill">
<path id="Vector" d="M1.3761 7.61978C1.59574 7.83943 1.81538 7.90853 2.24878 7.90853L7.0011 7.93371C7.04503 7.93371 7.08253 7.93371 7.10154 7.95862C7.12029 7.97737 7.12645 8.01514 7.12645 8.05291L7.1452 12.8117C7.15163 13.2448 7.22074 13.4644 7.44038 13.6841C7.73556 13.9854 8.14994 13.9353 8.45744 13.634C8.62083 13.4706 8.75261 13.2009 8.87181 12.9496L13.6745 2.5913C13.9255 2.06416 13.8941 1.6747 13.637 1.41728C13.3855 1.1663 12.9963 1.13496 12.4691 1.38595L2.11056 6.18862C1.85931 6.30782 1.58958 6.43961 1.42619 6.603C1.12485 6.9105 1.07476 7.31871 1.3761 7.62005" fill="#118C44"/>
</g>
</svg>
