<svg width="30" height="31" viewBox="0 0 30 31" fill="none" xmlns="http://www.w3.org/2000/svg">
<g id="fa-solid:car" clip-path="url(#clip0_410_65045)">
<path id="Vector" d="M29.2963 10.8726H25.7883L24.8133 8.43506C23.8114 5.929 21.4201 4.31006 18.7207 4.31006H11.2793C8.5805 4.31006 6.1887 5.929 5.18616 8.43506L4.21116 10.8726H0.703742C0.246125 10.8726 -0.0896174 11.3026 0.0217107 11.7462L0.373273 13.1524C0.451203 13.4653 0.732453 13.6851 1.0553 13.6851H2.23128C1.44437 14.3724 0.937531 15.3714 0.937531 16.4976V19.3101C0.937531 20.2546 1.29847 21.1071 1.87503 21.7669V24.9351C1.87503 25.9704 2.71468 26.8101 3.75003 26.8101H5.62503C6.66038 26.8101 7.50003 25.9704 7.50003 24.9351V23.0601H22.5V24.9351C22.5 25.9704 23.3397 26.8101 24.375 26.8101H26.25C27.2854 26.8101 28.125 25.9704 28.125 24.9351V21.7669C28.7016 21.1077 29.0625 20.2552 29.0625 19.3101V16.4976C29.0625 15.3714 28.5557 14.3724 27.7694 13.6851H28.9453C29.2682 13.6851 29.5494 13.4653 29.6274 13.1524L29.9789 11.7462C30.0897 11.3026 29.7539 10.8726 29.2963 10.8726ZM8.6678 9.82783C9.09495 8.76025 10.1291 8.06006 11.2793 8.06006H18.7207C19.8709 8.06006 20.9051 8.76025 21.3323 9.82783L22.5 12.7476H7.50003L8.6678 9.82783ZM5.62503 19.2983C4.50003 19.2983 3.75003 18.5507 3.75003 17.4292C3.75003 16.3077 4.50003 15.5601 5.62503 15.5601C6.75003 15.5601 8.43753 17.2423 8.43753 18.3638C8.43753 19.4853 6.75003 19.2983 5.62503 19.2983ZM24.375 19.2983C23.25 19.2983 21.5625 19.4853 21.5625 18.3638C21.5625 17.2423 23.25 15.5601 24.375 15.5601C25.5 15.5601 26.25 16.3077 26.25 17.4292C26.25 18.5507 25.5 19.2983 24.375 19.2983Z" fill="#F94144"/>
</g>
<defs>
<clipPath id="clip0_410_65045">
<rect width="30" height="30" fill="white" transform="translate(0 0.560059)"/>
</clipPath>
</defs>
</svg>
