<svg width="39" height="30" viewBox="0 0 39 30" fill="none" xmlns="http://www.w3.org/2000/svg">
<g id="fa6-solid:user-pen" clip-path="url(#clip0_410_62227)">
<path id="Vector" d="M13.875 15C15.8641 15 17.7718 14.2098 19.1783 12.8033C20.5848 11.3968 21.375 9.48912 21.375 7.5C21.375 5.51088 20.5848 3.60322 19.1783 2.1967C17.7718 0.790176 15.8641 0 13.875 0C11.8859 0 9.97822 0.790176 8.5717 2.1967C7.16518 3.60322 6.375 5.51088 6.375 7.5C6.375 9.48912 7.16518 11.3968 8.5717 12.8033C9.97822 14.2098 11.8859 15 13.875 15ZM11.1973 17.8125C5.42578 17.8125 0.75 22.4883 0.75 28.2598C0.75 29.2207 1.5293 30 2.49023 30H19.6641C19.4824 29.4844 19.4473 28.9219 19.582 28.3711L20.4609 24.8496C20.625 24.1875 20.9648 23.5898 21.4453 23.1094L23.8066 20.748C21.9258 18.9316 19.3711 17.8125 16.5469 17.8125H11.1973ZM36.7148 13.8105C35.8008 12.8965 34.3184 12.8965 33.3984 13.8105L31.6758 15.5332L35.8359 19.6934L37.5586 17.9707C38.4727 17.0566 38.4727 15.5742 37.5586 14.6543L36.7148 13.8105ZM22.7754 24.4336C22.5352 24.6738 22.3652 24.9727 22.2832 25.3066L21.4043 28.8281C21.3223 29.1504 21.416 29.4844 21.6504 29.7188C21.8848 29.9531 22.2187 30.0469 22.541 29.9648L26.0625 29.0859C26.3906 29.0039 26.6953 28.834 26.9355 28.5938L34.5059 21.0176L30.3457 16.8574L22.7754 24.4336Z" fill="#0E6E36"/>
</g>
<defs>
<clipPath id="clip0_410_62227">
<rect width="37.5" height="30" fill="white" transform="translate(0.75)"/>
</clipPath>
</defs>
</svg>
