<svg width="41" height="40" viewBox="0 0 41 40" fill="none" xmlns="http://www.w3.org/2000/svg">
<g id="flowbite:upload-solid">
<path id="Vector" fill-rule="evenodd" clip-rule="evenodd" d="M20.7617 5C21.0114 5.00016 21.2578 5.0564 21.4828 5.16458C21.7078 5.27276 21.9057 5.43011 22.0617 5.625L28.7284 13.9583C28.8734 14.1281 28.9827 14.3253 29.05 14.5381C29.1174 14.751 29.1412 14.9752 29.1202 15.1975C29.0992 15.4197 29.0337 15.6355 28.9277 15.832C28.8217 16.0285 28.6773 16.2016 28.5031 16.3412C28.3289 16.4808 28.1284 16.584 27.9135 16.6446C27.6987 16.7053 27.4738 16.7221 27.2523 16.6942C27.0308 16.6662 26.8172 16.5941 26.6241 16.482C26.4311 16.3699 26.2625 16.2202 26.1284 16.0417L22.4284 11.4167V23.3333C22.4284 23.7754 22.2528 24.1993 21.9402 24.5118C21.6277 24.8244 21.2037 25 20.7617 25C20.3197 25 19.8958 24.8244 19.5832 24.5118C19.2706 24.1993 19.0951 23.7754 19.0951 23.3333V11.4167L15.3951 16.0433C15.261 16.2218 15.0924 16.3716 14.8993 16.4837C14.7062 16.5957 14.4926 16.6679 14.2711 16.6958C14.0496 16.7238 13.8248 16.7069 13.6099 16.6463C13.395 16.5857 13.1946 16.4825 13.0203 16.3429C12.8461 16.2033 12.7017 16.0301 12.5957 15.8337C12.4897 15.6372 12.4243 15.4214 12.4032 15.1991C12.3822 14.9769 12.4061 14.7527 12.4734 14.5398C12.5407 14.3269 12.6501 14.1298 12.7951 13.96L19.4617 5.62667C19.6176 5.43147 19.8154 5.2738 20.0404 5.16533C20.2654 5.05686 20.5119 5.00036 20.7617 5ZM15.7617 23.3333V21.6667H9.09505C8.211 21.6667 7.36315 22.0179 6.73803 22.643C6.11291 23.2681 5.76172 24.1159 5.76172 25V31.6667C5.76172 32.5507 6.11291 33.3986 6.73803 34.0237C7.36315 34.6488 8.211 35 9.09505 35H32.4284C33.3124 35 34.1603 34.6488 34.7854 34.0237C35.4105 33.3986 35.7617 32.5507 35.7617 31.6667V25C35.7617 24.1159 35.4105 23.2681 34.7854 22.643C34.1603 22.0179 33.3124 21.6667 32.4284 21.6667H25.7617V23.3333C25.7617 24.6594 25.2349 25.9312 24.2973 26.8689C23.3596 27.8065 22.0878 28.3333 20.7617 28.3333C19.4356 28.3333 18.1639 27.8065 17.2262 26.8689C16.2885 25.9312 15.7617 24.6594 15.7617 23.3333ZM29.0951 26.6667C28.653 26.6667 28.2291 26.8423 27.9165 27.1548C27.604 27.4674 27.4284 27.8913 27.4284 28.3333C27.4284 28.7754 27.604 29.1993 27.9165 29.5118C28.2291 29.8244 28.653 30 29.0951 30H29.1117C29.5537 30 29.9777 29.8244 30.2902 29.5118C30.6028 29.1993 30.7784 28.7754 30.7784 28.3333C30.7784 27.8913 30.6028 27.4674 30.2902 27.1548C29.9777 26.8423 29.5537 26.6667 29.1117 26.6667H29.0951Z" fill="#0E6E36"/>
</g>
</svg>
