<svg width="30" height="31" viewBox="0 0 30 31" fill="none" xmlns="http://www.w3.org/2000/svg">
<g id="game-icons:coal-wagon">
<path id="Vector" d="M17.8125 4.31007C16.4225 4.37095 14.0625 6.18507 12.1875 7.12257C10.3125 6.49755 7.55133 4.93468 6.5625 5.24757C5.26195 5.65913 3.78668 7.83471 2.37111 9.40772H27.9015C27.3867 8.21264 26.0594 5.29954 25.3125 5.24757C24.3751 5.18235 20.625 8.06007 20.625 8.06007C19.6875 6.81009 18.4822 4.28077 17.8125 4.31007ZM1.58982 10.4624L4.17639 22.5327H6.97266V10.4624H1.58982ZM8.02734 10.4624V11.2827H10.7227V10.4624H8.02734ZM11.7773 10.4624V22.5327H25.8237L28.4102 10.4624H11.7773ZM8.02734 12.3374V13.1577H10.7227V12.3374H8.02734ZM8.02734 14.2124V15.0327H10.7227V14.2124H8.02734ZM8.02734 16.0874V16.9077H10.7227V16.0874H8.02734ZM8.02734 17.9624V18.7827H10.7227V17.9624H8.02734ZM8.02734 19.8374V20.6577H10.7227V19.8374H8.02734ZM8.02734 21.7124V22.5327H10.7227V21.7124H8.02734ZM1.46484 23.5874V25.3452H28.5352V23.5874H1.46484ZM2.15754 26.3999C2.01486 26.6598 1.93359 26.9591 1.93359 27.2788C1.93359 28.2882 2.74061 29.0952 3.75 29.0952C4.75939 29.0952 5.56641 28.2882 5.56641 27.2788C5.56641 26.9591 5.48514 26.6598 5.34246 26.3999H2.15754ZM6.84504 26.3999C6.70236 26.6598 6.62109 26.9591 6.62109 27.2788C6.62109 28.2882 7.42811 29.0952 8.4375 29.0952C9.44689 29.0952 10.2539 28.2882 10.2539 27.2788C10.2539 26.9591 10.1726 26.6598 10.03 26.3999H6.84504ZM11.6345 26.3999L12.5134 28.1577H17.4865L18.3654 26.3999H11.6345ZM19.97 26.3999C19.8274 26.6598 19.7461 26.9591 19.7461 27.2788C19.7461 28.2882 20.5531 29.0952 21.5625 29.0952C22.5719 29.0952 23.3789 28.2882 23.3789 27.2788C23.3789 26.9591 23.2976 26.6598 23.155 26.3999H19.97ZM24.6575 26.3999C24.5149 26.6598 24.4336 26.9591 24.4336 27.2788C24.4336 28.2882 25.2406 29.0952 26.25 29.0952C27.2594 29.0952 28.0664 28.2882 28.0664 27.2788C28.0664 26.9591 27.9851 26.6598 27.8425 26.3999H24.6575Z" fill="#F94144"/>
</g>
</svg>
