<svg width="20" height="20" viewBox="0 0 20 20" fill="none" xmlns="http://www.w3.org/2000/svg">
<g clip-path="url(#clip0_2079_160612)">
<path d="M8.00024 14.9999C8.00024 14.7347 7.89488 14.4803 7.70734 14.2928C7.51981 14.1052 7.26545 13.9999 7.00024 13.9999H3.00024V5.80049L8.00124 2.22889L13.0012 5.79999L13.0002 8.99989C13.0002 9.2651 13.1056 9.51946 13.2931 9.707C13.4807 9.89453 13.735 9.99989 14.0002 9.99989C14.2655 9.99989 14.5198 9.89453 14.7073 9.707C14.8949 9.51946 15.0002 9.2651 15.0002 8.99989L15.0007 6.97989C15.1584 6.98357 15.3147 6.94913 15.4562 6.87949C15.5978 6.80985 15.7204 6.70707 15.8137 6.57989C15.8901 6.47303 15.9446 6.35219 15.9743 6.22425C16.0039 6.09631 16.008 5.96379 15.9865 5.83426C15.9649 5.70472 15.918 5.5807 15.8485 5.46928C15.779 5.35786 15.6882 5.26122 15.5813 5.18489L8.58224 0.185888C8.41267 0.0648298 8.20953 -0.000244141 8.00119 -0.000244141C7.79284 -0.000244141 7.5897 0.0648298 7.42014 0.185888L0.419135 5.18589C0.246626 5.30899 0.117686 5.48371 0.0509208 5.68485C-0.0158445 5.88599 -0.0169826 6.10313 0.0476704 6.30496C0.112323 6.50678 0.239425 6.68285 0.410634 6.80775C0.581843 6.93266 0.788307 6.99994 1.00024 6.99989V14.9999C1.00024 15.2651 1.10559 15.5195 1.29313 15.707C1.48066 15.8945 1.73502 15.9999 2.00024 15.9999H7.00024C7.26545 15.9999 7.51981 15.8945 7.70734 15.707C7.89488 15.5195 8.00024 15.2651 8.00024 14.9999Z" fill="white"/>
<path d="M7.00024 5C6.73503 5 6.48067 5.10536 6.29314 5.29289C6.1056 5.48043 6.00024 5.73478 6.00024 6C6.00024 6.26522 6.1056 6.51957 6.29314 6.70711C6.48067 6.89464 6.73503 7 7.00024 7H9.00024C9.26546 7 9.51981 6.89464 9.70735 6.70711C9.89489 6.51957 10.0002 6.26522 10.0002 6C10.0002 5.73478 9.89489 5.48043 9.70735 5.29289C9.51981 5.10536 9.26546 5 9.00024 5H7.00024Z" fill="white"/>
<path d="M19.2603 9.03415C19.0478 8.97769 18.8227 8.99256 18.6194 9.07645C18.4162 9.16035 18.2461 9.30864 18.1353 9.49855C17.5015 10.5924 16.2837 10.7486 14.3553 10.876C13.8436 10.9097 13.3387 10.9439 12.8641 11.0093C11.8819 11.1375 10.9701 11.5883 10.272 12.2909C9.57377 12.9935 9.12872 13.9081 9.00672 14.891C8.97783 15.1547 9.05488 15.4191 9.22089 15.6259C9.38691 15.8328 9.6283 15.9652 9.89197 15.9941C10.1556 16.023 10.42 15.9459 10.6268 15.7799C10.8337 15.6139 10.9661 15.3725 10.995 15.1089C11.0652 14.5676 11.3141 14.0652 11.7022 13.6815C12.0904 13.2977 12.5956 13.0546 13.1376 12.9906C13.5676 12.9306 14.0243 12.9018 14.4862 12.8716C15.6104 12.8548 16.7248 12.6585 17.787 12.2901C17.6125 13.7568 17.0765 15.1573 16.227 16.3658C15.9741 16.7039 15.6567 16.9886 15.2932 17.2033C14.9296 17.418 14.527 17.5586 14.1088 17.6168C13.731 17.6473 13.3511 17.5948 12.9958 17.4629C13.4855 17.1603 13.9327 16.794 14.3258 16.3735C14.4157 16.2755 14.4851 16.1606 14.53 16.0354C14.5749 15.9103 14.5944 15.7774 14.5873 15.6447C14.5802 15.5119 14.5468 15.3819 14.4889 15.2622C14.4309 15.1425 14.3497 15.0355 14.25 14.9476C14.1503 14.8597 14.034 14.7925 13.908 14.7501C13.782 14.7076 13.6488 14.6908 13.5161 14.7004C13.3835 14.7101 13.2542 14.7461 13.1356 14.8063C13.0171 14.8665 12.9118 14.9498 12.8258 15.0512C11.7164 16.3101 8.03382 17.6382 6.70862 18.0435C6.583 18.0818 6.46617 18.1445 6.36479 18.228C6.26341 18.3115 6.17947 18.4142 6.11776 18.5301C5.99313 18.7642 5.96662 19.0383 6.04407 19.292C6.12151 19.5457 6.29656 19.7582 6.53071 19.8829C6.76486 20.0075 7.03892 20.034 7.29262 19.9566C8.52758 19.5717 9.73801 19.1122 10.9172 18.5806C11.7724 19.2332 12.8118 19.5994 13.8872 19.627C14.0219 19.627 14.1567 19.6208 14.2915 19.6084C14.9741 19.5273 15.6336 19.311 16.2315 18.972C16.8295 18.6331 17.3538 18.1783 17.7739 17.6343C19.9749 14.9512 20.0003 10.2007 20.0003 9.99995C20.0002 9.78002 19.9277 9.56624 19.794 9.39167C19.6602 9.21709 19.4726 9.09144 19.2603 9.03415Z" fill="white"/>
</g>
<defs>
<clipPath id="clip0_2079_160612">
<rect width="20.0002" height="20.0003" fill="white" transform="translate(0 -0.000244141)"/>
</clipPath>
</defs>
</svg>
