<svg width="26" height="18" viewBox="0 0 26 18" fill="none" xmlns="http://www.w3.org/2000/svg">
<g id="Group">
<g id="Group_2">
<g id="Group_3">
<g id="Group_4">
<path id="Vector" d="M18.3949 2.24986C18.3949 1.38143 17.6843 0.670898 16.8159 0.670898H2.07896C1.21053 0.670898 0.5 1.38143 0.5 2.24986V3.46039H18.3949V2.24986Z" fill="white"/>
</g>
<g id="Group_5">
<path id="Vector_2" d="M17.9738 7.11848C18.1054 7.11848 18.2633 7.11848 18.3949 7.11848V5.27637H0.5V11.6711C0.5 12.5396 1.21053 13.2501 2.07896 13.2501H9.55269C10.6843 9.72376 14.0264 7.11848 17.9738 7.11848ZM6.81583 11.0396H3.34212C3.02633 11.0396 2.78949 10.7764 2.78949 10.4869C2.78949 10.1711 3.05265 9.93429 3.34212 9.93429H6.78952C7.10531 9.93429 7.34215 10.1975 7.34215 10.4869C7.36847 10.8027 7.10531 11.0396 6.81583 11.0396ZM8.84216 8.61849H3.34212C3.02633 8.61849 2.78949 8.38165 2.78949 8.06586C2.78949 7.75007 3.05265 7.51322 3.34212 7.51322H8.84216C9.13164 7.51322 9.3948 7.75007 9.3948 8.06586C9.3948 8.38165 9.13164 8.61849 8.84216 8.61849Z" fill="white"/>
</g>
<g id="Group_6">
<path id="Vector_3" d="M17.2899 8.46094C15.7373 8.59252 14.2899 9.2241 13.1583 10.1715L15.0004 12.0136C15.6583 11.5136 16.4478 11.1715 17.2899 11.0662V8.46094Z" fill="white"/>
</g>
<g id="Group_7">
<path id="Vector_4" d="M10.4469 15.3025H13.0522C13.1838 14.4604 13.4996 13.6709 13.9996 13.013L12.1574 11.1709C11.2101 12.3025 10.6048 13.7235 10.4469 15.3025Z" fill="white"/>
</g>
<g id="Group_8">
<path id="Vector_5" d="M18.6581 8.46094V11.0662C19.5002 11.1978 20.2897 11.5136 20.9476 12.0136L22.7897 10.1715C21.6581 9.2241 20.237 8.59252 18.6581 8.46094Z" fill="white"/>
</g>
<g id="Group_9">
<path id="Vector_6" d="M23.7895 11.1445L21.9474 12.9866C22.4474 13.6445 22.7895 14.434 22.8948 15.2761H25.5C25.3685 13.7235 24.7369 12.3024 23.7895 11.1445Z" fill="white"/>
</g>
<g id="Group_10">
<path id="Vector_7" d="M17.7103 12.4606C17.2893 13.4342 16.5261 15.2764 16.5261 15.8553C16.5261 16.6711 17.184 17.329 17.9998 17.329C18.8156 17.329 19.4735 16.6711 19.4735 15.8553C19.4735 15.2764 18.7103 13.4342 18.2893 12.4606C18.1577 12.1974 17.8156 12.1974 17.7103 12.4606Z" fill="white"/>
</g>
</g>
</g>
</g>
</svg>
