<svg width="60" height="61" viewBox="0 0 60 61" fill="none" xmlns="http://www.w3.org/2000/svg">
<g id="healthicons:money-bag">
<path id="Vector" fill-rule="evenodd" clip-rule="evenodd" d="M30.0488 8.28198C24.4025 8.28198 19.2588 10.147 16.215 11.6707C15.94 11.8082 15.6838 11.9432 15.445 12.0732C14.9725 12.3307 14.57 12.5707 14.25 12.782L17.7125 17.8795L19.3425 18.5282C25.7125 21.742 34.255 21.742 40.6263 18.5282L42.4763 17.5682L45.75 12.782C45.0719 12.3396 44.3668 11.94 43.6388 11.5857C40.61 10.0782 35.5888 8.28198 30.05 8.28198M21.9975 14.052C20.7714 13.8226 19.5604 13.5187 18.3713 13.142C21.2225 11.8757 25.4713 10.532 30.05 10.532C33.2213 10.532 36.22 11.177 38.7 11.9945C35.7938 12.4032 32.6925 13.097 29.7375 13.9507C27.4125 14.6232 24.695 14.5507 21.9975 14.052ZM41.9475 20.382L41.64 20.537C34.6325 24.072 25.3375 24.072 18.33 20.537L18.0388 20.3895C7.51004 31.9407 -0.527462 53.2782 30.0488 53.2782C60.625 53.2782 52.3925 31.5445 41.9475 20.382ZM28.75 30.782C28.087 30.782 27.4511 31.0454 26.9823 31.5142C26.5134 31.9831 26.25 32.6189 26.25 33.282C26.25 33.945 26.5134 34.5809 26.9823 35.0497C27.4511 35.5186 28.087 35.782 28.75 35.782V30.782ZM31.25 28.282V27.032H28.75V28.282C27.424 28.282 26.1522 28.8088 25.2145 29.7464C24.2768 30.6841 23.75 31.9559 23.75 33.282C23.75 34.6081 24.2768 35.8798 25.2145 36.8175C26.1522 37.7552 27.424 38.282 28.75 38.282V43.282C27.6625 43.282 26.7363 42.5882 26.3913 41.6157C26.3401 41.4566 26.2575 41.3094 26.1485 41.1828C26.0394 41.0561 25.906 40.9527 25.7562 40.8785C25.6065 40.8043 25.4433 40.7609 25.2765 40.7508C25.1097 40.7408 24.9425 40.7643 24.7849 40.8199C24.6273 40.8756 24.4825 40.9623 24.359 41.075C24.2355 41.1876 24.1359 41.3238 24.066 41.4757C23.9961 41.6275 23.9573 41.7918 23.952 41.9588C23.9467 42.1259 23.9749 42.2923 24.035 42.4482C24.3798 43.4232 25.0184 44.2673 25.8628 44.8643C26.7072 45.4614 27.7159 45.782 28.75 45.782V47.032H31.25V45.782C32.5761 45.782 33.8479 45.2552 34.7856 44.3175C35.7233 43.3798 36.25 42.1081 36.25 40.782C36.25 39.4559 35.7233 38.1841 34.7856 37.2464C33.8479 36.3088 32.5761 35.782 31.25 35.782V30.782C32.3375 30.782 33.2638 31.4757 33.6088 32.4482C33.66 32.6073 33.7425 32.7546 33.8516 32.8812C33.9607 33.0078 34.0941 33.1113 34.2438 33.1855C34.3936 33.2597 34.5567 33.3031 34.7236 33.3132C34.8904 33.3232 35.0576 33.2997 35.2151 33.244C35.3727 33.1883 35.5176 33.1016 35.641 32.989C35.7645 32.8764 35.8642 32.7401 35.9341 32.5883C36.004 32.4365 36.0428 32.2722 36.0481 32.1052C36.0534 31.9381 36.0252 31.7717 35.965 31.6157C35.6202 30.6408 34.9817 29.7967 34.1373 29.1996C33.2929 28.6026 32.2842 28.282 31.25 28.282ZM31.25 38.282V43.282C31.9131 43.282 32.549 43.0186 33.0178 42.5498C33.4866 42.0809 33.75 41.445 33.75 40.782C33.75 40.1189 33.4866 39.4831 33.0178 39.0142C32.549 38.5454 31.9131 38.282 31.25 38.282Z" fill="#2CA55E"/>
</g>
</svg>
