<svg width="18" height="18" viewBox="0 0 18 18" fill="none" xmlns="http://www.w3.org/2000/svg">
<path id="Vector" d="M8.95829 14.0001C9.24996 14.0001 9.49663 13.8992 9.69829 13.6976C9.89996 13.4959 10.0005 13.2495 9.99996 12.9584C9.99996 12.6667 9.8994 12.4201 9.69829 12.2184C9.49718 12.0167 9.25051 11.9162 8.95829 11.9167C8.66663 11.9167 8.42024 12.0176 8.21913 12.2192C8.01801 12.4209 7.91718 12.6673 7.91663 12.9584C7.91663 13.2501 8.01746 13.4967 8.21913 13.6984C8.42079 13.9001 8.66718 14.0006 8.95829 14.0001ZM8.20829 10.7917H9.74996C9.74996 10.3334 9.80218 9.9723 9.90663 9.70842C10.0111 9.44453 10.3061 9.08342 10.7916 8.62508C11.1527 8.26397 11.4375 7.92008 11.6458 7.59341C11.8541 7.26675 11.9583 6.87453 11.9583 6.41675C11.9583 5.63897 11.6736 5.04175 11.1041 4.62508C10.5347 4.20841 9.86107 4.00008 9.08329 4.00008C8.29163 4.00008 7.6494 4.20841 7.15663 4.62508C6.66385 5.04175 6.31996 5.54175 6.12496 6.12508L7.49996 6.66675C7.5694 6.41675 7.72579 6.14592 7.96913 5.85425C8.21246 5.56258 8.58385 5.41675 9.08329 5.41675C9.52774 5.41675 9.86107 5.53841 10.0833 5.78175C10.3055 6.02508 10.4166 6.2923 10.4166 6.58342C10.4166 6.86119 10.3333 7.12175 10.1666 7.36508C9.99996 7.60841 9.79163 7.83397 9.54163 8.04175C8.93051 8.58342 8.55551 8.99314 8.41663 9.27091C8.27774 9.54869 8.20829 10.0556 8.20829 10.7917ZM8.99996 17.3334C7.84718 17.3334 6.76385 17.1148 5.74996 16.6776C4.73607 16.2404 3.85413 15.6465 3.10413 14.8959C2.35413 14.1459 1.76051 13.264 1.32329 12.2501C0.886071 11.2362 0.667182 10.1529 0.666626 9.00008C0.666626 7.8473 0.885515 6.76397 1.32329 5.75008C1.76107 4.73619 2.35468 3.85425 3.10413 3.10425C3.85413 2.35425 4.73607 1.76064 5.74996 1.32341C6.76385 0.886193 7.84718 0.667304 8.99996 0.666748C10.1527 0.666748 11.2361 0.885637 12.25 1.32341C13.2638 1.76119 14.1458 2.3548 14.8958 3.10425C15.6458 3.85425 16.2397 4.73619 16.6775 5.75008C17.1152 6.76397 17.3338 7.8473 17.3333 9.00008C17.3333 10.1529 17.1144 11.2362 16.6766 12.2501C16.2388 13.264 15.6452 14.1459 14.8958 14.8959C14.1458 15.6459 13.2638 16.2398 12.25 16.6776C11.2361 17.1154 10.1527 17.334 8.99996 17.3334Z" fill="#F9FDFA"/>
</svg>
