<svg width="471" height="146" viewBox="0 0 471 146" fill="none" xmlns="http://www.w3.org/2000/svg">
<circle cx="50.3311" cy="50" r="50" fill="#EFF9F0"/>
<path d="M72.261 46.2276H58.3465C58.2478 45.0603 57.9847 44.0013 57.557 43.0507C57.1459 42.1001 56.5702 41.283 55.8301 40.5992C55.1064 39.8988 54.2265 39.3652 53.1903 38.9983C52.1541 38.6147 50.9781 38.4229 49.6623 38.4229C47.3597 38.4229 45.4107 38.9899 43.8153 40.124C42.2363 41.258 41.0357 42.8839 40.2133 45.0019C39.4074 47.1198 39.0044 49.663 39.0044 52.6315C39.0044 55.7667 39.4156 58.3933 40.238 60.5112C41.0768 62.6124 42.2857 64.1967 43.8646 65.264C45.4436 66.3147 47.3432 66.84 49.5636 66.84C50.8301 66.84 51.9649 66.6816 52.9682 66.3647C53.9715 66.0312 54.8432 65.5559 55.5834 64.9388C56.3235 64.3218 56.9238 63.5797 57.3843 62.7125C57.8613 61.8286 58.182 60.8364 58.3465 59.7357L72.261 59.8358C72.0965 62.0038 71.4962 64.2134 70.46 66.4648C69.4238 68.6994 67.9518 70.7673 66.0439 72.6685C64.1524 74.5529 61.8087 76.0705 59.0126 77.2212C56.2166 78.3719 52.9682 78.9473 49.2676 78.9473C44.6294 78.9473 40.4682 77.9383 36.784 75.9204C33.1163 73.9026 30.2133 70.9341 28.0751 67.0151C25.9534 63.0961 24.8926 58.3015 24.8926 52.6315C24.8926 46.928 25.9781 42.1252 28.1492 38.2228C30.3202 34.3038 33.2478 31.3437 36.9321 29.3425C40.6163 27.3246 44.7281 26.3157 49.2676 26.3157C52.4584 26.3157 55.3942 26.7576 58.0751 27.6415C60.7561 28.5253 63.108 29.8178 65.1311 31.5188C67.1541 33.2031 68.7824 35.2794 70.0159 37.7475C71.2495 40.2157 71.9978 43.0424 72.261 46.2276Z" fill="#219653"/>
<path d="M456.367 80.9354C452.118 80.9354 448.385 80.0547 445.171 78.2932C442.011 76.5316 439.559 74.027 437.816 70.7792C436.072 67.4763 435.201 63.5679 435.201 59.054C435.201 54.5401 436.072 50.6868 437.816 47.494C439.614 44.3013 442.093 41.8516 445.253 40.1452C448.413 38.4387 452.118 37.5854 456.367 37.5854C459.091 37.5854 461.734 38.0258 464.294 38.9066C466.91 39.7323 469.034 40.9434 470.669 42.5397L467.563 49.7234C466.092 48.3473 464.431 47.3289 462.578 46.6683C460.78 45.9527 459.01 45.5949 457.266 45.5949C453.616 45.5949 450.755 46.7509 448.685 49.0629C446.669 51.3749 445.661 54.7328 445.661 59.1366C445.661 63.5404 446.669 66.9258 448.685 69.2929C450.755 71.6599 453.616 72.8434 457.266 72.8434C458.955 72.8434 460.699 72.5132 462.496 71.8526C464.349 71.192 466.038 70.1736 467.563 68.7974L470.669 75.8986C468.98 77.495 466.828 78.7335 464.213 79.6143C461.652 80.4951 459.037 80.9354 456.367 80.9354Z" fill="white"/>
<path d="M418.429 81.1633V37.8088H429.16V81.1633H418.429ZM417.828 29.653V19.1792H429.761V29.653H417.828Z" fill="white"/>
<path d="M384.103 81.1633V48.8834C384.103 47.052 384.046 45.1919 383.932 43.3031C383.874 41.4144 383.731 39.5829 383.502 37.8087H393.89L395.092 49.6561H393.375C393.948 46.7944 394.892 44.4192 396.208 42.5305C397.582 40.6418 399.242 39.2395 401.188 38.3238C403.134 37.4081 405.251 36.9502 407.541 36.9502C408.571 36.9502 409.401 37.0074 410.03 37.1219C410.66 37.1791 411.289 37.3222 411.919 37.5512L411.833 46.9947C410.746 46.5368 409.801 46.2507 409 46.1362C408.256 46.0217 407.312 45.9645 406.167 45.9645C403.706 45.9645 401.617 46.4796 399.9 47.5098C398.24 48.54 396.981 49.9709 396.122 51.8024C395.321 53.6338 394.921 55.7229 394.921 58.0694V81.1633H384.103Z" fill="white"/>
<path d="M369.667 82.0221C364.516 82.0221 360.624 80.6771 357.991 77.9871C355.359 75.2971 354.042 71.2621 354.042 65.8821V45.879H345.715V37.809H354.042V26.7343L364.774 23.9871V37.809H376.363V45.879H364.774V65.1953C364.774 68.1715 365.346 70.2605 366.491 71.4624C367.635 72.6643 369.209 73.2653 371.212 73.2653C372.3 73.2653 373.216 73.1794 373.96 73.0077C374.761 72.836 375.534 72.6071 376.278 72.3209V80.8201C375.305 81.2208 374.217 81.507 373.015 81.6787C371.871 81.9076 370.755 82.0221 369.667 82.0221Z" fill="white"/>
<path d="M314.09 82.0218C310.313 82.0218 306.993 81.1346 304.131 79.3604C301.27 77.5289 299.038 74.9248 297.435 71.548C295.833 68.1712 295.031 64.1362 295.031 59.4431C295.031 54.7499 295.833 50.7435 297.435 47.424C299.038 44.0472 301.27 41.4717 304.131 39.6974C306.993 37.8659 310.313 36.9502 314.09 36.9502C317.753 36.9502 320.958 37.8659 323.705 39.6974C326.51 41.4717 328.37 43.8755 329.286 46.9089H328.341L329.286 37.8087H339.588C339.416 39.5829 339.244 41.3858 339.073 43.2173C338.958 45.0488 338.901 46.8516 338.901 48.6259V81.1633H328.255L328.17 72.2348H329.2C328.284 75.2109 326.424 77.5861 323.62 79.3604C320.815 81.1346 317.639 82.0218 314.09 82.0218ZM317.095 73.7801C320.472 73.7801 323.19 72.6068 325.251 70.2602C327.311 67.8564 328.341 64.2507 328.341 59.4431C328.341 54.6354 327.311 51.0583 325.251 48.7117C323.19 46.3651 320.472 45.1919 317.095 45.1919C313.718 45.1919 310.999 46.3651 308.939 48.7117C306.879 51.0583 305.848 54.6354 305.848 59.4431C305.848 64.2507 306.85 67.8564 308.853 70.2602C310.914 72.6068 313.661 73.7801 317.095 73.7801Z" fill="white"/>
<path d="M219.597 81.1633V48.6259C219.597 46.8516 219.54 45.0488 219.426 43.2173C219.311 41.3858 219.14 39.5829 218.911 37.8087H229.299L230.157 46.3938H229.127C230.329 43.4176 232.16 41.0996 234.621 39.4399C237.14 37.7801 240.116 36.9502 243.55 36.9502C246.984 36.9502 249.817 37.7801 252.049 39.4399C254.338 41.0424 255.941 43.5607 256.857 46.9947H255.483C256.685 43.9041 258.659 41.4717 261.407 39.6974C264.154 37.8659 267.302 36.9502 270.85 36.9502C275.715 36.9502 279.349 38.381 281.753 41.2427C284.157 44.1044 285.359 48.5686 285.359 54.6354V81.1633H274.628V55.0647C274.628 51.6306 274.055 49.1696 272.911 47.6815C271.766 46.1362 269.935 45.3636 267.416 45.3636C264.44 45.3636 262.093 46.4224 260.376 48.54C258.659 50.6004 257.801 53.4049 257.801 56.9534V81.1633H247.07V55.0647C247.07 51.6306 246.497 49.1696 245.353 47.6815C244.208 46.1362 242.376 45.3636 239.858 45.3636C236.882 45.3636 234.535 46.4224 232.818 48.54C231.159 50.6004 230.329 53.4049 230.329 56.9534V81.1633H219.597Z" fill="white"/>
<path d="M196.676 81.1633V37.8088H207.407V81.1633H196.676ZM196.075 29.653V19.1792H208.008V29.653H196.075Z" fill="white"/>
<path d="M173.754 81.1633V17.9773H184.486V81.1633H173.754Z" fill="white"/>
<path d="M143.465 82.0224C137.169 82.0224 131.76 80.7633 127.239 78.245C122.775 75.6695 119.341 72.0638 116.937 67.4278C114.533 62.7347 113.331 57.2116 113.331 50.8587C113.331 44.5057 114.533 39.0113 116.937 34.3754C119.341 29.7394 122.775 26.1623 127.239 23.644C131.76 21.0685 137.169 19.7808 143.465 19.7808C147.7 19.7808 151.506 20.3817 154.883 21.5836C158.317 22.7855 161.264 24.5598 163.725 26.9064L160.12 35.6631C157.43 33.4882 154.826 31.9429 152.307 31.0272C149.846 30.0542 147.013 29.5677 143.808 29.5677C137.684 29.5677 132.991 31.4278 129.729 35.148C126.523 38.811 124.921 44.0479 124.921 50.8587C124.921 57.6695 126.523 62.935 129.729 66.6552C132.991 70.3754 137.684 72.2355 143.808 72.2355C147.013 72.2355 149.846 71.7776 152.307 70.8619C154.826 69.8889 157.43 68.2864 160.12 66.0542L163.725 74.811C161.264 77.1003 158.317 78.8746 154.883 80.1337C151.506 81.3929 147.7 82.0224 143.465 82.0224Z" fill="white"/>
<path d="M129.519 139.27C127.399 139.27 125.599 138.83 124.119 137.95C122.639 137.07 121.499 135.82 120.699 134.2C119.919 132.58 119.529 130.65 119.529 128.41C119.529 126.17 119.919 124.25 120.699 122.65C121.499 121.03 122.639 119.78 124.119 118.9C125.599 118.02 127.399 117.58 129.519 117.58C131.019 117.58 132.359 117.81 133.539 118.27C134.719 118.73 135.749 119.4 136.629 120.28L135.699 122.26C134.739 121.42 133.789 120.81 132.849 120.43C131.909 120.03 130.809 119.83 129.549 119.83C127.129 119.83 125.289 120.58 124.029 122.08C122.769 123.58 122.139 125.69 122.139 128.41C122.139 131.13 122.769 133.25 124.029 134.77C125.289 136.27 127.129 137.02 129.549 137.02C130.809 137.02 131.909 136.83 132.849 136.45C133.789 136.05 134.739 135.42 135.699 134.56L136.629 136.57C135.749 137.43 134.719 138.1 133.539 138.58C132.359 139.04 131.019 139.27 129.519 139.27ZM140.547 139V116.92H142.977V139H140.547ZM147.695 139V123.94H150.125V139H147.695ZM147.395 120.52V117.79H150.395V120.52H147.395ZM154.844 139V127.42C154.844 126.86 154.814 126.29 154.754 125.71C154.714 125.11 154.664 124.52 154.604 123.94H156.944L157.244 127.24H156.884C157.284 126.1 157.914 125.22 158.774 124.6C159.654 123.98 160.714 123.67 161.954 123.67C163.214 123.67 164.234 123.97 165.014 124.57C165.814 125.17 166.354 126.1 166.634 127.36H166.184C166.564 126.22 167.234 125.32 168.194 124.66C169.154 124 170.274 123.67 171.554 123.67C173.214 123.67 174.464 124.15 175.304 125.11C176.144 126.05 176.564 127.54 176.564 129.58V139H174.134V129.73C174.134 128.31 173.884 127.28 173.384 126.64C172.884 125.98 172.084 125.65 170.984 125.65C169.724 125.65 168.724 126.09 167.984 126.97C167.264 127.83 166.904 128.99 166.904 130.45V139H164.474V129.73C164.474 128.31 164.224 127.28 163.724 126.64C163.224 125.98 162.424 125.65 161.324 125.65C160.064 125.65 159.074 126.09 158.354 126.97C157.634 127.83 157.274 128.99 157.274 130.45V139H154.844ZM186.912 139.27C185.572 139.27 184.402 138.96 183.402 138.34C182.402 137.7 181.622 136.8 181.062 135.64C180.522 134.48 180.252 133.09 180.252 131.47C180.252 129.83 180.522 128.43 181.062 127.27C181.622 126.11 182.402 125.22 183.402 124.6C184.402 123.98 185.572 123.67 186.912 123.67C188.272 123.67 189.442 124.02 190.422 124.72C191.422 125.4 192.082 126.33 192.402 127.51H192.042L192.372 123.94H194.712C194.652 124.52 194.592 125.11 194.532 125.71C194.492 126.29 194.472 126.86 194.472 127.42V139H192.042V135.46H192.372C192.052 136.64 191.392 137.57 190.392 138.25C189.392 138.93 188.232 139.27 186.912 139.27ZM187.392 137.29C188.832 137.29 189.972 136.8 190.812 135.82C191.652 134.82 192.072 133.37 192.072 131.47C192.072 129.55 191.652 128.1 190.812 127.12C189.972 126.12 188.832 125.62 187.392 125.62C185.972 125.62 184.832 126.12 183.972 127.12C183.132 128.1 182.712 129.55 182.712 131.47C182.712 133.37 183.132 134.82 183.972 135.82C184.832 136.8 185.972 137.29 187.392 137.29ZM204.51 139.27C203.03 139.27 201.9 138.85 201.12 138.01C200.34 137.15 199.95 135.86 199.95 134.14V125.83H197.01V123.94H199.95V119.83L202.38 119.14V123.94H206.7V125.83H202.38V133.87C202.38 135.07 202.58 135.93 202.98 136.45C203.4 136.95 204.02 137.2 204.84 137.2C205.22 137.2 205.56 137.17 205.86 137.11C206.16 137.03 206.43 136.94 206.67 136.84V138.88C206.39 139 206.05 139.09 205.65 139.15C205.27 139.23 204.89 139.27 204.51 139.27ZM216.202 139.27C213.842 139.27 211.982 138.59 210.622 137.23C209.262 135.85 208.582 133.94 208.582 131.5C208.582 129.92 208.882 128.55 209.482 127.39C210.082 126.21 210.922 125.3 212.002 124.66C213.082 124 214.322 123.67 215.722 123.67C217.102 123.67 218.262 123.96 219.202 124.54C220.142 125.12 220.862 125.95 221.362 127.03C221.862 128.09 222.112 129.35 222.112 130.81V131.71H210.442V130.18H220.522L220.012 130.57C220.012 128.97 219.652 127.72 218.932 126.82C218.212 125.92 217.142 125.47 215.722 125.47C214.222 125.47 213.052 126 212.212 127.06C211.372 128.1 210.952 129.51 210.952 131.29V131.56C210.952 133.44 211.412 134.87 212.332 135.85C213.272 136.81 214.582 137.29 216.262 137.29C217.162 137.29 218.002 137.16 218.782 136.9C219.582 136.62 220.342 136.17 221.062 135.55L221.902 137.26C221.242 137.9 220.402 138.4 219.382 138.76C218.382 139.1 217.322 139.27 216.202 139.27ZM239.382 139.27C238.042 139.27 236.872 138.96 235.872 138.34C234.872 137.7 234.092 136.8 233.532 135.64C232.992 134.48 232.722 133.09 232.722 131.47C232.722 129.83 232.992 128.43 233.532 127.27C234.092 126.11 234.872 125.22 235.872 124.6C236.872 123.98 238.042 123.67 239.382 123.67C240.742 123.67 241.912 124.02 242.892 124.72C243.892 125.4 244.552 126.33 244.872 127.51H244.512L244.842 123.94H247.182C247.122 124.52 247.062 125.11 247.002 125.71C246.962 126.29 246.942 126.86 246.942 127.42V139H244.512V135.46H244.842C244.522 136.64 243.862 137.57 242.862 138.25C241.862 138.93 240.702 139.27 239.382 139.27ZM239.862 137.29C241.302 137.29 242.442 136.8 243.282 135.82C244.122 134.82 244.542 133.37 244.542 131.47C244.542 129.55 244.122 128.1 243.282 127.12C242.442 126.12 241.302 125.62 239.862 125.62C238.442 125.62 237.302 126.12 236.442 127.12C235.602 128.1 235.182 129.55 235.182 131.47C235.182 133.37 235.602 134.82 236.442 135.82C237.302 136.8 238.442 137.29 239.862 137.29ZM257.971 139.27C256.491 139.27 255.201 138.95 254.101 138.31C253.021 137.67 252.181 136.76 251.581 135.58C251.001 134.4 250.711 133 250.711 131.38C250.711 129.74 251.011 128.35 251.611 127.21C252.211 126.05 253.051 125.17 254.131 124.57C255.231 123.97 256.511 123.67 257.971 123.67C258.931 123.67 259.861 123.84 260.761 124.18C261.681 124.52 262.441 125 263.041 125.62L262.171 127.36C261.571 126.78 260.911 126.35 260.191 126.07C259.491 125.79 258.801 125.65 258.121 125.65C256.561 125.65 255.351 126.14 254.491 127.12C253.631 128.1 253.201 129.53 253.201 131.41C253.201 133.27 253.631 134.71 254.491 135.73C255.351 136.75 256.561 137.26 258.121 137.26C258.781 137.26 259.461 137.13 260.161 136.87C260.881 136.61 261.551 136.18 262.171 135.58L263.041 137.29C262.421 137.93 261.651 138.42 260.731 138.76C259.811 139.1 258.891 139.27 257.971 139.27ZM271.834 139.27C270.354 139.27 269.224 138.85 268.444 138.01C267.664 137.15 267.274 135.86 267.274 134.14V125.83H264.334V123.94H267.274V119.83L269.704 119.14V123.94H274.024V125.83H269.704V133.87C269.704 135.07 269.904 135.93 270.304 136.45C270.724 136.95 271.344 137.2 272.164 137.2C272.544 137.2 272.884 137.17 273.184 137.11C273.484 137.03 273.754 136.94 273.994 136.84V138.88C273.714 139 273.374 139.09 272.974 139.15C272.594 139.23 272.214 139.27 271.834 139.27ZM276.982 139V123.94H279.412V139H276.982ZM276.682 120.52V117.79H279.682V120.52H276.682ZM290.311 139.27C288.871 139.27 287.611 138.96 286.531 138.34C285.471 137.7 284.651 136.8 284.071 135.64C283.491 134.46 283.201 133.07 283.201 131.47C283.201 129.85 283.491 128.46 284.071 127.3C284.651 126.14 285.471 125.25 286.531 124.63C287.611 123.99 288.871 123.67 290.311 123.67C291.771 123.67 293.031 123.99 294.091 124.63C295.171 125.25 296.001 126.14 296.581 127.3C297.181 128.46 297.481 129.85 297.481 131.47C297.481 133.07 297.181 134.46 296.581 135.64C296.001 136.8 295.171 137.7 294.091 138.34C293.031 138.96 291.771 139.27 290.311 139.27ZM290.311 137.29C291.751 137.29 292.891 136.8 293.731 135.82C294.571 134.82 294.991 133.37 294.991 131.47C294.991 129.55 294.561 128.1 293.701 127.12C292.861 126.12 291.731 125.62 290.311 125.62C288.891 125.62 287.761 126.12 286.921 127.12C286.081 128.1 285.661 129.55 285.661 131.47C285.661 133.37 286.081 134.82 286.921 135.82C287.761 136.8 288.891 137.29 290.311 137.29ZM301.269 139V127.42C301.269 126.86 301.239 126.29 301.179 125.71C301.139 125.11 301.089 124.52 301.029 123.94H303.369L303.669 127.24H303.309C303.749 126.08 304.449 125.2 305.409 124.6C306.389 123.98 307.519 123.67 308.799 123.67C310.579 123.67 311.919 124.15 312.819 125.11C313.739 126.05 314.199 127.54 314.199 129.58V139H311.769V129.73C311.769 128.31 311.479 127.28 310.899 126.64C310.339 125.98 309.459 125.65 308.259 125.65C306.859 125.65 305.749 126.08 304.929 126.94C304.109 127.8 303.699 128.95 303.699 130.39V139H301.269ZM319.628 142.42L318.488 141.55C319.028 140.99 319.378 140.46 319.538 139.96C319.718 139.48 319.808 138.99 319.808 138.49L320.348 139H318.368V135.94H321.428V138.1C321.428 138.9 321.298 139.65 321.038 140.35C320.778 141.07 320.308 141.76 319.628 142.42ZM338.506 139.27C337.306 139.27 336.186 139.11 335.146 138.79C334.106 138.45 333.246 137.98 332.566 137.38L333.406 135.67C334.146 136.25 334.946 136.68 335.806 136.96C336.686 137.24 337.596 137.38 338.536 137.38C339.736 137.38 340.636 137.17 341.236 136.75C341.856 136.31 342.166 135.71 342.166 134.95C342.166 134.37 341.966 133.91 341.566 133.57C341.186 133.21 340.556 132.93 339.676 132.73L336.886 132.16C335.606 131.88 334.646 131.41 334.006 130.75C333.366 130.07 333.046 129.21 333.046 128.17C333.046 127.29 333.276 126.52 333.736 125.86C334.196 125.18 334.866 124.65 335.746 124.27C336.626 123.87 337.656 123.67 338.836 123.67C339.936 123.67 340.946 123.84 341.866 124.18C342.806 124.5 343.586 124.97 344.206 125.59L343.336 127.27C342.736 126.69 342.046 126.26 341.266 125.98C340.506 125.68 339.716 125.53 338.896 125.53C337.716 125.53 336.826 125.77 336.226 126.25C335.646 126.71 335.356 127.32 335.356 128.08C335.356 128.66 335.536 129.14 335.896 129.52C336.276 129.88 336.856 130.15 337.636 130.33L340.426 130.9C341.786 131.2 342.796 131.67 343.456 132.31C344.136 132.93 344.476 133.77 344.476 134.83C344.476 135.73 344.226 136.52 343.726 137.2C343.226 137.86 342.526 138.37 341.626 138.73C340.746 139.09 339.706 139.27 338.506 139.27ZM348.379 139V123.94H350.809V139H348.379ZM348.079 120.52V117.79H351.079V120.52H348.079ZM355.527 139V127.42C355.527 126.86 355.497 126.29 355.437 125.71C355.397 125.11 355.347 124.52 355.287 123.94H357.627L357.927 127.24H357.567C357.967 126.1 358.597 125.22 359.457 124.6C360.337 123.98 361.397 123.67 362.637 123.67C363.897 123.67 364.917 123.97 365.697 124.57C366.497 125.17 367.037 126.1 367.317 127.36H366.867C367.247 126.22 367.917 125.32 368.877 124.66C369.837 124 370.957 123.67 372.237 123.67C373.897 123.67 375.147 124.15 375.987 125.11C376.827 126.05 377.247 127.54 377.247 129.58V139H374.817V129.73C374.817 128.31 374.567 127.28 374.067 126.64C373.567 125.98 372.767 125.65 371.667 125.65C370.407 125.65 369.407 126.09 368.667 126.97C367.947 127.83 367.587 128.99 367.587 130.45V139H365.157V129.73C365.157 128.31 364.907 127.28 364.407 126.64C363.907 125.98 363.107 125.65 362.007 125.65C360.747 125.65 359.757 126.09 359.037 126.97C358.317 127.83 357.957 128.99 357.957 130.45V139H355.527ZM381.865 145.48V127.42C381.865 126.86 381.835 126.29 381.775 125.71C381.735 125.11 381.685 124.52 381.625 123.94H383.965L384.295 127.51H383.935C384.255 126.33 384.905 125.4 385.885 124.72C386.865 124.02 388.035 123.67 389.395 123.67C390.755 123.67 391.925 123.98 392.905 124.6C393.905 125.22 394.685 126.11 395.245 127.27C395.805 128.43 396.085 129.83 396.085 131.47C396.085 133.09 395.805 134.48 395.245 135.64C394.705 136.8 393.935 137.7 392.935 138.34C391.935 138.96 390.755 139.27 389.395 139.27C388.055 139.27 386.895 138.93 385.915 138.25C384.935 137.57 384.285 136.64 383.965 135.46H384.295V145.48H381.865ZM388.915 137.29C390.355 137.29 391.495 136.8 392.335 135.82C393.195 134.82 393.625 133.37 393.625 131.47C393.625 129.55 393.195 128.1 392.335 127.12C391.495 126.12 390.355 125.62 388.915 125.62C387.495 125.62 386.355 126.12 385.495 127.12C384.655 128.1 384.235 129.55 384.235 131.47C384.235 133.37 384.655 134.82 385.495 135.82C386.355 136.8 387.495 137.29 388.915 137.29ZM399.853 139V116.92H402.283V139H399.853ZM407.002 139V123.94H409.432V139H407.002ZM406.702 120.52V117.79H409.702V120.52H406.702ZM414.93 139V125.83H411.99V123.94H415.59L414.93 124.57V122.05C414.93 120.35 415.35 119.05 416.19 118.15C417.05 117.25 418.27 116.8 419.85 116.8C420.23 116.8 420.63 116.84 421.05 116.92C421.49 116.98 421.86 117.07 422.16 117.19V119.2C421.92 119.1 421.62 119.02 421.26 118.96C420.92 118.88 420.57 118.84 420.21 118.84C419.27 118.84 418.56 119.12 418.08 119.68C417.6 120.24 417.36 121.1 417.36 122.26V124.45L416.97 123.94H426.63V139H424.2V125.83H417.36V139H414.93ZM423.93 120.52V117.79H426.93V120.52H423.93ZM438.067 139.27C435.707 139.27 433.847 138.59 432.487 137.23C431.127 135.85 430.447 133.94 430.447 131.5C430.447 129.92 430.747 128.55 431.347 127.39C431.947 126.21 432.787 125.3 433.867 124.66C434.947 124 436.187 123.67 437.587 123.67C438.967 123.67 440.127 123.96 441.067 124.54C442.007 125.12 442.727 125.95 443.227 127.03C443.727 128.09 443.977 129.35 443.977 130.81V131.71H432.307V130.18H442.387L441.877 130.57C441.877 128.97 441.517 127.72 440.797 126.82C440.077 125.92 439.007 125.47 437.587 125.47C436.087 125.47 434.917 126 434.077 127.06C433.237 128.1 432.817 129.51 432.817 131.29V131.56C432.817 133.44 433.277 134.87 434.197 135.85C435.137 136.81 436.447 137.29 438.127 137.29C439.027 137.29 439.867 137.16 440.647 136.9C441.447 136.62 442.207 136.17 442.927 135.55L443.767 137.26C443.107 137.9 442.267 138.4 441.247 138.76C440.247 139.1 439.187 139.27 438.067 139.27ZM453.395 139.27C452.075 139.27 450.915 138.96 449.915 138.34C448.915 137.7 448.135 136.8 447.575 135.64C447.035 134.48 446.765 133.09 446.765 131.47C446.765 129.83 447.035 128.43 447.575 127.27C448.135 126.11 448.915 125.22 449.915 124.6C450.915 123.98 452.075 123.67 453.395 123.67C454.755 123.67 455.925 124.01 456.905 124.69C457.905 125.37 458.575 126.29 458.915 127.45H458.555V116.92H460.985V139H458.585V135.4H458.915C458.595 136.6 457.935 137.55 456.935 138.25C455.935 138.93 454.755 139.27 453.395 139.27ZM453.905 137.29C455.325 137.29 456.465 136.8 457.325 135.82C458.185 134.82 458.615 133.37 458.615 131.47C458.615 129.55 458.185 128.1 457.325 127.12C456.465 126.12 455.325 125.62 453.905 125.62C452.485 125.62 451.345 126.12 450.485 127.12C449.645 128.1 449.225 129.55 449.225 131.47C449.225 133.37 449.645 134.82 450.485 135.82C451.345 136.8 452.485 137.29 453.905 137.29ZM465.983 133.48L465.233 117.85H468.233L467.483 133.48H465.983ZM465.203 139V135.94H468.263V139H465.203Z" fill="white"/>
</svg>
