<svg width="31" height="31" viewBox="0 0 31 31" fill="none" xmlns="http://www.w3.org/2000/svg">
<path d="M15.5 28C8.59625 28 3 22.4037 3 15.5C3 8.59625 8.59625 3 15.5 3C22.4037 3 28 8.59625 28 15.5C28 22.4037 22.4037 28 15.5 28ZM14.25 16.49V20.5H16.75V16.49C17.408 16.2028 17.9471 15.6978 18.2765 15.06C18.606 14.4221 18.7058 13.6902 18.5591 12.9874C18.4124 12.2846 18.0282 11.6538 17.4711 11.2009C16.914 10.7481 16.2179 10.5009 15.5 10.5009C14.7821 10.5009 14.086 10.7481 13.5289 11.2009C12.9718 11.6538 12.5876 12.2846 12.4409 12.9874C12.2942 13.6902 12.394 14.4221 12.7235 15.06C13.0529 15.6978 13.592 16.2028 14.25 16.49Z" fill="#0E6E36"/>
</svg>
