<svg width="157" height="82" viewBox="0 0 157 82" fill="none" xmlns="http://www.w3.org/2000/svg">
<path d="M122.557 39.8437C121.616 39.8437 120.789 39.6486 120.078 39.2585C119.378 38.8684 118.835 38.3137 118.449 37.5945C118.063 36.8631 117.87 35.9976 117.87 34.9979C117.87 33.9983 118.063 33.145 118.449 32.4379C118.847 31.7309 119.396 31.1884 120.096 30.8105C120.795 30.4326 121.616 30.2437 122.557 30.2437C123.16 30.2437 123.745 30.3412 124.313 30.5362C124.892 30.7191 125.362 30.9873 125.724 31.3408L125.036 32.9317C124.711 32.6269 124.343 32.4014 123.932 32.2551C123.534 32.0966 123.142 32.0174 122.756 32.0174C121.948 32.0174 121.314 32.2734 120.856 32.7854C120.409 33.2974 120.186 34.041 120.186 35.0162C120.186 35.9915 120.409 36.7412 120.856 37.2654C121.314 37.7896 121.948 38.0517 122.756 38.0517C123.13 38.0517 123.516 37.9785 123.914 37.8322C124.325 37.6859 124.699 37.4604 125.036 37.1557L125.724 38.7282C125.35 39.0817 124.874 39.356 124.294 39.5511C123.727 39.7461 123.148 39.8437 122.557 39.8437Z" fill="white"/>
<path d="M113.536 40V30.405H115.911V40H113.536ZM113.403 28.6V26.282H116.044V28.6H113.403Z" fill="white"/>
<path d="M105.658 40.0001V32.8561C105.658 32.4508 105.646 32.0391 105.62 31.6211C105.608 31.2031 105.576 30.7978 105.525 30.4051H107.824L108.09 33.0271H107.71C107.837 32.3938 108.046 31.8681 108.337 31.4501C108.641 31.0321 109.009 30.7218 109.439 30.5191C109.87 30.3164 110.339 30.2151 110.845 30.2151C111.073 30.2151 111.257 30.2278 111.396 30.2531C111.536 30.2658 111.675 30.2974 111.814 30.3481L111.795 32.4381C111.555 32.3368 111.346 32.2734 111.168 32.2481C111.004 32.2228 110.795 32.2101 110.541 32.2101C109.997 32.2101 109.534 32.3241 109.154 32.5521C108.787 32.7801 108.508 33.0968 108.318 33.5021C108.141 33.9074 108.052 34.3698 108.052 34.8891V40.0001H105.658Z" fill="white"/>
<path d="M102.182 40.1899C101.042 40.1899 100.181 39.8923 99.5983 39.2969C99.0157 38.7016 98.7243 37.8086 98.7243 36.6179V32.1909H96.8813V30.4049H98.7243V27.9539L101.099 27.3459V30.4049H103.664V32.1909H101.099V36.4659C101.099 37.1246 101.226 37.5869 101.479 37.8529C101.733 38.1189 102.081 38.2519 102.524 38.2519C102.765 38.2519 102.968 38.2329 103.132 38.1949C103.31 38.1569 103.481 38.1063 103.645 38.0429V39.9239C103.43 40.0126 103.189 40.0759 102.923 40.1139C102.67 40.1646 102.423 40.1899 102.182 40.1899Z" fill="white"/>
<path d="M89.6008 40.1901C88.7648 40.1901 88.0301 39.9938 87.3968 39.6011C86.7635 39.1958 86.2695 38.6194 85.9148 37.8721C85.5601 37.1248 85.3828 36.2318 85.3828 35.1931C85.3828 34.1544 85.5601 33.2678 85.9148 32.5331C86.2695 31.7858 86.7635 31.2158 87.3968 30.8231C88.0301 30.4178 88.7648 30.2151 89.6008 30.2151C90.4115 30.2151 91.1208 30.4178 91.7288 30.8231C92.3495 31.2158 92.7611 31.7478 92.9638 32.4191H92.7548L92.9638 30.4051H95.2438C95.2058 30.7978 95.1678 31.1968 95.1298 31.6021C95.1045 32.0074 95.0918 32.4064 95.0918 32.7991V40.0001H92.7358L92.7168 38.0241H92.9448C92.7421 38.6828 92.3305 39.2084 91.7098 39.6011C91.0891 39.9938 90.3861 40.1901 89.6008 40.1901ZM90.2658 38.3661C91.0131 38.3661 91.6148 38.1064 92.0708 37.5871C92.5268 37.0551 92.7548 36.2571 92.7548 35.1931C92.7548 34.1291 92.5268 33.3374 92.0708 32.8181C91.6148 32.2988 91.0131 32.0391 90.2658 32.0391C89.5185 32.0391 88.9168 32.2988 88.4608 32.8181C88.0048 33.3374 87.7768 34.1291 87.7768 35.1931C87.7768 36.2571 87.9985 37.0551 88.4418 37.5871C88.8978 38.1064 89.5058 38.3661 90.2658 38.3661Z" fill="white"/>
<path d="M68.4069 40.0001V32.7991C68.4069 32.4064 68.3942 32.0074 68.3689 31.6021C68.3435 31.1968 68.3055 30.7978 68.2549 30.4051H70.5539L70.7439 32.3051H70.5159C70.7819 31.6464 71.1872 31.1334 71.7319 30.7661C72.2892 30.3988 72.9479 30.2151 73.7079 30.2151C74.4679 30.2151 75.0949 30.3988 75.5889 30.7661C76.0955 31.1208 76.4502 31.6781 76.6529 32.4381H76.3489C76.6149 31.7541 77.0519 31.2158 77.6599 30.8231C78.2679 30.4178 78.9646 30.2151 79.7499 30.2151C80.8266 30.2151 81.6309 30.5318 82.1629 31.1651C82.6949 31.7984 82.9609 32.7864 82.9609 34.1291V40.0001H80.5859V34.2241C80.5859 33.4641 80.4592 32.9194 80.2059 32.5901C79.9525 32.2481 79.5472 32.0771 78.9899 32.0771C78.3312 32.0771 77.8119 32.3114 77.4319 32.7801C77.0519 33.2361 76.8619 33.8568 76.8619 34.6421V40.0001H74.4869V34.2241C74.4869 33.4641 74.3602 32.9194 74.1069 32.5901C73.8536 32.2481 73.4482 32.0771 72.8909 32.0771C72.2322 32.0771 71.7129 32.3114 71.3329 32.7801C70.9656 33.2361 70.7819 33.8568 70.7819 34.6421V40.0001H68.4069Z" fill="white"/>
<path d="M63.0529 40V30.405H65.4279V40H63.0529ZM62.9199 28.6V26.282H65.5609V28.6H62.9199Z" fill="white"/>
<path d="M57.6987 40.0001V26.0161H60.0737V40.0001H57.6987Z" fill="white"/>
<path d="M50.7139 40.19C49.3206 40.19 48.1236 39.9114 47.1229 39.354C46.1349 38.784 45.3749 37.986 44.8429 36.96C44.3109 35.9214 44.0449 34.699 44.0449 33.293C44.0449 31.887 44.3109 30.671 44.8429 29.645C45.3749 28.619 46.1349 27.8274 47.1229 27.27C48.1236 26.7 49.3206 26.415 50.7139 26.415C51.6513 26.415 52.4936 26.548 53.2409 26.814C54.0009 27.08 54.6533 27.4727 55.1979 27.992L54.3999 29.93C53.8046 29.4487 53.2283 29.1067 52.6709 28.904C52.1263 28.6887 51.4993 28.581 50.7899 28.581C49.4346 28.581 48.3959 28.9927 47.6739 29.816C46.9646 30.6267 46.6099 31.7857 46.6099 33.293C46.6099 34.8004 46.9646 35.9657 47.6739 36.789C48.3959 37.6124 49.4346 38.024 50.7899 38.024C51.4993 38.024 52.1263 37.9227 52.6709 37.72C53.2283 37.5047 53.8046 37.15 54.3999 36.656L55.1979 38.594C54.6533 39.1007 54.0009 39.4934 53.2409 39.772C52.4936 40.0507 51.6513 40.19 50.7139 40.19Z" fill="white"/>
<path d="M41 33C41 41.8366 33.8366 49 25 49C16.1634 49 9 41.8366 9 33C9 24.1634 16.1634 17 25 17C33.8366 17 41 24.1634 41 33Z" fill="#EFF9F0"/>
<path d="M32 31.4316H27.5937C27.5625 31.0545 27.4792 30.7125 27.3437 30.4054C27.2135 30.0984 27.0312 29.8344 26.7969 29.6136C26.5677 29.3874 26.2891 29.215 25.9609 29.0965C25.6328 28.9726 25.2604 28.9106 24.8437 28.9106C24.1146 28.9106 23.4974 29.0938 22.9922 29.4601C22.4922 29.8264 22.112 30.3516 21.8516 31.0356C21.5964 31.7197 21.4687 32.5412 21.4687 33.5C21.4687 34.5127 21.599 35.3611 21.8594 36.0452C22.125 36.7239 22.5078 37.2356 23.0078 37.5803C23.5078 37.9197 24.1094 38.0894 24.8125 38.0894C25.2135 38.0894 25.5729 38.0382 25.8906 37.9358C26.2083 37.8281 26.4844 37.6746 26.7187 37.4753C26.9531 37.276 27.1432 37.0363 27.2891 36.7562C27.4401 36.4707 27.5417 36.1502 27.5937 35.7947L32 35.827C31.9479 36.5273 31.7578 37.241 31.4297 37.9682C31.1016 38.69 30.6354 39.3579 30.0312 39.972C29.4323 40.5806 28.6901 41.0708 27.8047 41.4425C26.9193 41.8142 25.8906 42 24.7187 42C23.25 42 21.9323 41.6741 20.7656 41.0223C19.6042 40.3706 18.6849 39.4118 18.0078 38.1459C17.3359 36.8801 17 35.3314 17 33.5C17 31.6578 17.3437 30.1065 18.0312 28.846C18.7187 27.5802 19.6458 26.624 20.8125 25.9777C21.9792 25.3259 23.2812 25 24.7187 25C25.7292 25 26.6589 25.1427 27.5078 25.4282C28.3568 25.7137 29.1016 26.1312 29.7422 26.6806C30.3828 27.2247 30.8984 27.8953 31.2891 28.6925C31.6797 29.4897 31.9167 30.4027 32 31.4316Z" fill="#219653"/>
</svg>
