<svg width="30" height="31" viewBox="0 0 30 31" fill="none" xmlns="http://www.w3.org/2000/svg">
<g id="material-symbols:propane-tank">
<path id="Vector" d="M5 16.8101V13.0601C5 11.8726 5.35417 10.8413 6.0625 9.96631C6.77083 9.09131 7.66667 8.50798 8.75 8.21631V5.56006C8.75 4.87256 8.995 4.28423 9.485 3.79506C9.975 3.30589 10.5633 3.06089 11.25 3.06006H18.75C19.4375 3.06006 20.0262 3.30506 20.5163 3.79506C21.0063 4.28506 21.2508 4.87339 21.25 5.56006V8.21631C22.3333 8.50798 23.2292 9.09131 23.9375 9.96631C24.6458 10.8413 25 11.8726 25 13.0601V16.8101H5ZM10 28.0601C8.625 28.0601 7.44792 27.5705 6.46875 26.5913C5.48958 25.6121 5 24.4351 5 23.0601V19.3101H25V23.0601C25 24.4351 24.5104 25.6121 23.5312 26.5913C22.5521 27.5705 21.375 28.0601 20 28.0601H10ZM11.25 8.06006H13.75C13.75 7.70589 13.87 7.40923 14.11 7.17006C14.35 6.93089 14.6467 6.81089 15 6.81006C15.3542 6.81006 15.6513 6.93006 15.8913 7.17006C16.1313 7.41006 16.2508 7.70673 16.25 8.06006H18.75V5.56006H11.25V8.06006Z" fill="#FA9805"/>
</g>
</svg>
