<svg width="30" height="31" viewBox="0 0 30 31" fill="none" xmlns="http://www.w3.org/2000/svg">
<g id="mdi:gas">
<path id="Vector" d="M22.0749 14.5601C21.7874 14.1851 21.4374 13.8601 21.1124 13.5351C20.2749 12.7851 19.3249 12.2476 18.5249 11.4601C16.6624 9.63506 16.2499 6.62256 17.4374 4.31006C16.2499 4.59756 15.2124 5.24756 14.3249 5.96006C11.0874 8.56006 9.81244 13.1476 11.3374 17.0851C11.3874 17.2101 11.4374 17.3351 11.4374 17.4976C11.4374 17.7726 11.2499 18.0226 10.9999 18.1226C10.7124 18.2476 10.4124 18.1726 10.1749 17.9726C10.1036 17.9136 10.0442 17.8414 9.99994 17.7601C8.58744 15.9726 8.36244 13.4101 9.31244 11.3601C7.22494 13.0601 6.08744 15.9351 6.24994 18.6476C6.32494 19.2726 6.39994 19.8976 6.61244 20.5226C6.78744 21.2726 7.12494 22.0226 7.49994 22.6851C8.84994 24.8476 11.1874 26.3976 13.6999 26.7101C16.3749 27.0476 19.2374 26.5601 21.2874 24.7101C23.5749 22.6351 24.3749 19.3101 23.1999 16.4601L23.0374 16.1351C22.7749 15.5601 22.0749 14.5601 22.0749 14.5601ZM18.1249 22.4351C17.7749 22.7351 17.1999 23.0601 16.7499 23.1851C15.3499 23.6851 13.9499 22.9851 13.1249 22.1601C14.6124 21.8101 15.4999 20.7101 15.7624 19.5976C15.9749 18.5976 15.5749 17.7726 15.4124 16.8101C15.2624 15.8851 15.2874 15.0976 15.6249 14.2351C15.8624 14.7101 16.1124 15.1851 16.4124 15.5601C17.3749 16.8101 18.8874 17.3601 19.2124 19.0601C19.2624 19.2351 19.2874 19.4101 19.2874 19.5976C19.3249 20.6226 18.8749 21.7476 18.1249 22.4351Z" fill="#2CA55E"/>
</g>
</svg>
