<svg width="60" height="61" viewBox="0 0 60 61" fill="none" xmlns="http://www.w3.org/2000/svg">
<g id="mdi:users">
<path id="Vector" d="M40 43.2819V48.2819H5V43.2819C5 43.2819 5 33.2819 22.5 33.2819C40 33.2819 40 43.2819 40 43.2819ZM31.25 19.5319C31.25 17.8013 30.7368 16.1096 29.7754 14.6706C28.8139 13.2317 27.4473 12.1102 25.8485 11.4479C24.2496 10.7857 22.4903 10.6124 20.793 10.95C19.0956 11.2876 17.5365 12.121 16.3128 13.3447C15.0891 14.5684 14.2558 16.1275 13.9181 17.8248C13.5805 19.5222 13.7538 21.2815 14.4161 22.8804C15.0783 24.4792 16.1998 25.8458 17.6388 26.8072C19.0777 27.7687 20.7694 28.2819 22.5 28.2819C24.8206 28.2819 27.0462 27.36 28.6872 25.7191C30.3281 24.0781 31.25 21.8525 31.25 19.5319ZM39.85 33.2819C41.3869 34.4712 42.6444 35.983 43.5342 37.7106C44.424 39.4383 44.9243 41.34 45 43.2819V48.2819H55V43.2819C55 43.2819 55 34.2069 39.85 33.2819ZM37.5 10.7819C35.7792 10.7723 34.0963 11.2868 32.675 12.2569C34.1936 14.3787 35.0101 16.9226 35.0101 19.5319C35.0101 22.1412 34.1936 24.685 32.675 26.8069C34.0963 27.777 35.7792 28.2915 37.5 28.2819C39.8206 28.2819 42.0462 27.36 43.6872 25.7191C45.3281 24.0781 46.25 21.8525 46.25 19.5319C46.25 17.2112 45.3281 14.9856 43.6872 13.3447C42.0462 11.7037 39.8206 10.7819 37.5 10.7819Z" fill="#2CA55E"/>
</g>
</svg>
