<svg width="20" height="21" viewBox="0 0 20 21" fill="none" xmlns="http://www.w3.org/2000/svg">
<g id="mingcute:target-line">
<g id="Group">
<path id="Vector" d="M10.0001 1.73047C10.3126 1.73047 10.6209 1.74714 10.9251 1.7813C11.0339 1.79334 11.1392 1.82669 11.2351 1.87943C11.331 1.93218 11.4155 2.0033 11.484 2.08873C11.5524 2.17416 11.6033 2.27223 11.6338 2.37733C11.6643 2.48244 11.6738 2.59252 11.6617 2.7013C11.6497 2.81008 11.6164 2.91542 11.5636 3.01131C11.5109 3.10721 11.4397 3.19177 11.3543 3.26017C11.2689 3.32858 11.1708 3.37949 11.0657 3.40999C10.9606 3.4405 10.8505 3.45001 10.7417 3.43797C9.36845 3.28434 7.98135 3.56125 6.77231 4.2304C5.56327 4.89956 4.59204 5.92788 3.99297 7.17313C3.3939 8.41839 3.19658 9.81903 3.42832 11.1813C3.66007 12.5436 4.30941 13.8002 5.28653 14.7774C6.26366 15.7545 7.52027 16.4038 8.88256 16.6356C10.2449 16.8673 11.6455 16.67 12.8908 16.0709C14.136 15.4718 15.1643 14.5006 15.8335 13.2916C16.5026 12.0825 16.7795 10.6954 16.6259 9.32213C16.6139 9.21336 16.6234 9.10327 16.6539 8.99817C16.6844 8.89306 16.7353 8.795 16.8037 8.70957C16.9419 8.53703 17.1429 8.42645 17.3626 8.40213C17.5823 8.37782 17.8026 8.44178 17.9751 8.57993C18.0606 8.64834 18.1317 8.7329 18.1844 8.82879C18.2372 8.92468 18.2705 9.03002 18.2826 9.1388C18.3159 9.44297 18.3334 9.7513 18.3334 10.0638C18.3334 14.6663 14.6026 18.3971 10.0001 18.3971C5.39758 18.3971 1.66675 14.6663 1.66675 10.0638C1.66675 5.4613 5.39758 1.73047 10.0001 1.73047ZM9.97341 6.62797C10.0283 6.8419 9.99608 7.06889 9.88373 7.25906C9.77138 7.44922 9.58813 7.58701 9.37425 7.64214C8.78664 7.79606 8.27511 8.15853 7.93511 8.66189C7.59511 9.16526 7.44988 9.77514 7.5265 10.3777C7.60312 10.9803 7.89637 11.5344 8.35153 11.9367C8.80668 12.3389 9.39265 12.5618 10.0001 12.5638C10.5544 12.5637 11.0931 12.3796 11.5314 12.0402C11.9697 11.7008 12.2829 11.2255 12.4217 10.6888C12.4808 10.4791 12.6197 10.3009 12.8085 10.1923C12.9974 10.0837 13.2213 10.0534 13.4323 10.1079C13.6432 10.1624 13.8244 10.2973 13.9371 10.4837C14.0498 10.6702 14.0849 10.8934 14.0351 11.1055C13.7794 12.0854 13.1758 12.9388 12.3369 13.5061C11.498 14.0735 10.4812 14.316 9.47655 14.1884C8.47188 14.0608 7.54803 13.5718 6.87759 12.8127C6.20714 12.0537 5.83597 11.0765 5.83341 10.0638C5.83356 9.14003 6.14056 8.24248 6.70619 7.51213C7.27183 6.78178 8.06405 6.26002 8.95841 6.0288C9.0644 6.00148 9.17473 5.99531 9.28311 6.01064C9.39148 6.02597 9.49577 6.0625 9.59003 6.11814C9.68428 6.17378 9.76665 6.24744 9.83243 6.33492C9.89822 6.42239 9.94612 6.52197 9.97341 6.62797ZM15.4201 1.8363C15.5722 1.89937 15.7022 2.00608 15.7937 2.14298C15.8852 2.27987 15.9341 2.44081 15.9342 2.60547V4.13047H17.4584C17.6232 4.1305 17.7843 4.1794 17.9213 4.27097C18.0583 4.36254 18.1651 4.49267 18.2281 4.64492C18.2912 4.79717 18.3077 4.9647 18.2756 5.12633C18.2434 5.28796 18.1641 5.43643 18.0476 5.55297L15.1001 8.49714C14.9438 8.65343 14.7319 8.74125 14.5109 8.7413H12.5001L10.9767 10.2655C10.8204 10.4218 10.6083 10.5097 10.3872 10.5097C10.166 10.5097 9.95395 10.4218 9.79758 10.2655C9.64121 10.1091 9.55337 9.89702 9.55337 9.67589C9.55337 9.45475 9.64121 9.24267 9.79758 9.0863L11.3217 7.5638V5.55214C11.3218 5.33114 11.4096 5.11921 11.5659 4.96297L14.5117 2.0163C14.6283 1.89969 14.7768 1.82027 14.9385 1.78808C15.1002 1.75589 15.2678 1.77238 15.4201 1.83547M14.2676 4.6163L12.9884 5.89714V7.07547H14.1667L15.4467 5.7963H15.1009C14.8799 5.7963 14.6679 5.7085 14.5117 5.55222C14.3554 5.39594 14.2676 5.18398 14.2676 4.96297V4.6163Z" fill="#BABBBA"/>
</g>
</g>
</svg>
