<svg width="26" height="26" viewBox="0 0 26 26" fill="none" xmlns="http://www.w3.org/2000/svg">
<path d="M12 6.75V0H5.25C4.65326 0 4.08097 0.237053 3.65901 0.65901C3.23705 1.08097 3 1.65326 3 2.25V18.75C3 19.3467 3.23705 19.919 3.65901 20.341C4.08097 20.7629 4.65326 21 5.25 21H10.8105C10.4093 19.5869 10.3927 18.0924 10.7624 16.6707C11.132 15.2491 11.8746 13.9519 12.9132 12.9132C13.9519 11.8746 15.2491 11.132 16.6707 10.7624C18.0924 10.3927 19.5869 10.4093 21 10.8105V9H14.25C13.6533 9 13.081 8.76295 12.659 8.34099C12.2371 7.91903 12 7.34674 12 6.75ZM6 5.25C6 5.05109 6.07902 4.86032 6.21967 4.71967C6.36032 4.57902 6.55109 4.5 6.75 4.5H9.75C9.94891 4.5 10.1397 4.57902 10.2803 4.71967C10.421 4.86032 10.5 5.05109 10.5 5.25C10.5 5.44891 10.421 5.63968 10.2803 5.78033C10.1397 5.92098 9.94891 6 9.75 6H6.75C6.55109 6 6.36032 5.92098 6.21967 5.78033C6.07902 5.63968 6 5.44891 6 5.25ZM6.75 7.5H9.75C9.94891 7.5 10.1397 7.57902 10.2803 7.71967C10.421 7.86032 10.5 8.05109 10.5 8.25C10.5 8.44891 10.421 8.63968 10.2803 8.78033C10.1397 8.92098 9.94891 9 9.75 9H6.75C6.55109 9 6.36032 8.92098 6.21967 8.78033C6.07902 8.63968 6 8.44891 6 8.25C6 8.05109 6.07902 7.86032 6.21967 7.71967C6.36032 7.57902 6.55109 7.5 6.75 7.5ZM6 11.25C6 11.0511 6.07902 10.8603 6.21967 10.7197C6.36032 10.579 6.55109 10.5 6.75 10.5H9.75C9.94891 10.5 10.1397 10.579 10.2803 10.7197C10.421 10.8603 10.5 11.0511 10.5 11.25C10.5 11.4489 10.421 11.6397 10.2803 11.7803C10.1397 11.921 9.94891 12 9.75 12H6.75C6.55109 12 6.36032 11.921 6.21967 11.7803C6.07902 11.6397 6 11.4489 6 11.25ZM5.25 22.5H11.4C11.6745 23.037 12.006 23.5395 12.3855 24H5.25C3.85761 24 2.52226 23.4469 1.53769 22.4623C0.553123 21.4777 0 20.1424 0 18.75V17.25C0 17.0511 0.0790178 16.8603 0.21967 16.7197C0.360322 16.579 0.551088 16.5 0.75 16.5C0.948912 16.5 1.13968 16.579 1.28033 16.7197C1.42098 16.8603 1.5 17.0511 1.5 17.25V18.75C1.5 19.7446 1.89509 20.6984 2.59835 21.4016C3.30161 22.1049 4.25544 22.5 5.25 22.5ZM13.5 6.75V0.375L20.625 7.5H14.25C14.0511 7.5 13.8603 7.42098 13.7197 7.28033C13.579 7.13968 13.5 6.94891 13.5 6.75ZM25.5 18.75C25.5 20.5402 24.7888 22.2571 23.523 23.523C22.2571 24.7888 20.5402 25.5 18.75 25.5C16.9598 25.5 15.2429 24.7888 13.977 23.523C12.7112 22.2571 12 20.5402 12 18.75C12 16.9598 12.7112 15.2429 13.977 13.977C15.2429 12.7112 16.9598 12 18.75 12C20.5402 12 22.2571 12.7112 23.523 13.977C24.7888 15.2429 25.5 16.9598 25.5 18.75ZM19.5 15.75C19.5 15.5511 19.421 15.3603 19.2803 15.2197C19.1397 15.079 18.9489 15 18.75 15C18.5511 15 18.3603 15.079 18.2197 15.2197C18.079 15.3603 18 15.5511 18 15.75V18H15.75C15.5511 18 15.3603 18.079 15.2197 18.2197C15.079 18.3603 15 18.5511 15 18.75C15 18.9489 15.079 19.1397 15.2197 19.2803C15.3603 19.421 15.5511 19.5 15.75 19.5H18V21.75C18 21.9489 18.079 22.1397 18.2197 22.2803C18.3603 22.421 18.5511 22.5 18.75 22.5C18.9489 22.5 19.1397 22.421 19.2803 22.2803C19.421 22.1397 19.5 21.9489 19.5 21.75V19.5H21.75C21.9489 19.5 22.1397 19.421 22.2803 19.2803C22.421 19.1397 22.5 18.9489 22.5 18.75C22.5 18.5511 22.421 18.3603 22.2803 18.2197C22.1397 18.079 21.9489 18 21.75 18H19.5V15.75Z" fill="#2CA55E"/>
</svg>
