<svg width="55" height="40" viewBox="0 0 55 40" fill="none" xmlns="http://www.w3.org/2000/svg">
<path fill-rule="evenodd" clip-rule="evenodd" d="M44.205 2.08593H48.9137V9.22193H46.0697V10.7319H48.9137V14.7913H46.0697V16.3046H48.9137V20.3679H46.0697V21.8779H48.9137V27.1206L49.303 27.3359C51.0883 28.3333 52.1957 30.2186 52.1957 32.2633C52.1957 35.3886 49.6817 37.9026 46.5597 37.9026C43.4417 37.9026 40.921 35.3886 40.921 32.2633C40.9243 30.2193 42.0323 28.3359 43.8137 27.3433L44.2057 27.1253L44.205 2.08593ZM42.6903 0.575928V26.3953C40.7083 27.7106 39.413 29.8533 39.4097 32.2593C39.4097 36.2979 42.7357 39.4119 46.559 39.4119C50.427 39.4119 53.705 36.2973 53.705 32.2593C53.705 29.8533 52.407 27.7073 50.4243 26.3919V0.575928H42.6903Z" fill="#0E6E36"/>
<path fill-rule="evenodd" clip-rule="evenodd" d="M46.5798 31.1001C47.2298 31.1001 47.7357 31.6108 47.7357 32.2594C47.7357 32.9061 47.2291 33.4154 46.5798 33.4154C45.9344 33.4154 45.4244 32.9054 45.4244 32.2594C45.4244 31.6108 45.9344 31.1001 46.5798 31.1001ZM46.5798 29.5901C45.1151 29.5901 43.9131 30.7948 43.9131 32.2594C43.9131 33.7214 45.1151 34.9261 46.5798 34.9261C48.0458 34.9261 49.2464 33.7214 49.2464 32.2594C49.2464 30.7948 48.0458 29.5901 46.5798 29.5901Z" fill="#0E6E36"/>
<path d="M3.06225 16.9368H6.05825L10.4442 23.4921V34.7108C5.82358 31.4508 2.80158 26.0828 2.80158 19.9928C2.80158 18.9508 2.89558 17.9334 3.06225 16.9368ZM29.7982 8.31542H34.5322C37.2122 11.4581 38.8309 15.5341 38.8309 19.9928C38.8309 21.6454 38.6056 23.2428 38.1882 24.7601L33.5876 17.8508H29.2049L27.2502 14.9168V12.5448L29.7982 8.31542ZM15.1662 2.88875V4.65875L19.5662 11.2387L16.1909 16.8048H15.6869L13.2742 13.1934L10.8816 17.1454L14.4962 22.5481H20.6589L23.0409 26.1108V27.3154L18.4089 30.6381L14.6069 36.9094C13.6822 36.5728 12.7969 36.1554 11.9542 35.6761V23.0308L6.86491 15.4268H3.39158C4.93825 9.51408 9.40291 4.78742 15.1662 2.88875ZM20.8162 1.98208C25.5596 1.98208 29.8689 3.81275 33.0802 6.80142H28.9476L25.7396 12.1241V15.3734L28.3956 19.3634H32.7809L37.5829 26.5788C34.9576 33.2734 28.4476 38.0054 20.8156 38.0054C19.1802 38.0054 17.6009 37.7834 16.0929 37.3768L19.5482 31.6861L24.5516 28.0921V25.6548L21.4642 21.0361H15.3056L12.6736 17.1061L13.3369 16.0081L14.8822 18.3141H17.0416L21.3576 11.1994L16.6776 4.19608V2.46342C18.0069 2.15208 19.3916 1.98208 20.8162 1.98208ZM20.8162 0.46875C10.0416 0.46875 1.28491 9.22275 1.28491 19.9928C1.28491 30.7674 10.0416 39.5174 20.8162 39.5174C31.5942 39.5174 40.3442 30.7674 40.3442 19.9928C40.3442 9.22208 31.5936 0.46875 20.8162 0.46875Z" fill="#0E6E36"/>
</svg>
