<svg width="20" height="30" viewBox="0 0 20 30" fill="none" xmlns="http://www.w3.org/2000/svg">
<g id="Group">
<path id="Vector" d="M5.68493 8.55578C6.31495 8.55578 6.82568 8.02803 6.82568 7.37701C6.82568 6.72599 6.31495 6.19824 5.68493 6.19824C5.05492 6.19824 4.54419 6.72599 4.54419 7.37701C4.54419 8.02803 5.05492 8.55578 5.68493 8.55578Z" fill="white"/>
<path id="Vector_2" d="M9.78979 8.55578C10.4198 8.55578 10.9305 8.02803 10.9305 7.37701C10.9305 6.72599 10.4198 6.19824 9.78979 6.19824C9.15978 6.19824 8.64905 6.72599 8.64905 7.37701C8.64905 8.02803 9.15978 8.55578 9.78979 8.55578Z" fill="white"/>
<path id="Vector_3" d="M13.8801 8.55578C14.5101 8.55578 15.0209 8.02803 15.0209 7.37701C15.0209 6.72599 14.5101 6.19824 13.8801 6.19824C13.2501 6.19824 12.7394 6.72599 12.7394 7.37701C12.7394 8.02803 13.2501 8.55578 13.8801 8.55578Z" fill="white"/>
<path id="Vector_4" d="M17.4905 24.4109C17.9658 23.8975 18.27 23.1941 18.27 22.4336C18.27 20.8365 16.9961 19.5437 15.4371 19.5437C14.7527 19.5437 14.1443 19.7909 13.65 20.1901C13.0986 18.6691 11.6536 17.5664 9.98056 17.5664C8.28846 17.5664 6.86253 18.6691 6.34919 20.2091C5.85487 19.8099 5.22746 19.5627 4.56203 19.5627C3.00301 19.5627 1.72918 20.8556 1.72918 22.4526C1.72918 23.2131 2.01437 23.9165 2.50869 24.4299C1.04474 25.2094 0.0180664 26.7494 0.0180664 28.5556C0.0180664 28.9548 0.341277 29.278 0.740537 29.278H19.2776C19.6769 29.278 20.0001 28.9548 20.0001 28.5556C19.9621 26.7304 18.9544 25.1714 17.4905 24.4109ZM15.4181 20.9696C16.1976 20.9696 16.825 21.6351 16.825 22.4336C16.825 23.2321 16.1976 23.8975 15.4181 23.8975C14.6386 23.8975 14.0112 23.2321 14.0112 22.4336C13.9922 21.6351 14.6386 20.9696 15.4181 20.9696ZM9.98056 18.9923C11.3304 18.9923 12.4141 20.1141 12.4141 21.502C12.4141 22.8899 11.3304 24.0116 9.98056 24.0116C8.63068 24.0116 7.54697 22.8899 7.54697 21.502C7.54697 20.1141 8.63068 18.9923 9.98056 18.9923ZM4.54302 20.9696C5.32252 20.9696 5.94993 21.6351 5.94993 22.4336C5.94993 23.2321 5.32252 23.8975 4.54302 23.8975C3.76351 23.8975 3.1361 23.2321 3.1361 22.4336C3.1361 21.6351 3.76351 20.9696 4.54302 20.9696ZM5.20845 26.179C5.11339 26.2931 5.01833 26.4072 4.92326 26.5212C4.88524 26.5783 4.8282 26.6353 4.79018 26.6924C4.69511 26.8254 4.61906 26.9395 4.54302 27.0726C4.50499 27.1296 4.48598 27.1677 4.44795 27.2247C4.33388 27.4148 4.23882 27.6049 4.16277 27.7951C4.16277 27.7951 4.16277 27.8141 4.14375 27.8141H1.48202C1.80523 26.3882 3.04104 25.3235 4.524 25.3235C4.96129 25.3235 5.37956 25.4185 5.75981 25.5896C5.60771 25.7227 5.45561 25.8748 5.30351 26.0269C5.30351 26.084 5.26549 26.122 5.20845 26.179ZM5.77882 27.8141C5.79783 27.7951 5.79783 27.7761 5.81684 27.757C5.89289 27.624 5.96894 27.5099 6.06401 27.3958C6.08302 27.3578 6.10203 27.3388 6.12104 27.3198C6.23512 27.1867 6.34919 27.0536 6.46327 26.9205C6.48228 26.8825 6.5203 26.8635 6.53932 26.8445C6.63438 26.7494 6.74845 26.6543 6.86253 26.5593C6.90055 26.5212 6.93858 26.5022 6.9766 26.4642C7.10969 26.3501 7.26179 26.2551 7.41389 26.16C8.95389 25.2094 11.0072 25.2094 12.5472 26.16C12.6993 26.2551 12.8324 26.3501 12.9845 26.4642C13.0225 26.5022 13.0606 26.5212 13.0986 26.5593C13.2127 26.6543 13.3077 26.7304 13.4028 26.8254C13.4408 26.8635 13.4598 26.8825 13.4979 26.9205C13.6119 27.0536 13.726 27.1867 13.8401 27.3198C13.8591 27.3578 13.8781 27.3768 13.8971 27.3958C13.9922 27.5099 14.0682 27.624 14.1443 27.757C14.1633 27.7761 14.1633 27.7951 14.1823 27.8141H5.77882ZM15.7984 27.8141C15.7033 27.6049 15.6082 27.4148 15.4942 27.2437C15.4561 27.1867 15.4371 27.1487 15.3991 27.0916C15.323 26.9585 15.228 26.8254 15.1519 26.7114C15.1139 26.6543 15.0759 26.5973 15.0188 26.5403C14.9238 26.4262 14.8287 26.3121 14.7337 26.198C14.6956 26.16 14.6576 26.103 14.6196 26.0649C14.4675 25.9128 14.3344 25.7607 14.1633 25.6277C14.5435 25.4565 14.9808 25.3615 15.3991 25.3615C16.8821 25.3615 18.1179 26.4262 18.4411 27.8521H15.7984V27.8141Z" fill="white"/>
<path id="Vector_5" d="M16.2176 0.722168H3.74544C1.67309 0.722168 0 2.4523 0 4.56267V10.1903C0 12.3007 1.67309 14.0308 3.74544 14.0308H3.82149V16.5025H5.24742V14.0308H9.04989V16.5025H10.4758V14.0308H14.6776V16.7876H16.1035V14.0308H16.1795C18.2519 14.0308 19.925 12.3007 19.925 10.1903V4.56267C19.963 2.4523 18.2709 0.722168 16.2176 0.722168ZM18.5371 10.1903C18.5371 11.5212 17.4914 12.6049 16.1986 12.6049H3.74544C2.47161 12.6049 1.42593 11.5212 1.42593 10.1903V4.56267C1.42593 3.2318 2.47161 2.1481 3.74544 2.1481H16.1986C17.4724 2.1481 18.5181 3.2318 18.5181 4.56267V10.1903H18.5371Z" fill="white"/>
</g>
</svg>
