<svg width="20" height="20" viewBox="0 0 20 20" fill="none" xmlns="http://www.w3.org/2000/svg">
<g id="Group 2302">
<path id="Vector" d="M2.99999 0C1.34315 0 0 1.34315 0 2.99999V16.9999C0 18.6568 1.34315 19.9999 2.99999 19.9999H10.4009C9.78317 19.427 9.26217 18.7512 8.86497 17.9999H6.99998V14.9999H8.01637C8.00547 14.8346 7.99997 14.6679 7.99997 14.4999C7.99997 13.9863 8.05157 13.4847 8.14997 13H5.99998C5.4477 13 4.99998 13.4477 4.99998 14V17.9999H2.99999C2.44771 17.9999 1.99999 17.5522 1.99999 16.9999V2.99999C1.99999 2.44771 2.44771 1.99999 2.99999 1.99999H13C13.5523 1.99999 14 2.44771 14 2.99999V7.15001C14.4847 7.05163 14.9862 6.99998 15.4999 6.99998C15.6679 6.99998 15.8346 7.0055 15.9999 7.01638V2.99999C15.9999 1.34315 14.6568 0 13 0H2.99999Z" fill="white"/>
<path id="Vector_2" d="M9 10.7558C9.6599 9.61269 10.6127 8.6599 11.7558 8H10C9.4477 8 9 8.4477 9 9V10.7558Z" fill="white"/>
<path id="Vector_3" d="M3 4C3 3.44772 3.44772 3 4 3H5.99999C6.55227 3 6.99999 3.44772 6.99999 4V5.99999C6.99999 6.55227 6.55227 6.99999 5.99999 6.99999H4C3.44772 6.99999 3 6.55227 3 5.99999V4Z" fill="white"/>
<path id="Vector_4" d="M4 8C3.44772 8 3 8.4477 3 9V11C3 11.5523 3.44772 12 4 12H5.99999C6.55227 12 6.99999 11.5523 6.99999 11V9C6.99999 8.4477 6.55227 8 5.99999 8H4Z" fill="white"/>
<path id="Vector_5" d="M9 4C9 3.44772 9.4477 3 10 3H12C12.5523 3 13 3.44772 13 4V5.99999C13 6.55227 12.5523 6.99999 12 6.99999H10C9.4477 6.99999 9 6.55227 9 5.99999V4Z" fill="white"/>
<path id="Vector_6" fill-rule="evenodd" clip-rule="evenodd" d="M16.4036 8.11207C15.8018 8.00857 15.3855 8.35467 15.1877 8.60317C15.0028 8.83557 14.8903 9.11176 14.8174 9.32146C14.6805 9.71566 14.5718 10.2231 14.4778 10.662L14.451 10.7869C14.3956 11.0442 14.3436 11.2781 14.2914 11.4839C14.1777 11.3176 14.0093 11.0932 13.8024 10.9286C13.6421 10.801 13.3936 10.6533 13.0643 10.6249C12.7195 10.5952 12.4202 10.7074 12.1915 10.8629C10.8709 11.7608 10 13.2785 10 15C10 17.7614 12.2386 20 15 20C17.7614 20 20 17.7614 20 15C20 14.5301 19.852 13.8948 19.6715 13.2902C19.481 12.652 19.2184 11.9327 18.9225 11.25C18.629 10.5725 18.2888 9.89866 17.9361 9.36676C17.7607 9.10246 17.5632 8.84376 17.3459 8.63317C17.1485 8.44187 16.8295 8.18537 16.4036 8.11207ZM14.5 14C15.0162 14 15.3762 13.7158 15.5823 13.4712C15.7797 13.2371 15.9086 12.9609 15.9972 12.7312C16.176 12.268 16.3031 11.6869 16.4062 11.208L16.4242 11.1245C16.4463 11.0215 16.4675 10.9229 16.4881 10.829C16.6867 11.1759 16.8918 11.5938 17.0874 12.0452C17.3538 12.6598 17.5886 13.3046 17.7551 13.8622C17.9316 14.4535 18 14.8458 18 15C18 16.6569 16.6569 18 15 18C13.3431 18 12 16.6569 12 15C12 14.191 12.3197 13.4564 12.8419 12.9161C12.9484 13.0733 13.0881 13.266 13.2494 13.4317C13.4922 13.681 13.9079 14 14.5 14Z" fill="white"/>
</g>
</svg>
