<svg width="16" height="20" viewBox="0 0 16 20" fill="none" xmlns="http://www.w3.org/2000/svg">
<path id="Vector" d="M0.343872 5.81405V17.6158C0.344416 18.248 0.595782 18.8541 1.04279 19.3011C1.48979 19.7481 2.0959 19.9995 2.72807 20H13.272C13.9041 19.9995 14.5102 19.7481 14.9572 19.3011C15.4042 18.8541 15.6556 18.248 15.6561 17.6158V5.81405C15.6556 5.18189 15.4042 4.57578 14.9572 4.12877C14.5102 3.68177 13.9041 3.4304 13.272 3.42986H11.5742V2.87492C11.5742 2.66178 11.4896 2.45737 11.3389 2.30666C11.1882 2.15595 10.9837 2.07128 10.7706 2.07128H10.1376C10.1203 1.51611 9.8877 0.989439 9.4889 0.602822C9.0901 0.216204 8.55648 0 8.00104 0C7.4456 0 6.91197 0.216204 6.51318 0.602822C6.11438 0.989439 5.88173 1.51611 5.86451 2.07128H5.22941C5.01627 2.07128 4.81187 2.15595 4.66115 2.30666C4.51044 2.45737 4.42578 2.66178 4.42578 2.87492V3.42986H2.72807C2.0959 3.4304 1.48979 3.68177 1.04279 4.12877C0.595782 4.57578 0.344416 5.18189 0.343872 5.81405ZM8.00001 1.36219C8.14043 1.36178 8.27781 1.40307 8.39473 1.48083C8.51165 1.55859 8.60286 1.66932 8.65678 1.79897C8.71071 1.92862 8.72492 2.07137 8.69763 2.20911C8.67033 2.34685 8.60276 2.47339 8.50347 2.57268C8.40417 2.67197 8.27764 2.73955 8.1399 2.76684C8.00215 2.79414 7.85941 2.77992 7.72976 2.726C7.6001 2.67207 7.48938 2.58087 7.41162 2.46394C7.33386 2.34702 7.29257 2.20964 7.29297 2.06922C7.29352 1.88187 7.36818 1.70235 7.50066 1.56987C7.63314 1.43739 7.81266 1.36273 8.00001 1.36219ZM5.22941 6.76362H10.7788C10.992 6.76362 11.1964 6.67895 11.3471 6.52824C11.4978 6.37753 11.5825 6.17312 11.5825 5.95998V5.31666H13.2802C13.4119 5.3172 13.5381 5.36978 13.6313 5.46294C13.7244 5.5561 13.777 5.6823 13.7776 5.81405V17.6158C13.777 17.7476 13.7244 17.8738 13.6313 17.9669C13.5381 18.0601 13.4119 18.1127 13.2802 18.1132H2.72807C2.59632 18.1127 2.47012 18.0601 2.37695 17.9669C2.28379 17.8738 2.23121 17.7476 2.23067 17.6158V5.81405C2.23121 5.6823 2.28379 5.5561 2.37695 5.46294C2.47012 5.36978 2.59632 5.3172 2.72807 5.31666H4.42578V5.96203C4.42632 6.17482 4.51123 6.3787 4.66188 6.52896C4.81253 6.67923 5.01663 6.76362 5.22941 6.76362ZM12.5218 16.0558C12.5218 16.1392 12.5053 16.2218 12.4734 16.2988C12.4415 16.3759 12.3947 16.4459 12.3357 16.5049C12.2768 16.5639 12.2068 16.6106 12.1297 16.6426C12.0526 16.6745 11.9701 16.6909 11.8867 16.6909H4.31479C4.14608 16.6909 3.98427 16.6239 3.86498 16.5046C3.74568 16.3853 3.67866 16.2235 3.67866 16.0548C3.67866 15.8861 3.74568 15.7243 3.86498 15.605C3.98427 15.4857 4.14608 15.4186 4.31479 15.4186H11.8928C12.0605 15.4203 12.2208 15.4882 12.3386 15.6076C12.4565 15.7269 12.5223 15.8881 12.5218 16.0558ZM12.5218 13.8915C12.5218 13.9749 12.5053 14.0575 12.4734 14.1346C12.4415 14.2116 12.3947 14.2816 12.3357 14.3406C12.2768 14.3996 12.2068 14.4464 12.1297 14.4783C12.0526 14.5102 11.9701 14.5266 11.8867 14.5266H4.31479C4.14608 14.5266 3.98427 14.4596 3.86498 14.3403C3.74568 14.221 3.67866 14.0592 3.67866 13.8905C3.67866 13.7218 3.74568 13.56 3.86498 13.4407C3.98427 13.3214 4.14608 13.2544 4.31479 13.2544H11.8928C12.0605 13.256 12.2208 13.3239 12.3386 13.4433C12.4565 13.5627 12.5223 13.7238 12.5218 13.8915ZM4.13392 7.83239L6.76681 9.74386L8.00001 8.87034C8.05235 8.8333 8.11555 8.81481 8.17959 8.81779C8.24364 8.82077 8.30486 8.84505 8.35353 8.88678L10.4664 10.7181L12.1477 10.1467C12.1775 10.1369 12.2088 10.1321 12.2402 10.1323C12.3151 10.1339 12.3864 10.1647 12.439 10.218C12.4915 10.2714 12.5212 10.3431 12.5218 10.418V12.0212C12.5218 12.0969 12.4917 12.1696 12.4381 12.2232C12.3845 12.2768 12.3118 12.3069 12.2361 12.3069H3.96332C3.88863 12.3053 3.81753 12.2744 3.76528 12.221C3.71303 12.1676 3.68378 12.0959 3.6838 12.0212V8.06465C3.68351 8.01176 3.6979 7.95983 3.72538 7.91464C3.75285 7.86946 3.79234 7.83278 3.83942 7.8087C3.88651 7.78463 3.93936 7.77409 3.99208 7.77828C4.0448 7.78246 4.09532 7.80119 4.13803 7.83239H4.13392Z" fill="white"/>
</svg>
