<svg width="12" height="12" viewBox="0 0 12 12" fill="none" xmlns="http://www.w3.org/2000/svg">
<g id="ri:progress-5-fill">
<path id="Vector" d="M6 11.0012C8.7615 11.0012 11 8.76272 11 6.00122C11 3.23972 8.7615 1.00122 6 1.00122C3.2385 1.00122 1 3.23972 1 6.00122C1 8.76272 3.2385 11.0012 6 11.0012ZM9 6.00122C9.00007 6.59462 8.82416 7.17471 8.49452 7.66812C8.16488 8.16153 7.69632 8.54611 7.1481 8.7732C6.59988 9.00029 5.99662 9.0597 5.41463 8.94392C4.83264 8.82813 4.29806 8.54235 3.8785 8.12272L6 6.00122V3.00122C6.79565 3.00122 7.55871 3.31729 8.12132 3.8799C8.68393 4.44251 9 5.20557 9 6.00122Z" fill="#2CA55E"/>
</g>
</svg>
