<svg width="32" height="30" viewBox="0 0 32 30" fill="none" xmlns="http://www.w3.org/2000/svg">
<g id="Group">
<g id="Group_2">
<path id="Vector" d="M17.1836 29.4779C17.1836 29.7718 17.4122 30.0003 17.706 30.0003H22.6039C22.8978 30.0003 23.1264 29.7718 23.1264 29.4779V26.833H17.1836V29.4779Z" fill="#91CDAA"/>
<path id="Vector_2" d="M31.2891 11.5522C31.1258 11.2909 30.8319 11.095 30.5054 11.0297C30.0809 10.9644 29.6564 11.1277 29.3952 11.4869L27.2401 14.5236C27.3054 14.5889 27.3381 14.6542 27.3707 14.7195C27.9585 15.5684 27.8932 16.7113 27.2075 17.4949L27.0769 17.6582C26.1953 18.6704 25.2157 19.6174 24.2034 20.4663L23.3545 21.152C23.0606 21.3806 22.6688 21.348 22.4402 21.0541C22.2116 20.7602 22.2443 20.3684 22.5382 20.1398L23.3871 19.4541C24.3667 18.6704 25.281 17.7562 26.1299 16.8092L26.2932 16.646C26.5871 16.3194 26.6197 15.8297 26.3585 15.4705C26.1953 15.2419 25.9993 15.1113 25.7381 15.046C25.4769 15.0133 25.2157 15.046 25.0198 15.2093L20.2525 18.5072C19.73 18.8664 19.3382 19.3888 19.1749 20.0092L17.4443 25.5928H23.583L27.6973 23.0786C28.4156 22.6541 28.9381 21.9357 29.134 21.152L31.4523 12.4991C31.5176 12.1399 31.485 11.8134 31.2891 11.5522Z" fill="#91CDAA"/>
<path id="Vector_3" d="M12.7752 19.9765C12.5793 19.3888 12.2201 18.8337 11.6977 18.4745L6.99569 15.2093C6.76712 15.046 6.53855 15.0133 6.27733 15.046C6.01611 15.0786 5.78754 15.2419 5.65693 15.4705C5.39571 15.8297 5.42836 16.3194 5.72224 16.646L5.8855 16.8092C6.70182 17.7562 7.61609 18.6378 8.62833 19.4541L9.4773 20.1398C9.60791 20.2378 9.70586 20.401 9.70586 20.5643C9.73852 20.7276 9.67321 20.8908 9.57525 21.0541C9.4773 21.1847 9.31403 21.2827 9.15077 21.2827C8.98751 21.3153 8.82424 21.25 8.66098 21.152L7.81201 20.4663C6.76712 19.6174 5.78754 18.6704 4.93857 17.6582L4.77531 17.4949C4.0896 16.7113 4.0243 15.5684 4.61205 14.7195C4.6447 14.6542 4.71 14.5889 4.74266 14.5236L2.58758 11.4869C2.32636 11.1277 1.90187 10.9644 1.47739 11.0297C1.15086 11.095 0.889642 11.2583 0.693726 11.5522C0.530462 11.8134 0.465157 12.1399 0.563115 12.4664L2.88145 21.1194C3.11002 21.9357 3.59981 22.6214 4.31817 23.0459L8.43241 25.5602H14.5711L12.7752 19.9765Z" fill="#91CDAA"/>
<path id="Vector_4" d="M8.7915 29.4779C8.7915 29.7718 9.02007 30.0003 9.31395 30.0003H14.2118C14.5057 30.0003 14.7669 29.7718 14.7669 29.4779V26.833H8.7915V29.4779Z" fill="#91CDAA"/>
<path id="Vector_5" d="M23.3542 8.6448V4.23668C23.3542 3.74689 22.995 3.35506 22.5379 3.28976C19.3379 2.76731 17.542 1.29794 16.6931 0.318364C16.3012 -0.106121 15.6482 -0.106121 15.2564 0.318364C14.3747 1.3306 12.6115 2.76731 9.41153 3.28976C8.95439 3.35506 8.59521 3.74689 8.59521 4.23668V8.67745C8.59521 13.608 13.8523 17.0692 15.5176 18.0161C15.8115 18.1794 16.1706 18.1794 16.4645 18.0161C18.0971 17.0365 23.3542 13.5754 23.3542 8.6448ZM15.9747 4.13873C16.6278 4.13873 17.1502 4.69382 17.1176 5.34688L16.889 9.82029C16.8563 10.3101 16.4645 10.7019 15.9747 10.7019C15.4849 10.7019 15.0604 10.3101 15.0604 9.82029L14.8319 5.34688C14.7992 4.69382 15.3217 4.13873 15.9747 4.13873ZM15.9747 14.0978C15.289 14.0978 14.7666 13.5427 14.7666 12.8896C14.7666 12.2039 15.3217 11.6815 15.9747 11.6815C16.6604 11.6815 17.1829 12.2366 17.1829 12.8896C17.1829 13.5427 16.6604 14.0978 15.9747 14.0978Z" fill="#91CDAA"/>
</g>
</g>
</svg>
