<svg width="26" height="20" viewBox="0 0 26 20" fill="none" xmlns="http://www.w3.org/2000/svg">
<g id="Group 2301">
<g id="Group">
<path id="Vector" d="M3.3332 10.5848C3.17362 10.5316 3.01405 10.505 2.85447 10.505C1.49809 10.4518 0.38107 11.5688 0.38107 12.9252C0.38107 13.9358 0.38107 15.0263 0.38107 15.7178C0.354474 16.0901 0.673623 16.3827 1.01937 16.3827H2.7215C2.74809 16.3827 2.77469 16.3561 2.77469 16.3295V12.7124C2.77469 11.9944 2.98745 11.3029 3.3332 10.6646C3.38639 10.638 3.35979 10.5848 3.3332 10.5848Z" fill="white"/>
<path id="Vector_2" d="M7.88139 9.44157C7.58883 9.36179 7.29628 9.30859 6.97713 9.30859C5.11543 9.30859 3.57288 10.8246 3.57288 12.7128V17.3671C3.57288 17.7394 3.86543 18.032 4.23777 18.032H7.21649C7.24309 18.032 7.26968 18.0054 7.26968 17.9788V12.048C7.26968 11.1703 7.50905 10.3192 7.90798 9.52136C7.93458 9.49476 7.90798 9.44157 7.88139 9.44157Z" fill="white"/>
<path id="Vector_3" d="M18.9714 9.30859C18.6789 9.30859 18.3863 9.36179 18.0672 9.44157C18.0406 9.44157 18.014 9.49476 18.0406 9.52136C18.4395 10.2926 18.6523 11.1703 18.6523 12.048V17.9788C18.6523 18.0054 18.6789 18.032 18.7055 18.032H21.7108C22.0831 18.032 22.3757 17.7394 22.3757 17.3671V12.7128C22.4023 10.8511 20.8863 9.30859 18.9714 9.30859Z" fill="white"/>
<path id="Vector_4" d="M23.2268 10.5051C23.0407 10.5051 22.8279 10.5583 22.6417 10.5849C22.6151 10.5849 22.5885 10.6381 22.6151 10.6647C22.9609 11.2764 23.1737 11.9945 23.1737 12.7126V16.3296C23.1737 16.3562 23.2002 16.3828 23.2268 16.3828H24.9556C25.3279 16.3828 25.6205 16.0902 25.6205 15.7179V12.8721C25.5939 11.569 24.5566 10.5051 23.2268 10.5051Z" fill="white"/>
<path id="Vector_5" d="M18.9714 8.51045C20.1465 8.51045 21.0991 7.55786 21.0991 6.38279C21.0991 5.20771 20.1465 4.25513 18.9714 4.25513C17.7963 4.25513 16.8438 5.20771 16.8438 6.38279C16.8438 7.55786 17.7963 8.51045 18.9714 8.51045Z" fill="white"/>
<path id="Vector_6" d="M24.5728 8.80826C24.8763 8.07544 24.5283 7.2353 23.7955 6.93175C23.0627 6.62821 22.2226 6.9762 21.919 7.70901C21.6155 8.44182 21.9634 9.28196 22.6963 9.58551C23.4291 9.88906 24.2692 9.54107 24.5728 8.80826Z" fill="white"/>
<path id="Vector_7" d="M11.3916 7.36703C9.3703 7.97874 8.01392 9.92023 8.01392 12.0479V19.3351C8.01392 19.7075 8.30647 20 8.67881 20H17.1894C17.5618 20 17.8543 19.7075 17.8543 19.3351V12.0479C17.9075 8.8298 14.8224 6.3298 11.3916 7.36703Z" fill="white"/>
<path id="Vector_8" d="M12.9875 6.2766C14.7208 6.2766 16.1258 4.87153 16.1258 3.1383C16.1258 1.40506 14.7208 0 12.9875 0C11.2543 0 9.84924 1.40506 9.84924 3.1383C9.84924 4.87153 11.2543 6.2766 12.9875 6.2766Z" fill="white"/>
<path id="Vector_9" d="M6.97654 8.51045C8.15161 8.51045 9.1042 7.55786 9.1042 6.38279C9.1042 5.20771 8.15161 4.25513 6.97654 4.25513C5.80146 4.25513 4.84888 5.20771 4.84888 6.38279C4.84888 7.55786 5.80146 8.51045 6.97654 8.51045Z" fill="white"/>
<path id="Vector_10" d="M2.95128 9.687C3.73422 9.55993 4.26591 8.82223 4.13885 8.03928C4.01178 7.25634 3.27407 6.72465 2.49113 6.85171C1.70819 6.97878 1.17649 7.71649 1.30356 8.49943C1.43063 9.28237 2.16834 9.81407 2.95128 9.687Z" fill="white"/>
</g>
</g>
</svg>
