<svg width="116" height="116" viewBox="0 0 116 116" fill="none" xmlns="http://www.w3.org/2000/svg">
<g clip-path="url(#clip0_402_111108)">
<path d="M115.83 57.83C115.83 53.93 114.49 50.34 112.24 47.5C110.49 45.29 109.73 42.44 110.14 39.65C110.66 36.07 110.03 32.29 108.08 28.91C106.13 25.53 103.17 23.09 99.81 21.76C97.19 20.72 95.11 18.63 94.07 16.02C92.73 12.65 90.3 9.7 86.92 7.75C83.54 5.8 79.76 5.17 76.18 5.69C73.39 6.1 70.54 5.33 68.33 3.59C65.49 1.34 61.9 0 58 0C54.1 0 50.51 1.34 47.67 3.59C45.46 5.34 42.61 6.1 39.82 5.69C36.24 5.17 32.46 5.8 29.08 7.75C25.7 9.7 23.26 12.66 21.93 16.02C20.89 18.64 18.8 20.72 16.19 21.76C12.82 23.1 9.87001 25.53 7.92001 28.91C5.97001 32.29 5.34001 36.07 5.86001 39.65C6.27001 42.44 5.50001 45.29 3.76001 47.5C1.51001 50.34 0.170013 53.93 0.170013 57.83C0.170013 61.73 1.51001 65.32 3.76001 68.16C5.51001 70.37 6.27001 73.22 5.86001 76.01C5.34001 79.59 5.97001 83.37 7.92001 86.75C9.87001 90.13 12.83 92.57 16.19 93.9C18.81 94.94 20.89 97.03 21.93 99.64C23.27 103.01 25.7 105.96 29.08 107.91C32.46 109.86 36.24 110.49 39.82 109.97C42.61 109.56 45.46 110.33 47.67 112.07C50.51 114.32 54.1 115.66 58 115.66C61.9 115.66 65.49 114.32 68.33 112.07C70.54 110.32 73.39 109.56 76.18 109.97C79.76 110.49 83.54 109.86 86.92 107.91C90.3 105.96 92.74 103 94.07 99.64C95.11 97.02 97.2 94.94 99.81 93.9C103.18 92.56 106.13 90.13 108.08 86.75C110.03 83.37 110.66 79.59 110.14 76.01C109.73 73.22 110.5 70.37 112.24 68.16C114.49 65.32 115.83 61.73 115.83 57.83Z" fill="white"/>
<path d="M59.22 76.1396C40.13 76.1396 22.34 79.6396 7.36002 85.6796C7.53002 86.0396 7.72002 86.3896 7.92002 86.7396C9.87002 90.1196 12.83 92.5596 16.19 93.8896C18.81 94.9296 20.89 97.0196 21.93 99.6296C23.27 103 25.7 105.95 29.08 107.9C32.46 109.85 36.24 110.48 39.82 109.96C42.61 109.55 45.46 110.32 47.67 112.06C50.51 114.31 54.1 115.65 58 115.65C61.9 115.65 65.49 114.31 68.33 112.06C70.54 110.31 73.39 109.55 76.18 109.96C79.76 110.48 83.54 109.85 86.92 107.9C90.3 105.95 92.74 102.99 94.07 99.6296C95.11 97.0096 97.2 94.9296 99.81 93.8896C103.18 92.5496 106.13 90.1196 108.08 86.7396C108.43 86.1296 108.74 85.4997 109.01 84.8697C94.47 79.3297 77.43 76.1396 59.21 76.1396H59.22Z" fill="#126233"/>
<path d="M5.78001 76.6396C5.42001 80.0296 6.08001 83.5596 7.92001 86.7396C9.87001 90.1196 12.83 92.5596 16.19 93.8896C17.38 94.3596 18.45 95.0496 19.38 95.9096C44.17 87.4996 71.67 86.7496 96.59 95.9496C97.52 95.0796 98.61 94.3796 99.81 93.8996C103.18 92.5596 106.13 90.1296 108.08 86.7496C109.9 83.5896 110.58 80.0796 110.23 76.7096C99.21 64.1996 75.25 58.4796 57.4 58.5296C39.96 58.5796 20.07 64.1996 5.78001 76.6496V76.6396Z" fill="#72554A"/>
<path d="M38.8206 63.2147C40.7063 61.0893 43.9582 58.1889 46.2034 56.4471C48.4486 54.7053 51.0773 53.355 53.9058 53.0433C56.982 52.7078 60.0901 53.6186 62.8547 55.0249C66.9136 57.0863 70.3573 60.1705 73.7451 63.2227C68.9111 66.5385 63.1263 68.3603 57.2696 68.7198C47.2421 69.327 38.8206 63.2147 38.8206 63.2147Z" fill="#493830"/>
<path d="M76.7254 26.6608C76.0622 28.4505 74.9276 30.1284 73.3056 31.1352C70.597 32.8131 67.1453 32.3736 63.9892 31.9661C60.8332 31.5586 57.2936 31.3509 54.8087 33.3484C55.4159 29.3214 56.127 25.0627 58.7797 21.9626C61.3605 18.9424 65.3795 17.5521 69.2866 16.825C73.1938 16.0979 77.2207 15.8982 81 14.6357C79.394 16.0819 78.619 18.2313 78.1556 20.3406C77.7001 22.45 77.4924 24.6313 76.7334 26.6608H76.7254Z" fill="#87BE00"/>
<path d="M64.3328 27.6274C61.3525 28.9138 58.4921 30.5038 55.8234 32.3495C60.2978 26.2611 69.758 25.8216 74.4722 19.917C73.833 22.0184 72.171 23.6803 70.3094 24.8468C68.4477 26.0134 66.3543 26.7565 64.3408 27.6274H64.3328Z" fill="#ADD250"/>
<path d="M63.1183 23.0889C61.3525 25.5738 59.5867 28.0507 57.8289 30.5356C60.4257 28.8497 62.0157 25.9813 63.1183 23.0889Z" fill="#ADD250"/>
<path d="M68.1361 20.5488C67.2012 22.8579 65.8349 24.9993 64.1331 26.813C64.8042 26.3256 64.956 26.8689 65.5553 26.3096C65.9068 25.9821 68.1361 23.6809 68.1361 20.5488Z" fill="#ADD250"/>
<path d="M65.5633 26.3093C65.4354 26.3253 65.2996 26.3572 65.2357 26.4691C65.1158 26.7008 65.4594 26.8846 65.7151 26.9165C67.0814 27.0923 68.4556 27.2601 69.8219 27.0763C71.1802 26.8926 72.5466 26.3093 73.3855 25.2227C70.7808 25.5902 68.176 25.9497 65.5712 26.3173L65.5633 26.3093Z" fill="#ADD250"/>
<path d="M70.8527 28.9695C67.5288 29.2731 64.165 29.1133 60.8811 28.498C60.8492 29.1692 61.5762 29.6007 62.2154 29.7844C65.0279 30.6074 68.0322 29.7844 70.8447 28.9695H70.8527Z" fill="#ADD250"/>
<path d="M54.0336 22.5625C52.0521 18.8072 48.0651 16.3942 43.9103 15.5073C39.7554 14.6284 35.4248 15.1078 31.27 15.9867C33.2595 16.61 34.6898 18.4157 35.4728 20.3493C36.2558 22.2829 36.5115 24.3843 36.935 26.4297C37.3584 28.4752 37.9976 30.5526 39.3799 32.1186C41.3375 34.3319 44.5175 35.1468 47.4658 34.9231C50.4142 34.6994 53.2107 33.5728 55.9513 32.4702C55.7994 29.0744 55.6157 25.5588 54.0257 22.5545L54.0336 22.5625Z" fill="#87BE00"/>
<path d="M45.748 24.8315C43.9342 22.5783 42.4321 19.7338 39.6915 18.791C42.3043 21.1321 43.9183 24.3601 46.0596 27.1326C48.2009 29.9131 51.2931 32.414 54.7927 32.2063C51.5248 30.065 48.2009 27.8677 45.748 24.8235V24.8315Z" fill="#ADD250"/>
<path d="M48.7602 21.4992C48.6004 23.0253 48.4406 24.5674 48.6084 26.0935C48.7762 27.6196 49.3035 29.1537 50.3582 30.2723C50.3023 29.2176 50.0945 28.1789 49.8948 27.1402C49.5193 25.2545 49.1437 23.3769 48.7682 21.4912L48.7602 21.4992Z" fill="#ADD250"/>
<path d="M44.6453 25.2231C44.8371 25.6226 45.5083 25.3989 45.6441 24.9754C45.7719 24.5519 44.8211 19.1427 44.0621 18.6553C44.2618 20.8445 44.4536 23.0258 44.6533 25.2151L44.6453 25.2231Z" fill="#ADD250"/>
<path d="M45.1727 25.9968C45.4044 25.9648 45.6601 25.9089 45.7719 25.7092C45.8998 25.4854 45.7639 25.1818 45.5402 25.038C45.3245 24.8942 45.0448 24.8143 44.7891 24.8542C42.6478 25.2138 41.5772 24.7743 39.4838 24.4707C41.0818 25.6932 43.1752 26.2525 45.1647 25.9968H45.1727Z" fill="#ADD250"/>
<path d="M41.5772 28.5068C43.9742 29.8971 46.9225 30.2966 49.5992 29.5935C49.5193 29.3378 49.4314 29.0821 49.3515 28.8264C46.7627 28.7226 44.166 28.6107 41.5772 28.5068Z" fill="#ADD250"/>
<path d="M57.789 55.425C59.2112 54.9376 59.4828 53.0839 59.5068 51.5818C59.5787 47.8744 59.6426 44.1591 59.1553 40.4836C58.6679 36.8082 57.6052 33.1568 55.5757 30.0566C54.7288 30.8237 54.4012 32.0382 54.4252 33.1807C54.4491 34.3233 54.7767 35.4339 55.0404 36.5446C56.3987 42.2494 56.119 48.3379 54.2654 53.8989C55.2321 54.8417 56.5106 55.8565 57.781 55.425H57.789Z" fill="#87BE00"/>
<path d="M19.86 87.2695C13.34 89.3395 6.95001 91.9495 0.76001 95.1095C2.92001 97.2095 5.02001 99.3495 7.07001 101.53C7.44001 104.37 7.86001 107.19 8.34001 110C13.71 107.26 19.25 105 24.91 103.2C23.23 97.8895 21.54 92.5895 19.86 87.2795V87.2695Z" fill="#095127"/>
<path d="M96.14 87.2695C102.66 89.3395 109.05 91.9495 115.24 95.1095C113.08 97.2095 110.98 99.3495 108.93 101.53C108.56 104.37 108.14 107.19 107.66 110C102.29 107.26 96.75 105 91.09 103.2C92.77 97.8895 94.46 92.5895 96.14 87.2795V87.2695Z" fill="#095127"/>
<path d="M113.69 82.9495C78.55 67.2295 38.39 67.0995 3.17001 82.5695C5.67001 88.2595 8.17001 93.9495 10.67 99.6495C41.07 86.2995 75.74 86.4095 106.08 99.9795C108.62 94.3095 111.16 88.6295 113.7 82.9595L113.69 82.9495Z" fill="#0E6E36"/>
<path d="M20.9033 89.2889L21.5149 87.4472C21.5149 87.4472 22.6971 88.0267 23.7337 87.7236C24.1483 87.6024 24.5504 87.3098 24.4055 86.8145C24.1193 85.8355 20.4207 86.9545 19.6797 84.4207C19.2351 82.9003 20.2206 81.5244 21.8561 81.0462C23.6298 80.5275 24.778 81.2045 24.778 81.2045L24.4073 83.1007C24.4073 83.1007 23.3658 82.6176 22.3753 82.9073C21.9607 83.0285 21.5538 83.3475 21.6886 83.8082C21.9917 84.8448 25.6465 83.576 26.4077 86.179C26.8084 87.5496 26.1072 89.0424 24.2529 89.5847C22.3179 90.1505 20.9033 89.2889 20.9033 89.2889Z" fill="white"/>
<path d="M30.7422 87.6649L28.9876 79.2662L34.25 78.1669L34.6181 79.9288L31.4113 80.5988L31.7303 82.1258L34.2911 81.5908L34.6592 83.3528L32.0984 83.8878L32.4297 85.4735L35.8009 84.7692L36.169 86.5312L30.7422 87.6649Z" fill="white"/>
<path d="M39.9433 85.8709L38.8576 77.3599L44.1904 76.6796L44.4182 78.4651L41.1685 78.8797L41.3659 80.4271L43.9609 80.0961L44.1886 81.8816L41.5937 82.2127L41.7987 83.8197L45.215 83.3838L45.4428 85.1694L39.9433 85.8709Z" fill="white"/>
<path d="M49.2585 84.772L48.9262 76.1985L51.9719 76.0804C54.6698 75.9758 56.4574 77.4797 56.562 80.1777C56.6666 82.8756 55.0022 84.5494 52.3042 84.654L49.2585 84.772ZM51.2872 82.892L52.1506 82.8586C53.6015 82.8023 54.4553 81.9046 54.3917 80.2618C54.3284 78.631 53.3726 77.8275 51.9577 77.8823L51.0943 77.9158L51.2872 82.892Z" fill="white"/>
<path d="M60.8448 84.5191L61.2565 75.949L63.354 76.0497L63.0287 82.8219L66.5287 82.99L66.4423 84.788L60.8448 84.5191Z" fill="white"/>
<path d="M69.8829 85.0986L70.8363 76.5717L72.9233 76.8051L71.9699 85.3319L69.8829 85.0986Z" fill="white"/>
<path d="M75.8061 85.7742L77.3992 77.3434L79.4862 77.7378L81.0768 82.1172C81.3022 82.7338 81.5124 83.6894 81.5124 83.6894L81.536 83.6939C81.536 83.6939 81.6132 82.7681 81.7135 82.2375L82.4577 78.2992L84.5211 78.6891L82.9281 87.1199L80.8528 86.7278L79.2483 82.3579C79.0228 81.7413 78.8126 80.7857 78.8126 80.7857L78.789 80.7812C78.789 80.7812 78.7118 81.707 78.6116 82.2376L77.8696 86.1641L75.8061 85.7742Z" fill="white"/>
<path d="M88.1474 83.8412C88.8542 81.4474 91.2048 80.1395 93.7137 80.8803C95.8199 81.5021 96.5558 82.9081 96.5558 82.9081L95.144 84.1303C95.144 84.1303 94.5281 83.1226 93.3657 82.7794C91.6394 82.2697 90.6111 83.1673 90.2509 84.3872C89.7888 85.9524 90.5953 87.204 91.8728 87.5812C92.8396 87.8667 93.7183 87.4755 93.7183 87.4755L93.9052 86.8425L92.7428 86.4993L93.2491 84.7845L96.1954 85.6544L94.8225 90.304L93.1423 89.8079L93.2102 89.5777C93.2612 89.405 93.3237 89.2358 93.3237 89.2358L93.3007 89.229C93.3007 89.229 92.2959 89.7081 90.9263 89.3037C88.8202 88.6818 87.3523 86.5343 88.1474 83.8412Z" fill="white"/>
</g>
<defs>
<clipPath id="clip0_402_111108">
<rect width="116" height="116" fill="white"/>
</clipPath>
</defs>
</svg>
