<svg width="32" height="30" viewBox="0 0 32 30" fill="none" xmlns="http://www.w3.org/2000/svg">
<path id="Vector" d="M21.1854 0H15.9999C15.7052 0 15.4226 0.117063 15.2142 0.325437C15.0058 0.533811 14.8888 0.816426 14.8888 1.11111V5.61667C12.4441 5.88999 10.1859 7.0548 8.54606 8.88838C6.90619 10.722 5.99969 13.0956 5.99989 15.5556H3.77767C2.89361 15.5556 2.04577 15.9067 1.42065 16.5319C0.795525 17.157 0.444336 18.0048 0.444336 18.8889V28.8889C0.444336 29.1836 0.561399 29.4662 0.769773 29.6746C0.978146 29.8829 1.26076 30 1.55545 30H12.6666V25.5556C12.6666 25.2609 12.7836 24.9783 12.992 24.7699C13.2004 24.5615 13.483 24.4444 13.7777 24.4444H18.2221C18.5168 24.4444 18.7994 24.5615 19.0078 24.7699C19.2162 24.9783 19.3332 25.2609 19.3332 25.5556V30H30.4443C30.739 30 31.0216 29.8829 31.23 29.6746C31.4384 29.4662 31.5554 29.1836 31.5554 28.8889V18.8889C31.5554 18.0048 31.2043 17.157 30.5791 16.5319C29.954 15.9067 29.1062 15.5556 28.2221 15.5556H25.9999C26.0001 13.0956 25.0936 10.722 23.4537 8.88838C21.8139 7.0548 19.5557 5.88999 17.111 5.61667V4.44444H21.1854C21.382 4.44444 21.5705 4.36636 21.7095 4.22738C21.8485 4.08839 21.9266 3.89989 21.9266 3.70333V0.741111C21.9266 0.544556 21.8485 0.356052 21.7095 0.217066C21.5705 0.078081 21.382 0 21.1854 0ZM11.5554 12.2222C11.8501 12.2222 12.1327 12.3393 12.3411 12.5477C12.5495 12.756 12.6666 13.0386 12.6666 13.3333V16.6667C12.6666 16.9614 12.5495 17.244 12.3411 17.4523C12.1327 17.6607 11.8501 17.7778 11.5554 17.7778C11.2608 17.7778 10.9781 17.6607 10.7698 17.4523C10.5614 17.244 10.4443 16.9614 10.4443 16.6667V13.3333C10.4443 13.0386 10.5614 12.756 10.7698 12.5477C10.9781 12.3393 11.2608 12.2222 11.5554 12.2222ZM20.4443 12.2222C20.739 12.2222 21.0216 12.3393 21.23 12.5477C21.4384 12.756 21.5554 13.0386 21.5554 13.3333V16.6667C21.5554 16.9614 21.4384 17.244 21.23 17.4523C21.0216 17.6607 20.739 17.7778 20.4443 17.7778C20.1497 17.7778 19.867 17.6607 19.6587 17.4523C19.4503 17.244 19.3332 16.9614 19.3332 16.6667V13.3333C19.3332 13.0386 19.4503 12.756 19.6587 12.5477C19.867 12.3393 20.1497 12.2222 20.4443 12.2222ZM17.111 13.3333V16.6667C17.111 16.9614 16.9939 17.244 16.7856 17.4523C16.5772 17.6607 16.2946 17.7778 15.9999 17.7778C15.7052 17.7778 15.4226 17.6607 15.2142 17.4523C15.0058 17.244 14.8888 16.9614 14.8888 16.6667V13.3333C14.8888 13.0386 15.0058 12.756 15.2142 12.5477C15.4226 12.3393 15.7052 12.2222 15.9999 12.2222C16.2946 12.2222 16.5772 12.3393 16.7856 12.5477C16.9939 12.756 17.111 13.0386 17.111 13.3333ZM7.111 20C7.40569 20 7.6883 20.1171 7.89668 20.3254C8.10505 20.5338 8.22211 20.8164 8.22211 21.1111V24.4444C8.22211 24.7391 8.10505 25.0217 7.89668 25.2301C7.6883 25.4385 7.40569 25.5556 7.111 25.5556C6.81632 25.5556 6.5337 25.4385 6.32533 25.2301C6.11695 25.0217 5.99989 24.7391 5.99989 24.4444V21.1111C5.99989 20.8164 6.11695 20.5338 6.32533 20.3254C6.5337 20.1171 6.81632 20 7.111 20ZM24.8888 20C25.1835 20 25.4661 20.1171 25.6745 20.3254C25.8828 20.5338 25.9999 20.8164 25.9999 21.1111V24.4444C25.9999 24.7391 25.8828 25.0217 25.6745 25.2301C25.4661 25.4385 25.1835 25.5556 24.8888 25.5556C24.5941 25.5556 24.3115 25.4385 24.1031 25.2301C23.8947 25.0217 23.7777 24.7391 23.7777 24.4444V21.1111C23.7777 20.8164 23.8947 20.5338 24.1031 20.3254C24.3115 20.1171 24.5941 20 24.8888 20Z" fill="#91CDAA"/>
</svg>
