<svg width="20" height="20" viewBox="0 0 20 20" fill="none" xmlns="http://www.w3.org/2000/svg">
<g id="Group">
<path id="Vector" d="M8.54771 18.7043H3.20958C2.25707 18.7043 1.48297 17.9302 1.48297 16.9784V4.61079C1.48297 3.65899 2.25779 2.88417 3.20958 2.88417H4.51102C4.49376 3.20791 4.57145 3.53309 4.7585 3.80935C5.03908 4.22374 5.50527 4.4705 6.00527 4.4705H11.3045C11.8045 4.4705 12.2707 4.22302 12.5513 3.80935C12.7384 3.53309 12.8161 3.20791 12.7988 2.88417H14.1024C15.0549 2.88417 15.829 3.65899 15.829 4.61079V8.86978C15.829 9.22734 16.1189 9.51727 16.4765 9.51727C16.834 9.51727 17.124 9.22734 17.124 8.86978V4.61079C17.124 2.9446 15.7686 1.58921 14.1024 1.58921H12.3779L12.1218 0.947482C11.8916 0.371943 11.3427 0 10.7233 0H6.58728C5.96714 0 5.41822 0.372662 5.18872 0.948202L4.93189 1.58993H3.2103C1.54412 1.58993 0.188721 2.94532 0.188721 4.61151V16.9784C0.188721 18.6439 1.54412 20 3.2103 20H8.54843C8.90599 20 9.19592 19.7101 9.19592 19.3525C9.19592 18.995 8.90599 18.7043 8.54771 18.7043ZM5.80886 2.88561L6.39088 1.42806C6.42325 1.34748 6.50023 1.29496 6.58656 1.29496H10.7225C10.8096 1.29496 10.8866 1.34748 10.9182 1.42806L11.5002 2.88561C11.5362 2.97626 11.5024 3.0482 11.4787 3.08273C11.4556 3.11727 11.4017 3.17554 11.3038 3.17554H6.00455C5.90671 3.17554 5.85347 3.11727 5.82973 3.08273C5.80671 3.0482 5.77289 2.97626 5.80886 2.88561Z" fill="white"/>
<path id="Vector_2" d="M13.3449 9.626C13.3449 9.26844 13.055 8.97852 12.6975 8.97852H7.8622C7.50465 8.97852 7.21472 9.26844 7.21472 9.626C7.21472 9.98355 7.50465 10.2735 7.8622 10.2735H12.6975C13.0557 10.2735 13.3449 9.98427 13.3449 9.626Z" fill="white"/>
<path id="Vector_3" d="M5.26699 8.979H4.61159C4.25404 8.979 3.96411 9.26893 3.96411 9.62649C3.96411 9.98404 4.25404 10.274 4.61159 10.274H5.26771C5.62526 10.274 5.91519 9.98404 5.91519 9.62649C5.91519 9.26893 5.62454 8.979 5.26699 8.979Z" fill="white"/>
<path id="Vector_4" d="M7.86452 12.9058C7.50697 12.9058 7.21704 13.1957 7.21704 13.5532C7.21704 13.9108 7.50697 14.2007 7.86452 14.2007H11.066C11.4235 14.2007 11.7134 13.9108 11.7134 13.5532C11.7134 13.1957 11.4235 12.9058 11.066 12.9058H7.86452Z" fill="white"/>
<path id="Vector_5" d="M5.26699 12.9062H4.61159C4.25404 12.9062 3.96411 13.1962 3.96411 13.5537C3.96411 13.9113 4.25404 14.2012 4.61159 14.2012H5.26771C5.62526 14.2012 5.91519 13.9113 5.91519 13.5537C5.91519 13.1962 5.62454 12.9062 5.26699 12.9062Z" fill="white"/>
<path id="Vector_6" d="M19.1984 11.5374C18.407 10.746 17.0264 10.746 16.235 11.5374L11.3458 16.4266C11.1739 16.5985 11.0617 16.8165 11.0214 17.0561L10.753 18.641C10.6904 19.0129 10.8127 19.3928 11.0789 19.659C11.2991 19.8777 11.5962 19.9985 11.9012 19.9985C11.966 19.9985 12.0307 19.9928 12.0955 19.9827L13.6789 19.7151C13.9199 19.6748 14.1379 19.5626 14.3091 19.3906L19.1984 14.5014C20.0156 13.6834 20.0156 12.3539 19.1984 11.5374ZM13.4235 18.4438L12.0617 18.6741L12.2912 17.3122L15.6984 13.905L16.83 15.0367L13.4235 18.4438ZM18.2833 13.5841L17.7466 14.1208L16.6149 12.9892L17.1516 12.4525C17.4545 12.1489 17.9811 12.1496 18.2833 12.4518C18.5948 12.7647 18.5948 13.2726 18.2833 13.5841Z" fill="white"/>
</g>
</svg>
