<svg width="50" height="50" viewBox="0 0 50 50" fill="none" xmlns="http://www.w3.org/2000/svg">
<g id="solar:hand-money-linear">
<g id="Group">
<path id="Vector" d="M36.2792 21.6958C37.5 20.475 37.5 18.5125 37.5 14.5833C37.5 10.6542 37.5 8.69167 36.2792 7.47083M36.2792 21.6958C35.0583 22.9167 33.0958 22.9167 29.1667 22.9167H20.8333C16.9042 22.9167 14.9417 22.9167 13.7208 21.6958M36.2792 7.47083C35.0583 6.25 33.0958 6.25 29.1667 6.25H20.8333C16.9042 6.25 14.9417 6.25 13.7208 7.47083M13.7208 7.47083C12.5 8.69167 12.5 10.6542 12.5 14.5833C12.5 18.5125 12.5 20.475 13.7208 21.6958M27.0833 14.5833C27.0833 15.1359 26.8638 15.6658 26.4731 16.0565C26.0824 16.4472 25.5525 16.6667 25 16.6667C24.4475 16.6667 23.9176 16.4472 23.5269 16.0565C23.1362 15.6658 22.9167 15.1359 22.9167 14.5833C22.9167 14.0308 23.1362 13.5009 23.5269 13.1102C23.9176 12.7195 24.4475 12.5 25 12.5C25.5525 12.5 26.0824 12.7195 26.4731 13.1102C26.8638 13.5009 27.0833 14.0308 27.0833 14.5833Z" stroke="#0E6E36" stroke-width="3.125"/>
<path id="Vector_2" d="M37.5 12.5C35.8424 12.5 34.2526 11.8415 33.0805 10.6694C31.9084 9.49731 31.25 7.9076 31.25 6.25M37.5 16.6667C35.8424 16.6667 34.2526 17.3251 33.0805 18.4972C31.9084 19.6694 31.25 21.2591 31.25 22.9167M12.5 12.5C14.1576 12.5 15.7473 11.8415 16.9194 10.6694C18.0915 9.49731 18.75 7.9076 18.75 6.25M12.5 16.6667C14.1576 16.6667 15.7473 17.3251 16.9194 18.4972C18.0915 19.6694 18.75 21.2591 18.75 22.9167M10.4166 42.475H15.125C17.2291 42.475 19.3604 42.6958 21.4083 43.1167C25.0645 43.8678 28.8265 43.9511 32.5125 43.3625C34.3208 43.0708 36.0958 42.6229 37.7041 41.8479C39.1541 41.1458 40.9312 40.1604 42.125 39.0542C43.3166 37.95 44.5583 36.1437 45.4375 34.7312C46.1958 33.5187 45.8291 32.0333 44.6333 31.1312C43.9613 30.6425 43.1517 30.3792 42.3208 30.3792C41.4898 30.3792 40.6803 30.6425 40.0083 31.1312L36.2437 33.975C34.7854 35.0792 33.1916 36.0937 31.2937 36.3958C31.0645 36.4312 30.825 36.4646 30.575 36.4937M30.575 36.4937C30.4986 36.5026 30.4222 36.5109 30.3458 36.5187M30.575 36.4937C30.9084 36.4036 31.2142 36.2317 31.4645 35.9937C31.7785 35.7222 32.0348 35.3904 32.2185 35.0182C32.4021 34.6459 32.5093 34.2406 32.5338 33.8262C32.5583 33.4118 32.4995 32.9967 32.3609 32.6054C32.2224 32.2141 32.0068 31.8546 31.727 31.5479C31.4556 31.2465 31.1394 30.9887 30.7895 30.7833C24.9625 27.3062 15.8937 29.9542 10.4166 33.8396M30.575 36.4937C30.4997 36.5101 30.4228 36.5185 30.3458 36.5187M30.3458 36.5187C29.0894 36.645 27.8236 36.6478 26.5666 36.5271" stroke="#0E6E36" stroke-width="3.125" stroke-linecap="round"/>
<path id="Vector_3" d="M10.4166 32.2917C10.4166 30.5658 9.01752 29.1667 7.29163 29.1667C5.56574 29.1667 4.16663 30.5658 4.16663 32.2917V42.7083C4.16663 44.4342 5.56574 45.8333 7.29163 45.8333C9.01752 45.8333 10.4166 44.4342 10.4166 42.7083V32.2917Z" stroke="#0E6E36" stroke-width="3.125"/>
</g>
</g>
</svg>
