<svg width="60" height="61" viewBox="0 0 60 61" fill="none" xmlns="http://www.w3.org/2000/svg">
<g id="solar:buildings-2-bold">
<path id="Vector" fill-rule="evenodd" clip-rule="evenodd" d="M53.125 22.032C53.125 18.522 53.125 16.7645 52.2825 15.5045C51.9176 14.9583 51.4487 14.4894 50.9025 14.1245C49.8 13.387 48.3175 13.2945 45.615 13.2845C45.625 14.012 45.625 14.7745 45.625 15.5595V18.907H48.125C48.6223 18.907 49.0992 19.1045 49.4508 19.4562C49.8025 19.8078 50 20.2847 50 20.782C50 21.2793 49.8025 21.7562 49.4508 22.1078C49.0992 22.4594 48.6223 22.657 48.125 22.657H45.625V26.407H48.125C48.6223 26.407 49.0992 26.6045 49.4508 26.9562C49.8025 27.3078 50 27.7847 50 28.282C50 28.7793 49.8025 29.2562 49.4508 29.6078C49.0992 29.9594 48.6223 30.157 48.125 30.157H45.625V33.907H48.125C48.6223 33.907 49.0992 34.1045 49.4508 34.4562C49.8025 34.8078 50 35.2847 50 35.782C50 36.2793 49.8025 36.7562 49.4508 37.1078C49.0992 37.4594 48.6223 37.657 48.125 37.657H45.625V53.907H41.875V15.782C41.875 11.067 41.875 8.71198 40.41 7.24698C38.945 5.78198 36.59 5.78198 31.875 5.78198H26.875C22.16 5.78198 19.805 5.78198 18.34 7.24698C16.875 8.71198 16.875 11.067 16.875 15.782V53.907H13.125V37.657H10.625C10.1277 37.657 9.65081 37.4594 9.29918 37.1078C8.94754 36.7562 8.75 36.2793 8.75 35.782C8.75 35.2847 8.94754 34.8078 9.29918 34.4562C9.65081 34.1045 10.1277 33.907 10.625 33.907H13.125V30.157H10.625C10.1277 30.157 9.65081 29.9594 9.29918 29.6078C8.94754 29.2562 8.75 28.7793 8.75 28.282C8.75 27.7847 8.94754 27.3078 9.29918 26.9562C9.65081 26.6045 10.1277 26.407 10.625 26.407H13.125V22.657H10.625C10.1277 22.657 9.65081 22.4594 9.29918 22.1078C8.94754 21.7562 8.75 21.2793 8.75 20.782C8.75 20.2847 8.94754 19.8078 9.29918 19.4562C9.65081 19.1045 10.1277 18.907 10.625 18.907H13.125V15.557C13.125 14.7745 13.125 14.012 13.135 13.282C10.4325 13.2945 8.95 13.387 7.8475 14.1245C7.30132 14.4894 6.83239 14.9583 6.4675 15.5045C5.625 16.7645 5.625 18.522 5.625 22.032V53.907H4.375C3.87772 53.907 3.40081 54.1045 3.04917 54.4562C2.69754 54.8078 2.5 55.2847 2.5 55.782C2.5 56.2793 2.69754 56.7562 3.04917 57.1078C3.40081 57.4594 3.87772 57.657 4.375 57.657H54.375C54.8723 57.657 55.3492 57.4594 55.7008 57.1078C56.0525 56.7562 56.25 56.2793 56.25 55.782C56.25 55.2847 56.0525 54.8078 55.7008 54.4562C55.3492 54.1045 54.8723 53.907 54.375 53.907H53.125V22.032ZM22.5 30.157C22.5 29.6597 22.6975 29.1828 23.0492 28.8312C23.4008 28.4795 23.8777 28.282 24.375 28.282H34.375C34.8723 28.282 35.3492 28.4795 35.7008 28.8312C36.0525 29.1828 36.25 29.6597 36.25 30.157C36.25 30.6543 36.0525 31.1312 35.7008 31.4828C35.3492 31.8344 34.8723 32.032 34.375 32.032H24.375C23.8777 32.032 23.4008 31.8344 23.0492 31.4828C22.6975 31.1312 22.5 30.6543 22.5 30.157ZM22.5 37.657C22.5 37.1597 22.6975 36.6828 23.0492 36.3312C23.4008 35.9795 23.8777 35.782 24.375 35.782H34.375C34.8723 35.782 35.3492 35.9795 35.7008 36.3312C36.0525 36.6828 36.25 37.1597 36.25 37.657C36.25 38.1543 36.0525 38.6312 35.7008 38.9828C35.3492 39.3344 34.8723 39.532 34.375 39.532H24.375C23.8777 39.532 23.4008 39.3344 23.0492 38.9828C22.6975 38.6312 22.5 38.1543 22.5 37.657ZM29.375 46.407C29.8723 46.407 30.3492 46.6045 30.7008 46.9562C31.0525 47.3078 31.25 47.7847 31.25 48.282V53.907H27.5V48.282C27.5 47.7847 27.6975 47.3078 28.0492 46.9562C28.4008 46.6045 28.8777 46.407 29.375 46.407ZM22.5 16.407C22.5 15.9097 22.6975 15.4328 23.0492 15.0812C23.4008 14.7295 23.8777 14.532 24.375 14.532H34.375C34.8723 14.532 35.3492 14.7295 35.7008 15.0812C36.0525 15.4328 36.25 15.9097 36.25 16.407C36.25 16.9043 36.0525 17.3812 35.7008 17.7328C35.3492 18.0844 34.8723 18.282 34.375 18.282H24.375C23.8777 18.282 23.4008 18.0844 23.0492 17.7328C22.6975 17.3812 22.5 16.9043 22.5 16.407ZM22.5 23.907C22.5 23.4097 22.6975 22.9328 23.0492 22.5812C23.4008 22.2295 23.8777 22.032 24.375 22.032H34.375C34.8723 22.032 35.3492 22.2295 35.7008 22.5812C36.0525 22.9328 36.25 23.4097 36.25 23.907C36.25 24.4043 36.0525 24.8812 35.7008 25.2328C35.3492 25.5844 34.8723 25.782 34.375 25.782H24.375C23.8777 25.782 23.4008 25.5844 23.0492 25.2328C22.6975 24.8812 22.5 24.4043 22.5 23.907Z" fill="#2CA55E"/>
</g>
</svg>
