<svg width="28" height="30" viewBox="0 0 28 30" fill="none" xmlns="http://www.w3.org/2000/svg">
<path id="Vector" fill-rule="evenodd" clip-rule="evenodd" d="M14.3197 10.582C14.4224 12.5796 14.5904 14.5247 14.8201 16.4093C14.0221 16.0256 13.0419 16.3182 12.5928 17.0982L11.7846 18.498C11.3124 19.3152 11.5947 20.3685 12.412 20.8407L12.7571 21.0395C12.6981 21.409 12.6686 21.7824 12.6686 22.157C12.6686 22.5111 12.6942 22.8626 12.7468 23.2116H4.73088C5.57251 19.3179 6.14088 15.0866 6.37053 10.582L14.3197 10.582ZM21.3865 16.1836V15.1534C21.3865 14.6915 21.008 14.313 20.5461 14.313H18.9296C18.4677 14.313 18.0892 14.6915 18.0892 15.1534V16.1836C17.0564 16.4684 16.1327 17.0124 15.3911 17.7424L14.4969 17.2267C14.0966 16.9958 13.5808 17.1343 13.3486 17.5346L12.5404 18.9343C12.3094 19.3346 12.448 19.8504 12.8483 20.0826L13.7399 20.5971C13.4756 21.6145 13.4756 22.6973 13.7399 23.7147L12.8483 24.2292C12.448 24.4601 12.3094 24.9771 12.5404 25.3774L13.3486 26.7772C13.5796 27.1775 14.0966 27.316 14.4969 27.0851L15.3911 26.5693C16.1327 27.2994 17.0564 27.8446 18.0892 28.1294V29.1596C18.0892 29.6215 18.4677 30 18.9296 30H20.5461C21.008 30 21.3865 29.6215 21.3865 29.1596V28.1294C22.4193 27.8446 23.343 27.3006 24.0846 26.5706L24.9788 27.0864C25.3791 27.3173 25.8949 27.1787 26.1271 26.7784L26.9354 25.3787C27.1663 24.9784 27.0277 24.4627 26.6274 24.2305L25.7358 23.716C26.0001 22.6986 26.0001 21.6158 25.7358 20.5983L26.6274 20.0839C27.0277 19.8529 27.1663 19.3359 26.9354 18.9356L26.1271 17.5359C25.8962 17.1356 25.3791 16.997 24.9788 17.228L24.0846 17.7437C23.343 17.0137 22.4193 16.4684 21.3865 16.1849V16.1836ZM19.7379 18.0991C21.9779 18.0991 23.7948 19.9158 23.7948 22.156C23.7948 24.3961 21.9781 26.2129 19.7379 26.2129C17.4978 26.2129 15.681 24.3963 15.681 22.156C15.681 19.9159 17.4976 18.0991 19.7379 18.0991ZM19.7379 18.9741C21.4956 18.9741 22.9197 20.3982 22.9197 22.1559C22.9197 23.9136 21.4956 25.3377 19.7379 25.3377C17.9802 25.3377 16.5561 23.9136 16.5561 22.1559C16.5561 20.3982 17.9802 18.9741 19.7379 18.9741ZM1.83023 0H5.28281V3.3754H8.65821V0H12.0336V3.3754H15.409L15.4077 0H18.8603V5.01137C18.8603 5.9672 18.0777 6.74981 17.1219 6.74981H3.56837C2.61254 6.74981 1.82993 5.9672 1.82993 5.01137L1.83023 0ZM4.25377 24.0853H11.7938C11.491 24.6011 11.4654 25.2618 11.7848 25.8148L11.9888 26.1676H2.77569V25.5646C2.77569 24.7512 3.44026 24.0866 4.25368 24.0866L4.25377 24.0853ZM17.1221 7.62478V8.7384C17.1221 9.27084 16.6872 9.70576 16.1548 9.70576L4.53613 9.70704C4.00369 9.70704 3.56877 9.27212 3.56877 8.73968V7.62607H17.1223L17.1221 7.62478ZM2.43091 27.0426H12.4934L12.5935 27.2145C13.0656 28.0318 14.1189 28.3141 14.9362 27.8419L15.2813 27.6418C15.8625 28.1139 16.5155 28.4924 17.2147 28.7605V29.1582C17.2147 29.4636 17.2956 29.7497 17.4354 29.9986H0.952881V28.5206C0.952881 27.7072 1.61749 27.0426 2.43091 27.0426Z" fill="#91CDAA"/>
</svg>
