<svg width="23" height="30" viewBox="0 0 23 30" fill="none" xmlns="http://www.w3.org/2000/svg">
<g id="Group">
<path id="Vector" opacity="0.2" d="M11.8125 16.1719V5.625C11.8125 4.63044 11.4174 3.67661 10.7141 2.97335C10.0109 2.27009 9.05706 1.875 8.0625 1.875C7.06794 1.875 6.11411 2.27009 5.41085 2.97335C4.70759 3.67661 4.3125 4.63044 4.3125 5.625V16.1719C3.16595 16.9702 2.30412 18.1137 1.85243 19.4358C1.40074 20.7578 1.38278 22.1896 1.80115 23.5226C2.21953 24.8556 3.05241 26.0203 4.17857 26.8472C5.30472 27.674 6.66538 28.1199 8.0625 28.1199C9.45962 28.1199 10.8203 27.674 11.9464 26.8472C13.0726 26.0203 13.9055 24.8556 14.3238 23.5226C14.7422 22.1896 14.7243 20.7578 14.2726 19.4358C13.8209 18.1137 12.959 16.9702 11.8125 16.1719ZM8.0625 24.375C7.50624 24.375 6.96247 24.2101 6.49996 23.901C6.03745 23.592 5.67696 23.1527 5.46409 22.6388C5.25122 22.1249 5.19552 21.5594 5.30404 21.0138C5.41256 20.4682 5.68043 19.9671 6.07376 19.5738C6.4671 19.1804 6.96824 18.9126 7.51381 18.804C8.05938 18.6955 8.62488 18.7512 9.1388 18.9641C9.65271 19.177 10.092 19.5374 10.401 20C10.7101 20.4625 10.875 21.0062 10.875 21.5625C10.875 22.3084 10.5787 23.0238 10.0512 23.5512C9.52379 24.0787 8.80842 24.375 8.0625 24.375Z" fill="#F94144"/>
<path id="Vector_2" d="M18.8438 6.5625C18.1948 6.5625 17.5604 6.75494 17.0208 7.11549C16.4812 7.47604 16.0606 7.9885 15.8123 8.58807C15.5639 9.18764 15.4989 9.84739 15.6255 10.4839C15.7522 11.1204 16.0647 11.7051 16.5236 12.1639C16.9824 12.6228 17.5671 12.9353 18.2036 13.062C18.8401 13.1886 19.4999 13.1236 20.0994 12.8752C20.699 12.6269 21.2115 12.2063 21.572 11.6667C21.9326 11.1271 22.125 10.4927 22.125 9.84375C22.125 8.97351 21.7793 8.13891 21.1639 7.52356C20.5486 6.9082 19.714 6.5625 18.8438 6.5625ZM18.8438 11.25C18.5656 11.25 18.2937 11.1675 18.0625 11.013C17.8312 10.8585 17.651 10.6389 17.5445 10.3819C17.4381 10.1249 17.4103 9.84219 17.4645 9.5694C17.5188 9.29662 17.6527 9.04605 17.8494 8.84938C18.046 8.65271 18.2966 8.51878 18.5694 8.46452C18.8422 8.41026 19.1249 8.43811 19.3819 8.54454C19.6389 8.65098 19.8585 8.83122 20.013 9.06248C20.1675 9.29374 20.25 9.56562 20.25 9.84375C20.25 10.2167 20.1018 10.5744 19.8381 10.8381C19.5744 11.1018 19.2167 11.25 18.8438 11.25ZM9 17.9297V10.3125C9 10.0639 8.90123 9.8254 8.72541 9.64959C8.5496 9.47377 8.31114 9.375 8.0625 9.375C7.81386 9.375 7.5754 9.47377 7.39959 9.64959C7.22377 9.8254 7.125 10.0639 7.125 10.3125V17.9297C6.24126 18.1579 5.47107 18.7005 4.95881 19.4559C4.44655 20.2114 4.22738 21.1277 4.34239 22.0331C4.4574 22.9386 4.89868 23.771 5.58353 24.3744C6.26838 24.9777 7.14977 25.3106 8.0625 25.3106C8.97523 25.3106 9.85662 24.9777 10.5415 24.3744C11.2263 23.771 11.6676 22.9386 11.7826 22.0331C11.8976 21.1277 11.6785 20.2114 11.1662 19.4559C10.6539 18.7005 9.88374 18.1579 9 17.9297ZM8.0625 23.4375C7.69166 23.4375 7.32915 23.3275 7.02081 23.1215C6.71246 22.9155 6.47214 22.6226 6.33023 22.28C6.18831 21.9374 6.15118 21.5604 6.22353 21.1967C6.29588 20.833 6.47445 20.4989 6.73668 20.2367C6.9989 19.9745 7.33299 19.7959 7.69671 19.7235C8.06042 19.6512 8.43742 19.6883 8.78003 19.8302C9.12264 19.9721 9.41548 20.2125 9.62151 20.5208C9.82753 20.8291 9.9375 21.1917 9.9375 21.5625C9.9375 22.0598 9.73996 22.5367 9.38832 22.8883C9.03669 23.24 8.55978 23.4375 8.0625 23.4375ZM12.75 15.7031V5.625C12.75 4.3818 12.2561 3.18951 11.3771 2.31044C10.498 1.43136 9.3057 0.9375 8.0625 0.9375C6.8193 0.9375 5.62701 1.43136 4.74794 2.31044C3.86886 3.18951 3.375 4.3818 3.375 5.625V15.7031C2.16201 16.6743 1.28062 17.9982 0.852618 19.492C0.424618 20.9858 0.471146 22.5756 0.985773 24.0417C1.5004 25.5079 2.45772 26.778 3.72542 27.6766C4.99313 28.5752 6.50863 29.0578 8.0625 29.0578C9.61637 29.0578 11.1319 28.5752 12.3996 27.6766C13.6673 26.778 14.6246 25.5079 15.1392 24.0417C15.6539 22.5756 15.7004 20.9858 15.2724 19.492C14.8444 17.9982 13.963 16.6743 12.75 15.7031ZM8.0625 27.1875C6.86478 27.1876 5.69829 26.8054 4.73287 26.0965C3.76745 25.3876 3.0535 24.3891 2.69497 23.2463C2.33644 22.1035 2.35204 20.8761 2.73951 19.7428C3.12698 18.6095 3.86609 17.6294 4.84922 16.9453C4.97363 16.8584 5.07509 16.7427 5.1449 16.608C5.21471 16.4733 5.25077 16.3236 5.25 16.1719V5.625C5.25 4.87908 5.54632 4.16371 6.07376 3.63626C6.60121 3.10882 7.31658 2.8125 8.0625 2.8125C8.80842 2.8125 9.52379 3.10882 10.0512 3.63626C10.5787 4.16371 10.875 4.87908 10.875 5.625V16.1719C10.875 16.3228 10.9114 16.4715 10.9812 16.6054C11.051 16.7392 11.152 16.8542 11.2758 16.9406C12.261 17.624 13.002 18.6043 13.3908 19.7386C13.7796 20.8728 13.7958 22.1015 13.437 23.2456C13.0782 24.3897 12.3633 25.3892 11.3965 26.0983C10.4296 26.8074 9.2615 27.189 8.0625 27.1875Z" fill="#F94144"/>
</g>
</svg>
