<svg width="20" height="22" viewBox="0 0 20 22" fill="none" xmlns="http://www.w3.org/2000/svg">
<path id="Vector" fill-rule="evenodd" clip-rule="evenodd" d="M18.887 13.1507C18.9655 12.9542 19.0378 12.7574 19.1041 12.5567L18.522 12.3659C18.4604 12.5536 18.3922 12.7382 18.3188 12.922L18.887 13.1507ZM2.5404 18.1984H4.788C4.96808 18.1966 5.14605 18.2373 5.30742 18.3173C5.46879 18.3972 5.609 18.5142 5.71664 18.6585C5.83169 18.8033 5.91317 18.9719 5.95521 19.152C5.99725 19.3321 5.9988 19.5192 5.95975 19.7L5.70001 21.0054C5.65189 21.282 5.50828 21.533 5.29418 21.7147C5.08008 21.8964 4.80904 21.9973 4.52826 21.9997H2.8007C2.51994 21.9972 2.24895 21.8964 2.03489 21.7147C1.82084 21.533 1.67728 21.282 1.62922 21.0054L1.36865 19.7C1.32975 19.5192 1.33143 19.332 1.37357 19.1519C1.4157 18.9718 1.49724 18.8033 1.61231 18.6585C1.7199 18.5142 1.86002 18.3974 2.02129 18.3174C2.18255 18.2374 2.36041 18.1967 2.5404 18.1984ZM9.80767 12.3548C10.1747 12.3548 10.5334 12.4637 10.8386 12.6676C11.1438 12.8715 11.3816 13.1613 11.522 13.5004C11.6625 13.8394 11.6992 14.2125 11.6276 14.5725C11.556 14.9324 11.3793 15.2631 11.1198 15.5226C10.8603 15.7821 10.5296 15.9588 10.1697 16.0304C9.80972 16.102 9.43662 16.0653 9.09755 15.9248C8.75848 15.7844 8.46867 15.5466 8.26477 15.2414C8.06087 14.9362 7.95204 14.5775 7.95204 14.2105C7.95211 13.7184 8.14764 13.2464 8.49562 12.8984C8.8436 12.5504 9.31555 12.3549 9.80767 12.3548ZM8.40195 17.2442H11.2137C11.4388 17.2419 11.6614 17.2928 11.8632 17.3927C12.0651 17.4926 12.2405 17.6387 12.3752 17.8192C12.5193 18.0002 12.6214 18.211 12.6741 18.4363C12.7269 18.6616 12.7289 18.8958 12.6801 19.122L12.3558 20.7559C12.2955 21.102 12.1158 21.4159 11.848 21.6432C11.5802 21.8705 11.2411 21.9966 10.8899 21.9997H8.72767C8.37647 21.9966 8.03749 21.8704 7.76971 21.6431C7.50193 21.4159 7.3223 21.1019 7.26207 20.7559L6.93608 19.122C6.88726 18.8958 6.8893 18.6616 6.94203 18.4363C6.99476 18.211 7.09688 18.0002 7.241 17.8192C7.37555 17.6384 7.55088 17.4921 7.75273 17.392C7.95457 17.2919 8.17721 17.2409 8.4025 17.2431L8.40195 17.2442ZM15.9509 14.29C16.2442 14.2899 16.5311 14.3768 16.7751 14.5397C17.0191 14.7026 17.2093 14.9343 17.3216 15.2053C17.434 15.4763 17.4635 15.7745 17.4063 16.0623C17.3492 16.3501 17.208 16.6144 17.0006 16.822C16.7932 17.0295 16.5289 17.1708 16.2412 17.2281C15.9534 17.2854 15.6552 17.2561 15.3841 17.1439C15.113 17.0317 14.8813 16.8416 14.7182 16.5977C14.5552 16.3538 14.4681 16.067 14.4681 15.7736C14.468 15.5789 14.5063 15.386 14.5808 15.206C14.6553 15.026 14.7645 14.8625 14.9022 14.7247C15.0399 14.5869 15.2033 14.4776 15.3833 14.4031C15.5632 14.3285 15.7561 14.2901 15.9509 14.29ZM14.8273 18.1987H17.0749C17.2549 18.1969 17.4328 18.2377 17.5941 18.3176C17.7553 18.3976 17.8954 18.5145 18.003 18.6588C18.1181 18.8036 18.1996 18.9721 18.2418 19.1522C18.2839 19.3323 18.2856 19.5195 18.2467 19.7003L17.9864 21.0057C17.9383 21.2823 17.7947 21.5334 17.5806 21.7151C17.3665 21.8968 17.0954 21.9976 16.8146 22H15.0871C14.8063 21.9975 14.5353 21.8967 14.3213 21.715C14.1072 21.5333 13.9637 21.2823 13.9156 21.0057L13.6559 19.7003C13.6168 19.5195 13.6184 19.3323 13.6605 19.1522C13.7026 18.9721 13.7842 18.8036 13.8992 18.6588C14.0068 18.5144 14.1469 18.3975 14.3082 18.3176C14.4694 18.2376 14.6473 18.1968 14.8273 18.1987ZM3.66448 14.29C3.95789 14.2898 4.24477 14.3766 4.48885 14.5395C4.73292 14.7023 4.92322 14.9339 5.03567 15.2049C5.14811 15.4759 5.17766 15.7742 5.12058 16.062C5.06349 16.3498 4.92233 16.6142 4.71495 16.8218C4.50758 17.0293 4.2433 17.1707 3.95555 17.2281C3.6678 17.2854 3.3695 17.2562 3.09839 17.144C2.82727 17.0318 2.59552 16.8417 2.43245 16.5978C2.26938 16.3539 2.1823 16.0671 2.18225 15.7736C2.18218 15.5788 2.22049 15.3859 2.29501 15.2059C2.36952 15.0259 2.47878 14.8623 2.61653 14.7245C2.75428 14.5867 2.91783 14.4774 3.09783 14.4029C3.27783 14.3284 3.47076 14.29 3.66559 14.29H3.66448ZM11.1119 4.15839L10.9678 3.71347L10.7402 3.01407H9.27099L9.04368 3.71347L8.89926 4.15839C8.28991 4.29038 7.70932 4.53105 7.18529 4.86887L6.76781 4.65625L6.11277 4.3236L5.5919 4.84253L5.07214 5.36257L5.40478 6.01762L5.6174 6.43509C5.27933 6.95889 5.03864 7.53944 4.90692 8.14878L4.46339 8.29321L3.76233 8.51997V9.25567V9.99083L4.46228 10.2181L4.90581 10.3626C5.03773 10.972 5.2784 11.5527 5.61629 12.0768L5.40368 12.4926L5.07103 13.1482L5.5919 13.6688L6.11139 14.1877L6.76643 13.8551L7.1839 13.6428C7.24821 13.6843 7.31373 13.7245 7.38044 13.7633C7.45278 13.3717 7.61871 13.0033 7.8641 12.6896C8.10948 12.3758 8.42705 12.1261 8.78976 11.9615C8.16128 11.6794 7.65059 11.1873 7.34535 10.5697C7.04012 9.95211 6.95938 9.24753 7.11698 8.5769C7.27459 7.90627 7.66072 7.31141 8.20909 6.89443C8.75747 6.47745 9.43388 6.26436 10.1222 6.29172C10.8106 6.31908 11.468 6.58519 11.9815 7.04438C12.4951 7.50358 12.8328 8.1272 12.9366 8.80823C13.0405 9.48925 12.9041 10.1852 12.5508 10.7766C12.1975 11.368 11.6494 11.818 11.0005 12.0494C11.3492 12.2421 11.6461 12.5163 11.866 12.8486C12.0859 13.1808 12.2221 13.5614 12.2632 13.9577C12.4571 13.8644 12.645 13.7591 12.8259 13.6425L13.2417 13.8548L13.8984 14.1877L14.4185 13.6677L14.9385 13.1482L14.6058 12.4926L14.3932 12.0768C14.7305 11.5525 14.9705 10.9717 15.1018 10.3623L15.5453 10.2179L16.2447 9.99055V8.51997L15.5453 8.29321L15.1018 8.14878C14.97 7.53944 14.7294 6.95889 14.3913 6.43509L14.6039 6.01762L14.9366 5.36257L14.4165 4.84253L13.8965 4.32249L13.2409 4.65514L12.8251 4.86721C12.301 4.52965 11.7204 4.28918 11.1111 4.15728L11.1119 4.15839ZM19.5132 10.7052C19.5376 10.4956 19.5548 10.2863 19.5667 10.0757L18.955 10.0443C18.9444 10.2417 18.9272 10.4377 18.9042 10.6345L19.5141 10.7052H19.5132ZM19.4803 8.1826L19.4694 8.11053L19.46 8.05093L19.4509 7.99161L19.4403 7.93256L19.4301 7.87379L19.4193 7.81475L19.4085 7.75598L19.3974 7.69749L19.3849 7.63845L19.3683 7.55889L18.7701 7.68973L18.7853 7.76125L18.7961 7.81669L18.8069 7.87213L18.8175 7.92757L18.8272 7.98301L18.8369 8.03846L18.8463 8.0939L18.8552 8.14934L18.864 8.20478L18.8743 8.27353L19.4803 8.18454V8.1826ZM18.7903 5.75427L18.7579 5.68081L18.7337 5.62758L18.7096 5.57464L18.6852 5.52197L18.6606 5.46902L18.6356 5.41691L18.6101 5.36451L18.5846 5.3124L18.5585 5.26084L18.5186 5.18267L17.975 5.46514L18.0116 5.53666L18.036 5.58489L18.0601 5.63396L18.0837 5.68275L18.1073 5.73181L18.1303 5.78088L18.153 5.8305L18.1754 5.88012L18.1982 5.92974L18.2289 5.99987L18.7903 5.75427ZM17.4874 3.59205L17.4666 3.56599L17.43 3.52136L17.3937 3.47729L17.3569 3.43238L17.32 3.38886L17.2828 3.34506L17.2454 3.30154L17.2077 3.25829L17.1695 3.21505L17.1315 3.17236L17.076 3.11137L16.6253 3.52718L16.6752 3.58263L16.7112 3.62282L16.7464 3.66329L16.7819 3.70404L16.8169 3.74479L16.8515 3.78554L16.8864 3.82685L16.9208 3.86815L16.9552 3.90973L16.989 3.95159L17.0101 3.97792L17.4869 3.59344L17.4874 3.59205ZM15.6673 1.84565L15.5949 1.79325L15.5484 1.75971L15.5012 1.72645L15.4541 1.69346L15.407 1.66047L15.3587 1.62804L15.3111 1.59616L15.2631 1.56428L15.2149 1.53268L15.1453 1.48805L14.8176 2.00587L14.8811 2.04634L14.9266 2.076L14.9715 2.10594L15.0161 2.13588L15.0607 2.16637L15.1054 2.19687L15.1492 2.22764L15.1932 2.25868L15.237 2.29001L15.3063 2.34018L15.6667 1.84565H15.6673ZM13.4529 0.63231L13.4066 0.614846L13.3512 0.594055L13.2958 0.574096L13.2403 0.55386L13.1874 0.534733L13.1319 0.515606L13.0765 0.496478L13.0211 0.477905L12.9656 0.45961L12.9102 0.441591L12.8583 0.425236L12.6765 1.01014L12.7247 1.02484L12.7771 1.04202L12.8292 1.05921L12.8813 1.0764L12.9335 1.09469L12.9853 1.11243L13.0371 1.13101L13.0884 1.14958L13.1397 1.16815L13.1913 1.18783L13.2367 1.20557L13.4549 0.632864L13.4529 0.63231ZM10.9997 0.0435216L10.9229 0.0363142L10.8624 0.0304928L10.8017 0.0255031L10.7413 0.0224539L10.6803 0.0180185L10.6196 0.0141376L10.5586 0.0102567L10.4985 0.00554427L10.4378 0.00249495L10.369 0L10.3493 0.611796L10.4103 0.614846L10.4677 0.617341L10.5251 0.620667L10.5822 0.624271L10.6376 0.627597L10.695 0.632033L10.7504 0.636468L10.8076 0.641458L10.863 0.64617L10.9359 0.653655L10.9977 0.0437989L10.9997 0.0435216ZM8.47707 0.114487L8.42884 0.121694L8.36952 0.133337L8.31047 0.143871L8.2517 0.154127L8.19266 0.165216L8.13417 0.176581L8.07568 0.188778L8.01746 0.200975L7.95897 0.213173L7.90104 0.226478L7.85641 0.236181L7.99501 0.833562L8.03576 0.824137L8.0912 0.81194L8.14664 0.80002L8.20208 0.788932L8.25752 0.777844L8.31297 0.76731L8.36841 0.756776L8.42385 0.747074L8.47929 0.737371L8.53473 0.727946L8.58269 0.720184L8.48262 0.11615L8.47707 0.114487ZM6.05955 0.841047L6.01187 0.862669L5.9592 0.887341L5.90681 0.911735L5.85414 0.936961L5.80174 0.962464L5.74963 0.987967L5.69807 1.01402L5.64596 1.04174L5.59439 1.06947L5.54339 1.09719L5.49377 1.12324L5.78317 1.66324L5.82919 1.63885L5.87742 1.61335L5.92538 1.58867L5.97417 1.564L6.02212 1.53961L6.07119 1.51549L6.11998 1.49193L6.16904 1.46837L6.21811 1.44508L6.26773 1.42207L6.31541 1.40045L6.05955 0.844096V0.841047ZM3.91951 2.17552L4.30926 2.64678L4.26324 2.68503L4.22194 2.7194L4.18064 2.75405L4.14044 2.78954L4.09969 2.82502L4.0595 2.86022L4.01903 2.89598L3.97939 2.93258L3.93974 2.96834L3.90038 3.0052L3.8649 3.03791L3.44493 2.59216L3.48291 2.55668L3.52504 2.5176L3.56746 2.47934L3.61014 2.44053L3.65283 2.402L3.69608 2.3643L3.73932 2.3266L3.78284 2.28918L3.82664 2.25175L3.87044 2.21516L3.91951 2.17441V2.17552ZM2.19916 4.02117L2.16395 4.0719L2.13097 4.11902L2.09798 4.16615L2.06555 4.21383L2.03367 4.26178L2.00179 4.31002L1.97046 4.35825L1.93914 4.40676L1.90809 4.45555L1.8776 4.50406L1.84988 4.54869L2.37075 4.86998L2.39681 4.82867L2.42453 4.78293L2.45391 4.7372L2.48302 4.69173L2.5124 4.64683L2.54234 4.60164L2.57228 4.55646L2.60277 4.51238L2.63327 4.46775L2.66431 4.4234L2.69758 4.37627L2.19861 4.02117H2.19916ZM1.01798 6.2538L0.990259 6.33141L0.970577 6.38686L0.951173 6.4423L0.932323 6.49774L0.91375 6.55318L0.895454 6.60862L0.877436 6.66406L0.859694 6.7195L0.841953 6.77494L0.819499 6.85256L1.40718 7.0236L1.42825 6.95319L1.4446 6.9008L1.46123 6.84813L1.47787 6.79574L1.49505 6.74362L1.51224 6.69151L1.53054 6.63939L1.54828 6.58783L1.56685 6.53572L1.59457 6.46226L1.01937 6.25158L1.01798 6.2538ZM0.46606 8.71734L0.461625 8.77084L0.456635 8.83182L0.452477 8.89281L0.448319 8.95352L0.444438 9.0145L0.441111 9.07604L0.438617 9.13675L0.435844 9.19801V9.25955L0.43335 9.34854L1.0457 9.36018L1.0482 9.27924L1.05014 9.22185L1.05263 9.16419L1.05513 9.10681L1.05845 9.04943L1.0615 8.99233L1.06538 8.9355L1.06982 8.87839L1.07425 8.82295L1.07869 8.76945L0.468832 8.71872L0.46606 8.71734ZM0.573616 11.2366C0.610485 11.4448 0.654284 11.651 0.703627 11.8559L1.29907 11.7101C1.25222 11.518 1.21092 11.325 1.1771 11.1304L0.573616 11.2366ZM1.33677 13.6428C1.42658 13.8337 1.52268 14.0214 1.62506 14.206L2.16063 13.9086C2.06499 13.7356 1.97462 13.5604 1.89063 13.3819L1.33677 13.6428Z" fill="white"/>
</svg>
