<svg width="75" height="65" viewBox="0 0 75 65" fill="none" xmlns="http://www.w3.org/2000/svg">
<g id="Upload icon">
<path id="Vector" d="M38.4487 14.9736C38.2988 15.476 38.585 16.0039 39.0871 16.1536L39.1867 16.1834L39.191 16.1784C39.6619 16.2635 40.1289 15.9815 40.2672 15.5145C41.5281 11.278 45.5003 8.31839 49.9259 8.31839C50.4498 8.31839 50.8748 7.89343 50.8748 7.3695C50.8748 6.84554 50.4498 6.42061 49.9259 6.42061C44.4869 6.42061 39.9163 10.0419 38.4487 14.9736ZM38.4487 14.9736L38.6033 15.0197M38.4487 14.9736C38.4486 14.9736 38.4486 14.9736 38.4486 14.9737L38.6033 15.0197M38.6033 15.0197C38.479 15.4365 38.7164 15.8747 39.1332 15.999L38.6033 15.0197Z" fill="#0E6E36" stroke="#EFF9F0" stroke-width="0.322847"/>
<path id="Vector_2" d="M60.9511 45.955H56.2264C55.7916 45.955 55.4389 45.6024 55.4389 45.1676C55.4389 44.7328 55.7916 44.3801 56.2264 44.3801H60.9511C67.4638 44.3801 72.7629 39.081 72.7629 32.5683C72.7629 26.0555 67.4638 20.7564 60.9511 20.7564H60.8374C60.6091 20.7564 60.392 20.6574 60.2424 20.4848C60.0927 20.3121 60.0252 20.0831 60.0579 19.857C60.1282 19.3666 60.1636 18.8738 60.1636 18.3941C60.1636 12.7497 55.571 8.15708 49.9266 8.15708C47.7307 8.15708 45.6367 8.8433 43.8705 10.142C43.4823 10.4272 42.9311 10.3006 42.7067 9.87372C37.7047 0.348914 24.64 -0.930171 17.8666 7.35558C15.0132 10.8462 13.8921 15.387 14.7905 19.8126C14.8895 20.3014 14.5154 20.757 14.0188 20.757H13.7032C7.19046 20.757 1.89139 26.0561 1.89139 32.5689C1.89139 39.0816 7.19046 44.3807 13.7032 44.3807H18.4279C18.8627 44.3807 19.2154 44.7334 19.2154 45.1682C19.2154 45.603 18.8627 45.9556 18.4279 45.9556H13.7032C6.3219 45.9556 0.316406 39.9501 0.316406 32.5688C0.316406 25.3945 5.98942 19.5201 13.0851 19.1961C12.4185 14.6046 13.6931 9.97325 16.6472 6.35889C23.899 -2.51291 37.7967 -1.51849 43.6716 8.37421C45.5458 7.1992 47.6905 6.5828 49.9264 6.5828C56.7649 6.5828 62.1837 12.4033 61.7095 19.2034C68.7398 19.5977 74.3375 25.4412 74.3375 32.5682C74.3375 39.9501 68.332 45.9551 60.9507 45.9551L60.9511 45.955Z" fill="#0E6E36"/>
<path id="Vector_3" d="M17.3737 44.7228C17.3737 55.6672 26.2775 64.5708 37.2218 64.5708C48.1662 64.5708 57.0698 55.6671 57.0698 44.7228C57.0698 33.7783 48.1662 24.8747 37.2218 24.8747C26.2773 24.8747 17.3737 33.7785 17.3737 44.7228ZM19.2719 44.7228C19.2719 34.8255 27.3244 26.7728 37.2218 26.7728C47.1191 26.7728 55.1717 34.8253 55.1717 44.7228C55.1717 54.6201 47.1191 62.6727 37.2218 62.6727C27.3245 62.6727 19.2719 54.6202 19.2719 44.7228Z" fill="#0E6E36" stroke="#EFF9F0" stroke-width="0.322847"/>
<g id="arrow">
<path id="Vector_4" d="M36.8464 52.6479C36.8464 53.0553 37.1769 53.3858 37.5843 53.3858C37.9917 53.3858 38.3223 53.0558 38.3223 52.6479V37.6585C38.3223 37.2511 37.9918 36.9206 37.5843 36.9206C37.1768 36.9206 36.8464 37.2511 36.8464 37.6585V52.6479Z" fill="#0E6E36" stroke="#F9FDFA" stroke-width="0.322847"/>
<path id="Vector_5" d="M37.5832 38.7037L33.4931 42.7938C33.2051 43.0823 32.7375 43.0822 32.4493 42.7939C32.161 42.5056 32.161 42.0386 32.4493 41.7503L37.0612 37.1384L37.5832 38.7037ZM37.5832 38.7037L41.6734 42.7939C41.8173 42.9378 42.0067 43.01 42.1952 43.01L37.5832 38.7037ZM42.1952 43.01C42.3834 43.01 42.5729 42.9385 42.7171 42.7939L42.1952 43.01Z" fill="#0E6E36" stroke="#F9FDFA" stroke-width="0.322847"/>
</g>
</g>
</svg>
