<svg width="166" height="44" viewBox="0 0 166 44" fill="none" xmlns="http://www.w3.org/2000/svg">
<g clip-path="url(#clip0_1630_48851)">
<path d="M44 22C44 34.1503 34.1503 44 22 44C9.84974 44 0 34.1503 0 22C0 9.84974 9.84974 0 22 0C34.1503 0 44 9.84974 44 22Z" fill="#2CA55E"/>
<path d="M31.625 19.8434H25.5664C25.5234 19.3249 25.4089 18.8546 25.2227 18.4325C25.0436 18.0103 24.793 17.6474 24.4707 17.3437C24.1556 17.0326 23.7725 16.7956 23.3213 16.6327C22.8701 16.4623 22.3581 16.3771 21.7852 16.3771C20.7826 16.3771 19.9339 16.629 19.2393 17.1326C18.5518 17.6362 18.029 18.3584 17.6709 19.299C17.32 20.2396 17.1445 21.3691 17.1445 22.6875C17.1445 24.0799 17.3236 25.2465 17.6816 26.1871C18.0469 27.1203 18.5732 27.8239 19.2607 28.2979C19.9482 28.7646 20.7754 28.9979 21.7422 28.9979C22.2936 28.9979 22.7878 28.9275 23.2246 28.7868C23.6615 28.6386 24.041 28.4276 24.3633 28.1535C24.6855 27.8795 24.9469 27.5499 25.1475 27.1647C25.3551 26.7722 25.4948 26.3315 25.5664 25.8427L31.625 25.8871C31.5534 26.85 31.292 27.8313 30.8408 28.8312C30.3896 29.8237 29.7487 30.7421 28.918 31.5864C28.0944 32.4234 27.0739 33.0974 25.8564 33.6084C24.639 34.1195 23.2246 34.375 21.6133 34.375C19.5937 34.375 17.7819 33.9269 16.1777 33.0307C14.5807 32.1345 13.3167 30.8162 12.3857 29.0756C11.4619 27.3351 11 25.2057 11 22.6875C11 20.1545 11.4727 18.0214 12.418 16.2883C13.3633 14.5477 14.638 13.2331 16.2422 12.3443C17.8464 11.4481 19.6367 11 21.6133 11C23.0026 11 24.2809 11.1963 25.4482 11.5888C26.6156 11.9814 27.6396 12.5554 28.5205 13.3108C29.4014 14.0589 30.1104 14.981 30.6475 16.0772C31.1846 17.1733 31.5104 18.4287 31.625 19.8434Z" fill="white"/>
<path d="M161.207 31.9361C159.801 31.9361 158.567 31.6447 157.503 31.062C156.458 30.4793 155.647 29.6508 155.07 28.5764C154.493 27.4839 154.205 26.191 154.205 24.6979C154.205 23.2047 154.493 21.93 155.07 20.8739C155.665 19.8177 156.485 19.0074 157.53 18.4429C158.576 17.8784 159.801 17.5962 161.207 17.5962C162.108 17.5962 162.982 17.7419 163.829 18.0332C164.694 18.3064 165.397 18.707 165.938 19.235L164.91 21.6114C164.424 21.1561 163.874 20.8193 163.261 20.6007C162.667 20.364 162.081 20.2457 161.504 20.2457C160.297 20.2457 159.35 20.6281 158.666 21.3928C157.999 22.1576 157.665 23.2684 157.665 24.7252C157.665 26.1819 157.999 27.3018 158.666 28.0848C159.35 28.8678 160.297 29.2593 161.504 29.2593C162.063 29.2593 162.64 29.15 163.234 28.9315C163.847 28.713 164.406 28.3761 164.91 27.9209L165.938 30.2699C165.379 30.798 164.667 31.2077 163.802 31.4991C162.955 31.7904 162.09 31.9361 161.207 31.9361Z" fill="#2CA55E"/>
<path d="M148.054 31.7315V18.1927H151.405V31.7315H148.054ZM147.866 15.6458V12.375H151.593V15.6458H147.866Z" fill="#2CA55E"/>
<path d="M136.938 31.7319V21.6516C136.938 21.0796 136.92 20.4988 136.885 19.909C136.867 19.3191 136.822 18.7472 136.75 18.1931H139.994L140.37 21.8929H139.834C140.012 20.9992 140.307 20.2575 140.718 19.6677C141.147 19.0779 141.666 18.64 142.273 18.354C142.881 18.068 143.542 17.925 144.257 17.925C144.579 17.925 144.838 17.9429 145.035 17.9787C145.231 17.9965 145.428 18.0412 145.624 18.1127L145.598 21.0618C145.258 20.9188 144.963 20.8294 144.713 20.7937C144.481 20.7579 144.186 20.74 143.828 20.74C143.06 20.74 142.407 20.9009 141.871 21.2226C141.353 21.5443 140.96 21.9912 140.691 22.5631C140.441 23.135 140.316 23.7874 140.316 24.5202V31.7319H136.938Z" fill="#2CA55E"/>
<path d="M132.033 31.9997C130.425 31.9997 129.209 31.5797 128.387 30.7396C127.565 29.8996 127.154 28.6396 127.154 26.9595V20.7129H124.553V18.1928H127.154V14.7344L130.505 13.8765V18.1928H134.124V20.7129H130.505V26.745C130.505 27.6744 130.684 28.3268 131.041 28.7021C131.399 29.0774 131.89 29.2651 132.516 29.2651C132.855 29.2651 133.141 29.2383 133.374 29.1847C133.624 29.1311 133.865 29.0596 134.098 28.9702V31.6243C133.794 31.7495 133.454 31.8388 133.079 31.8924C132.721 31.9639 132.373 31.9997 132.033 31.9997Z" fill="#2CA55E"/>
<path d="M114.281 32C113.101 32 112.064 31.723 111.171 31.1689C110.277 30.597 109.58 29.7838 109.08 28.7293C108.579 27.6748 108.329 26.4147 108.329 24.9491C108.329 23.4836 108.579 22.2324 109.08 21.1958C109.58 20.1413 110.277 19.337 111.171 18.783C112.064 18.211 113.101 17.925 114.281 17.925C115.424 17.925 116.425 18.211 117.283 18.783C118.159 19.337 118.74 20.0877 119.026 21.035H118.731L119.026 18.1931H122.243C122.189 18.7472 122.136 19.3102 122.082 19.8821C122.046 20.4541 122.029 21.0171 122.029 21.5711V31.7319H118.704L118.677 28.9438H118.999C118.713 29.8731 118.132 30.6149 117.256 31.1689C116.381 31.723 115.389 32 114.281 32ZM115.219 29.4263C116.273 29.4263 117.122 29.0599 117.766 28.3271C118.409 27.5765 118.731 26.4505 118.731 24.9491C118.731 23.4478 118.409 22.3307 117.766 21.598C117.122 20.8652 116.273 20.4988 115.219 20.4988C114.164 20.4988 113.315 20.8652 112.672 21.598C112.029 22.3307 111.707 23.4478 111.707 24.9491C111.707 26.4505 112.02 27.5765 112.645 28.3271C113.289 29.0599 114.147 29.4263 115.219 29.4263Z" fill="#2CA55E"/>
<path d="M84.3754 31.7319V21.5711C84.3754 21.0171 84.3575 20.4541 84.3217 19.8821C84.286 19.3102 84.2324 18.7472 84.1609 18.1931H87.4048L87.6729 20.8741H87.3512C87.7266 19.9447 88.2985 19.2208 89.067 18.7025C89.8534 18.1842 90.7828 17.925 91.8552 17.925C92.9276 17.925 93.8123 18.1842 94.5094 18.7025C95.2243 19.203 95.7247 19.9894 96.0107 21.0618H95.5817C95.9571 20.0966 96.5737 19.337 97.4316 18.783C98.2895 18.211 99.2725 17.925 100.381 17.925C101.9 17.925 103.035 18.3719 103.785 19.2655C104.536 20.1592 104.911 21.5533 104.911 23.4478V31.7319H101.56V23.5819C101.56 22.5095 101.382 21.7409 101.024 21.2762C100.667 20.7937 100.095 20.5524 99.3083 20.5524C98.3789 20.5524 97.6461 20.883 97.1099 21.5443C96.5737 22.1878 96.3056 23.0635 96.3056 24.1717V31.7319H92.9544V23.5819C92.9544 22.5095 92.7757 21.7409 92.4182 21.2762C92.0608 20.7937 91.4888 20.5524 90.7024 20.5524C89.773 20.5524 89.0402 20.883 88.504 21.5443C87.9857 22.1878 87.7266 23.0635 87.7266 24.1717V31.7319H84.3754Z" fill="#2CA55E"/>
<path d="M76.8207 31.7315V18.1927H80.1719V31.7315H76.8207ZM76.6331 15.6458V12.375H80.3596V15.6458H76.6331Z" fill="#2CA55E"/>
<path d="M69.2659 31.7318V12H72.6171V31.7318H69.2659Z" fill="#2CA55E"/>
<path d="M59.4101 31.9996C57.4441 31.9996 55.7551 31.6064 54.3431 30.82C52.949 30.0157 51.8767 28.8897 51.126 27.442C50.3753 25.9764 50 24.2517 50 22.2678C50 20.2839 50.3753 18.5681 51.126 17.1204C51.8767 15.6726 52.949 14.5556 54.3431 13.7692C55.7551 12.9649 57.4441 12.5627 59.4101 12.5627C60.7327 12.5627 61.9213 12.7504 62.9758 13.1257C64.0482 13.5011 64.9686 14.0551 65.7372 14.7879L64.6112 17.5225C63.7711 16.8433 62.9579 16.3608 62.1715 16.0748C61.403 15.7709 60.5183 15.619 59.5174 15.619C57.605 15.619 56.1394 16.1999 55.1206 17.3616C54.1197 18.5055 53.6193 20.1409 53.6193 22.2678C53.6193 24.3947 54.1197 26.039 55.1206 27.2007C56.1394 28.3625 57.605 28.9433 59.5174 28.9433C60.5183 28.9433 61.403 28.8004 62.1715 28.5144C62.9579 28.2106 63.7711 27.7101 64.6112 27.0131L65.7372 29.7476C64.9686 30.4625 64.0482 31.0166 62.9758 31.4098C61.9213 31.803 60.7327 31.9996 59.4101 31.9996Z" fill="#2CA55E"/>
</g>
<defs>
<clipPath id="clip0_1630_48851">
<rect width="165.938" height="44" fill="white"/>
</clipPath>
</defs>
</svg>
